<?xml version="1.0" encoding="utf-8"?>
<!-- Generator: Adobe Illustrator 16.0.0, SVG Export Plug-In . SVG Version: 6.00 Build 0)  -->
<!DOCTYPE svg PUBLIC "-//W3C//DTD SVG 1.1//EN" "http://www.w3.org/Graphics/SVG/1.1/DTD/svg11.dtd">
<svg version="1.1" xmlns="http://www.w3.org/2000/svg" xmlns:xlink="http://www.w3.org/1999/xlink" x="0px" y="0px" width="512px"
	 height="512px" viewBox="0 0 512 512" enable-background="new 0 0 512 512" xml:space="preserve">
<symbol  id="Grime_Vector_Pack_11" viewBox="-80.279 -88.668 160.559 177.335">
	<path fill="#191919" d="M-11.359,86.787c0.564,2.686-4.078,2.322-2.6,0C-12.52,86.941-12.343,86.34-11.359,86.787z M-12.659,68.268
		c1.379-0.395,2.774-0.465,1.95-2.274c1.656,0.381,3.266-0.707,4.549-1.623c2.364,0.57,3.775,0.108,5.524-0.65
		c0.728,2.738,3.435,3.496,5.522,4.875c-0.553,1.566-0.17,2.888,1.302,3.248c0.442,3.172-1.938,4.439-0.649,7.474
		c-3.274,0.731-4.267,3.748-6.825,5.198c-0.259-0.717-0.651-1.297-1.624-1.301c-0.881,0.203-0.81,1.357-1.95,1.301
		c-0.438-1.528-2.152-1.948-3.899-1.301c-1-2.248-2.716-3.781-4.874-4.873c1.692-1.529-0.144-3.85-0.976-4.873
		C-13.953,71.324-12.383,70.855-12.659,68.268z M42.584,77.689c3.031-0.925,5.69,1.207,5.85,4.225
		c-2.614,0.529-5.599-1.021-6.174-3.574C42.513,78.268,42.637,78.068,42.584,77.689z M71.831,65.018c0.07,1.189,0.446,1.248,0,2.275
		c-1.803,0.002-2.732,1.736-4.55,2.273c-1.75,0.52-3.979-0.298-5.199,1.301c-0.585-1.248-1.966-1.57-3.574-0.978
		c-0.437-2.7-3.765-2.518-3.575-5.848c-0.565,0.025-1.01-0.072-1.299-0.324c-0.243-1,0.891-0.625,0.649-1.625
		c-0.286-0.903-1.612-0.771-1.624-1.949c1.931-0.666,2.016-3.182,2.599-5.196c1.959-0.752,2.494-2.922,4.55-3.576
		c-2.602-0.973-4.785-2.363-4.875-5.848c7.046-3.49,7.467,8.37,14.948,6.498c1.487,3.405,5.06,6.411,2.924,10.723
		c0.407,0.785,1.64,0.744,1.625,1.949C73.654,64.891,72.073,64.285,71.831,65.018z M-48.729,29.602
		c-1.851,0.425-3.375,1.176-5.199,1.625C-53.849,29.243-50.017,29.297-48.729,29.602z M76.705,2.958
		c0.895-1.162,3.566-0.659,3.575,0.976C79.54,5.622,76.66,4.809,76.705,2.958z M-34.755-51.953
		c-1.392,0.201-1.326-1.059-2.601-0.975c-1.527,0.528-1.654,2.461-2.273,3.897c-1.326,0.242-1.12-1.047-2.601-0.649
		c-0.968,0.44-1.349,1.469-1.95,2.274c-2.979-0.594-3.641,1.125-5.2,1.949c-0.569-0.514-0.673-1.492-1.624-1.625
		c-3.107,1.297-3.472-2.787-6.824-1.299c-1.073-3.707-3.937-5.803-8.124-5.523c-0.116-1.957,2.195-1.485,2.6-2.926
		c0.565-2.838-1.034-3.516-1.301-5.521c1.084-1.82,1.884-4.49,2.276-7.8c1.681,0.056,1.978-1.271,2.6-2.274
		c1.731,0.217,2.844-0.188,3.248-1.299c0.355-1.765-0.655-2.16-0.649-3.574c1.537,0.738,2.742,1.809,4.875,1.949
		c1.434-1.056,2.383-2.601,5.523-1.949c0.177,1.014,0.774,1.608,1.625,1.949c0.991-0.416,0.87-1.945,2.275-1.949
		c1.078,0.646-0.532,3.688,1.624,3.897c1.363,0.062,1.005-1.594,2.6-1.299c0.355,1.488,0.355,2.086,0,3.574
		c2.136,1.318,2.61-1.604,3.9-0.975c-0.007,1.401-1.62,1.196-1.625,2.6c1.481,2.002-0.482,5.826,1.625,7.473
		c1.443,0.724,6.133-0.991,8.124,0.65C-33.159-63.166-38.334-57.393-34.755-51.953z M39.011-51.303
		c1.621-2.359,4.191-0.734,7.799-1.301C45.892-50.502,41.521-50.807,39.011-51.303z M-26.631-64.299
		c2.291-0.418,4.69-0.728,7.148-0.978C-20.461-63.758-24.718-63.803-26.631-64.299z M-75.701-73.398
		c-1.247,2.438-4.28,0.527-4.548-1.299c-0.337-2.285,2.23-2.887,2.274-4.873c4.292-1.401,3.948,3.859,5.85,5.849
		c-0.169,0.479-0.481,0.819-0.651,1.301C-74.313-72.186-74.912-72.887-75.701-73.398z M36.735-78.271
		c0.076-1.848,3.286-2.018,4.225-1.95C40.394-78.729,38.421-78.645,36.735-78.271z M25.688-88.668
		c-0.657,2.809-1.662,5.271-3.25,7.148C23.064-84.359,24.177-86.711,25.688-88.668z M58.183,40.648v1.301
		c-1.812,0.586-1.525,0.354-3.25-0.65c-1.218,0.916-2.089,0.217-3.249,0.978c-0.548-1.402-1.473-2.429-3.898-1.951
		c-1.134-2.691-4.242-4.666-4.226-8.123c0.009-1.818,1.902-3.619,0.65-5.198c-5.38,5.653-18.113-0.312-24.697,1.624
		c0.834,2.523,2.077,4.639,2.924,7.148c1.207,0.321,2.654,1.729,1.625,3.25c-4.363-1.484-4.252-7.445-8.773-8.774
		c-1.759,1.97-3.728,2.524-5.851,4.55c-0.236,4.771-2.512,7.111-4.224,10.072C4.507,46.099,4.775,47.819,2.94,47.8
		c-0.183-0.469-0.508-0.795-0.974-0.975c-0.257-1.881,0.903-2.347,0.648-4.228c-3.344-1.821-8.99,0.5-12.673,2.275
		c-0.395-2.021,0.737-2.512,0.65-4.225c-3.393-1.726-5.53,0.774-8.774-0.648c-1.789,1.133-2.468,3.381-4.875,3.898
		c-2.167,1.842-2.474,5.541-5.199,6.823c-0.08-2.221,1.003-2.469,1.95-3.897c1.078-1.631,2.118-4.455,3.249-5.853
		c1.478-1.817,3.374-2.434,3.25-4.223c-0.168-2.455-3.034-2.584-5.2-3.9c-2.028-8.997-12.297-6.226-19.497-3.897
		c4.203-2.188,9.697-3.083,13.324-5.85c-2.407-1.925-4.667-3.996-6.174-6.821c-1.912,0.146-2.395,1.723-4.875,1.299
		c-0.285-1.8,1.753-1.278,2.275-2.273c-5.042-1.162-7.106,3.239-12.673,2.273c-0.078,0.464-0.536,0.549-0.65,0.977
		c-0.214,1.188,0.702,1.246,0.65,2.272c-1.436,1.079-2.559,2.621-2.273,4.549c-2.302,1.059-4.258,2.459-4.551,5.524
		c-1.591,0.292-0.877-1.723-2.599-1.3c-0.876,2.702-2.485,0.89-4.875,1.95c-0.381-0.485-0.405-1.33-0.974-1.626
		c-3.51,0.8-3.528-1.888-5.525-2.6c-2.208,0.824-3.254,2.607-5.85,1.624c0.09-1.75,3.061-0.622,3.574-1.948
		c-1.188-3.035-2.044-6.405-3.574-9.098c1.347-0.854,2.134-2.767,1.3-4.874c2.015-1.854,4.057-4.019,4.875-6.174
		c1.188-0.215,1.246,0.703,2.273,0.648c1.02-0.715,2.017-1.449,2.276-2.925c3.165,1.703,6.688,1.538,10.073,2.275
		c0.541,0.434,0.109,1.841,0.65,2.273c1.003,0.08,1.837,0.329,2.6,0.65c0.83,0.413-0.302,1.591,0.326,1.624
		c4.454-0.604,11.457,0.05,14.946-2.925c1.017-3.495,1.757-6.961,0-10.396c-0.565-0.402-2.158,0.248-3.575,0
		c-0.831,0.253-0.551,1.615-1.625,1.624c-5.681-1.034-9.595-3.837-11.375-8.772c0.339-1.721,0.636-3.481,0.651-5.522
		c1.549-3.215,5.018-4.514,7.148-7.148c0.661,1.315,3.109,1.105,4.225,0.325c3.654,1.869,7.241,3.809,8.449,8.122
		c4.869-0.005,5.027-4.72,8.124-6.497c-0.885-4.854-2.372-9.109-3.575-13.647c2.394,1.922,3.288,5.897,3.899,10.397
		c1.35,0.383,2.276,1.19,3.575,1.625c0.82-0.805,2.198-1.051,2.275-2.6c0.027-1.22-1.19-1.193-1.301-2.275
		c3.778,0.416,9.854,0.771,9.425-5.197c1.864-0.563,1.225,1.375,2.599,1.3c3.085-2.248,3.765-11.49,1.951-14.621
		c-1.946,2.422-1.686,6.256-5.525,5.848c-3.805-0.404-4.524-5.885-1.949-9.096c3.324-1.104,6.289-3.224,8.124,0.647
		c3.437-3.026,1.27-10.377-1.95-12.346c-1.331-0.295-2.629-0.621-2.924-1.949c0.253-0.074,0.377-0.272,0.324-0.649
		c1.167-0.677,3.515-0.171,5.199-0.326c0.887-1.605,2.159-2.824,2.275-5.197c-0.906-1.051-3.663-1.961-2.924-3.574
		c0.854,1.656,4.393,2.14,6.174,0.976c0.128-1.172,0.421-2.181,0.65-3.25c2.343-0.871,4.2-2.972,7.149-2.273
		c0.84-1.002,0.439-3.244,1.624-3.9c1.881-0.147,1.306,2.16,3.249,1.951c0.76-0.975-0.329-3.797,1.626-3.573
		c1.311,0.42,0.721,2.741,1.625,3.573c2.716,0.713,4.299-0.059,6.823,0c0.381-0.485,0.403-1.33,0.976-1.625
		c0.193,0.578-0.953,1.349,0,1.625c1.361-0.047,1.449-1.367,3.249-0.977c-0.03,1.391-0.651,2.381,0,3.574
		c6.24,0.366,6.843,6.373,10.074,9.748c3.977,0.725,6.629-1.601,9.099-1.302c-1.152,0.689-3.001,0.685-3.575,1.951
		c0.684,0.865,2.377,1.224,1.624,2.601c-2.069,0.118-2.712-1.188-3.898-1.949c-1.033,0.697-3.106,0.356-3.573,1.623
		c-0.373,2.432,1.093,3.022,1.949,4.225c-0.254,1.586-1.351,2.332-1.301,4.224c0.224,1.295,2.375,0.659,2.275,2.274
		c-0.086,1.322-2.123,0.693-2.924,1.301c-0.412,2.375,0.169,2.621,0.324,4.873c-2.195,0.621-4.146,1.486-3.9,4.547
		c-2.553,0.373-4.786,1.064-4.549,4.226c-0.589,0.817-2.135,0.684-2.6,1.625c0.374,0.104,1.118,1.418,0.324,1.625
		c-0.725-1.969-4.468-0.512-5.523,0.324c-1.27-0.246-1.265-1.771-2.926-1.623c-0.14,0.616-0.699,0.815-0.649,1.623
		c2.258,1.534,6.708,0.875,9.099,2.274c-0.022,3.482-1.663,6.926,0.326,10.397c0.325-0.001,0.385,0.263,0.648,0.325
		c0.525-0.56,1.359-0.809,2.601-0.65c2.843-4.043,7.83-4.133,11.698-6.824c-2.079,3.781-10.946,3.562-9.748,11.698
		c-2.125,0.499-1.682-2.936-3.25-1.948c0.731,2.626,3.578,3.136,4.874,5.197c7.853,2.273,12.952-4.885,20.473-2.273
		C53.876-6.266,37.659-8.12,37.061-1.59c-0.37,4.041,3.272,2.797,5.85,3.897c-0.79,2.579-4.645,0.58-5.85,2.273
		c-0.145,2.854,2.628,2.788,4.224,3.9c-0.526,3.168,2.012,3.397,3.251,5.522c-0.787,1.704-3.795,1.188-4.226,3.248
		c1.77,2.572,4.311,8.07,8.449,5.2c1.86,1.497,3.14-0.049,4.55-1.3c1.159,1.446,2.438,0.689,4.226,0.323
		c2.16,2.808,7.394,4.951,5.523,9.748c0.108,1.3,1.344,1.472,1.3,2.927C61.979,35.998,61.703,39.945,58.183,40.648z M6.839-33.758
		c0.993,0.313,3.037,0.11,2.925-1.625C8.575-36.168,7.027-35.004,6.839-33.758z M28.287-18.16c1.517-0.542,1.5-2.617,2.273-3.898
		C28.961-21.656,26.598-19.849,28.287-18.16z M-14.608-35.381c-2.471-1.539-5.849-3.898-6.824-5.851
		C-19.047-39.393-16.223-37.992-14.608-35.381z M-25.982-61.701c0.671,0.586,4.814-0.699,5.524,0.978
		C-22.429-60.711-26.27-60.537-25.982-61.701z"/>
</symbol>
<g id="Black">
	<g id="Layer_1_1_" display="none">
		<rect display="inline" width="512" height="512"/>
		
			<use xlink:href="#Grime_Vector_Pack_11"  width="160.559" height="177.335" id="XMLID_1_" x="-80.279" y="-88.668" transform="matrix(1 0 0 -1 135.5781 247.0684)" display="inline" overflow="visible"/>
		
			<use xlink:href="#Grime_Vector_Pack_11"  width="160.559" height="177.335" id="XMLID_5_" x="-80.279" y="-88.668" transform="matrix(0.7597 -0.6503 -0.6503 -0.7597 505.5781 337.0684)" display="inline" overflow="visible"/>
		
			<use xlink:href="#Grime_Vector_Pack_11"  width="160.559" height="177.335" id="XMLID_2_" x="-80.279" y="-88.668" transform="matrix(4.185438e-05 -0.3454 -0.3454 -4.185438e-05 428.9375 95.9189)" display="inline" overflow="visible"/>
		
			<use xlink:href="#Grime_Vector_Pack_11"  width="160.559" height="177.335" id="XMLID_4_" x="-80.279" y="-88.668" transform="matrix(4.185438e-05 -0.3454 -0.3454 -4.185438e-05 24.6758 429.9189)" display="inline" overflow="visible"/>
		
			<use xlink:href="#Grime_Vector_Pack_11"  width="160.559" height="177.335" id="XMLID_3_" x="-80.279" y="-88.668" transform="matrix(-0.2653 -0.446 -0.3966 0.236 234.6851 21.2065)" display="inline" overflow="visible"/>
	</g>
</g>
<g id="Dots">
	<circle fill="#FFFFFF" cx="291.858" cy="225.912" r="1.827"/>
	<circle fill="#FFFFFF" cx="313.569" cy="248.267" r="1.827"/>
	<circle fill="#FFFFFF" cx="318.083" cy="267.506" r="1.827"/>
	<circle fill="#FFFFFF" cx="288.204" cy="333.213" r="1.827"/>
	<circle fill="#FFFFFF" cx="460.039" cy="178.966" r="1.827"/>
	<circle fill="#FFFFFF" cx="171.265" cy="240.403" r="1.827"/>
	<circle fill="#FFFFFF" cx="486.264" cy="220.561" r="1.827"/>
	<circle fill="#FFFFFF" cx="145.9" cy="245.348" r="1.827"/>
	<circle fill="#FFFFFF" cx="205.658" cy="213.318" r="1.827"/>
	<circle fill="#FFFFFF" cx="177.607" cy="172.544" r="1.827"/>
	<circle fill="#FFFFFF" cx="260.904" cy="385.839" r="1.827"/>
	<circle fill="#FFFFFF" cx="336.585" cy="105.926" r="1.827"/>
	<circle fill="#FFFFFF" cx="366.464" cy="59.601" r="1.827"/>
	<circle fill="#FFFFFF" cx="421.71" cy="152.122" r="1.827"/>
	<circle fill="#FFFFFF" cx="26.102" cy="269.397" r="1.827"/>
	<circle fill="#FFFFFF" cx="55.98" cy="223.072" r="1.827"/>
	<circle fill="#FFFFFF" cx="421.711" cy="276.512" r="1.827"/>
	<circle fill="#FFFFFF" cx="13.417" cy="73.927" r="1.827"/>
	<circle fill="#FFFFFF" cx="43.296" cy="27.602" r="1.827"/>
	<circle fill="#FFFFFF" cx="98.542" cy="120.123" r="1.827"/>
	<circle fill="#FFFFFF" cx="400.239" cy="443.386" r="1.827"/>
	<circle fill="#FFFFFF" cx="430.117" cy="397.061" r="1.827"/>
	<circle fill="#FFFFFF" cx="485.363" cy="489.582" r="1.827"/>
	<circle fill="#FFFFFF" cx="11.59" cy="445.276" r="1.827"/>
	<circle fill="#FFFFFF" cx="41.469" cy="398.951" r="1.827"/>
	<circle fill="#FFFFFF" cx="96.715" cy="491.473" r="1.827"/>
	<circle fill="#FFFFFF" cx="220.172" cy="76.212" r="1.827"/>
	<circle fill="#FFFFFF" cx="249.619" cy="29.611" r="1.827"/>
	<circle fill="#FFFFFF" cx="305.721" cy="121.617" r="1.827"/>
</g>
</svg>
