<?xml version="1.0" encoding="utf-8"?>
<!-- Generator: Adobe Illustrator 16.0.0, SVG Export Plug-In . SVG Version: 6.00 Build 0)  -->
<!DOCTYPE svg PUBLIC "-//W3C//DTD SVG 1.1//EN" "http://www.w3.org/Graphics/SVG/1.1/DTD/svg11.dtd">
<svg version="1.1" id="Layer_1" xmlns="http://www.w3.org/2000/svg" xmlns:xlink="http://www.w3.org/1999/xlink" x="0px" y="0px"
	 width="148.887px" height="109.82px" viewBox="0 0 148.887 109.82" enable-background="new 0 0 148.887 109.82"
	 xml:space="preserve">
<g>
	<path d="M61.831,0v18.457c-9.639,0-18.611,3.102-26.917,9.306S22.456,41.375,22.456,49.988c0,5.127,2.051,7.69,6.152,7.69
		c0.923,0,2.769-0.359,5.537-1.077c2.871-0.615,5.178-0.923,6.921-0.923c5.64,0,10.946,2.281,15.919,6.844
		s7.459,10.844,7.459,18.842c0,7.793-2.563,14.483-7.69,20.072s-12.15,8.383-21.071,8.383c-10.664,0-19.277-4.025-25.84-12.074
		S0,78.494,0,64.139c0-19.79,6.024-35.299,18.072-46.527S44.707,0.513,61.831,0z M146.271,0v18.457
		c-9.126,0-17.97,3.051-26.532,9.152s-12.843,13.561-12.843,22.379c0,5.127,2.051,7.69,6.152,7.69c0.923,0,2.769-0.359,5.537-1.077
		c2.871-0.615,5.179-0.923,6.922-0.923c5.947,0,11.33,2.358,16.149,7.075s7.229,10.92,7.229,18.611
		c0,7.793-2.563,14.483-7.69,20.072s-12.151,8.383-21.072,8.383c-10.664,0-19.277-4.025-25.84-12.074S84.44,78.494,84.44,64.139
		c0-19.79,6.024-35.299,18.073-46.527S129.147,0.513,146.271,0z"/>
</g>
</svg>
