<?xml version="1.0" encoding="utf-8"?>
<!-- Generator: Adobe Illustrator 16.0.0, SVG Export Plug-In . SVG Version: 6.00 Build 0)  -->
<!DOCTYPE svg PUBLIC "-//W3C//DTD SVG 1.1//EN" "http://www.w3.org/Graphics/SVG/1.1/DTD/svg11.dtd">
<svg version="1.1" id="Layer_1" xmlns="http://www.w3.org/2000/svg" xmlns:xlink="http://www.w3.org/1999/xlink" x="0px" y="0px"
	 width="322px" height="112.667px" viewBox="0 0 322 112.667" enable-background="new 0 0 322 112.667" xml:space="preserve">
<g>
	<path d="M55.559,23.027H65.71c5.491,0,9.451,0.383,11.877,1.149c2.427,0.767,4.341,2.006,5.743,3.719
		c1.401,1.713,2.102,3.767,2.102,6.16c0,2.651-0.918,4.855-2.752,6.612s-4.324,2.979-7.468,3.667
		c-1.846,0.396-5.208,0.594-10.083,0.594v16.091h-9.57V23.027z M65.129,37.877h3.042c2.393,0,4.056-0.129,4.99-0.389
		c0.935-0.259,1.669-0.687,2.205-1.282c0.535-0.597,0.804-1.317,0.804-2.164c0-1.469-0.752-2.54-2.256-3.214
		c-1.094-0.5-3.122-0.751-6.084-0.751h-2.7V37.877z"/>
	<path d="M85.475,20.733h7.946v14.159c1.564-1.229,3.138-2.151,4.722-2.766c1.583-0.614,3.186-0.921,4.809-0.921
		c3.167,0,5.835,0.998,8.005,2.992c1.857,1.728,2.786,4.266,2.786,7.614v19.208h-7.888V48.276c0-3.366-0.177-5.646-0.528-6.838
		s-0.953-2.084-1.804-2.672c-0.85-0.587-1.901-0.881-3.152-0.881c-1.623,0-3.016,0.49-4.178,1.469
		c-1.163,0.98-1.97,2.316-2.42,4.008c-0.234,0.872-0.352,2.868-0.352,5.983v11.675h-7.946V20.733z"/>
	<path d="M139.772,32.918h7.299v28.101h-7.299v-2.97c-1.425,1.308-2.854,2.251-4.286,2.827c-1.434,0.577-2.986,0.865-4.66,0.865
		c-3.756,0-7.005-1.407-9.746-4.223c-2.742-2.814-4.112-6.314-4.112-10.499c0-4.339,1.327-7.895,3.979-10.667
		c2.653-2.772,5.875-4.158,9.667-4.158c1.744,0,3.382,0.319,4.913,0.956c1.53,0.637,2.946,1.593,4.246,2.867V32.918z M132.1,38.704
		c-2.256,0-4.13,0.771-5.622,2.312c-1.492,1.542-2.238,3.517-2.238,5.928c0,2.428,0.759,4.426,2.278,5.992
		c1.519,1.566,3.388,2.351,5.608,2.351c2.292,0,4.192-0.771,5.702-2.312s2.265-3.561,2.265-6.057c0-2.444-0.755-4.425-2.265-5.94
		S134.409,38.704,132.1,38.704z"/>
	<path d="M155.76,23.027h8.785c4.812,0,8.239,0.374,10.28,1.123s3.683,1.993,4.926,3.732s1.864,3.796,1.864,6.173
		c0,2.496-0.687,4.584-2.059,6.263c-1.373,1.679-3.44,2.949-6.204,3.809l10.32,16.892h-9.064l-9.797-16.091h-0.76v16.091h-8.292
		V23.027z M164.052,37.877h2.599c2.639,0,4.453-0.302,5.448-0.907c0.993-0.604,1.49-1.606,1.49-3.006
		c0-0.829-0.246-1.55-0.739-2.164c-0.491-0.613-1.151-1.053-1.978-1.321s-2.341-0.402-4.546-0.402h-2.274V37.877z"/>
	<path d="M207.528,33.487c1.463,0.861,2.639,2.118,3.531,3.771c1.158-1.653,2.582-2.909,4.267-3.771
		c1.687-0.861,3.527-1.292,5.525-1.292c2.069,0,3.888,0.465,5.458,1.395c1.57,0.929,2.696,2.144,3.383,3.642
		c0.688,1.498,1.031,3.935,1.031,7.309v16.478h-7.353V46.762c0-3.186-0.41-5.342-1.229-6.47s-2.049-1.692-3.689-1.692
		c-1.248,0-2.366,0.345-3.354,1.033c-0.99,0.688-1.726,1.64-2.206,2.854c-0.481,1.214-0.721,3.164-0.721,5.85v12.682h-7.354V47.408
		c0-2.514-0.192-4.335-0.575-5.462c-0.384-1.127-0.96-1.967-1.729-2.518c-0.768-0.551-1.697-0.827-2.787-0.827
		c-1.215,0-2.317,0.349-3.31,1.046c-0.991,0.698-1.731,1.675-2.224,2.932c-0.49,1.257-0.737,3.237-0.737,5.94v12.501h-7.299
		C186.013,45.015,184.65,33,197.228,31.757C201.741,31.312,206.065,32.626,207.528,33.487z"/>
	<path d="M258.01,32.918h8.432v28.101h-8.432v-2.97c-1.646,1.308-3.296,2.251-4.951,2.827c-1.655,0.577-3.449,0.865-5.383,0.865
		c-4.338,0-8.092-1.407-11.259-4.223c-3.168-2.814-4.75-6.314-4.75-10.499c0-4.339,1.531-7.895,4.596-10.667
		c3.065-2.772,6.786-4.158,11.167-4.158c2.015,0,3.905,0.319,5.676,0.956c1.769,0.637,3.402,1.593,4.904,2.867V32.918z
		 M249.147,38.704c-2.608,0-4.771,0.771-6.495,2.312c-1.724,1.542-2.585,3.517-2.585,5.928c0,2.428,0.875,4.426,2.63,5.992
		s3.916,2.351,6.479,2.351c2.647,0,4.843-0.771,6.587-2.312c1.743-1.541,2.616-3.561,2.616-6.057c0-2.444-0.873-4.425-2.616-5.94
		C254.02,39.462,251.813,38.704,249.147,38.704z"/>
	<g>
		<path d="M58.015,83.606h0.954c0.527,2.305,1.377,3.98,2.552,5.027c1.175,1.047,2.521,1.57,4.038,1.57
			c1.475,0,2.523-0.359,3.145-1.078c0.622-0.719,0.932-1.475,0.932-2.269c0-0.925-0.324-1.678-0.974-2.262
			c-0.429-0.382-1.299-0.879-2.609-1.492l-2.108-0.995c-2.093-0.984-3.569-1.96-4.43-2.925c-0.86-0.965-1.29-2.156-1.29-3.572
			c0-1.508,0.569-2.915,1.708-4.222c1.139-1.307,2.885-1.96,5.237-1.96c1.197,0,2.355,0.172,3.473,0.513
			c1.118,0.342,1.756,0.513,1.915,0.513c0.36,0,0.609-0.099,0.747-0.295c0.138-0.194,0.249-0.454,0.334-0.775h0.986v6.72h-0.921
			c-0.432-1.558-1.193-2.898-2.283-4.022c-1.09-1.125-2.415-1.688-3.974-1.688c-1.095,0-1.961,0.284-2.599,0.852
			s-0.956,1.259-0.956,2.073c0,0.975,0.298,1.703,0.896,2.186c0.586,0.493,1.899,1.216,3.941,2.171l2.443,1.146
			c1.089,0.512,1.958,1.079,2.606,1.702c1.21,1.164,1.815,2.579,1.815,4.245c0,1.556-0.649,3.024-1.948,4.404
			s-3.378,2.069-6.24,2.069c-0.657,0-1.322-0.058-1.995-0.173s-1.338-0.294-1.996-0.535l-0.636-0.226
			c-0.148-0.04-0.292-0.073-0.429-0.099c-0.138-0.024-0.254-0.037-0.35-0.037c-0.339,0-0.573,0.093-0.7,0.278
			c-0.127,0.187-0.239,0.449-0.334,0.791h-0.954V83.606z"/>
		<path d="M92.247,70.281c1.411,0.478,2.198,0.716,2.359,0.716c0.42,0,0.757-0.151,1.01-0.452s0.412-0.618,0.477-0.949h0.922v7.216
			h-0.841c-0.796-1.566-1.609-2.802-2.438-3.706c-1.549-1.666-3.303-2.5-5.262-2.5c-2.217,0-3.792,0.892-4.722,2.674
			s-1.396,4.176-1.396,7.178c0,2.21,0.274,4.028,0.823,5.454c1.022,2.672,2.922,4.007,5.699,4.007c1.7,0,3.283-0.442,4.746-1.325
			c0.839-0.513,1.83-1.331,2.971-2.456l0.985,0.753c-1.293,1.346-2.43,2.32-3.41,2.923c-1.746,1.074-3.685,1.611-5.818,1.611
			c-3.265,0-6.002-0.903-8.21-2.711c-2.446-1.998-3.669-4.69-3.669-8.074c0-3.354,1.169-6.071,3.507-8.15
			c2.198-1.948,4.892-2.922,8.081-2.922C89.44,69.566,90.835,69.804,92.247,70.281z"/>
		<path d="M99.697,90.023c1.12-0.051,1.886-0.246,2.295-0.588c0.409-0.341,0.614-1.085,0.614-2.229V73.557
			c0-1.188-0.242-1.963-0.727-2.322c-0.324-0.24-1.051-0.405-2.183-0.494v-0.783h10.65c2.209,0,3.998,0.216,5.366,0.647
			c2.65,0.873,3.977,2.444,3.977,4.715c0,1.677-0.695,2.998-2.082,3.962c-1.062,0.724-2.185,1.186-3.369,1.386l7.033,8.782
			c0.184,0.241,0.378,0.399,0.582,0.476c0.205,0.074,0.458,0.123,0.76,0.143v0.738h-6.906l-7.722-9.642h-0.014v6.041
			c0,1.085,0.193,1.815,0.582,2.191c0.388,0.378,1.163,0.586,2.327,0.626v0.783H99.697V90.023z M112.619,79.32
			c0.932-0.537,1.397-1.781,1.397-3.729c0-1.195-0.177-2.14-0.533-2.832c-0.614-1.175-1.734-1.763-3.361-1.763
			c-0.884,0-1.463,0.103-1.737,0.308c-0.274,0.207-0.412,0.546-0.412,1.018v7.849C110.139,80.14,111.687,79.857,112.619,79.32z"/>
		<path d="M123.602,90.023c0.938-0.021,1.61-0.126,2.021-0.316c0.668-0.321,1.002-0.939,1.002-1.854V72.91
			c0-0.907-0.318-1.516-0.954-1.825c-0.388-0.189-1.077-0.304-2.068-0.344v-0.783h11.572v0.783c-1.034,0.04-1.746,0.149-2.134,0.329
			c-0.646,0.309-0.97,0.922-0.97,1.84v14.943c0,0.864,0.259,1.441,0.776,1.732c0.517,0.292,1.293,0.438,2.327,0.438v0.783h-11.572
			V90.023z"/>
		<path d="M136.482,90.023c1.088-0.07,1.818-0.284,2.19-0.641c0.371-0.356,0.558-1.082,0.558-2.177V73.557
			c0-1.158-0.188-1.891-0.565-2.195c-0.378-0.304-1.104-0.511-2.183-0.621v-0.783h10.651c2.822,0,4.97,0.427,6.44,1.28
			c1.472,0.854,2.206,2.319,2.206,4.398c0,1.015-0.288,1.966-0.864,2.855c-0.576,0.888-1.527,1.604-2.853,2.146
			c-1.003,0.381-2.005,0.612-3.007,0.692c-1.002,0.081-2.488,0.12-4.461,0.12v5.755c0,1.136,0.205,1.878,0.614,2.229
			s1.175,0.548,2.296,0.588v0.783h-11.023V90.023z M148.54,79.75c1.045-0.623,1.567-1.964,1.567-4.022
			c0-1.406-0.253-2.541-0.76-3.405c-0.506-0.863-1.476-1.295-2.909-1.295c-0.657,0-1.128,0.072-1.414,0.218
			c-0.286,0.146-0.429,0.43-0.429,0.852v8.285C146.568,80.351,147.882,80.14,148.54,79.75z"/>
		<path d="M157.041,69.958h19.929l0.032,6.221h-0.954c-0.312-2.226-1.207-3.73-2.683-4.517c-0.83-0.434-2.068-0.67-3.718-0.71
			v16.252c0,1.136,0.213,1.89,0.64,2.261c0.425,0.372,1.311,0.559,2.657,0.559v0.783h-11.798v-0.783
			c1.293,0,2.152-0.188,2.578-0.565s0.638-1.129,0.638-2.254V70.952c-1.615,0.04-2.855,0.276-3.717,0.71
			c-1.584,0.805-2.479,2.312-2.683,4.517h-0.954L157.041,69.958z"/>
	</g>
	<polygon points="208.176,64.068 200.249,64.068 192.805,73.564 183.464,60.726 174.399,60.726 188.04,79.641 178.403,91.933 
		185.836,91.933 191.663,84.665 196.905,91.933 206.169,91.933 196.495,78.637 	"/>
</g>
</svg>
