<?xml version="1.0" encoding="utf-8"?>
<!-- Generator: Adobe Illustrator 16.0.0, SVG Export Plug-In . SVG Version: 6.00 Build 0)  -->
<!DOCTYPE svg PUBLIC "-//W3C//DTD SVG 1.1//EN" "http://www.w3.org/Graphics/SVG/1.1/DTD/svg11.dtd">
<svg version="1.1" id="Layer_1" xmlns="http://www.w3.org/2000/svg" xmlns:xlink="http://www.w3.org/1999/xlink" x="0px" y="0px"
	 width="292.5px" height="244px" viewBox="0 0 292.5 244" enable-background="new 0 0 292.5 244" xml:space="preserve">
<g>
	<rect x="75.982" y="89.461" fill="#FFFFFF" width="84.676" height="70.796"/>
	<g>
		<path fill="#9BBB44" d="M119.349,122c0-25.422-20.884-46.03-46.643-46.03S26.064,96.578,26.064,122
			c0,7.821,1.978,15.182,5.463,21.631l7.165-6.967h0.028l0.379-0.406h70.473l-27.586,30.861
			C103.3,162.871,119.349,144.285,119.349,122z"/>
		<path fill="#9BBB44" d="M39.1,136.258l-0.379,0.406h70.037l-31.109,31.109c1.468-0.152,2.915-0.371,4.338-0.654l27.586-30.861
			H39.1z"/>
		<path fill="#9BBB44" d="M38.721,136.664h-0.028l-7.165,6.967c0.089,0.162,0.177,0.324,0.267,0.486L38.721,136.664z"/>
		<path opacity="0.3" fill="#7F933A" d="M38.721,136.664h-0.028l-7.165,6.967c0.089,0.162,0.177,0.324,0.267,0.486L38.721,136.664z"
			/>
		<path fill="#9BBB44" d="M72.706,168.031c1.67,0,3.317-0.088,4.942-0.258l31.109-31.109H38.721l-6.927,7.453
			C39.722,158.369,55.07,168.031,72.706,168.031z"/>
		<path opacity="0.3" fill="#7F933A" d="M72.706,168.031c1.67,0,3.317-0.088,4.942-0.258l31.109-31.109H38.721l-6.927,7.453
			C39.722,158.369,55.07,168.031,72.706,168.031z"/>
	</g>
	<g>
		<path fill="#1679B8" d="M128.651,91.577h10.203v2.63h-6.388v1.958h5.926v2.513h-5.926v2.428h6.573v2.792h-10.389V91.577z"/>
		<path fill="#1679B8" d="M142.103,91.577h3.817v12.322h-3.817V91.577z"/>
		<path fill="#1679B8" d="M149.536,91.577h3.555l4.64,6.816v-6.816h3.59v12.322h-3.59l-4.613-6.766v6.766h-3.581V91.577z"/>
		<path fill="#1679B8" d="M164.046,99.822l3.622-0.227c0.078,0.588,0.237,1.037,0.479,1.345c0.392,0.499,0.952,0.748,1.682,0.748
			c0.543,0,0.962-0.127,1.254-0.382c0.297-0.255,0.443-0.55,0.443-0.887c0-0.319-0.14-0.604-0.421-0.857
			c-0.281-0.252-0.931-0.49-1.95-0.714c-1.671-0.376-2.86-0.875-3.572-1.496c-0.718-0.622-1.076-1.415-1.076-2.379
			c0-0.633,0.186-1.231,0.552-1.793c0.367-0.564,0.919-1.007,1.655-1.329c0.737-0.322,1.746-0.483,3.031-0.483
			c1.575,0,2.773,0.293,3.601,0.878c0.826,0.586,1.318,1.518,1.474,2.795l-3.588,0.21c-0.095-0.555-0.295-0.958-0.601-1.211
			c-0.306-0.251-0.727-0.377-1.265-0.377c-0.443,0-0.778,0.094-1,0.281c-0.226,0.188-0.337,0.416-0.337,0.686
			c0,0.195,0.094,0.373,0.277,0.529c0.18,0.163,0.604,0.314,1.276,0.454c1.664,0.359,2.858,0.722,3.578,1.089
			c0.719,0.367,1.243,0.822,1.571,1.365c0.328,0.543,0.492,1.151,0.492,1.824c0,0.79-0.22,1.518-0.656,2.185
			s-1.048,1.173-1.832,1.518c-0.784,0.344-1.772,0.516-2.967,0.516c-2.097,0-3.548-0.403-4.354-1.21
			C164.608,102.091,164.152,101.066,164.046,99.822z"/>
		<path fill="#1679B8" d="M177.137,91.577h11.573v3.042h-3.884v9.279h-3.81V94.62h-3.88V91.577z"/>
		<path fill="#1679B8" d="M191.283,91.577h10.203v2.63h-6.386v1.958h5.923v2.513h-5.923v2.428h6.572v2.792h-10.39V91.577z"/>
		<path fill="#1679B8" d="M204.735,91.577h3.815v12.322h-3.815V91.577z"/>
		<path fill="#1679B8" d="M212.167,91.577h3.557l4.64,6.816v-6.816h3.59v12.322h-3.59l-4.613-6.766v6.766h-3.583V91.577z"/>
		<path fill="#1679B8" d="M226.67,91.367h3.656v2.816c0,1.037-0.217,1.856-0.647,2.458c-0.432,0.603-1.17,1.13-2.211,1.584
			l-0.798-1.496c0.649-0.302,1.097-0.604,1.341-0.904c0.243-0.299,0.379-0.653,0.407-1.063h-1.748V91.367z"/>
		<path fill="#1679B8" d="M232.32,99.822l3.623-0.227c0.08,0.588,0.239,1.037,0.479,1.345c0.393,0.499,0.953,0.748,1.682,0.748
			c0.543,0,0.962-0.127,1.257-0.382c0.294-0.255,0.44-0.55,0.44-0.887c0-0.319-0.14-0.604-0.419-0.857
			c-0.281-0.252-0.931-0.49-1.952-0.714c-1.668-0.376-2.858-0.875-3.571-1.496c-0.716-0.622-1.075-1.415-1.075-2.379
			c0-0.633,0.185-1.231,0.55-1.793c0.368-0.564,0.92-1.007,1.657-1.329c0.736-0.322,1.746-0.483,3.029-0.483
			c1.575,0,2.774,0.293,3.601,0.878c0.826,0.586,1.318,1.518,1.476,2.795l-3.587,0.21c-0.098-0.555-0.297-0.958-0.601-1.211
			c-0.309-0.251-0.727-0.377-1.268-0.377c-0.441,0-0.775,0.094-0.999,0.281c-0.225,0.188-0.337,0.416-0.337,0.686
			c0,0.195,0.093,0.373,0.276,0.529c0.18,0.163,0.607,0.314,1.279,0.454c1.664,0.359,2.855,0.722,3.576,1.089
			c0.72,0.367,1.243,0.822,1.571,1.365c0.327,0.543,0.494,1.151,0.494,1.824c0,0.79-0.222,1.518-0.656,2.185
			c-0.438,0.667-1.048,1.173-1.833,1.518c-0.784,0.344-1.774,0.516-2.969,0.516c-2.097,0-3.546-0.403-4.352-1.21
			C232.883,102.091,232.427,101.066,232.32,99.822z"/>
		<path fill="#1679B8" d="M128.644,112.233h6.328c1.379,0,2.41,0.328,3.097,0.984c0.688,0.655,1.031,1.587,1.031,2.798
			c0,1.243-0.375,2.216-1.123,2.916s-1.89,1.051-3.425,1.051h-2.085v4.573h-3.823V112.233z M132.467,117.486h0.934
			c0.733,0,1.248-0.128,1.546-0.383c0.297-0.255,0.445-0.581,0.445-0.979c0-0.386-0.128-0.713-0.386-0.982
			c-0.259-0.27-0.743-0.403-1.455-0.403h-1.084V117.486z"/>
		<path fill="#1679B8" d="M141.951,112.233h3.808v9.287h5.942v3.035h-9.75V112.233z"/>
		<path fill="#1679B8" d="M161.867,122.52h-4.32l-0.601,2.035h-3.889l4.631-12.322h4.154l4.629,12.322h-3.986L161.867,122.52z
			 M161.078,119.856l-1.36-4.429l-1.345,4.429H161.078z"/>
		<path fill="#1679B8" d="M165.836,112.233h4.23l2.481,4.157l2.488-4.157h4.206l-4.791,7.16v5.162h-3.815v-5.162L165.836,112.233z"
			/>
		<path fill="#1679B8" d="M186.49,120.091v-2.563h5.883v5.253c-1.126,0.768-2.123,1.289-2.987,1.566
			c-0.866,0.279-1.892,0.416-3.08,0.416c-1.465,0-2.656-0.248-3.576-0.746c-0.922-0.5-1.638-1.242-2.145-2.228
			c-0.506-0.987-0.761-2.119-0.761-3.396c0-1.344,0.277-2.514,0.834-3.509c0.554-0.994,1.367-1.749,2.437-2.264
			c0.834-0.398,1.957-0.597,3.371-0.597c1.36,0,2.377,0.124,3.053,0.37c0.676,0.247,1.237,0.629,1.683,1.148
			c0.445,0.518,0.779,1.176,1.003,1.97l-3.671,0.656c-0.151-0.464-0.41-0.82-0.771-1.068c-0.361-0.245-0.819-0.369-1.381-0.369
			c-0.835,0-1.5,0.29-1.998,0.87c-0.494,0.58-0.74,1.498-0.74,2.753c0,1.333,0.248,2.284,0.751,2.857
			c0.499,0.571,1.199,0.857,2.097,0.857c0.428,0,0.833-0.062,1.219-0.186c0.388-0.123,0.828-0.333,1.329-0.63v-1.16H186.49z"/>
		<path fill="#1679B8" d="M195.546,124.555v-12.322h6.344c1.177,0,2.076,0.101,2.699,0.302c0.62,0.202,1.123,0.576,1.505,1.123
			c0.381,0.546,0.571,1.212,0.571,1.995c0,0.684-0.146,1.274-0.438,1.77c-0.29,0.496-0.691,0.898-1.201,1.206
			c-0.325,0.196-0.771,0.358-1.338,0.488c0.454,0.151,0.784,0.302,0.992,0.453c0.14,0.103,0.344,0.317,0.609,0.647
			c0.264,0.331,0.443,0.586,0.532,0.767l1.843,3.571h-4.301l-2.036-3.765c-0.257-0.487-0.487-0.805-0.689-0.951
			c-0.274-0.189-0.585-0.285-0.933-0.285h-0.334v5.001H195.546z M199.371,117.225h1.604c0.173,0,0.51-0.056,1.009-0.169
			c0.252-0.049,0.458-0.179,0.618-0.386c0.159-0.207,0.239-0.445,0.239-0.714c0-0.397-0.127-0.703-0.379-0.916
			c-0.251-0.212-0.725-0.32-1.421-0.32h-1.67V117.225z"/>
		<path fill="#1679B8" d="M208.972,118.402c0-2.011,0.561-3.578,1.68-4.699c1.121-1.12,2.682-1.681,4.683-1.681
			c2.049,0,3.629,0.55,4.739,1.652c1.11,1.101,1.664,2.644,1.664,4.627c0,1.439-0.241,2.621-0.727,3.543
			c-0.485,0.921-1.186,1.638-2.101,2.15c-0.918,0.514-2.059,0.77-3.426,0.77c-1.39,0-2.539-0.221-3.45-0.664
			c-0.911-0.441-1.648-1.143-2.214-2.1C209.253,121.041,208.972,119.842,208.972,118.402z M212.778,118.419
			c0,1.243,0.23,2.137,0.694,2.68c0.461,0.544,1.09,0.814,1.886,0.814c0.817,0,1.451-0.265,1.898-0.798
			c0.45-0.53,0.674-1.486,0.674-2.864c0-1.16-0.235-2.009-0.702-2.544c-0.468-0.534-1.102-0.802-1.903-0.802
			c-0.768,0-1.386,0.272-1.851,0.815C213.009,116.263,212.778,117.165,212.778,118.419z"/>
		<path fill="#1679B8" d="M232.666,112.233h3.8v7.341c0,0.729-0.112,1.415-0.339,2.062c-0.229,0.646-0.583,1.212-1.067,1.699
			c-0.485,0.482-0.995,0.822-1.527,1.02c-0.74,0.275-1.629,0.41-2.663,0.41c-0.601,0-1.254-0.041-1.961-0.125
			c-0.712-0.084-1.303-0.25-1.779-0.5s-0.911-0.604-1.308-1.062c-0.395-0.459-0.665-0.932-0.812-1.419
			c-0.234-0.784-0.352-1.479-0.352-2.083v-7.341h3.8v7.516c0,0.672,0.184,1.197,0.557,1.575c0.374,0.377,0.891,0.565,1.551,0.565
			c0.656,0,1.172-0.185,1.542-0.559c0.375-0.372,0.559-0.899,0.559-1.582V112.233z"/>
		<path fill="#1679B8" d="M239.874,112.233h3.555l4.64,6.817v-6.817h3.59v12.322h-3.59l-4.613-6.766v6.766h-3.581V112.233z"/>
		<path fill="#1679B8" d="M255.097,112.233h5.657c1.115,0,2.017,0.15,2.703,0.454c0.686,0.302,1.252,0.737,1.702,1.302
			c0.447,0.566,0.773,1.226,0.975,1.976c0.202,0.751,0.302,1.547,0.302,2.388c0,1.316-0.148,2.336-0.45,3.063
			c-0.299,0.726-0.713,1.333-1.247,1.823c-0.532,0.49-1.104,0.816-1.713,0.98c-0.838,0.223-1.593,0.336-2.271,0.336h-5.657V112.233z
			 M258.906,115.022v6.733h0.933c0.796,0,1.36-0.089,1.697-0.266s0.601-0.484,0.791-0.924s0.286-1.151,0.286-2.139
			c0-1.307-0.215-2.199-0.639-2.683c-0.427-0.48-1.134-0.722-2.118-0.722H258.906z"/>
	</g>
	<g>
		<path fill="#2EAAE1" d="M129.504,133.363h2.829c0.311,0,0.591,0.045,0.842,0.137s0.461,0.217,0.632,0.375
			c0.172,0.16,0.303,0.344,0.395,0.557c0.092,0.211,0.138,0.436,0.138,0.674c0,0.359-0.088,0.691-0.263,0.998
			c-0.177,0.307-0.445,0.551-0.812,0.732c0.279,0.08,0.514,0.184,0.705,0.311c0.19,0.127,0.347,0.273,0.465,0.438
			c0.12,0.162,0.207,0.34,0.263,0.529c0.057,0.191,0.084,0.391,0.084,0.6c0,0.283-0.059,0.557-0.173,0.811
			c-0.116,0.254-0.271,0.475-0.466,0.662c-0.195,0.188-0.42,0.336-0.675,0.447c-0.255,0.113-0.518,0.168-0.788,0.168h-3.175V133.363
			z M130.173,136.49h1.98c0.23,0,0.441-0.033,0.633-0.102s0.356-0.16,0.496-0.273c0.14-0.117,0.248-0.252,0.328-0.406
			c0.08-0.156,0.119-0.32,0.119-0.496c0-0.326-0.114-0.594-0.345-0.805c-0.233-0.213-0.599-0.316-1.1-0.316h-2.112V136.49z
			 M130.173,140.084h2.173c0.206,0,0.413-0.027,0.62-0.084c0.207-0.055,0.394-0.141,0.561-0.256s0.304-0.264,0.406-0.441
			c0.104-0.18,0.155-0.389,0.155-0.627c0-0.199-0.045-0.391-0.138-0.572c-0.092-0.186-0.225-0.342-0.399-0.471
			c-0.177-0.135-0.388-0.238-0.639-0.318s-0.536-0.121-0.854-0.121h-1.886V140.084z"/>
		<path fill="#2EAAE1" d="M137.275,133.363v5.002c0,0.301,0.058,0.574,0.173,0.818c0.115,0.242,0.266,0.447,0.454,0.613
			c0.188,0.168,0.395,0.295,0.626,0.381c0.231,0.088,0.467,0.135,0.704,0.135c0.248,0,0.497-0.041,0.746-0.121
			c0.251-0.08,0.477-0.201,0.676-0.363c0.197-0.164,0.36-0.365,0.482-0.604c0.124-0.238,0.187-0.518,0.187-0.836v-5.025h0.68v4.979
			c0,0.43-0.082,0.811-0.245,1.146c-0.162,0.332-0.375,0.615-0.639,0.84c-0.263,0.229-0.559,0.398-0.89,0.514
			c-0.329,0.115-0.658,0.174-0.984,0.174c-0.31,0-0.622-0.059-0.938-0.174c-0.314-0.115-0.597-0.285-0.847-0.514
			c-0.252-0.225-0.457-0.508-0.615-0.84c-0.159-0.336-0.238-0.725-0.238-1.17v-4.955H137.275z"/>
		<path fill="#2EAAE1" d="M144.917,133.363v7.438h-0.682v-7.438H144.917z"/>
		<path fill="#2EAAE1" d="M147.828,133.363v6.721h3.749v0.717h-4.416v-7.438H147.828z"/>
		<path fill="#2EAAE1" d="M153.403,133.363h2.698c0.485,0,0.922,0.096,1.306,0.291c0.388,0.197,0.718,0.463,0.992,0.801
			c0.275,0.34,0.485,0.732,0.634,1.182c0.146,0.451,0.22,0.93,0.22,1.439c0,0.525-0.077,1.014-0.232,1.467s-0.373,0.848-0.649,1.182
			c-0.279,0.336-0.611,0.598-0.997,0.789s-0.812,0.287-1.272,0.287h-2.698V133.363z M154.059,140.084h1.722
			c0.403,0,0.776-0.068,1.115-0.201c0.339-0.137,0.631-0.334,0.877-0.592c0.246-0.26,0.441-0.574,0.578-0.945
			c0.14-0.367,0.211-0.793,0.211-1.27c0-0.51-0.071-0.953-0.211-1.332c-0.137-0.377-0.332-0.688-0.578-0.93
			c-0.246-0.244-0.54-0.426-0.884-0.543c-0.342-0.121-0.711-0.18-1.108-0.18h-1.722V140.084z"/>
		<path fill="#2EAAE1" d="M162.153,133.363v7.438h-0.681v-7.438H162.153z"/>
		<path fill="#2EAAE1" d="M165.353,133.363l3.892,6.52v-6.52h0.669v7.438h-0.955l-3.891-6.566v6.566h-0.67v-7.438H165.353z"/>
		<path fill="#2EAAE1" d="M172.443,137.076c0,0.51,0.071,0.963,0.211,1.361c0.137,0.396,0.328,0.732,0.567,1.008
			c0.236,0.273,0.514,0.484,0.828,0.631c0.315,0.148,0.647,0.225,0.997,0.225c0.311,0,0.612-0.078,0.909-0.234
			c0.292-0.156,0.556-0.357,0.786-0.609c0.23-0.25,0.421-0.537,0.574-0.859c0.148-0.322,0.232-0.65,0.25-0.984h-2.305v-0.705h2.937
			v3.893h-0.37l-0.237-1.326c-0.122,0.215-0.276,0.412-0.472,0.598c-0.195,0.184-0.41,0.344-0.639,0.484
			c-0.232,0.139-0.47,0.246-0.711,0.32c-0.244,0.078-0.477,0.115-0.698,0.115c-0.512,0-0.971-0.1-1.38-0.301
			c-0.408-0.197-0.758-0.475-1.044-0.828s-0.505-0.77-0.656-1.248c-0.152-0.479-0.228-0.99-0.228-1.539
			c0-0.486,0.073-0.963,0.222-1.434c0.148-0.469,0.358-0.889,0.638-1.258c0.279-0.371,0.618-0.67,1.021-0.898
			c0.401-0.225,0.862-0.34,1.378-0.34c0.431,0,0.815,0.061,1.157,0.182c0.344,0.119,0.641,0.281,0.891,0.488
			c0.25,0.209,0.463,0.455,0.638,0.74c0.176,0.287,0.311,0.6,0.408,0.943h-0.729c-0.199-0.557-0.489-0.971-0.87-1.242
			c-0.384-0.271-0.88-0.406-1.494-0.406c-0.381,0-0.729,0.086-1.043,0.258c-0.315,0.172-0.588,0.404-0.813,0.697
			c-0.227,0.295-0.403,0.639-0.529,1.027C172.508,136.225,172.443,136.639,172.443,137.076z"/>
		<path fill="#2EAAE1" d="M183.953,136.992c0,0.564,0.075,1.057,0.226,1.475s0.348,0.764,0.592,1.037
			c0.243,0.275,0.519,0.479,0.829,0.609c0.312,0.133,0.624,0.199,0.943,0.199c0.335,0,0.639-0.059,0.908-0.174
			c0.269-0.115,0.503-0.27,0.703-0.461c0.199-0.189,0.363-0.408,0.489-0.656c0.129-0.246,0.215-0.502,0.264-0.766h0.693
			c-0.073,0.383-0.194,0.74-0.365,1.076c-0.171,0.334-0.386,0.627-0.641,0.877c-0.252,0.25-0.552,0.447-0.893,0.592
			c-0.344,0.143-0.729,0.215-1.159,0.215c-0.501,0-0.953-0.092-1.354-0.275c-0.403-0.184-0.747-0.447-1.035-0.793
			c-0.286-0.348-0.505-0.77-0.656-1.266c-0.15-0.498-0.226-1.064-0.226-1.703c0-0.482,0.073-0.957,0.22-1.42
			c0.148-0.461,0.361-0.871,0.64-1.229c0.277-0.359,0.618-0.646,1.02-0.859c0.403-0.215,0.862-0.324,1.381-0.324
			c0.428,0,0.815,0.061,1.156,0.182c0.344,0.119,0.639,0.281,0.891,0.488c0.251,0.209,0.464,0.455,0.639,0.74
			c0.175,0.287,0.31,0.6,0.405,0.943h-0.727c-0.199-0.557-0.492-0.971-0.873-1.242s-0.88-0.406-1.491-0.406
			c-0.384,0-0.731,0.086-1.046,0.258s-0.585,0.398-0.812,0.686c-0.228,0.287-0.403,0.619-0.531,0.996
			C184.015,136.17,183.953,136.57,183.953,136.992z"/>
		<path fill="#2EAAE1" d="M192.107,133.363v6.721h3.747v0.717h-4.417v-7.438H192.107z"/>
		<path fill="#2EAAE1" d="M202.515,133.363v0.729h-4.177v2.506h3.927v0.717h-3.927v2.77h4.356v0.717h-5.025v-7.438H202.515z"/>
		<path fill="#2EAAE1" d="M206.825,139.941l2.173-6.578h0.765l-2.483,7.438h-0.885l-2.53-7.438h0.763L206.825,139.941z"/>
		<path fill="#2EAAE1" d="M216.016,133.363v0.729h-4.177v2.506h3.929v0.717h-3.929v2.77h4.359v0.717h-5.028v-7.438H216.016z"/>
		<path fill="#2EAAE1" d="M223.204,135.477c0,0.381-0.084,0.736-0.25,1.062c-0.166,0.324-0.415,0.584-0.74,0.775
			c0.182,0.047,0.332,0.121,0.447,0.221c0.115,0.102,0.206,0.215,0.275,0.346c0.066,0.133,0.112,0.275,0.137,0.438
			c0.024,0.158,0.036,0.316,0.036,0.477v1.121c0,0.16,0.021,0.314,0.066,0.467c0.042,0.15,0.1,0.291,0.173,0.418h-0.765
			c-0.064-0.111-0.104-0.25-0.12-0.412c-0.016-0.164-0.021-0.305-0.021-0.424v-1.182c0-0.145-0.027-0.285-0.08-0.424
			c-0.051-0.141-0.135-0.266-0.25-0.375c-0.115-0.111-0.262-0.203-0.441-0.27c-0.18-0.068-0.396-0.102-0.651-0.102h-2.315v3.188
			h-0.669v-7.438h2.984c0.35,0,0.66,0.062,0.931,0.189c0.272,0.129,0.501,0.291,0.687,0.49c0.188,0.199,0.328,0.428,0.426,0.682
			C223.158,134.979,223.204,135.229,223.204,135.477z M218.704,136.908h2.315c0.199,0,0.39-0.037,0.574-0.113
			c0.184-0.074,0.343-0.176,0.482-0.305c0.138-0.127,0.248-0.277,0.328-0.453s0.12-0.361,0.12-0.561s-0.038-0.385-0.113-0.555
			c-0.078-0.172-0.18-0.318-0.311-0.443c-0.131-0.121-0.29-0.219-0.479-0.285c-0.186-0.068-0.388-0.102-0.603-0.102h-2.315V136.908z
			"/>
		<path fill="#2EAAE1" d="M229.27,133.363l2.483,6.361l2.424-6.361h0.894v7.438h-0.681v-6.195l-2.34,6.195h-0.609l-2.397-6.195
			v6.195h-0.669v-7.438H229.27z"/>
		<path fill="#2EAAE1" d="M237.995,133.363v7.438h-0.681v-7.438H237.995z"/>
		<path fill="#2EAAE1" d="M241.194,133.363l3.892,6.52v-6.52h0.669v7.438H244.8l-3.891-6.566v6.566h-0.669v-7.438H241.194z"/>
		<path fill="#2EAAE1" d="M247.605,133.363h2.696c0.487,0,0.922,0.096,1.308,0.291c0.388,0.197,0.718,0.463,0.992,0.801
			c0.275,0.34,0.485,0.732,0.632,1.182c0.148,0.451,0.222,0.93,0.222,1.439c0,0.525-0.077,1.014-0.232,1.467
			s-0.372,0.848-0.651,1.182c-0.279,0.336-0.609,0.598-0.997,0.789c-0.386,0.191-0.81,0.287-1.272,0.287h-2.696V133.363z
			 M248.261,140.084h1.72c0.405,0,0.778-0.068,1.117-0.201c0.339-0.137,0.629-0.334,0.877-0.592c0.246-0.26,0.439-0.574,0.579-0.945
			c0.139-0.367,0.21-0.793,0.21-1.27c0-0.51-0.071-0.953-0.21-1.332c-0.14-0.377-0.333-0.688-0.579-0.93
			c-0.248-0.244-0.543-0.426-0.884-0.543c-0.341-0.121-0.711-0.18-1.11-0.18h-1.72V140.084z"/>
		<path fill="#2EAAE1" d="M255.985,138.484c0.016,0.262,0.075,0.504,0.18,0.729c0.104,0.221,0.241,0.416,0.417,0.58
			c0.177,0.162,0.385,0.287,0.627,0.375c0.243,0.088,0.51,0.133,0.795,0.133c0.255,0,0.499-0.027,0.733-0.078
			c0.235-0.053,0.441-0.139,0.621-0.258c0.179-0.121,0.323-0.275,0.43-0.467c0.108-0.189,0.162-0.42,0.162-0.691
			c0-0.326-0.109-0.588-0.328-0.781c-0.22-0.195-0.494-0.359-0.824-0.496c-0.33-0.135-0.689-0.258-1.075-0.369
			c-0.388-0.111-0.744-0.252-1.074-0.418c-0.33-0.168-0.605-0.383-0.822-0.646c-0.222-0.262-0.33-0.607-0.33-1.037
			c0-0.311,0.06-0.584,0.18-0.818c0.119-0.234,0.283-0.432,0.494-0.592c0.212-0.158,0.465-0.279,0.76-0.363s0.62-0.125,0.979-0.125
			c0.468,0,0.859,0.068,1.177,0.209c0.312,0.141,0.564,0.314,0.758,0.531c0.188,0.215,0.325,0.453,0.409,0.717
			c0.085,0.262,0.134,0.512,0.148,0.752h-0.69c-0.022-0.248-0.087-0.467-0.185-0.658c-0.1-0.189-0.232-0.35-0.395-0.477
			c-0.164-0.127-0.348-0.223-0.556-0.287c-0.206-0.062-0.43-0.096-0.667-0.096c-0.218,0-0.428,0.023-0.634,0.066
			c-0.206,0.045-0.393,0.111-0.561,0.209c-0.169,0.096-0.302,0.219-0.401,0.371c-0.1,0.15-0.148,0.338-0.148,0.561
			c0,0.326,0.108,0.588,0.328,0.787s0.494,0.367,0.824,0.502s0.687,0.264,1.074,0.383c0.384,0.119,0.745,0.262,1.073,0.43
			c0.332,0.168,0.604,0.379,0.824,0.639c0.219,0.258,0.33,0.594,0.33,1.008c0,0.367-0.066,0.686-0.197,0.961
			c-0.133,0.273-0.314,0.506-0.543,0.691c-0.232,0.189-0.508,0.328-0.824,0.418c-0.319,0.092-0.669,0.139-1.051,0.139
			c-0.343,0-0.676-0.059-0.997-0.174s-0.611-0.281-0.866-0.5s-0.459-0.486-0.613-0.801c-0.155-0.314-0.237-0.666-0.246-1.057
			H255.985z"/>
		<path fill="#2EAAE1" d="M133.348,148.857l-1.91,6.268h-0.704l-1.875-7.436h0.705l1.552,6.422l1.899-6.422h0.619l1.935,6.361
			l1.505-6.361h0.703l-1.874,7.436h-0.692L133.348,148.857z"/>
		<path fill="#2EAAE1" d="M140.308,147.689v7.436h-0.681v-7.436H140.308z"/>
		<path fill="#2EAAE1" d="M148.151,147.689v0.729h-2.471v6.707h-0.67v-6.707h-2.459v-0.729H148.151z"/>
		<path fill="#2EAAE1" d="M150.657,147.689v3.234h4.166v-3.234h0.669v7.436h-0.669v-3.496h-4.166v3.496h-0.669v-7.436H150.657z"/>
		<path fill="#2EAAE1" d="M161.247,151.318c0,0.564,0.075,1.057,0.226,1.473c0.151,0.42,0.348,0.766,0.592,1.039
			c0.244,0.275,0.519,0.479,0.829,0.609c0.312,0.131,0.625,0.197,0.943,0.197c0.335,0,0.637-0.059,0.906-0.172
			c0.271-0.117,0.506-0.271,0.705-0.461c0.199-0.191,0.363-0.41,0.489-0.656c0.129-0.248,0.215-0.502,0.264-0.764h0.691
			c-0.07,0.381-0.192,0.74-0.363,1.072c-0.17,0.336-0.383,0.627-0.641,0.879c-0.254,0.25-0.552,0.447-0.893,0.59
			c-0.344,0.145-0.729,0.217-1.159,0.217c-0.503,0-0.952-0.092-1.355-0.275c-0.401-0.184-0.745-0.449-1.033-0.795
			c-0.285-0.346-0.503-0.766-0.655-1.266c-0.153-0.496-0.227-1.064-0.227-1.699c0-0.486,0.073-0.961,0.22-1.422
			c0.148-0.461,0.361-0.873,0.638-1.229c0.279-0.357,0.621-0.645,1.021-0.859c0.401-0.217,0.862-0.322,1.381-0.322
			c0.428,0,0.815,0.059,1.156,0.178c0.342,0.119,0.641,0.283,0.892,0.49c0.25,0.207,0.461,0.453,0.638,0.74
			c0.175,0.285,0.311,0.602,0.405,0.941h-0.727c-0.199-0.557-0.492-0.969-0.873-1.242c-0.381-0.27-0.88-0.404-1.491-0.404
			c-0.384,0-0.731,0.086-1.046,0.258c-0.314,0.17-0.585,0.398-0.811,0.688c-0.229,0.283-0.403,0.617-0.532,0.996
			C161.309,150.494,161.247,150.896,161.247,151.318z"/>
		<path fill="#2EAAE1" d="M169.399,147.689v6.721h3.749v0.715h-4.416v-7.436H169.399z"/>
		<path fill="#2EAAE1" d="M179.809,147.689v0.729h-4.179v2.506h3.929v0.715h-3.929v2.771h4.358v0.715h-5.025v-7.436H179.809z"/>
		<path fill="#2EAAE1" d="M184.119,154.268l2.174-6.578h0.764l-2.483,7.436h-0.884l-2.531-7.436h0.765L184.119,154.268z"/>
		<path fill="#2EAAE1" d="M193.311,147.689v0.729h-4.177v2.506h3.929v0.715h-3.929v2.771h4.358v0.715h-5.028v-7.436H193.311z"/>
		<path fill="#2EAAE1" d="M200.498,149.801c0,0.383-0.084,0.736-0.25,1.064c-0.168,0.326-0.414,0.584-0.74,0.773
			c0.182,0.049,0.333,0.123,0.448,0.223s0.206,0.213,0.272,0.346c0.07,0.133,0.115,0.277,0.14,0.436s0.035,0.318,0.035,0.477v1.123
			c0,0.16,0.022,0.316,0.066,0.465c0.042,0.15,0.1,0.291,0.173,0.418h-0.765c-0.064-0.109-0.104-0.248-0.119-0.41
			c-0.019-0.164-0.024-0.305-0.024-0.424v-1.182c0-0.145-0.024-0.285-0.078-0.426c-0.051-0.139-0.135-0.264-0.25-0.375
			s-0.262-0.201-0.443-0.27c-0.178-0.066-0.395-0.1-0.649-0.1h-2.315v3.186h-0.669v-7.436h2.984c0.351,0,0.66,0.062,0.931,0.191
			c0.272,0.127,0.501,0.289,0.688,0.488c0.188,0.197,0.327,0.426,0.423,0.68C200.45,149.305,200.498,149.555,200.498,149.801z
			 M195.998,151.234h2.315c0.199,0,0.391-0.037,0.574-0.113c0.182-0.076,0.344-0.178,0.483-0.307
			c0.137-0.125,0.248-0.277,0.327-0.453c0.08-0.174,0.12-0.361,0.12-0.561c0-0.197-0.038-0.383-0.113-0.555
			c-0.075-0.17-0.18-0.316-0.312-0.441c-0.128-0.123-0.29-0.219-0.477-0.287c-0.186-0.066-0.388-0.1-0.603-0.1h-2.315V151.234z"/>
		<path fill="#2EAAE1" d="M210.384,147.689v0.729h-4.06v2.506h3.534v0.715h-3.534v3.486h-0.667v-7.436H210.384z"/>
		<path fill="#2EAAE1" d="M212.876,147.689v5c0,0.303,0.061,0.576,0.175,0.818c0.115,0.244,0.267,0.449,0.452,0.615
			c0.188,0.168,0.397,0.295,0.628,0.381c0.232,0.09,0.465,0.133,0.704,0.133c0.248,0,0.496-0.041,0.747-0.119
			c0.25-0.08,0.477-0.203,0.674-0.365c0.199-0.162,0.36-0.363,0.484-0.604c0.125-0.238,0.185-0.516,0.185-0.834v-5.025h0.68v4.977
			c0,0.43-0.082,0.812-0.243,1.146c-0.164,0.334-0.377,0.615-0.641,0.842c-0.262,0.227-0.559,0.398-0.889,0.514
			s-0.658,0.174-0.983,0.174c-0.311,0-0.625-0.059-0.938-0.174c-0.314-0.115-0.596-0.287-0.849-0.514
			c-0.251-0.227-0.454-0.508-0.614-0.842c-0.159-0.334-0.239-0.725-0.239-1.17v-4.953H212.876z"/>
		<path fill="#2EAAE1" d="M220.399,147.689l3.891,6.518v-6.518h0.669v7.436h-0.955l-3.891-6.566v6.566h-0.669v-7.436H220.399z"/>
		<path fill="#2EAAE1" d="M227.669,154.1v1.025h-0.884V154.1H227.669z"/>
	</g>
	<path fill-rule="evenodd" clip-rule="evenodd" fill="#1A91CF" d="M62.762,126.484c-0.421,0.047-0.844,0.09-1.266,0.137
		C61.853,125.965,62.258,125.76,62.762,126.484z"/>
	<g>
		<path fill-rule="evenodd" clip-rule="evenodd" fill="#2EAAE1" d="M39.1,108.965c1.174,0.283,2.782-0.27,3.87,0
			c2.347,0.581,4.65,0.391,4.479,3.869c-0.202,4.074-8.146,4.48-8.146,4.48L39.1,108.965z"/>
		<g>
			<path fill-rule="evenodd" clip-rule="evenodd" fill="#1A91CF" d="M40.437,139.025c-0.016-4.09-0.115-18.044-0.115-18.044
				s1.665-2.686,6.926-2.036c2.245,0.276,3.75-0.218,5.541,2.688c1.98,3.217-2.161,3.864-2.397,6.114
				c-0.081,3.828-0.162,7.654-0.243,11.479C46.924,138.451,43.638,140.832,40.437,139.025z"/>
			<path fill-rule="evenodd" clip-rule="evenodd" fill="#1A91CF" d="M76.228,132.666c2.175-3.113,2.821-8.412,8.768-6.137
				c-0.1,6.109-0.198,12.223-0.296,18.332c-3.37,0.385-7.259,1.865-7.919,6.061C76.323,144.486,77.034,138.424,76.228,132.666z"/>
			<path fill-rule="evenodd" clip-rule="evenodd" fill="#2EAAE1" d="M89.106,145.93c0.745,0.303,1.536,0.623,2.209,1.072
				c0.494,0.328,0.893,0.82,1.333,1.219c0.041-6.236,0.081-12.471,0.123-18.703c-2.59-0.994-5.658-2.244-8.252-3.24
				c-0.099,6.111-0.105,12.424-0.203,18.533C84.679,145,87.918,145.449,89.106,145.93z"/>
			<path fill-rule="evenodd" clip-rule="evenodd" fill="#1679B8" d="M59.47,145.557c0.784-0.475,1.61-0.877,2.502-1.16
				c0.329-0.105,0.662-0.189,0.997-0.266c0.536-6.529,0.95-12.094-0.242-18.059c0.146-1.219-5.192,2.361-7.175,3.268
				c0.122,6.146-2.536,12.109,0.046,18.119c0.407-0.203,2.572-1.432,3.666-1.832C59.331,145.602,59.4,145.58,59.47,145.557z"/>
			<path fill-rule="evenodd" clip-rule="evenodd" fill="#2EAAE1" d="M55.802,128.314c0.121,6.145-0.198,19.303-0.198,19.303
				s-1.426,0.174-3.463-0.609s-1.833-1.426-1.833-1.426s-0.087-14.461-0.006-18.285C51.841,128.416,53.976,128.123,55.802,128.314z"
				/>
			<path fill-rule="evenodd" clip-rule="evenodd" fill="#2EAAE1" d="M107.305,138.686c-3.082,2.785-7.401-0.91-10.563,0.424
				c-1.006-3.395-0.32-12.316-0.886-13.533c-0.688-1.475-3.54-2.225-2.13-4.285c1.279-1.867,3.595-2.666,5.662-2.142
				c0.965,0.243,6.525,1.359,7.536,1.425C107.169,123.199,107.177,138.008,107.305,138.686z"/>
			<path fill-rule="evenodd" clip-rule="evenodd" fill="#1A91CF" d="M69.04,132.592c1.134-4.834-1.513-6.818-6.257-6.111
				c-0.06,5.324-0.213,15.271-0.252,17.754c1.629-0.432,3.335-0.529,5.016-0.537c1.457-0.006,2.115,1.227,1.977,2.348
				c0.106,0.107,0.215,0.18,0.331,0.193C75.163,142.875,68.049,136.812,69.04,132.592z"/>
			<path fill-rule="evenodd" clip-rule="evenodd" fill="#1679B8" d="M92.647,148.555c0.04-6.35,0.081-12.693,0.124-19.037
				c1.096-0.23,4.172-2.834,4.172-2.834s0.408,18.943,0.408,19.758c0,0-0.204,0.814-1.834,1.629
				C94.66,148.5,93.422,148.365,92.647,148.555z"/>
			<path fill-rule="evenodd" clip-rule="evenodd" fill="#1679B8" d="M76.577,132.592l0.203,18.254c0,0-0.611,1.223-3.871,1.297
				c-3.258,0.078-4.073-1.297-4.073-1.297s0.151-18.266,0-18.254C69.611,132.535,76.577,132.592,76.577,132.592z"/>
			<path fill-rule="evenodd" clip-rule="evenodd" fill="#1679B8" d="M107.103,138.725l-0.383-18.313c0,0,1.738-1.388,2.472-2.077
				c0.087,1.222,0.177,16.333,0.177,16.333s-0.204,1.387-1.019,2.811C107.386,139.166,107.103,138.725,107.103,138.725z"/>
			<path fill-rule="evenodd" clip-rule="evenodd" fill="#2EAAE1" d="M71.281,104.484c5.004-2.402,10.197,1.296,14.053,3.87
				c2.556,1.704,1.098,4.879-0.997,7.184c-3.657,4.025-8.315,5.517-13.056,5.24C71.277,116.604,71.284,108.658,71.281,104.484z"/>
			<path fill-rule="evenodd" clip-rule="evenodd" fill="#1A91CF" d="M72.184,104.076c0.005,4.173,0.201,12.936,0.205,17.11
				c-0.206-0.005-1.022-0.579-1.223-0.611c-4.175-0.694-11.336-3.622-11.088-8.555c0.112-2.219,4.327-6.315,6.314-7.129
				C66.86,104.7,72.184,103.729,72.184,104.076z"/>
			<path fill-rule="evenodd" clip-rule="evenodd" fill="#2EAAE1" d="M108.35,119.15c0,0-0.205-0.815-8.14-4.93
				c-0.986-0.414-0.837-1.83,0.399-3.422c2.43-1.463,7.407-3.169,7.74-2.444C108.39,108.695,108.35,119.15,108.35,119.15z"/>
			<path fill-rule="evenodd" clip-rule="evenodd" fill="#1679B8" d="M38.489,117.112v18.128c0,0,0,1.832,0.814,2.85
				c0.815,1.02,1.133,0.936,1.133,0.936l-0.115-18.044L38.489,117.112z"/>
			<path fill-rule="evenodd" clip-rule="evenodd" fill="#6DCEF4" d="M100.21,114.22c-0.986-0.414-0.9-3.058,0.822-3.386
				c0.87-0.165,5.484-2.073,7.521-2.48c-0.256-0.677-0.238-1.315-0.611-1.833c-0.528-0.735-1.426-1.222-1.426-1.222
				s-9.87,1.14-10.479-1.621c-0.388-1.749,1.126-5.069,1.126-5.069l-4.175-2.376c0,0-11.86,8.32-15.598-0.303
				c-0.43-0.992-1.426-2.548-1.426-2.548l-3.87,0.02c0,0-1.019,1.713-1.629,2.935c-2.206,4.414-5.552,3.562-9.034,2.489
				c-1.747-0.539-5.023-2.28-5.023-2.28l-5.804,1.504c0,0,1.959,4.982,0.028,6.812c-3.159,2.992-11.189-2.641-11.62,4.006
				c1.127,0.389,6.721,1.02,7.869,1.999c1.29,1.1,0.343,3.561-0.816,4.389c-1.021,0.731-7.201,1.998-7.576,1.856
				c-0.009,0.158-0.073,2.096,0.407,3.259c0.346,0.839,1.228,0.885,1.425,1.426c0.92-0.731,10.676-3.069,12.467-0.164
				c1.98,3.217-2.161,3.864-2.396,6.114c0.725,0.771,1.396,1.355,2.151,1.586c0.966,0.299,2.036,0.203,3.009,0.008
				c1.982-0.906,6.706-3.58,7.21-2.855l0.021-0.008c4.744-0.703,6.061,6.055,6.061,6.055s1.612,0.639,3.658,0.672
				c1.174,0.018,2.648-0.408,3.726-0.537c2.175-3.113,2.821-8.412,8.768-6.137c2.594,0.996,5.187,1.994,7.78,2.99
				c0.512-0.109,1.733-0.189,2.538-0.594c0.911-0.459,1.402-1.281,1.834-2.039c-0.688-1.475-4.831-3.535-3.422-5.595
				c1.451-2.12,4.294-1.746,6.471-1.305c1.817,0.37,6.523,0.791,6.523,0.791s0.995-0.227,1.63-0.815
				c0.486-0.449,0.814-1.221,0.891-1.523C108.522,118.087,101.93,114.941,100.21,114.22z M84.986,113.069
				c-1.253,5.476-9.42,6.283-11.669,6.283c-2.241,0-7.501-1.144-9.241-2.492c-2.446-1.895-2.524-5.116-0.729-7.517
				c1.197-1.602,3.709-2.636,5.584-3.028C73.258,105.411,86.731,105.437,84.986,113.069z"/>
		</g>
	</g>
	<path fill="#529944" d="M81.441,104.547l-3.033-0.349l0.176-1.518c0.001-0.018,0.216-1.939,0.093-4.186
		c-0.149-2.719-0.735-4.772-1.65-5.78c-0.481-0.529-1.044-0.768-1.795-0.757c-0.842,0.015-1.5,0.312-2.07,0.937
		c-2.047,2.238-2.135,7.711-1.996,9.63l0.11,1.522l-3.043,0.224l-0.112-1.521c-0.062-0.839-0.511-8.304,2.783-11.912
		c1.128-1.235,2.607-1.904,4.275-1.932c1.621-0.034,3.041,0.581,4.11,1.761c3.237,3.568,2.431,11.476,2.328,12.365L81.441,104.547z"
		/>
	<path fill="#EC4132" d="M54.485,117.463c-0.05-0.509-0.167-1.211-0.304-2.026c-0.712-4.259-2.037-12.188,2.464-17.814
		c1.19-1.487,2.365-1.375,2.962-1.177c1.497,0.502,2.318,2.362,2.839,6.42c0.31,2.429,0.378,4.736,0.381,4.834l-3.053,0.086
		c-0.09-3.174-0.533-6.422-1.029-7.881c-3.302,4.551-2.21,11.083-1.551,15.029c0.146,0.871,0.271,1.621,0.33,2.233L54.485,117.463z"
		/>
	<path fill="#C0332A" d="M62.341,105.254c-0.107-1.886-0.218-3.823-0.664-5.729c-0.283-0.298-0.593-0.567-0.938-0.782
		c-0.448-0.281-0.761-0.267-1.271-0.326c-0.159-0.019-0.312-0.04-0.458-0.062l0.21,0.662c0.639,2.012,0.759,4.126,0.884,6.363
		c0.025,0.443,0.051,0.885,0.081,1.326l0.072,1.118l2.235-0.148l-0.073-1.118C62.39,106.125,62.365,105.689,62.341,105.254z"/>
	<path fill="#E88524" d="M83.579,121.017l-0.011-0.076c-0.804-6.118-1.378-14.826,2.894-19.778c1.52-1.761,3.002-1.608,3.751-1.36
		c1.733,0.575,2.847,2.623,3.609,6.641c0.461,2.427,0.628,4.721,0.634,4.817l-3.876,0.277c-0.214-2.965-0.835-6.117-1.433-7.519
		c-3.31,4.347-2.121,13.393-1.725,16.416l0.01,0.077L83.579,121.017z"/>
	<path fill="#C56F29" d="M93.618,108.663c-0.142-1.845-0.288-3.74-0.878-5.605c-0.376-0.293-0.788-0.555-1.244-0.766
		c-0.595-0.275-1.006-0.261-1.685-0.32c-0.209-0.018-0.41-0.037-0.606-0.059l0.278,0.647c0.847,1.969,1.006,4.036,1.172,6.226
		c0.033,0.433,0.066,0.866,0.105,1.297l0.098,1.095l2.96-0.146l-0.098-1.094C93.683,109.514,93.651,109.088,93.618,108.663z"/>
	<path fill="#457C3B" d="M79.688,97.277c-0.187-2.219-0.765-4.415-2.626-5.472c-0.07-0.039-0.134-0.082-0.196-0.125
		c-0.236-0.001-0.475-0.005-0.712-0.007c0.444,0.137,0.829,0.389,1.175,0.769c2.066,2.277,1.898,8.196,1.659,10.285l-0.128,1.113
		l0.771,0.09C79.701,101.711,79.874,99.493,79.688,97.277z"/>
	<path fill="#F4D022" d="M78.529,125.195l-3.029-0.391l0.196-1.516c0.283-2.224,0.506-8.578-1.852-11.212
		c-0.734-0.821-1.637-1.2-2.835-1.178c-1.311,0.021-2.355,0.48-3.194,1.407c-2.462,2.715-2.553,8.719-2.381,10.804l0.125,1.521
		l-3.044,0.252l-0.125-1.521c-0.029-0.361-0.685-8.864,3.162-13.106c1.418-1.565,3.238-2.375,5.409-2.41
		c2.062-0.027,3.85,0.728,5.163,2.199c3.767,4.218,2.648,13.252,2.6,13.637L78.529,125.195z"/>
	<path fill="#CDAB2C" d="M76.686,117.149c-0.238-2.521-0.972-5.014-3.34-6.213c-0.088-0.047-0.17-0.094-0.249-0.144
		c-0.302-0.001-0.604-0.006-0.904-0.008c0.563,0.156,1.054,0.442,1.491,0.873c2.63,2.587,2.416,9.31,2.111,11.681l-0.164,1.266
		l0.981,0.1C76.702,122.186,76.923,119.666,76.686,117.149z"/>
</g>
</svg>
