<?xml version="1.0" encoding="utf-8"?>
<!-- Generator: Adobe Illustrator 16.0.0, SVG Export Plug-In . SVG Version: 6.00 Build 0)  -->
<!DOCTYPE svg PUBLIC "-//W3C//DTD SVG 1.1//EN" "http://www.w3.org/Graphics/SVG/1.1/DTD/svg11.dtd">
<svg version="1.1" id="Layer_1" xmlns="http://www.w3.org/2000/svg" xmlns:xlink="http://www.w3.org/1999/xlink" x="0px" y="0px"
	 width="292.5px" height="244px" viewBox="0 0 292.5 244" enable-background="new 0 0 292.5 244" xml:space="preserve">
<rect x="-7" y="-6" fill="#FFFFFF" width="305" height="255"/>
<g>
	<g>
		<g>
			<path fill="#194798" d="M115.443,95.235h6.541v21.177h12.224v6.074h-18.764V95.235z"/>
			<path fill="#194798" d="M144.795,117.97l-1.637,4.516h-6.889l10.511-27.251h7.437l10.552,27.251h-7.007l-1.636-4.516H144.795z
				 M152.036,106.601c-0.856-2.258-1.48-3.971-1.519-4.008h-0.116c-0.039,0.038-0.662,1.711-1.521,3.971l-1.945,5.451h7.046
				L152.036,106.601z"/>
			<path fill="#194798" d="M174.03,106.213h-0.115c0,0.039,0.078,3.386,0.078,6.928v9.345h-6.543V95.235h6.62l11.601,15.96h0.119
				c0-0.04-0.04-3.542-0.04-6.5v-9.46h6.54v27.251h-6.655L174.03,106.213z"/>
			<path fill="#194798" d="M208.25,95.235c8.141,0,14.369,5.527,14.369,13.741c0,8.252-6.27,13.51-14.329,13.51h-11.64V95.235
				H208.25z M207.901,116.412c4.049,0,8.137-2.063,8.137-7.436c0-5.333-4.09-7.669-8.137-7.669h-4.709v15.105H207.901z"/>
			<path fill="#194798" d="M225.888,95.235h6.541v27.251h-6.541V95.235z"/>
			<path fill="#194798" d="M241.888,114c0.545,2.063,2.452,3.269,5.41,3.269c2.493,0,4.013-0.856,4.013-2.609
				c0-2.609-3.271-2.45-6.619-3.27c-3.7-0.896-8.292-2.609-8.292-8.371c0-5.568,4.204-8.329,10.315-8.329
				c5.564,0,9.539,2.257,11.058,7.123l-6.229,1.676c-0.663-1.986-2.22-3.078-4.946-3.078c-2.491,0-3.541,0.974-3.541,2.414
				c0,2.298,2.607,2.646,6.424,3.427c4.008,0.78,8.447,2.491,8.447,8.369c0,5.607-3.931,8.408-10.589,8.408
				c-4.751,0-10.122-1.439-11.681-7.356L241.888,114z"/>
		</g>
		<path fill="#F15E22" d="M132.319,152.227c0-1.374,0.036-1.511,0.036-1.681h-0.068c-1.374,1.165-3.984,2.161-6.764,2.161
			c-6.692,0-12.356-5.046-12.356-12.53c0-7.344,5.286-12.458,12.459-12.458c5.457,0,9.646,3.021,11.189,6.935l-5.696,1.543
			c-0.927-1.543-2.713-3.055-5.768-3.055c-3.88,0-6.384,2.883-6.384,7.07c0,4.255,2.781,7.035,7.037,7.035
			c3.296,0,5.354-1.442,6.109-2.47v-1.133h-6.04v-5.354h11.394v13.936L132.319,152.227L132.319,152.227z"/>
		<path fill="#F15E22" d="M149.24,144.296h-1.2h-1.373v7.931h-5.768V128.2h9.13c6.043,0,9.576,3.157,9.576,8.134
			c0,3.295-1.611,5.732-4.529,6.832l5.491,9.062h-6.829L149.24,144.296z M150.408,139.698c2.128,0,3.295-1.064,3.295-3.089
			c0-1.992-1.098-3.192-3.328-3.192h-3.706v6.281H150.408L150.408,139.698z"/>
		<path fill="#F15E22" d="M169.526,148.245l-1.441,3.982h-6.076l9.266-24.026h6.558l9.303,24.026h-6.179l-1.441-3.982H169.526z
			 M175.911,138.221c-0.756-1.99-1.305-3.499-1.34-3.534h-0.104c-0.033,0.035-0.584,1.51-1.338,3.501l-1.716,4.808h6.213
			L175.911,138.221z"/>
		<path fill="#F15E22" d="M199.73,128.2c7.175,0,12.666,4.874,12.666,12.114c0,7.277-5.525,11.912-12.632,11.912h-10.264V128.2
			H199.73z M199.421,146.871c3.571,0,7.174-1.819,7.174-6.557c0-4.701-3.603-6.763-7.174-6.763h-4.152v13.319H199.421z"/>
		<path fill="#F15E22" d="M215.279,128.2h17.506v5.352h-11.74v4.122h8.649v4.805h-8.649v4.393h11.911v5.355h-17.677V128.2
			L215.279,128.2z"/>
		<path fill="#F15E22" d="M242.121,137.88h-0.104c0,0.033,0.069,2.985,0.069,6.109v8.237h-5.767V128.2h5.835l10.229,14.072h0.103
			c0-0.035-0.033-3.124-0.033-5.732v-8.341h5.766v24.026h-5.87L242.121,137.88z"/>
	</g>
	<g>
		<path fill="#333132" d="M114.359,157.412h4.43v0.627h-3.741v2.631h3.48v0.627h-3.48v3.512h-0.689V157.412z"/>
		<path fill="#333132" d="M122.092,161.109c0-0.564,0.094-1.082,0.281-1.555c0.19-0.474,0.45-0.884,0.785-1.229
			c0.335-0.344,0.737-0.614,1.207-0.809c0.468-0.193,0.988-0.293,1.551-0.293c0.564,0,1.083,0.1,1.551,0.293
			c0.472,0.195,0.875,0.465,1.207,0.809c0.336,0.345,0.596,0.756,0.784,1.229s0.281,0.99,0.281,1.555
			c0,0.565-0.093,1.086-0.281,1.563c-0.188,0.477-0.448,0.889-0.784,1.232c-0.333,0.346-0.735,0.613-1.207,0.806
			c-0.469,0.19-0.987,0.287-1.551,0.287c-0.562,0-1.083-0.097-1.551-0.287c-0.47-0.192-0.873-0.459-1.207-0.806
			c-0.334-0.343-0.595-0.756-0.785-1.232C122.186,162.193,122.092,161.675,122.092,161.109z M122.78,161.109
			c0,0.462,0.074,0.89,0.22,1.285c0.146,0.399,0.354,0.743,0.626,1.035c0.272,0.293,0.601,0.522,0.987,0.691
			c0.387,0.166,0.821,0.25,1.301,0.25c0.481,0,0.915-0.084,1.301-0.25c0.388-0.167,0.716-0.398,0.988-0.691
			c0.271-0.292,0.481-0.637,0.626-1.035c0.146-0.396,0.221-0.823,0.221-1.285c0-0.458-0.074-0.887-0.221-1.284
			s-0.355-0.742-0.626-1.032c-0.272-0.295-0.601-0.523-0.988-0.692c-0.386-0.166-0.82-0.25-1.301-0.25
			c-0.48,0-0.914,0.084-1.301,0.25c-0.386,0.169-0.715,0.397-0.987,0.692c-0.272,0.29-0.48,0.635-0.626,1.032
			C122.854,160.223,122.78,160.651,122.78,161.109z"/>
		<path fill="#333132" d="M133.688,157.412h1.944c0.098,0,0.23,0.004,0.397,0.011s0.349,0.025,0.544,0.062
			c0.195,0.035,0.394,0.09,0.595,0.169c0.202,0.075,0.382,0.187,0.542,0.334c0.162,0.146,0.294,0.33,0.398,0.554
			c0.104,0.222,0.157,0.495,0.157,0.813c0,0.356-0.062,0.648-0.182,0.878c-0.125,0.23-0.275,0.416-0.461,0.561
			c-0.184,0.143-0.388,0.248-0.611,0.315c-0.223,0.071-0.435,0.12-0.638,0.148l2.153,3.552h-0.784l-2.078-3.51h-1.286v3.51h-0.69
			L133.688,157.412L133.688,157.412z M134.379,160.671h1.462c0.362,0,0.658-0.046,0.885-0.136c0.226-0.09,0.401-0.2,0.527-0.334
			c0.126-0.131,0.209-0.273,0.255-0.429c0.047-0.155,0.069-0.294,0.069-0.418c0-0.126-0.022-0.264-0.069-0.417
			c-0.046-0.154-0.129-0.296-0.255-0.43c-0.126-0.13-0.303-0.244-0.527-0.333c-0.228-0.091-0.522-0.136-0.885-0.136h-1.462V160.671z
			"/>
		<path fill="#333132" d="M146.363,157.412h0.742l2.381,6.489l2.405-6.489h0.729l-2.81,7.396h-0.688L146.363,157.412z"/>
		<path fill="#333132" d="M157.699,157.412h0.713l3.111,7.396h-0.771l-0.807-1.964h-3.915l-0.837,1.964h-0.722L157.699,157.412z
			 M158.024,158.164l-1.726,4.054h3.397L158.024,158.164z"/>
		<path fill="#333132" d="M164.993,157.412h0.689v6.771h3.449v0.626h-4.138L164.993,157.412L164.993,157.412z"/>
		<path fill="#333132" d="M172.622,157.412h0.689v6.771h3.448v0.626h-4.138V157.412L172.622,157.412z"/>
		<path fill="#333132" d="M180.249,157.412h4.523v0.627h-3.836v2.631h3.595v0.627h-3.595v2.884h4.003v0.626h-4.691L180.249,157.412
			L180.249,157.412z"/>
		<path fill="#333132" d="M191.858,162.637c0,0.223-0.017,0.469-0.048,0.74c-0.033,0.271-0.116,0.528-0.25,0.77
			c-0.137,0.24-0.34,0.441-0.606,0.605c-0.268,0.162-0.645,0.245-1.124,0.245c-0.543,0-0.973-0.138-1.291-0.411
			c-0.315-0.275-0.527-0.644-0.633-1.104l0.689-0.124c0.169,0.675,0.579,1.015,1.234,1.015c0.243,0,0.45-0.04,0.621-0.121
			c0.17-0.08,0.309-0.19,0.414-0.33c0.104-0.139,0.182-0.304,0.228-0.494c0.051-0.196,0.075-0.4,0.075-0.624v-5.391h0.69V162.637
			L191.858,162.637z"/>
		<path fill="#333132" d="M195.806,161.109c0-0.564,0.094-1.082,0.284-1.555c0.188-0.474,0.448-0.884,0.781-1.229
			c0.336-0.344,0.737-0.614,1.207-0.809c0.471-0.193,0.987-0.293,1.552-0.293c0.565,0,1.083,0.1,1.554,0.293
			c0.468,0.195,0.87,0.465,1.206,0.809c0.332,0.345,0.595,0.756,0.783,1.229s0.282,0.99,0.282,1.555
			c0,0.565-0.094,1.086-0.282,1.563c-0.188,0.477-0.451,0.889-0.783,1.232c-0.336,0.346-0.738,0.613-1.206,0.806
			c-0.471,0.19-0.988,0.287-1.554,0.287c-0.564,0-1.081-0.097-1.552-0.287c-0.47-0.192-0.872-0.459-1.207-0.806
			c-0.333-0.343-0.594-0.756-0.781-1.232C195.9,162.193,195.806,161.675,195.806,161.109z M196.497,161.109
			c0,0.462,0.072,0.89,0.218,1.285c0.148,0.399,0.355,0.743,0.628,1.035c0.271,0.293,0.602,0.522,0.987,0.691
			c0.387,0.166,0.819,0.25,1.3,0.25c0.481,0,0.914-0.084,1.303-0.25c0.386-0.167,0.716-0.398,0.987-0.691
			c0.27-0.292,0.479-0.637,0.627-1.035c0.146-0.396,0.218-0.823,0.218-1.285c0-0.458-0.072-0.887-0.218-1.284
			c-0.149-0.397-0.357-0.742-0.627-1.032c-0.271-0.295-0.602-0.523-0.987-0.692c-0.387-0.166-0.821-0.25-1.303-0.25
			c-0.48,0-0.911,0.084-1.3,0.25c-0.386,0.169-0.716,0.397-0.987,0.692c-0.272,0.29-0.481,0.635-0.628,1.032
			C196.569,160.223,196.497,160.651,196.497,161.109z"/>
		<path fill="#333132" d="M212.451,157.412h1.034l2.695,6.205l2.698-6.205h0.982v7.396h-0.693v-6.521h-0.018l-2.821,6.521h-0.303
			l-2.864-6.521h-0.021v6.521h-0.69V157.412L212.451,157.412z"/>
		<path fill="#333132" d="M226.482,157.412h0.712l3.113,7.396h-0.772l-0.805-1.964h-3.918l-0.836,1.964h-0.723L226.482,157.412z
			 M226.808,158.164l-1.724,4.054h3.396L226.808,158.164z"/>
		<path fill="#333132" d="M234.645,161.622l-2.717-4.21h0.826l2.235,3.511l2.287-3.511h0.772l-2.717,4.21v3.187h-0.688
			L234.645,161.622L234.645,161.622z"/>
		<path fill="#333132" d="M240.923,161.109c0-0.564,0.095-1.082,0.281-1.555c0.19-0.474,0.449-0.884,0.784-1.229
			c0.334-0.344,0.737-0.614,1.209-0.809c0.468-0.193,0.985-0.293,1.552-0.293c0.563,0,1.08,0.1,1.55,0.293
			c0.472,0.195,0.872,0.465,1.208,0.809c0.333,0.345,0.595,0.756,0.784,1.229c0.187,0.474,0.279,0.99,0.279,1.555
			c0,0.565-0.093,1.086-0.279,1.563c-0.189,0.477-0.451,0.889-0.784,1.232c-0.336,0.346-0.736,0.613-1.208,0.806
			c-0.47,0.19-0.984,0.287-1.55,0.287s-1.083-0.097-1.552-0.287c-0.472-0.192-0.875-0.459-1.209-0.806
			c-0.335-0.343-0.594-0.756-0.784-1.232C241.018,162.193,240.923,161.675,240.923,161.109z M241.614,161.109
			c0,0.462,0.073,0.89,0.219,1.285c0.146,0.399,0.355,0.743,0.627,1.035c0.271,0.293,0.602,0.522,0.986,0.691
			c0.386,0.166,0.821,0.25,1.303,0.25c0.479,0,0.911-0.084,1.3-0.25c0.385-0.167,0.715-0.398,0.986-0.691
			c0.271-0.292,0.481-0.637,0.628-1.035c0.146-0.396,0.219-0.823,0.219-1.285c0-0.458-0.073-0.887-0.219-1.284
			c-0.147-0.397-0.357-0.742-0.628-1.032c-0.271-0.295-0.602-0.523-0.986-0.692c-0.388-0.166-0.82-0.25-1.3-0.25
			c-0.481,0-0.916,0.084-1.303,0.25c-0.385,0.169-0.715,0.397-0.986,0.692c-0.271,0.29-0.482,0.635-0.627,1.032
			C241.688,160.223,241.614,160.651,241.614,161.109z"/>
		<path fill="#333132" d="M252.522,157.412h1.941c0.099,0,0.233,0.004,0.399,0.011s0.346,0.025,0.541,0.062
			c0.196,0.035,0.396,0.09,0.597,0.169c0.202,0.075,0.383,0.187,0.545,0.334c0.16,0.146,0.292,0.33,0.396,0.554
			c0.105,0.222,0.157,0.495,0.157,0.813c0,0.356-0.059,0.648-0.183,0.878c-0.122,0.23-0.275,0.416-0.459,0.561
			c-0.186,0.143-0.39,0.248-0.61,0.315c-0.225,0.071-0.436,0.12-0.638,0.148l2.153,3.552h-0.784l-2.08-3.51h-1.287v3.51h-0.688
			L252.522,157.412L252.522,157.412z M253.21,160.671h1.464c0.362,0,0.655-0.046,0.884-0.136c0.226-0.09,0.402-0.2,0.527-0.334
			c0.125-0.131,0.211-0.273,0.257-0.429c0.043-0.155,0.066-0.294,0.066-0.418c0-0.126-0.023-0.264-0.066-0.417
			c-0.046-0.154-0.131-0.296-0.257-0.43c-0.126-0.13-0.303-0.244-0.527-0.333c-0.229-0.091-0.521-0.136-0.884-0.136h-1.464V160.671z
			"/>
	</g>
	<g>
		<circle fill="#194798" cx="68.36" cy="127.848" r="36.651"/>
		<g>
			<g>
				<defs>
					<circle id="SVGID_1_" cx="68.36" cy="127.848" r="36.651"/>
				</defs>
				<clipPath id="SVGID_2_">
					<use xlink:href="#SVGID_1_"  overflow="visible"/>
				</clipPath>
				<path clip-path="url(#SVGID_2_)" fill="#172A53" d="M93.549,189.001l33.916-28.354l-26.312-34.113c0,0-9.103-12.69-20.835,7.109
					c-9.878,16.672-29.575,10.349-29.575,10.349L93.549,189.001z"/>
			</g>
		</g>
		<path fill="#FFFFFF" d="M101.152,126.533l-13.79-16.088l-15.98,13.913l5.663,6.505l4.82-4.198
			c0.228,7.133-4.832,13.521-12.066,14.748c-7.901,1.343-15.395-3.971-16.736-11.872c-1.341-7.9,3.974-15.394,11.875-16.736
			c1.483-0.251,2.954-0.268,4.373-0.077l7.529-6.741c-4.15-1.935-8.912-2.672-13.766-1.847
			c-12.725,2.161-21.289,14.231-19.125,26.957c2.161,12.725,14.229,21.289,26.955,19.123c11.405-1.935,19.465-11.832,19.458-23.025
			l4.243,4.951L101.152,126.533z"/>
	</g>
</g>
</svg>
