<?xml version="1.0" encoding="utf-8"?>
<!-- Generator: Adobe Illustrator 16.0.0, SVG Export Plug-In . SVG Version: 6.00 Build 0)  -->
<!DOCTYPE svg PUBLIC "-//W3C//DTD SVG 1.1//EN" "http://www.w3.org/Graphics/SVG/1.1/DTD/svg11.dtd">
<svg version="1.1" id="Layer_1" xmlns="http://www.w3.org/2000/svg" xmlns:xlink="http://www.w3.org/1999/xlink" x="0px" y="0px"
	 width="292.5px" height="244px" viewBox="0 0 292.5 244" enable-background="new 0 0 292.5 244" xml:space="preserve">
<rect x="-7" y="-6" fill="#FFFFFF" width="305" height="255"/>
<g>
	<g>
		<g>
			<g>
				<path fill="#A7A19E" d="M191.57,138.273c-6.031,9.828-15.574,15.354-27.004,18.318c-1.041,0.271-1.826,0.391-2.42,0.303
					c0.018,0,0.035,0.002,0.053,0.002c-1.053-0.185-1.445-1.092-1.416-3.203c0.164-12.159,0.58-40.223,0.588-40.665l2.516,0.074
					l14.51,0.113v-0.004l0.578,0.004l0,0h0.115l-0.125-8.611h-0.119l0,0l-0.578,0.001v-0.001l-26.756,0.053
					c0,0,0.098,26.521,0.098,37.971c0,6.551-0.028,16.896-0.053,24.432c0,0,0.84,0.213,2.633,0.199
					c2.56,0.061,7.605-0.354,15.73-3.178c13.676-4.756,24.541-14.329,30.988-26.305C197.596,138.157,194.234,138.271,191.57,138.273
					z"/>
			</g>
			<g>
				<rect x="151.512" y="57.195" fill="#A7A19E" width="8.801" height="39.426"/>
			</g>
		</g>
	</g>
	<path fill="#EC2C2F" d="M142.944,104.659l-26.758-0.053l-0.127,8.611l18.274-0.045c0,0-0.043,28.178,0.034,40.521
		c0.014,2.111-0.363,3.02-1.415,3.203c-0.327,0.057-0.718,0.043-1.177-0.024c-0.388-0.06-0.818-0.151-1.309-0.279
		c-19.932-5.173-34.146-24.004-33.966-45.244c0.142-16.575,9.956-32.097,24.057-39.854c0.018-0.01,0.038-0.021,0.054-0.03
		c3.251-1.781,6.727-3.151,10.364-4.026c2.599-0.625,3.425-0.223,3.375,2.546c-0.14,7.416-0.124,26.654-0.124,26.654l8.711-0.038
		c0,0-0.049-15.309-0.075-24.943c-0.01-3.304-0.017-6.458-0.019-8.971c0-5.842-0.006-5.842-5.968-5.231
		c-25.34,2.597-46.165,23.275-48.943,48.598c-2.805,25.562,12.694,49.515,37.179,58.03c12.541,4.361,17.788,2.979,17.788,2.979
		L142.944,104.659z"/>
	<g>
		<path fill="#A7A19E" d="M88.751,179.652l-0.646,0.613c-0.465-0.459-0.975-0.806-1.528-1.041c-0.555-0.238-1.095-0.355-1.62-0.355
			c-0.654,0-1.277,0.161-1.869,0.482c-0.593,0.321-1.051,0.758-1.376,1.308c-0.326,0.552-0.488,1.133-0.488,1.745
			c0,0.629,0.168,1.225,0.505,1.789c0.337,0.565,0.802,1.011,1.396,1.334c0.594,0.324,1.244,0.484,1.951,0.484
			c0.858,0,1.585-0.24,2.179-0.727c0.594-0.483,0.945-1.112,1.055-1.883h-2.66v-0.807h3.598c-0.009,1.289-0.392,2.313-1.15,3.072
			c-0.758,0.758-1.772,1.137-3.043,1.137c-1.544,0-2.766-0.525-3.666-1.576c-0.691-0.81-1.038-1.746-1.038-2.81
			c0-0.79,0.199-1.524,0.596-2.206s0.942-1.213,1.635-1.598c0.691-0.385,1.475-0.575,2.349-0.575c0.707,0,1.373,0.127,1.997,0.382
			C87.549,178.68,88.158,179.09,88.751,179.652z"/>
		<path fill="#A7A19E" d="M92.042,178.251h1.662c0.927,0,1.555,0.039,1.884,0.114c0.496,0.113,0.898,0.355,1.209,0.729
			c0.31,0.374,0.465,0.832,0.465,1.379c0,0.454-0.107,0.854-0.32,1.198c-0.214,0.345-0.52,0.604-0.917,0.78
			c-0.396,0.177-0.945,0.266-1.645,0.27l3.001,3.877H96.35l-3.002-3.877h-0.472v3.877h-0.834V178.251z M92.875,179.068v2.838
			l1.438,0.01c0.557,0,0.968-0.052,1.235-0.158c0.267-0.105,0.476-0.275,0.625-0.508s0.225-0.493,0.225-0.78
			c0-0.28-0.076-0.534-0.228-0.764c-0.151-0.228-0.351-0.392-0.597-0.489c-0.246-0.099-0.655-0.148-1.228-0.148H92.875
			L92.875,179.068z"/>
		<path fill="#A7A19E" d="M103.62,178.251l3.893,8.347h-0.9l-1.312-2.746h-3.596l-1.301,2.746h-0.93l3.942-8.347H103.62z
			 M103.515,180.023l-1.431,3.021h2.854L103.515,180.023z"/>
		<path fill="#A7A19E" d="M117.741,179.801l-0.658,0.506c-0.363-0.474-0.799-0.832-1.308-1.076
			c-0.509-0.244-1.068-0.365-1.677-0.365c-0.666,0-1.282,0.16-1.85,0.479c-0.567,0.32-1.007,0.749-1.319,1.288
			c-0.312,0.538-0.468,1.146-0.468,1.818c0,1.018,0.349,1.866,1.047,2.547c0.698,0.683,1.578,1.021,2.641,1.021
			c1.169,0,2.146-0.457,2.934-1.373l0.658,0.5c-0.417,0.528-0.936,0.938-1.558,1.229s-1.317,0.434-2.085,0.434
			c-1.46,0-2.612-0.484-3.455-1.457c-0.707-0.82-1.061-1.812-1.061-2.973c0-1.223,0.428-2.25,1.285-3.085
			c0.856-0.834,1.93-1.25,3.219-1.25c0.779,0,1.483,0.153,2.111,0.463C116.825,178.812,117.339,179.244,117.741,179.801z"/>
		<path fill="#A7A19E" d="M120.582,178.251h4.783v0.817h-3.949v2.615h3.915v0.816h-3.915v3.277h3.915v0.818h-4.749V178.251z"/>
		<path fill="#A7A19E" d="M131.518,179.068v-0.817h4.572v0.817h-1.86v7.529h-0.852v-7.529H131.518z"/>
		<path fill="#A7A19E" d="M140.922,178.251l3.894,8.347h-0.901l-1.312-2.746h-3.596l-1.3,2.746h-0.931l3.943-8.347H140.922z
			 M140.819,180.023l-1.431,3.021h2.854L140.819,180.023z"/>
		<path fill="#A7A19E" d="M147.293,178.251h1.646c0.662,0,1.17,0.079,1.524,0.235c0.354,0.158,0.638,0.397,0.843,0.724
			c0.207,0.326,0.311,0.687,0.311,1.084c0,0.371-0.09,0.709-0.271,1.013c-0.18,0.305-0.445,0.551-0.797,0.741
			c0.434,0.147,0.768,0.319,1.002,0.519s0.416,0.438,0.547,0.722c0.129,0.28,0.193,0.587,0.193,0.916
			c0,0.669-0.244,1.235-0.734,1.698c-0.488,0.464-1.146,0.695-1.971,0.695h-2.293V178.251z M148.111,179.068v2.673h0.477
			c0.58,0,1.006-0.056,1.279-0.162c0.273-0.108,0.49-0.277,0.648-0.511c0.159-0.232,0.237-0.49,0.237-0.774
			c0-0.382-0.133-0.683-0.399-0.899c-0.268-0.217-0.691-0.326-1.277-0.326H148.111L148.111,179.068z M148.111,182.58v3.199h1.035
			c0.606,0,1.055-0.059,1.34-0.178c0.283-0.119,0.512-0.307,0.686-0.56c0.172-0.254,0.258-0.528,0.258-0.823
			c0-0.369-0.121-0.693-0.363-0.97c-0.241-0.276-0.575-0.466-1-0.567c-0.282-0.067-0.778-0.103-1.483-0.103L148.111,182.58
			L148.111,182.58z"/>
		<path fill="#A7A19E" d="M155.111,178.251h4.783v0.817h-3.949v2.615h3.914v0.816h-3.914v3.277h3.914v0.818h-4.748V178.251z"/>
		<path fill="#A7A19E" d="M162.541,178.251h1.664c0.926,0,1.553,0.039,1.883,0.114c0.494,0.113,0.898,0.355,1.209,0.729
			c0.311,0.374,0.465,0.832,0.465,1.379c0,0.454-0.107,0.854-0.32,1.198c-0.215,0.345-0.52,0.604-0.918,0.78
			c-0.396,0.177-0.944,0.266-1.645,0.27l3.002,3.877h-1.031l-3.004-3.877h-0.471v3.877h-0.834V178.251L162.541,178.251z
			 M163.375,179.068v2.838l1.439,0.01c0.555,0,0.969-0.052,1.233-0.158c0.269-0.105,0.478-0.275,0.625-0.508
			c0.149-0.232,0.226-0.493,0.226-0.78c0-0.28-0.074-0.534-0.228-0.764c-0.151-0.228-0.353-0.392-0.599-0.489
			c-0.245-0.099-0.653-0.148-1.227-0.148H163.375L163.375,179.068z"/>
		<path fill="#A7A19E" d="M170.717,186.598v-8.347h0.182l5.554,6.397v-6.397h0.823v8.347h-0.188l-5.51-6.32v6.32H170.717z"/>
		<path fill="#A7A19E" d="M183.877,178.251l3.893,8.347h-0.899l-1.312-2.746h-3.597l-1.301,2.746h-0.931l3.943-8.347H183.877z
			 M183.771,180.023l-1.431,3.021h2.854L183.771,180.023z"/>
		<path fill="#A7A19E" d="M197.998,179.801l-0.658,0.506c-0.363-0.474-0.799-0.832-1.307-1.076c-0.51-0.244-1.068-0.365-1.678-0.365
			c-0.666,0-1.283,0.16-1.851,0.479c-0.567,0.32-1.008,0.749-1.317,1.288c-0.312,0.538-0.47,1.146-0.47,1.818
			c0,1.018,0.351,1.866,1.048,2.547c0.698,0.683,1.577,1.021,2.641,1.021c1.17,0,2.146-0.457,2.934-1.373l0.658,0.5
			c-0.416,0.528-0.936,0.938-1.559,1.229c-0.621,0.289-1.316,0.434-2.084,0.434c-1.459,0-2.611-0.484-3.455-1.457
			c-0.707-0.82-1.062-1.812-1.062-2.973c0-1.223,0.429-2.25,1.285-3.085c0.854-0.834,1.931-1.25,3.219-1.25
			c0.779,0,1.482,0.153,2.111,0.463C197.082,178.812,197.598,179.244,197.998,179.801z"/>
		<path fill="#A7A19E" d="M200.834,178.251h0.834v7.541h3.211v0.806h-4.045V178.251z"/>
		<path fill="#A7A19E" d="M207.367,178.251h4.783v0.817h-3.947v2.615h3.914v0.816h-3.914v3.277h3.914v0.818h-4.75V178.251z"/>
	</g>
</g>
</svg>
