<?xml version="1.0" encoding="utf-8"?>
<!-- Generator: Adobe Illustrator 16.0.0, SVG Export Plug-In . SVG Version: 6.00 Build 0)  -->
<!DOCTYPE svg PUBLIC "-//W3C//DTD SVG 1.1//EN" "http://www.w3.org/Graphics/SVG/1.1/DTD/svg11.dtd">
<svg version="1.1" id="Layer_1" xmlns="http://www.w3.org/2000/svg" xmlns:xlink="http://www.w3.org/1999/xlink" x="0px" y="0px"
	 width="292.5px" height="244px" viewBox="0 0 292.5 244" enable-background="new 0 0 292.5 244" xml:space="preserve">
<rect x="-6.377" y="-7" fill="#FFFFFF" width="305" height="255"/>
<g>
	<g>
		<g>
			<g>
				<path fill="#A7A19E" d="M192.193,137.272c-6.031,9.828-15.574,15.354-27.004,18.318c-1.041,0.271-1.826,0.391-2.42,0.303
					c0.018,0,0.035,0.002,0.053,0.002c-1.053-0.185-1.445-1.092-1.416-3.202c0.164-12.16,0.58-40.224,0.588-40.666l2.517,0.074
					l14.51,0.113v-0.004l0.578,0.004l0,0h0.114l-0.125-8.611h-0.118l0,0l-0.578,0.001v-0.001l-26.756,0.053
					c0,0,0.098,26.521,0.098,37.971c0,6.551-0.028,16.896-0.053,24.432c0,0,0.84,0.213,2.633,0.199
					c2.56,0.062,7.604-0.354,15.729-3.179c13.677-4.756,24.541-14.328,30.988-26.305
					C198.219,137.156,194.857,137.271,192.193,137.272z"/>
			</g>
			<g>
				<rect x="152.135" y="56.195" fill="#A7A19E" width="8.801" height="39.426"/>
			</g>
		</g>
	</g>
	<path fill="#EC2C2F" d="M143.566,103.659l-26.758-0.053l-0.127,8.611l18.273-0.045c0,0-0.043,28.178,0.034,40.521
		c0.014,2.11-0.363,3.02-1.415,3.202c-0.327,0.058-0.718,0.043-1.177-0.024c-0.389-0.06-0.818-0.15-1.311-0.278
		c-19.932-5.173-34.146-24.004-33.966-45.244c0.144-16.575,9.956-32.097,24.058-39.854c0.019-0.01,0.039-0.021,0.055-0.03
		c3.25-1.781,6.727-3.151,10.363-4.026c2.6-0.625,3.426-0.223,3.375,2.546c-0.141,7.416-0.123,26.654-0.123,26.654l8.711-0.038
		c0,0-0.049-15.309-0.076-24.943c-0.01-3.304-0.016-6.458-0.019-8.971c0-5.842-0.007-5.842-5.969-5.231
		c-25.34,2.597-46.165,23.275-48.942,48.598c-2.806,25.562,12.693,49.515,37.18,58.03c12.541,4.361,17.787,2.979,17.787,2.979
		L143.566,103.659z"/>
	<g>
		<path fill="#A7A19E" d="M89.374,178.652l-0.646,0.612c-0.465-0.459-0.977-0.806-1.528-1.041c-0.556-0.237-1.095-0.354-1.62-0.354
			c-0.653,0-1.276,0.16-1.869,0.481s-1.051,0.759-1.376,1.308c-0.325,0.553-0.486,1.133-0.486,1.746
			c0,0.629,0.168,1.225,0.504,1.789c0.338,0.564,0.803,1.01,1.396,1.334c0.595,0.323,1.244,0.483,1.951,0.483
			c0.857,0,1.585-0.24,2.179-0.728c0.596-0.482,0.945-1.111,1.057-1.883h-2.66v-0.807h3.598c-0.01,1.289-0.393,2.312-1.149,3.072
			c-0.758,0.758-1.771,1.137-3.043,1.137c-1.544,0-2.767-0.525-3.666-1.576c-0.69-0.811-1.037-1.746-1.037-2.811
			c0-0.789,0.198-1.523,0.596-2.205c0.396-0.682,0.941-1.213,1.635-1.598c0.691-0.386,1.476-0.576,2.351-0.576
			c0.707,0,1.373,0.127,1.996,0.383C88.172,177.68,88.781,178.09,89.374,178.652z"/>
		<path fill="#A7A19E" d="M92.665,177.25h1.662c0.927,0,1.556,0.039,1.884,0.115c0.496,0.112,0.898,0.354,1.209,0.729
			c0.312,0.374,0.466,0.832,0.466,1.379c0,0.454-0.107,0.854-0.32,1.198c-0.213,0.344-0.521,0.604-0.916,0.78
			c-0.396,0.177-0.945,0.266-1.646,0.27l3.001,3.877h-1.03l-3.002-3.877h-0.473v3.877h-0.834V177.25L92.665,177.25z M93.498,178.068
			v2.838l1.438,0.01c0.558,0,0.969-0.053,1.234-0.158c0.268-0.105,0.477-0.275,0.625-0.508c0.149-0.233,0.227-0.493,0.227-0.78
			c0-0.28-0.076-0.534-0.229-0.765c-0.149-0.228-0.352-0.392-0.597-0.488c-0.246-0.1-0.655-0.148-1.228-0.148H93.498L93.498,178.068
			z"/>
		<path fill="#A7A19E" d="M104.243,177.25l3.895,8.348h-0.9l-1.312-2.746h-3.597l-1.301,2.746h-0.93l3.94-8.348H104.243z
			 M104.139,179.022l-1.433,3.021h2.854L104.139,179.022z"/>
		<path fill="#A7A19E" d="M118.364,178.801l-0.658,0.506c-0.361-0.475-0.799-0.832-1.308-1.076c-0.51-0.244-1.068-0.365-1.678-0.365
			c-0.666,0-1.281,0.16-1.851,0.479c-0.565,0.319-1.007,0.749-1.317,1.288c-0.312,0.538-0.47,1.146-0.47,1.818
			c0,1.018,0.351,1.865,1.048,2.547c0.697,0.683,1.577,1.021,2.641,1.021c1.17,0,2.146-0.457,2.935-1.373l0.658,0.5
			c-0.417,0.528-0.937,0.938-1.558,1.229c-0.623,0.289-1.317,0.434-2.086,0.434c-1.459,0-2.611-0.484-3.455-1.458
			c-0.707-0.819-1.062-1.812-1.062-2.973c0-1.224,0.429-2.25,1.285-3.085c0.855-0.834,1.93-1.25,3.219-1.25
			c0.779,0,1.482,0.152,2.111,0.463C117.448,177.812,117.962,178.244,118.364,178.801z"/>
		<path fill="#A7A19E" d="M121.205,177.25h4.783v0.818h-3.949v2.614h3.915v0.815h-3.915v3.277h3.915v0.818h-4.749V177.25z"/>
		<path fill="#A7A19E" d="M132.141,178.068v-0.818h4.571v0.818h-1.858v7.528H134v-7.528H132.141z"/>
		<path fill="#A7A19E" d="M141.545,177.25l3.896,8.348h-0.901l-1.312-2.746h-3.597l-1.301,2.746h-0.932l3.943-8.348H141.545z
			 M141.441,179.022l-1.43,3.021h2.854L141.441,179.022z"/>
		<path fill="#A7A19E" d="M147.916,177.25h1.646c0.662,0,1.17,0.08,1.523,0.236c0.354,0.157,0.639,0.396,0.844,0.724
			c0.207,0.325,0.311,0.687,0.311,1.084c0,0.37-0.09,0.709-0.271,1.013c-0.181,0.305-0.445,0.551-0.798,0.741
			c0.435,0.147,0.769,0.319,1.002,0.519c0.234,0.2,0.416,0.438,0.548,0.723c0.129,0.279,0.192,0.586,0.192,0.916
			c0,0.668-0.244,1.234-0.733,1.697c-0.488,0.465-1.146,0.695-1.972,0.695h-2.293V177.25L147.916,177.25z M148.734,178.068v2.672
			h0.477c0.58,0,1.006-0.056,1.279-0.162c0.273-0.107,0.49-0.276,0.648-0.51c0.158-0.232,0.236-0.49,0.236-0.774
			c0-0.382-0.133-0.683-0.398-0.899c-0.269-0.217-0.691-0.326-1.277-0.326H148.734L148.734,178.068z M148.734,181.58v3.199h1.035
			c0.605,0,1.055-0.06,1.34-0.179c0.283-0.119,0.512-0.307,0.686-0.56c0.172-0.254,0.259-0.528,0.259-0.823
			c0-0.369-0.121-0.693-0.363-0.97c-0.241-0.276-0.575-0.467-1-0.567c-0.282-0.067-0.778-0.103-1.483-0.103L148.734,181.58
			L148.734,181.58z"/>
		<path fill="#A7A19E" d="M155.734,177.25h4.783v0.818h-3.949v2.614h3.914v0.815h-3.914v3.277h3.914v0.818h-4.748V177.25
			L155.734,177.25z"/>
		<path fill="#A7A19E" d="M163.164,177.25h1.664c0.926,0,1.553,0.039,1.883,0.115c0.494,0.112,0.898,0.354,1.209,0.729
			c0.312,0.374,0.466,0.832,0.466,1.379c0,0.454-0.107,0.854-0.32,1.198c-0.215,0.345-0.521,0.604-0.918,0.78
			c-0.396,0.177-0.944,0.266-1.646,0.27l3.002,3.877h-1.03l-3.004-3.877h-0.472v3.877h-0.834V177.25L163.164,177.25z
			 M163.998,178.068v2.838l1.439,0.01c0.555,0,0.969-0.053,1.232-0.158c0.27-0.105,0.479-0.275,0.625-0.508
			c0.15-0.232,0.227-0.493,0.227-0.78c0-0.28-0.074-0.534-0.229-0.765c-0.15-0.228-0.353-0.392-0.598-0.488
			c-0.246-0.1-0.654-0.148-1.229-0.148H163.998L163.998,178.068z"/>
		<path fill="#A7A19E" d="M171.34,185.597v-8.347h0.182l5.554,6.396v-6.396h0.823v8.347h-0.188l-5.51-6.319v6.319H171.34z"/>
		<path fill="#A7A19E" d="M184.5,177.25l3.894,8.348h-0.899l-1.312-2.746h-3.598l-1.301,2.746h-0.931l3.942-8.348H184.5z
			 M184.395,179.022l-1.432,3.021h2.854L184.395,179.022z"/>
		<path fill="#A7A19E" d="M198.621,178.801l-0.658,0.506c-0.362-0.475-0.799-0.832-1.307-1.076c-0.51-0.244-1.068-0.365-1.678-0.365
			c-0.666,0-1.283,0.16-1.852,0.479c-0.566,0.319-1.008,0.749-1.316,1.288c-0.312,0.538-0.471,1.146-0.471,1.818
			c0,1.018,0.352,1.865,1.049,2.547c0.697,0.683,1.576,1.021,2.641,1.021c1.17,0,2.146-0.457,2.934-1.373l0.658,0.5
			c-0.416,0.528-0.936,0.938-1.559,1.229c-0.621,0.289-1.316,0.434-2.084,0.434c-1.459,0-2.611-0.484-3.455-1.458
			c-0.707-0.819-1.062-1.812-1.062-2.973c0-1.224,0.43-2.25,1.285-3.085c0.854-0.834,1.932-1.25,3.219-1.25
			c0.779,0,1.482,0.152,2.111,0.463C197.705,177.812,198.221,178.244,198.621,178.801z"/>
		<path fill="#A7A19E" d="M201.457,177.25h0.834v7.541h3.211v0.807h-4.045V177.25z"/>
		<path fill="#A7A19E" d="M207.99,177.25h4.783v0.818h-3.947v2.614h3.914v0.815h-3.914v3.277h3.914v0.818h-4.75V177.25z"/>
	</g>
</g>
</svg>
