<?xml version="1.0" encoding="utf-8"?>
<!-- Generator: Adobe Illustrator 16.0.0, SVG Export Plug-In . SVG Version: 6.00 Build 0)  -->
<!DOCTYPE svg PUBLIC "-//W3C//DTD SVG 1.1//EN" "http://www.w3.org/Graphics/SVG/1.1/DTD/svg11.dtd">
<svg version="1.1" id="Layer_1" xmlns="http://www.w3.org/2000/svg" xmlns:xlink="http://www.w3.org/1999/xlink" x="0px" y="0px"
	 width="292.5px" height="244px" viewBox="0 0 292.5 244" enable-background="new 0 0 292.5 244" xml:space="preserve">
<rect x="-7" y="-6" fill="#FFFFFF" width="305" height="255"/>
<g>
	<path fill="#3B3589" d="M142.032,120.227h-2.626v-13.614h-38.607c3.075,22.355,22.25,39.575,45.45,39.575
		c1.423,0,2.828-0.067,4.217-0.195v-41.428h16.241v2.627h-13.614v38.491c22.093-3.306,39.041-22.361,39.041-45.376
		c0-1.481-0.073-2.945-0.213-4.391h-41.455V79.672h2.627v13.616H191.6c-3.377-22.01-22.396-38.867-45.351-38.867
		c-1.422,0-2.827,0.068-4.217,0.195v41.428h-16.24v-2.625h13.614V54.93c-22.095,3.303-39.04,22.359-39.04,45.375
		c0,1.238,0.051,2.467,0.146,3.682h41.52"/>
	<g>
		<path fill="#3B3589" d="M36.085,159.657h1.455v5.351l5.699-5.351h1.915l-6.849,6.397l7.382,7.861h-1.898l-6.249-6.645v6.645
			h-1.455V159.657z"/>
		<path fill="#3B3589" d="M49.874,159.657h1.425v14.26h-1.425V159.657z"/>
		<path fill="#3B3589" d="M56.839,173.917v-14.26h0.311l9.49,10.932v-10.932h1.405v14.26h-0.32l-9.412-10.799v10.799H56.839z"/>
		<path fill="#3B3589" d="M87.533,162.052l-1.104,1.048c-0.795-0.783-1.666-1.375-2.612-1.779c-0.948-0.404-1.87-0.606-2.768-0.606
			c-1.118,0-2.184,0.276-3.194,0.825c-1.012,0.549-1.796,1.294-2.351,2.232c-0.556,0.941-0.834,1.936-0.834,2.981
			c0,1.072,0.288,2.093,0.862,3.06c0.575,0.967,1.37,1.725,2.385,2.276c1.016,0.554,2.126,0.828,3.335,0.828
			c1.467,0,2.708-0.412,3.723-1.239c1.014-0.826,1.615-1.9,1.803-3.22h-4.546v-1.376h6.146c-0.014,2.204-0.668,3.953-1.963,5.249
			c-1.296,1.297-3.029,1.942-5.2,1.942c-2.638,0-4.725-0.897-6.264-2.693c-1.182-1.383-1.773-2.98-1.773-4.798
			c0-1.351,0.34-2.608,1.019-3.771c0.678-1.161,1.609-2.071,2.791-2.728c1.183-0.656,2.521-0.984,4.014-0.984
			c1.208,0,2.346,0.217,3.412,0.653C85.478,160.389,86.52,161.089,87.533,162.052z"/>
		<path fill="#3B3589" d="M93.354,173.917v-14.26h2.957c2.133,0,3.681,0.17,4.644,0.514c1.383,0.485,2.463,1.324,3.242,2.521
			c0.778,1.195,1.168,2.621,1.168,4.274c0,1.431-0.309,2.687-0.926,3.771c-0.617,1.086-1.418,1.889-2.403,2.404
			c-0.986,0.518-2.367,0.775-4.145,0.775L93.354,173.917L93.354,173.917z M94.722,172.568h1.648c1.971,0,3.338-0.123,4.1-0.368
			c1.073-0.349,1.917-0.976,2.531-1.884c0.612-0.905,0.92-2.016,0.92-3.326c0-1.375-0.333-2.551-0.998-3.525
			c-0.666-0.977-1.594-1.644-2.782-2.006c-0.892-0.271-2.361-0.406-4.411-0.406h-1.008V172.568z"/>
		<path fill="#3B3589" d="M117.182,159.299c2.16,0,3.967,0.721,5.423,2.162c1.455,1.439,2.182,3.215,2.182,5.321
			c0,2.086-0.727,3.856-2.177,5.312c-1.452,1.455-3.223,2.182-5.311,2.182c-2.115,0-3.9-0.723-5.354-2.172
			c-1.456-1.446-2.184-3.199-2.184-5.254c0-1.369,0.331-2.64,0.995-3.81c0.663-1.17,1.566-2.085,2.711-2.748
			C114.611,159.63,115.849,159.299,117.182,159.299z M117.245,160.686c-1.056,0-2.056,0.273-3,0.823
			c-0.945,0.552-1.685,1.29-2.214,2.222c-0.531,0.933-0.797,1.971-0.797,3.115c0,1.693,0.588,3.124,1.762,4.293
			c1.176,1.166,2.592,1.75,4.249,1.75c1.107,0,2.131-0.268,3.072-0.805c0.942-0.537,1.676-1.271,2.204-2.203
			s0.792-1.966,0.792-3.104c0-1.133-0.264-2.155-0.792-3.071c-0.528-0.914-1.271-1.646-2.229-2.197
			C119.336,160.959,118.319,160.686,117.245,160.686z"/>
		<path fill="#3B3589" d="M129.259,173.917l2.042-14.26h0.231l5.796,11.7l5.742-11.7h0.228l2.054,14.26h-1.399l-1.407-10.199
			l-5.043,10.199h-0.364l-5.101-10.274l-1.401,10.274H129.259z"/>
		<path fill="#3B3589" d="M158.212,159.657h2.812c1.131,0,2,0.135,2.609,0.401c0.607,0.27,1.088,0.682,1.438,1.236
			c0.352,0.555,0.529,1.174,0.529,1.852c0,0.635-0.154,1.211-0.463,1.729c-0.31,0.521-0.764,0.942-1.361,1.267
			c0.742,0.252,1.312,0.547,1.713,0.887c0.396,0.339,0.71,0.75,0.932,1.229c0.223,0.482,0.333,1.006,0.333,1.567
			c0,1.144-0.418,2.11-1.256,2.903c-0.835,0.789-1.96,1.188-3.367,1.188h-3.918V159.657L158.212,159.657z M159.609,161.053v4.566
			h0.812c0.993,0,1.723-0.094,2.188-0.277c0.466-0.183,0.836-0.474,1.106-0.871c0.272-0.396,0.408-0.839,0.408-1.324
			c0-0.651-0.228-1.164-0.685-1.537c-0.457-0.37-1.185-0.557-2.183-0.557H159.609z M159.609,167.055v5.467h1.769
			c1.041,0,1.804-0.102,2.289-0.307c0.485-0.203,0.874-0.521,1.171-0.955c0.295-0.433,0.443-0.9,0.443-1.404
			c0-0.633-0.207-1.187-0.623-1.657c-0.414-0.472-0.983-0.794-1.708-0.97c-0.485-0.117-1.332-0.174-2.535-0.174H159.609z"/>
		<path fill="#3B3589" d="M171.887,159.657h1.424v8.606c0,1.021,0.02,1.658,0.06,1.91c0.071,0.562,0.235,1.032,0.493,1.411
			c0.26,0.378,0.658,0.694,1.193,0.95c0.537,0.254,1.075,0.381,1.619,0.381c0.471,0,0.924-0.1,1.355-0.3
			c0.435-0.2,0.794-0.479,1.088-0.834c0.29-0.355,0.502-0.783,0.638-1.289c0.099-0.361,0.147-1.104,0.147-2.229v-8.606h1.424v8.606
			c0,1.274-0.125,2.303-0.374,3.088c-0.248,0.785-0.746,1.471-1.492,2.051c-0.746,0.582-1.649,0.871-2.708,0.871
			c-1.152,0-2.137-0.272-2.958-0.823c-0.821-0.548-1.37-1.275-1.647-2.181c-0.174-0.558-0.262-1.558-0.262-3.006V159.657
			L171.887,159.657z"/>
		<path fill="#3B3589" d="M186.896,159.657h1.426v14.26h-1.426V159.657z"/>
		<path fill="#3B3589" d="M193.852,159.657h1.426v12.883h5.486v1.377h-6.912V159.657z"/>
		<path fill="#3B3589" d="M205.285,173.917v-14.26h2.957c2.132,0,3.681,0.17,4.645,0.514c1.383,0.485,2.463,1.324,3.243,2.521
			c0.776,1.195,1.168,2.621,1.168,4.274c0,1.431-0.312,2.687-0.927,3.771c-0.617,1.087-1.42,1.889-2.404,2.404
			c-0.984,0.518-2.367,0.775-4.146,0.775L205.285,173.917L205.285,173.917z M206.65,172.568h1.649c1.972,0,3.337-0.123,4.101-0.368
			c1.074-0.349,1.916-0.976,2.531-1.884c0.611-0.905,0.92-2.016,0.92-3.326c0-1.375-0.332-2.551-0.998-3.525
			c-0.666-0.977-1.595-1.644-2.783-2.006c-0.891-0.271-2.36-0.406-4.409-0.406h-1.011V172.568L206.65,172.568z"/>
		<path fill="#3B3589" d="M222.332,159.657h8.17v1.396h-6.746v4.469h6.688v1.396h-6.688v5.604h6.688v1.396h-8.111V159.657z"/>
		<path fill="#3B3589" d="M235.307,159.657h2.84c1.582,0,2.656,0.063,3.217,0.194c0.849,0.192,1.535,0.608,2.066,1.246
			c0.53,0.639,0.793,1.422,0.793,2.354c0,0.774-0.181,1.459-0.546,2.046c-0.364,0.591-0.887,1.034-1.563,1.335
			c-0.682,0.302-1.617,0.454-2.813,0.461l5.13,6.622h-1.764l-5.128-6.622h-0.808v6.622h-1.424V159.657L235.307,159.657z
			 M236.73,161.053v4.846l2.457,0.021c0.949,0,1.652-0.09,2.111-0.271c0.456-0.182,0.812-0.471,1.067-0.869
			c0.257-0.396,0.383-0.84,0.383-1.33c0-0.479-0.128-0.913-0.388-1.305c-0.262-0.392-0.601-0.672-1.019-0.84
			c-0.424-0.166-1.123-0.252-2.1-0.252H236.73z"/>
		<path fill="#3B3589" d="M248.068,171.26l1.211-0.727c0.852,1.57,1.839,2.355,2.955,2.355c0.479,0,0.928-0.111,1.35-0.335
			c0.42-0.224,0.738-0.521,0.957-0.896c0.221-0.374,0.329-0.771,0.329-1.191c0-0.479-0.159-0.946-0.481-1.405
			c-0.445-0.635-1.261-1.396-2.441-2.287c-1.191-0.898-1.93-1.549-2.223-1.949c-0.502-0.672-0.757-1.399-0.757-2.18
			c0-0.621,0.148-1.188,0.446-1.699c0.297-0.508,0.717-0.911,1.256-1.204c0.539-0.296,1.126-0.441,1.762-0.441
			c0.668,0,1.299,0.166,1.885,0.499c0.584,0.333,1.201,0.944,1.854,1.838l-1.163,0.881c-0.535-0.711-0.992-1.18-1.369-1.404
			c-0.38-0.227-0.791-0.34-1.236-0.34c-0.576,0-1.047,0.174-1.411,0.523c-0.366,0.348-0.548,0.778-0.548,1.289
			c0,0.311,0.063,0.609,0.193,0.9c0.129,0.291,0.365,0.607,0.707,0.951c0.188,0.18,0.803,0.654,1.844,1.426
			c1.233,0.91,2.078,1.721,2.537,2.432s0.69,1.425,0.69,2.145c0,1.033-0.394,1.933-1.179,2.692
			c-0.784,0.763-1.741,1.144-2.864,1.144c-0.866,0-1.649-0.229-2.354-0.691C249.312,173.12,248.66,172.346,248.068,171.26z"/>
	</g>
	<g>
		<path fill="#3B3589" d="M42.547,189.118c-0.22,0.084-0.452,0.164-0.698,0.239c-0.483,0.147-0.953,0.222-1.407,0.222
			c-1.254,0-2.281-0.377-3.081-1.131c-0.807-0.746-1.21-1.716-1.21-2.907c0-1.146,0.403-2.107,1.21-2.883
			c0.816-0.77,1.83-1.155,3.046-1.155c0.408,0,0.854,0.06,1.339,0.173c0.484,0.124,0.92,0.286,1.303,0.485v0.682
			c-0.369-0.216-0.8-0.399-1.292-0.555c-0.461-0.146-0.946-0.22-1.453-0.22c-1,0-1.83,0.33-2.492,0.992
			c-0.669,0.662-1.003,1.488-1.003,2.479c0,1.022,0.326,1.858,0.979,2.504c0.654,0.646,1.505,0.97,2.55,0.97
			c0.562,0,1.081-0.084,1.558-0.255c0.246-0.084,0.471-0.175,0.675-0.271c0.205-0.096,0.395-0.193,0.572-0.295v0.636
			C42.964,188.938,42.765,189.032,42.547,189.118z"/>
		<path fill="#3B3589" d="M54.942,189.475v-3.725h-5.237v3.725h-0.611v-7.865h0.611v3.633h5.237v-3.633h0.61v7.865H54.942z"/>
		<path fill="#3B3589" d="M67.515,189.475l-1.384-2.154c-0.139-0.226-0.275-0.434-0.409-0.624c-0.134-0.192-0.271-0.365-0.41-0.521
			c-0.275-0.314-0.684-0.473-1.222-0.473h-1.2v3.771h-0.61v-7.867h1.983c0.839,0,1.489,0.174,1.949,0.519
			c0.462,0.362,0.693,0.874,0.693,1.536c0,0.506-0.151,0.914-0.451,1.223c-0.307,0.322-0.653,0.545-1.038,0.67
			c0.208,0.131,0.432,0.355,0.669,0.68c0.123,0.17,0.239,0.332,0.347,0.496c0.107,0.16,0.216,0.322,0.322,0.483l1.478,2.261H67.515z
			 M65.716,182.518c-0.361-0.269-0.85-0.401-1.465-0.401H62.89v3.08h1.304c0.652,0,1.158-0.132,1.512-0.392
			c0.36-0.271,0.542-0.654,0.542-1.154C66.247,183.157,66.069,182.781,65.716,182.518z"/>
		<path fill="#3B3589" d="M74.657,189.475v-7.865h0.6v7.865H74.657z"/>
		<path fill="#3B3589" d="M85.479,188.956c-0.438,0.416-0.963,0.623-1.569,0.623c-0.461,0-0.876-0.084-1.246-0.254
			c-0.191-0.084-0.356-0.163-0.49-0.236c-0.134-0.073-0.244-0.141-0.329-0.202v-0.714c0.192,0.146,0.377,0.271,0.555,0.373
			c0.177,0.104,0.342,0.19,0.496,0.261c0.308,0.139,0.61,0.209,0.911,0.209c0.477,0,0.877-0.151,1.2-0.451
			c0.322-0.301,0.484-0.672,0.484-1.119c0-0.469-0.155-0.83-0.462-1.084c-0.323-0.262-0.8-0.5-1.431-0.715
			c-0.646-0.223-1.115-0.485-1.407-0.785c-0.301-0.301-0.45-0.733-0.45-1.303c0-0.555,0.22-1.037,0.658-1.442
			c0.453-0.406,0.98-0.612,1.58-0.612c0.439,0,0.834,0.066,1.188,0.196c0.178,0.069,0.318,0.13,0.427,0.18
			c0.107,0.05,0.181,0.091,0.219,0.121l0.012,0.669c-0.085-0.054-0.19-0.111-0.316-0.174c-0.128-0.061-0.269-0.13-0.423-0.207
			c-0.3-0.146-0.646-0.221-1.037-0.221c-0.469,0-0.858,0.144-1.165,0.428c-0.323,0.293-0.484,0.64-0.484,1.039
			c0,0.431,0.127,0.753,0.381,0.97c0.261,0.224,0.692,0.446,1.292,0.67c0.8,0.29,1.341,0.595,1.627,0.91
			c0.292,0.33,0.437,0.796,0.437,1.396C86.135,188.049,85.917,188.542,85.479,188.956z"/>
		<path fill="#3B3589" d="M95.388,182.115v7.359h-0.612v-7.359h-2.953v-0.508h6.519v0.508H95.388z"/>
		<path fill="#3B3589" d="M104.743,189.475v-7.865h0.6v7.865H104.743z"/>
		<path fill="#3B3589" d="M118.713,189.475l-1.245-2.723h-3.842l-1.246,2.723h-0.635l3.634-7.925h0.335l3.622,7.925H118.713z
			 M115.541,182.542l-1.685,3.704h3.381L115.541,182.542z"/>
		<path fill="#3B3589" d="M132.337,189.475l-5.976-6.875v6.875h-0.611v-7.865h0.519c0.5,0.6,0.997,1.184,1.489,1.752
			c0.492,0.57,0.991,1.137,1.5,1.697c0.507,0.56,1.007,1.125,1.499,1.693c0.491,0.571,0.988,1.154,1.487,1.754v-6.896h0.612v7.865
			H132.337z"/>
		<path fill="#3B3589" d="M149.375,182.115v2.988h3.104v0.506h-3.104v3.865h-0.611v-7.867h4.07v0.508H149.375z"/>
		<path fill="#3B3589" d="M158.997,189.475v-7.865h4.301v0.507h-3.69v3.149h3.588v0.495l-3.588,0.013v3.195h3.772v0.506H158.997z"/>
		<path fill="#3B3589" d="M169.54,189.475v-7.865h0.61v7.359h3.888v0.506H169.54z"/>
		<path fill="#3B3589" d="M180.052,189.475v-7.865h0.609v7.359h3.89v0.506H180.052z"/>
		<path fill="#3B3589" d="M196.072,188.413c-0.799,0.778-1.786,1.166-2.965,1.166c-1.186,0-2.172-0.386-2.965-1.153
			c-0.8-0.775-1.199-1.738-1.199-2.885s0.396-2.104,1.188-2.872c0.8-0.776,1.791-1.166,2.978-1.166c1.166,0,2.158,0.386,2.964,1.155
			c0.801,0.775,1.2,1.736,1.2,2.883C197.271,186.68,196.873,187.637,196.072,188.413z M195.588,183.085
			c-0.675-0.677-1.502-1.017-2.479-1.017c-0.978,0-1.805,0.34-2.48,1.017c-0.686,0.685-1.025,1.502-1.025,2.456
			c0,0.962,0.336,1.782,1.015,2.458c0.678,0.677,1.508,1.017,2.491,1.017c0.979,0,1.806-0.34,2.479-1.017
			c0.687-0.687,1.027-1.503,1.027-2.458C196.615,184.587,196.273,183.77,195.588,183.085z"/>
		<path fill="#3B3589" d="M211.359,189.557h-0.151l-2.642-6.645l-2.641,6.645h-0.164l-3.16-7.947h0.625l2.607,6.518l2.641-6.518
			h0.186l2.631,6.526l2.605-6.526h0.611L211.359,189.557z"/>
		<path fill="#3B3589" d="M223.98,188.956c-0.439,0.416-0.965,0.623-1.571,0.623c-0.461,0-0.875-0.084-1.246-0.254
			c-0.188-0.084-0.354-0.163-0.49-0.236c-0.134-0.073-0.243-0.141-0.329-0.202v-0.714c0.193,0.146,0.379,0.271,0.557,0.373
			c0.177,0.104,0.343,0.19,0.494,0.261c0.309,0.139,0.613,0.209,0.912,0.209c0.478,0,0.877-0.151,1.2-0.451
			c0.321-0.301,0.484-0.672,0.484-1.119c0-0.469-0.155-0.83-0.462-1.084c-0.322-0.262-0.801-0.5-1.432-0.715
			c-0.646-0.223-1.115-0.485-1.408-0.785c-0.301-0.301-0.447-0.733-0.447-1.303c0-0.555,0.218-1.037,0.656-1.442
			c0.455-0.406,0.98-0.612,1.582-0.612c0.438,0,0.832,0.066,1.188,0.196c0.177,0.069,0.318,0.13,0.427,0.18
			c0.106,0.05,0.181,0.091,0.22,0.121l0.013,0.669c-0.086-0.054-0.19-0.111-0.317-0.174c-0.127-0.061-0.269-0.13-0.421-0.207
			c-0.302-0.146-0.647-0.221-1.04-0.221c-0.468,0-0.857,0.144-1.164,0.428c-0.322,0.293-0.484,0.64-0.484,1.039
			c0,0.431,0.129,0.753,0.381,0.97c0.262,0.224,0.693,0.446,1.294,0.67c0.798,0.29,1.341,0.595,1.625,0.91
			c0.293,0.33,0.438,0.796,0.438,1.396C224.637,188.049,224.419,188.542,223.98,188.956z"/>
		<path fill="#3B3589" d="M236.957,189.475v-3.725h-5.238v3.725h-0.609v-7.865h0.609v3.633h5.238v-3.633h0.609v7.865H236.957z"/>
		<path fill="#3B3589" d="M244.293,189.475v-7.865h0.6v7.865H244.293z"/>
		<path fill="#3B3589" d="M255.668,185.254c-0.454,0.36-1.081,0.541-1.881,0.541h-1.557v3.68h-0.611v-7.865h2.227
			c0.793,0,1.407,0.176,1.848,0.529c0.438,0.361,0.656,0.885,0.656,1.568C256.35,184.377,256.121,184.893,255.668,185.254z
			 M255.193,182.542c-0.336-0.283-0.799-0.427-1.381-0.427h-1.582v3.173h1.511c0.624,0,1.104-0.136,1.442-0.403
			c0.346-0.277,0.521-0.675,0.521-1.188C255.704,183.205,255.534,182.818,255.193,182.542z"/>
	</g>
</g>
</svg>
