<?xml version="1.0" encoding="utf-8"?>
<!-- Generator: Adobe Illustrator 16.0.0, SVG Export Plug-In . SVG Version: 6.00 Build 0)  -->
<!DOCTYPE svg PUBLIC "-//W3C//DTD SVG 1.1//EN" "http://www.w3.org/Graphics/SVG/1.1/DTD/svg11.dtd">
<svg version="1.1" id="Layer_1" xmlns="http://www.w3.org/2000/svg" xmlns:xlink="http://www.w3.org/1999/xlink" x="0px" y="0px"
	 width="292.5px" height="244px" viewBox="0 0 292.5 244" enable-background="new 0 0 292.5 244" xml:space="preserve">
<g>
	<linearGradient id="SVGID_1_" gradientUnits="userSpaceOnUse" x1="81.9678" y1="154.1816" x2="209.2119" y2="154.1816">
		<stop  offset="0" style="stop-color:#351164"/>
		<stop  offset="0.0446" style="stop-color:#3C1066"/>
		<stop  offset="0.3542" style="stop-color:#6C0972"/>
		<stop  offset="0.6278" style="stop-color:#8E047B"/>
		<stop  offset="0.8523" style="stop-color:#A30180"/>
		<stop  offset="1" style="stop-color:#AB0082"/>
	</linearGradient>
	<path fill="url(#SVGID_1_)" d="M209.212,132.092c0,0-0.861,2.315-2.499,6.297c-1.019,1.907-2.148,4.354-3.806,6.915
		c-0.849,1.265-1.753,2.613-2.709,4.036c-0.99,1.396-2.184,2.752-3.394,4.195c-1.166,1.491-2.645,2.791-4.076,4.234
		c-1.407,1.482-3.045,2.808-4.734,4.172c-1.626,1.45-3.493,2.668-5.42,3.886c-1.872,1.316-3.958,2.363-6.051,3.473
		c-4.239,2.13-8.878,3.759-13.676,5.036c-2.419,0.556-4.881,1.011-7.347,1.436c-2.502,0.202-4.992,0.626-7.506,0.635
		c-5.021,0.139-10.064-0.072-14.909-1l-3.624-0.638l-3.509-0.964c-1.182-0.341-2.284-0.587-3.502-1.004
		c-1.094-0.412-2.181-0.82-3.255-1.229c-2.169-0.734-4.255-1.748-6.289-2.76c-2.082-0.92-3.961-2.062-5.772-3.2
		c-1.86-1.055-3.561-2.244-5.146-3.485c-1.622-1.189-3.188-2.327-4.528-3.627c-2.855-2.396-5.151-4.917-7.169-7.158
		c-1.979-2.268-3.449-4.46-4.786-6.149c-2.248-3.688-3.537-5.789-3.537-5.789l0.357-0.202c0,0,1.36,2.034,3.738,5.591
		c1.396,1.621,2.931,3.723,4.977,5.88c2.082,2.126,4.433,4.504,7.331,6.737c1.36,1.217,2.947,2.269,4.576,3.366
		c1.594,1.146,3.303,2.236,5.159,3.188c1.815,1.031,3.68,2.082,5.686,2.896c1.967,0.903,3.973,1.823,6.201,2.497
		c1.087,0.373,2.185,0.754,3.291,1.13c1.003,0.306,2.213,0.552,3.319,0.833l3.405,0.825l3.51,0.503
		c4.679,0.754,9.516,0.793,14.297,0.516c2.396-0.095,4.759-0.603,7.123-0.88c2.326-0.504,4.646-1.023,6.914-1.642
		c4.484-1.415,8.83-3.021,12.775-5.123c1.991-1.016,3.981-1.959,5.757-3.18c1.828-1.135,3.62-2.24,5.246-3.498
		c1.666-1.196,3.3-2.362,4.707-3.694c1.435-1.298,2.93-2.451,4.111-3.815c1.209-1.328,2.491-2.506,3.573-3.742
		c1.05-1.273,2.041-2.482,2.977-3.616c1.812-2.315,3.133-4.501,4.43-6.209c2.173-3.72,3.418-5.845,3.418-5.845L209.212,132.092z"/>
	<g>
		<path fill="none" d="M136.663,61.938c-0.041-0.857-0.145-1.34-0.229-1.601c-0.066,0.043-0.146,0.099-0.239,0.171
			c-0.926,0.733-2.664,2.722-5.637,7.99c-4.148,7.433-7.979,15.991-11.424,25.517c2.192-2.91,4.38-5.968,6.543-9.145
			C133.125,73.86,136.821,66.144,136.663,61.938z"/>
		<linearGradient id="SVGID_2_" gradientUnits="userSpaceOnUse" x1="57.5439" y1="120.1704" x2="105.7461" y2="120.1704">
			<stop  offset="0.0194" style="stop-color:#AB0082"/>
			<stop  offset="0.1727" style="stop-color:#A60181"/>
			<stop  offset="0.3659" style="stop-color:#96037D"/>
			<stop  offset="0.5806" style="stop-color:#7C0776"/>
			<stop  offset="0.8092" style="stop-color:#590C6D"/>
			<stop  offset="1" style="stop-color:#351164"/>
		</linearGradient>
		<path fill="url(#SVGID_2_)" d="M103.278,109.451c-0.922,0.79-1.859,1.591-2.807,2.399c-1.07,0.914-2.153,1.84-3.237,2.77
			c-1.868,1.58-4.065,3.39-6.219,4.842c-1.917,1.335-4.06,2.578-6.728,3.903c-2.073,1-4.511,2.116-6.855,2.803
			c-2.045,0.578-3.763,0.859-5.252,0.859c-0.342,0-0.401-0.015-0.729-0.046c-1.759-0.153-3.595-0.878-4.976-1.811
			c-7.409-5.001-8.933-10.272-8.933-10.272c0.003,0.062,0.07,1.533,0.596,4.039c0.341,1.585,0.793,3.062,1.381,4.509
			c0.893,2.227,2.057,4.031,3.557,5.518c1.889,1.939,4.557,3.311,7.324,3.763c0.984,0.183,2.028,0.276,3.104,0.276
			c1.722,0,3.584-0.238,5.539-0.707c2.727-0.662,5.464-1.644,8.137-2.92c2.352-1.132,5.098-2.525,7.638-4.296
			c2.556-1.814,4.857-3.73,6.936-5.589l3.992-12.153C104.931,108.029,104.107,108.735,103.278,109.451z"/>
	</g>
	<g>
		<path fill="none" d="M136.663,61.938c-0.012-0.247-0.029-0.46-0.05-0.648l-1.601,0.411c-1.011,1.191-2.452,3.25-4.454,6.798
			c-4.148,7.433-7.979,15.991-11.424,25.517c2.192-2.91,4.38-5.968,6.543-9.145C133.125,73.86,136.821,66.144,136.663,61.938z"/>
		<path fill="none" d="M136.435,60.338c-0.066,0.043-0.146,0.099-0.239,0.171c-0.302,0.24-0.692,0.614-1.183,1.192l1.601-0.411
			C136.563,60.825,136.494,60.523,136.435,60.338z"/>
		<path d="M150.386,57.754c0,0,0.049-0.27,0.088-0.697c-0.025,0.228-0.056,0.46-0.091,0.697H150.386z"/>
		<linearGradient id="SVGID_3_" gradientUnits="userSpaceOnUse" x1="113.5742" y1="82.25" x2="150.5225" y2="82.25">
			<stop  offset="0" style="stop-color:#351164"/>
			<stop  offset="0.2507" style="stop-color:#550B6E"/>
			<stop  offset="0.5671" style="stop-color:#770579"/>
			<stop  offset="0.8282" style="stop-color:#8C0180"/>
			<stop  offset="1" style="stop-color:#940082"/>
		</linearGradient>
		<path fill="url(#SVGID_3_)" d="M143.15,51.904c-5.121,2.202-8.138,9.797-8.138,9.797l0,0c0.49-0.578,0.881-0.952,1.183-1.192
			c0.093-0.072,0.173-0.128,0.239-0.171c0.06,0.186,0.129,0.487,0.179,0.952c0.021,0.188,0.038,0.401,0.05,0.648
			c0.158,4.205-3.538,11.922-10.985,22.933c-2.163,3.177-4.351,6.234-6.543,9.145l-5.561,19.488
			c11.873-12.068,20.496-22.49,25.627-30.977c6.282-10.384,9.879-18.132,10.996-23.687c0.074-0.373,0.134-0.733,0.186-1.087
			c0.035-0.237,0.065-0.47,0.091-0.697C150.669,54.901,150.64,48.683,143.15,51.904z"/>
	</g>
	<g>
		<linearGradient id="SVGID_4_" gradientUnits="userSpaceOnUse" x1="100.7188" y1="90.5332" x2="150.5762" y2="90.5332">
			<stop  offset="0" style="stop-color:#E60181"/>
			<stop  offset="0.028" style="stop-color:#D9027F"/>
			<stop  offset="0.1908" style="stop-color:#930873"/>
			<stop  offset="0.3267" style="stop-color:#600D6B"/>
			<stop  offset="0.4288" style="stop-color:#411066"/>
			<stop  offset="0.4855" style="stop-color:#351164"/>
			<stop  offset="0.6494" style="stop-color:#790B6F"/>
			<stop  offset="0.8151" style="stop-color:#B70579"/>
			<stop  offset="0.9367" style="stop-color:#DE0180"/>
			<stop  offset="1" style="stop-color:#ED0082"/>
		</linearGradient>
		<path fill="url(#SVGID_4_)" d="M112.168,131.918c-2.737-3.018-1.487-8.263-1.486-8.266c-0.066-0.842,0.045-2.258,0.694-4.613
			c1.146-4.145,1.918-5.252,2.198-5.535l5.561-19.488c3.445-9.525,7.275-18.084,11.424-25.517c2.002-3.548,3.443-5.606,4.454-6.798
			l0,0c0,0,3.017-7.595,8.138-9.797c7.489-3.222,7.519,2.997,7.323,5.152c0.77-6.985-2.953-9.748-6.372-10.824
			c-0.882-0.276-1.784-0.417-2.683-0.417c-3.738,0-7.53,2.422-11.265,7.187c-2.28,2.85-4.884,7.204-7.96,13.312
			c-2.813,5.568-7.268,16.466-13.617,33.316c-1.034,2.753-1.986,5.344-2.831,7.708l-3.992,12.153
			c-0.147,0.524-0.282,1.019-0.402,1.483c-0.606,2.26-0.778,4.587-0.509,6.919c0.394,3.346,1.738,5.45,3.989,6.254
			c2.02,0.732,4.145,1.104,6.317,1.104c2.771,0,5.68-0.605,8.698-1.808C119.529,133.562,115.084,135.131,112.168,131.918z"/>
		<linearGradient id="SVGID_5_" gradientUnits="userSpaceOnUse" x1="100.0298" y1="133.4395" x2="151.6833" y2="133.4395">
			<stop  offset="0" style="stop-color:#FF860B"/>
			<stop  offset="0.2405" style="stop-color:#EC6907"/>
			<stop  offset="0.5523" style="stop-color:#D94A03"/>
			<stop  offset="0.8166" style="stop-color:#CC3701"/>
			<stop  offset="1" style="stop-color:#C83000"/>
		</linearGradient>
		<path fill="url(#SVGID_5_)" d="M119.866,133.437c-0.007,0.002-0.013,0.004-0.019,0.007
			C119.857,133.439,119.864,133.437,119.866,133.437z"/>
		<linearGradient id="SVGID_6_" gradientUnits="userSpaceOnUse" x1="100.0298" y1="133.4395" x2="239.1055" y2="133.4395">
			<stop  offset="0" style="stop-color:#EF8907"/>
			<stop  offset="0.1336" style="stop-color:#EB820C"/>
			<stop  offset="0.3306" style="stop-color:#E26E19"/>
			<stop  offset="0.567" style="stop-color:#D14D2F"/>
			<stop  offset="0.8314" style="stop-color:#BB204C"/>
			<stop  offset="1" style="stop-color:#AB0062"/>
		</linearGradient>
		<path fill="url(#SVGID_6_)" d="M119.866,133.437c-0.007,0.002-0.013,0.004-0.019,0.007
			C119.857,133.439,119.864,133.437,119.866,133.437z"/>
	</g>
	<linearGradient id="SVGID_7_" gradientUnits="userSpaceOnUse" x1="91.4473" y1="174.4443" x2="242.5789" y2="23.3127">
		<stop  offset="0" style="stop-color:#A90081"/>
		<stop  offset="0.1748" style="stop-color:#A60080"/>
		<stop  offset="0.2912" style="stop-color:#9D027E"/>
		<stop  offset="0.3905" style="stop-color:#8E047A"/>
		<stop  offset="0.4803" style="stop-color:#790775"/>
		<stop  offset="0.5636" style="stop-color:#5D0B6E"/>
		<stop  offset="0.6412" style="stop-color:#3C1066"/>
		<stop  offset="0.6554" style="stop-color:#351164"/>
		<stop  offset="0.6715" style="stop-color:#460F68"/>
		<stop  offset="0.7065" style="stop-color:#650A70"/>
		<stop  offset="0.7448" style="stop-color:#7F0677"/>
		<stop  offset="0.7871" style="stop-color:#92047C"/>
		<stop  offset="0.8354" style="stop-color:#A0027F"/>
		<stop  offset="0.8951" style="stop-color:#A90081"/>
		<stop  offset="1" style="stop-color:#AB0082"/>
	</linearGradient>
	<path fill="url(#SVGID_7_)" d="M169.443,97.288c2.182-1.394,3.292-0.235,3.781,0.653c0.226-2.629,0.189-3.514,0.119-3.968
		l-0.005-0.034c-0.335-1.854-1.723-3.38-4.102-4.524c-0.408-0.206-0.856-0.311-1.333-0.311c-1.561,0-4.049,0.929-9.495,8.176
		c-1.504,2.03-3.289,4.592-5.301,7.608c-2.378,3.532-4.033,6.005-4.345,6.486c-0.089,0.129-0.172,0.248-0.254,0.362
		c-0.464,3.587-1.002,8.541-0.827,11.143c0.216,3.181,1.646,3.814,2.412,3.923c1.765-2.071,3.961-5.409,6.566-10.841
		c3.157-6.65,5.311-9.844,6.716-11.353C163.378,104.607,167.841,98.311,169.443,97.288z"/>
	<linearGradient id="SVGID_8_" gradientUnits="userSpaceOnUse" x1="168.9121" y1="96.4873" x2="168.9121" y2="130.7856">
		<stop  offset="0" style="stop-color:#351164"/>
		<stop  offset="0.0446" style="stop-color:#3C1066"/>
		<stop  offset="0.3542" style="stop-color:#6C0972"/>
		<stop  offset="0.6278" style="stop-color:#8E047B"/>
		<stop  offset="0.8523" style="stop-color:#A30180"/>
		<stop  offset="1" style="stop-color:#AB0082"/>
	</linearGradient>
	<path fill="url(#SVGID_8_)" d="M173.07,123.496c-1.325-2.547-1.024-8.99-0.841-11.566c0.186-4.732,0.414-8.364,0.682-10.812
		c0.138-1.274,0.24-2.317,0.313-3.176c-0.489-0.889-2.104-2.249-4.286-0.856c-1.602,1.023-5.094,6.76-4.883,6.584
		c0.01,0.1,0.044,0.477,0.05,0.605c0.043,1.268-0.198,3.697-0.719,7.216c-0.809,5.334-1.206,8.008-1.329,8.94l-0.005,0.038
		c-0.369,3.592-0.207,5.584,0.529,6.639c1.263,1.887,3.024,3.067,5.237,3.511c0.551,0.11,1.089,0.167,1.6,0.167
		c1.654,0,3.082-0.573,4.256-1.716c0.38-0.379,1-1.158,2.286-3.373C175.192,125.633,174.214,125.094,173.07,123.496z"/>
	<linearGradient id="SVGID_9_" gradientUnits="userSpaceOnUse" x1="180.0254" y1="91.2529" x2="180.0254" y2="125.6968">
		<stop  offset="0" style="stop-color:#451164"/>
		<stop  offset="0.3891" style="stop-color:#620873"/>
		<stop  offset="0.7576" style="stop-color:#77027E"/>
		<stop  offset="1" style="stop-color:#7F0082"/>
	</linearGradient>
	<path fill="url(#SVGID_9_)" d="M185.153,91.923c-1.303,1.935-3.154,4.888-5.844,9.457c-3.615,6.131-5.979,10.438-7.172,13.081
		c0.029-0.878,0.06-1.719,0.092-2.531c-0.184,2.576-0.484,9.02,0.841,11.566c1.144,1.598,2.122,2.137,2.891,2.2
		c0.952-1.638,2.267-4.06,4.122-7.69c3.387-6.561,5.786-10.974,7.145-13.137c0.123-1.092,0.76-6.946,0.76-11.573
		C187.987,89.729,185.163,91.916,185.153,91.923z"/>
	<g>
		<linearGradient id="SVGID_10_" gradientUnits="userSpaceOnUse" x1="195.6699" y1="130.7344" x2="195.6699" y2="86.4868">
			<stop  offset="0" style="stop-color:#351164"/>
			<stop  offset="0.0446" style="stop-color:#3C1066"/>
			<stop  offset="0.3542" style="stop-color:#6C0972"/>
			<stop  offset="0.6278" style="stop-color:#8E047B"/>
			<stop  offset="0.8523" style="stop-color:#A30180"/>
			<stop  offset="1" style="stop-color:#AB0082"/>
		</linearGradient>
		<path fill="url(#SVGID_10_)" d="M196.396,118.227c-0.688-2.455-1.275-8.601,0.289-23.963c0.404-4.253-0.585-6.795-2.938-7.555
			c-0.454-0.148-0.928-0.223-1.409-0.223c-1.367,0-2.815,0.604-4.316,1.807c-0.466,0.383-1.235,1.206-2.868,3.63
			c0.01-0.007,2.834-2.194,2.834,1.373c0,4.627-0.637,10.481-0.76,11.573c0.004-0.007,0.009-0.015,0.014-0.021
			c-0.928,5.498-1.381,9.989-1.35,13.383c0.102,8.088,2.591,12.291,7.414,12.494c0.211,0.006,0.423,0.01,0.633,0.01
			c4.229,0,8.324-1.307,12.249-3.892c-1.756-0.094-4.042-0.465-5.677-1.636C197.485,123.04,196.397,118.23,196.396,118.227z"/>
		<linearGradient id="SVGID_11_" gradientUnits="userSpaceOnUse" x1="224.6387" y1="93.1367" x2="198.8934" y2="137.7288">
			<stop  offset="0" style="stop-color:#351164"/>
			<stop  offset="0.0446" style="stop-color:#3C1066"/>
			<stop  offset="0.3542" style="stop-color:#6C0972"/>
			<stop  offset="0.6278" style="stop-color:#8E047B"/>
			<stop  offset="0.8523" style="stop-color:#A30180"/>
			<stop  offset="1" style="stop-color:#AB0082"/>
		</linearGradient>
		<path fill="url(#SVGID_11_)" d="M210.41,115.021l-0.223,0.147c-3.286,2.118-5.794,3.522-7.463,4.177
			c-1.255,0.501-2.457,0.755-3.572,0.755c-0.631,0-1.251-0.081-1.856-0.245c-0.048-0.013-0.491-0.169-0.9-1.629
			c0.002,0.004,1.09,4.813,4.115,6.98c1.635,1.171,3.921,1.542,5.677,1.636c2.48-1.634,4.892-3.776,7.224-6.428l0.919-0.881
			c2.566-2.383,5.864-5.554,8.827-8.489l3.246-3.249c1.806-1.807,3.503-3.505,4.92-4.927c2.181-2.265,3.633-3.775,3.633-3.775
			L210.41,115.021z"/>
	</g>
	<g>
		<path fill="none" d="M140.631,110.697c-0.167,0.196-0.261,0.304-0.261,0.304c0.08-0.057,0.157-0.109,0.232-0.159
			C140.612,110.793,140.622,110.746,140.631,110.697z"/>
		<linearGradient id="SVGID_12_" gradientUnits="userSpaceOnUse" x1="145.7993" y1="133.9307" x2="145.7993" y2="89.7229">
			<stop  offset="0" style="stop-color:#351164"/>
			<stop  offset="0.2069" style="stop-color:#381065"/>
			<stop  offset="0.388" style="stop-color:#430F68"/>
			<stop  offset="0.5593" style="stop-color:#550C6C"/>
			<stop  offset="0.7248" style="stop-color:#6E0973"/>
			<stop  offset="0.8844" style="stop-color:#8F047B"/>
			<stop  offset="1" style="stop-color:#AB0082"/>
		</linearGradient>
		<path fill="url(#SVGID_12_)" d="M150.516,96.56c0.676-2.765,0.593-4.598-0.255-5.724c-0.381-0.505-1.099-1.108-2.374-1.113
			c-1.712,0-2.958,1.268-3.702,3.769c-0.045,0.142-0.184,0.667-1.627,7.693c-0.452,2.078-1.007,4.797-1.652,8.102
			c-0.09,0.459-0.181,0.93-0.274,1.411c0.968-1.136,4.466-5.317,7.396-9.828C149.241,98.997,150.019,97.594,150.516,96.56z"/>
		<linearGradient id="SVGID_13_" gradientUnits="userSpaceOnUse" x1="130.4561" y1="133.9297" x2="130.4561" y2="89.7233">
			<stop  offset="0" style="stop-color:#351164"/>
			<stop  offset="0.1138" style="stop-color:#510D6B"/>
			<stop  offset="0.2747" style="stop-color:#710873"/>
			<stop  offset="0.4413" style="stop-color:#8B057A"/>
			<stop  offset="0.6134" style="stop-color:#9D027E"/>
			<stop  offset="0.7946" style="stop-color:#A80181"/>
			<stop  offset="1" style="stop-color:#AB0082"/>
		</linearGradient>
		<path fill="url(#SVGID_13_)" d="M150.516,96.56c-0.497,1.034-1.274,2.438-2.489,4.31c-2.93,4.511-6.512,8.781-9.542,11.799
			c-5.787,5.765-8.069,6.925-14.181,10.672c-2.955,1.832-5.696,2.843-8.165,3.002c-0.271,0.021-0.538,0.031-0.794,0.031
			c-1.824,0-3.231-0.514-4.304-1.569c-0.079-0.078-0.298-0.363-0.359-1.151c-0.001,0.003-1.251,5.248,1.486,8.266
			c2.916,3.213,7.361,1.644,7.68,1.525c0.006-0.003,0.012-0.005,0.019-0.007c2.346-0.937,4.76-2.233,7.229-3.887
			c1.358-0.917,4.952-3.043,11.375-9.034c1.01-1.186,4.467-5.33,7.365-9.793c2.378-3.66,3.08-5.536,3.289-6.344
			c0.37-3.18,0.757-5.504,1.158-6.932C150.37,97.141,150.445,96.847,150.516,96.56z"/>
		<linearGradient id="SVGID_14_" gradientUnits="userSpaceOnUse" x1="143.9458" y1="133.9297" x2="143.9458" y2="89.7241">
			<stop  offset="0" style="stop-color:#351164"/>
			<stop  offset="0.3747" style="stop-color:#640A70"/>
			<stop  offset="0.6756" style="stop-color:#820678"/>
			<stop  offset="0.8439" style="stop-color:#8E047B"/>
			<stop  offset="0.8455" style="stop-color:#8E047B"/>
			<stop  offset="0.9386" style="stop-color:#A30180"/>
			<stop  offset="1" style="stop-color:#AB0082"/>
		</linearGradient>
		<path fill="url(#SVGID_14_)" d="M138.471,120.516c0.106-0.087,0.208-0.169,0.316-0.259c-0.248,1.26-0.448,2.267-0.607,3.044
			c-0.54,2.677-0.509,4.463,0.092,5.608c0.46,0.897,1.479,1.967,3.728,1.967c0.949,0,2.041-0.184,3.331-0.562
			c0.737-0.211,2.345-0.672,4.765-3.512c-0.766-0.108-2.196-0.742-2.412-3.923c-0.175-2.602,0.363-7.556,0.827-11.143
			c-0.034,0.049-0.069,0.099-0.103,0.146c0.23-2.883,0.47-5.382,0.718-7.504c-0.209,0.808-0.911,2.684-3.289,6.344
			C142.938,115.186,139.48,119.33,138.471,120.516z"/>
	</g>
	<g>
		<path fill="none" d="M157.288,36.489c1.668,0.443,3.432,0.931,5.3,1.466c-0.784-0.246-1.572-0.481-2.365-0.706
			C159.256,36.972,158.275,36.72,157.288,36.489z"/>
		<path fill="none" d="M178.799,45.16c-2.26-1.376-4.638-2.619-7.102-3.738c14.58,6.893,24.694,18.04,24.698,18.045
			c-0.85-0.934-1.725-1.862-2.624-2.787C189.449,52.473,184.438,48.528,178.799,45.16z"/>
		<linearGradient id="SVGID_15_" gradientUnits="userSpaceOnUse" x1="133.7373" y1="67.4849" x2="214.792" y2="67.4849">
			<stop  offset="0" style="stop-color:#351164"/>
			<stop  offset="0.0446" style="stop-color:#3C1066"/>
			<stop  offset="0.3542" style="stop-color:#6C0972"/>
			<stop  offset="0.6278" style="stop-color:#8E047B"/>
			<stop  offset="0.8523" style="stop-color:#A30180"/>
			<stop  offset="1" style="stop-color:#AB0082"/>
		</linearGradient>
		<path fill="url(#SVGID_15_)" d="M212.823,81.405c-1.734-6.581-2.945-8.822-5.732-13.605c-2.573-4.909-6.281-9.136-10.536-13.849
			c-4.341-4.659-9.71-8.769-15.603-12.432c-5.991-3.52-12.716-6.214-19.774-7.974c-7.069-1.808-14.464-2.46-21.914-1.892
			c-1.842,0.141-3.688,0.343-5.526,0.61c3.968,0.023,11.043,0.896,23.551,4.225c0.987,0.23,1.968,0.482,2.935,0.76
			c0.793,0.225,1.581,0.46,2.365,0.706c0.008,0.003,0.017,0.005,0.026,0.008c3.173,0.909,6.213,2.102,9.083,3.459
			c2.464,1.119,4.842,2.362,7.102,3.738c5.639,3.368,10.65,7.312,14.973,11.52c0.899,0.925,1.774,1.854,2.624,2.787l0,0l0,0
			c3.111,3.418,5.85,6.908,7.911,10.508c2.814,4.469,4.548,8.914,6.03,12.964c1.189,4.304,2.118,6.3,3.016,10.814
			c0.913,6.055,1.434,9.762,1.434,9.762S214.995,89.644,212.823,81.405z"/>
		<linearGradient id="SVGID_16_" gradientUnits="userSpaceOnUse" x1="72.6108" y1="72.5034" x2="157.2881" y2="72.5034">
			<stop  offset="0" style="stop-color:#351164"/>
			<stop  offset="0.5078" style="stop-color:#AB0082"/>
			<stop  offset="1" style="stop-color:#3C1066"/>
		</linearGradient>
		<path fill="url(#SVGID_16_)" d="M117.987,36.579c-6.674,2.802-12.804,6.509-18.152,10.812c-5.246,4.432-9.794,9.294-13.469,14.384
			c-3.51,5.187-6.535,10.318-8.454,15.44c-2.125,5.029-3.335,9.906-4.18,14.24c-0.722,4.359-1.13,8.197-1.078,11.382
			c-0.163,3.184,0.175,5.638,0.302,7.323c0.143,1.682,0.217,2.581,0.217,2.581l0.405-0.031c0,0-0.052-0.896-0.146-2.586
			c-0.079-1.684-0.345-4.165-0.092-7.287c0.036-3.125,0.548-6.915,1.376-11.188c0.96-4.248,2.28-9.007,4.504-13.882
			c2.02-4.966,5.131-9.902,8.685-14.861c3.734-4.847,8.223-9.502,13.401-13.678c5.27-4.058,11.257-7.502,17.716-10.055
			c6.451-2.623,13.458-3.895,20.523-4.284c5.907-0.291,11.976,0.251,17.743,1.599c-12.508-3.328-19.583-4.201-23.551-4.225
			C128.314,33.057,122.958,34.435,117.987,36.579z"/>
		<linearGradient id="SVGID_17_" gradientUnits="userSpaceOnUse" x1="72.6162" y1="39.6885" x2="215.1879" y2="39.6885">
			<stop  offset="0" style="stop-color:#351164"/>
			<stop  offset="0.0446" style="stop-color:#3C1066"/>
			<stop  offset="0.3542" style="stop-color:#6C0972"/>
			<stop  offset="0.6278" style="stop-color:#8E047B"/>
			<stop  offset="0.8523" style="stop-color:#A30180"/>
			<stop  offset="1" style="stop-color:#AB0082"/>
		</linearGradient>
		<path fill="url(#SVGID_17_)" d="M162.588,37.955c3.133,0.982,6.184,2.137,9.109,3.467c-2.87-1.357-5.91-2.55-9.083-3.459
			C162.604,37.96,162.596,37.958,162.588,37.955z"/>
	</g>
</g>
<rect x="10" y="187.448" fill="none" width="272.5" height="37.552"/>
<text transform="matrix(1 0 0 1 10.0005 208.6582)"><tspan x="0" y="0" fill="#AB0082" font-family="'PetitaLight'" font-size="30">lauren michelle </tspan><tspan x="187.375" y="0" fill="#AB0082" font-family="'PetitaBold'" font-size="30">events</tspan></text>
</svg>
