<?xml version="1.0" encoding="utf-8"?>
<!-- Generator: Adobe Illustrator 16.0.0, SVG Export Plug-In . SVG Version: 6.00 Build 0)  -->
<!DOCTYPE svg PUBLIC "-//W3C//DTD SVG 1.1//EN" "http://www.w3.org/Graphics/SVG/1.1/DTD/svg11.dtd">
<svg version="1.1" id="Layer_1" xmlns="http://www.w3.org/2000/svg" xmlns:xlink="http://www.w3.org/1999/xlink" x="0px" y="0px"
	 width="292.5px" height="244px" viewBox="0 0 292.5 244" enable-background="new 0 0 292.5 244" xml:space="preserve">
<rect fill="#FFFFFF" width="295.75" height="244"/>
<g>
	<g>
		<g>
			<circle id="SVGID_1_" fill="#FFFFFF" cx="-194.279" cy="-153" r="64.103"/>
		</g>
		<g>
			<defs>
				<circle id="SVGID_4_" cx="-194.279" cy="-153" r="64.103"/>
			</defs>
			<clipPath id="SVGID_5_">
				<use xlink:href="#SVGID_4_"  overflow="visible"/>
			</clipPath>
			<g clip-path="url(#SVGID_5_)">
				<g>
					<polygon fill="#ED4424" points="-225.023,-155.675 -234.039,-155.675 -234.039,-112.909 -271.721,-77.616 -271.721,-65.752 
						-259.546,-65.904 -224.793,-112.909 					"/>
				</g>
				<g>
					<polygon fill="#ED4424" points="-212.543,-174.286 -209.882,-174.286 -216.972,-186.229 -224.215,-174.286 -221.557,-174.286 
						-221.557,-112.909 -250.3,-66.059 -225.641,-66.059 -212.772,-112.909 					"/>
				</g>
				<g>
					<polygon fill="#ED4424" points="-198.902,-193.093 -208.38,-193.093 -208.38,-112.909 -215.47,-65.752 -191.274,-65.752 
						-199.132,-112.902 					"/>
				</g>
				<g>
					<polygon fill="#ED4424" points="-185.264,-164.494 -194.278,-164.494 -194.278,-112.909 -180.49,-65.75 -156.911,-65.752 
						-185.726,-112.909 					"/>
				</g>
				<g>
					<polygon fill="#ED4424" points="-173.012,-150.152 -181.796,-150.152 -181.796,-112.909 -147.511,-65.752 -123.469,-65.75 
						-173.012,-112.909 					"/>
				</g>
				<g>
					<polygon fill="#ED4424" points="-159.836,-112.909 -159.607,-177.321 -156.946,-177.321 -164.035,-189.265 -171.278,-177.321 
						-168.62,-177.321 -168.62,-112.909 -113.298,-65.75 -88.331,-65.75 					"/>
				</g>
			</g>
		</g>
		<g>
			<circle id="SVGID_2_" fill="none" stroke="#ED4424" stroke-miterlimit="10" cx="-194.279" cy="-153" r="64.103"/>
		</g>
	</g>
	<g>
		<path fill="#ED4424" d="M163.955,136.604V99.744h2.863v34.48h18.214v2.379H163.955L163.955,136.604z"/>
		<path fill="#ED4424" d="M213.46,131.632c-3.748,3.64-8.377,5.457-13.89,5.457c-5.549,0-10.18-1.801-13.891-5.403
			c-3.748-3.64-5.619-8.143-5.619-13.512c0-5.368,1.854-9.854,5.565-13.457c3.746-3.639,8.396-5.459,13.942-5.459
			c5.478,0,10.106,1.802,13.891,5.404c3.747,3.64,5.62,8.144,5.62,13.512C219.08,123.507,217.207,127.992,213.46,131.632z
			 M211.189,106.662c-3.17-3.17-7.045-4.756-11.619-4.756c-4.576,0-8.449,1.586-11.619,4.756c-3.208,3.207-4.811,7.044-4.811,11.512
			c0,4.504,1.584,8.342,4.756,11.512c3.17,3.172,7.062,4.756,11.674,4.756c4.574,0,8.449-1.584,11.619-4.756
			c3.207-3.205,4.812-7.043,4.812-11.512C216.001,113.706,214.396,109.869,211.189,106.662z"/>
		<path fill="#ED4424" d="M227.241,102.122v13.998h14.538v2.378h-14.538v18.105h-2.865V99.744h19.079v2.378H227.241z"/>
		<path fill="#ED4424" d="M260.749,102.122v34.481h-2.864v-34.481h-13.836v-2.378h30.535v2.378H260.749z"/>
	</g>
	<g>
		<path fill="#ED4424" d="M166.416,76.786v13.792h-1.146V76.786h-5.535v-0.951h12.217v0.951H166.416z"/>
		<path fill="#ED4424" d="M184.704,90.578v-6.982h-9.813v6.982h-1.146V75.835h1.146v6.81h9.813v-6.81h1.146v14.743H184.704z"/>
		<path fill="#ED4424" d="M188.229,90.578V75.835h8.064v0.951h-6.919v5.901h6.724v0.93l-6.724,0.021v5.988h7.069v0.951
			L188.229,90.578L188.229,90.578z"/>
	</g>
	<g>
		<path fill="#ED4424" d="M169.988,153.936l-1.166-2.549h-3.598l-1.166,2.549h-0.594l3.402-7.42h0.312l3.391,7.42H169.988z
			 M167.02,147.443l-1.578,3.468h3.164L167.02,147.443z"/>
		<path fill="#ED4424" d="M177.009,147.045v6.891h-0.573v-6.891h-2.765v-0.477h6.103v0.477H177.009z"/>
		<path fill="#ED4424" d="M181.23,150.047c-0.094-0.086-0.183-0.162-0.266-0.227c-0.082-0.065-0.163-0.123-0.242-0.174
			c-0.166-0.101-0.316-0.15-0.453-0.15c-0.304,0-0.604,0.169-0.908,0.508c-0.295,0.324-0.514,0.615-0.657,0.874v3.058h-0.519v-4.85
			h0.519v1.091c0.13-0.216,0.264-0.392,0.403-0.528c0.142-0.138,0.283-0.268,0.428-0.39c0.15-0.122,0.301-0.198,0.447-0.227
			c0.147-0.029,0.293-0.044,0.438-0.044c0.238,0,0.472,0.082,0.702,0.248c0.223,0.158,0.359,0.271,0.41,0.334L181.23,150.047z"/>
		<path fill="#ED4424" d="M185.4,153.956v-0.291c-0.217,0.101-0.459,0.188-0.726,0.259c-0.243,0.072-0.521,0.108-0.831,0.108
			c-0.678,0-1.238-0.224-1.685-0.669c-0.438-0.447-0.658-1.021-0.658-1.719c0-0.776,0.226-1.414,0.681-1.912
			c0.461-0.496,1.051-0.744,1.771-0.744c0.245,0,0.485,0.035,0.724,0.107c0.26,0.08,0.506,0.188,0.735,0.324v-0.335h0.508v4.87
			L185.4,153.956L185.4,153.956z M185.411,149.93c-0.095-0.065-0.267-0.156-0.519-0.271c-0.254-0.107-0.529-0.162-0.832-0.162
			c-0.576,0-1.056,0.201-1.438,0.605c-0.382,0.401-0.572,0.914-0.572,1.532c0,0.584,0.174,1.048,0.52,1.394
			c0.345,0.354,0.803,0.529,1.371,0.529c0.332,0,0.615-0.043,0.854-0.13c0.252-0.101,0.457-0.202,0.616-0.303V149.93z"/>
		<path fill="#ED4424" d="M190.713,153.936v-2.766c0-0.52-0.111-0.929-0.335-1.23c-0.229-0.295-0.562-0.442-0.993-0.442
			c-0.396,0-0.716,0.101-0.961,0.303c-0.236,0.202-0.447,0.438-0.626,0.714v3.424h-0.519v-4.851h0.507v0.886
			c0.245-0.375,0.489-0.631,0.733-0.767c0.252-0.146,0.541-0.217,0.864-0.217c0.562,0,1.013,0.181,1.351,0.54
			c0.332,0.354,0.498,0.847,0.498,1.479v2.928H190.713L190.713,153.936z"/>
		<path fill="#ED4424" d="M194.936,153.645c-0.295,0.267-0.664,0.398-1.11,0.398c-0.354,0-0.659-0.054-0.918-0.161
			c-0.245-0.116-0.433-0.214-0.562-0.292v-0.52c0.188,0.123,0.418,0.228,0.691,0.312c0.271,0.094,0.536,0.141,0.788,0.141
			c0.303,0,0.557-0.074,0.767-0.227c0.201-0.158,0.303-0.367,0.303-0.627c0-0.188-0.076-0.355-0.228-0.507
			c-0.165-0.151-0.511-0.324-1.037-0.519c-0.396-0.138-0.705-0.313-0.929-0.529c-0.217-0.202-0.323-0.475-0.323-0.82
			c0-0.375,0.154-0.686,0.465-0.929c0.316-0.253,0.669-0.38,1.058-0.38c0.158,0,0.305,0.014,0.438,0.039
			c0.134,0.024,0.261,0.06,0.384,0.103c0.237,0.095,0.41,0.188,0.519,0.281v0.551c-0.087-0.065-0.179-0.126-0.275-0.185
			c-0.096-0.058-0.202-0.111-0.317-0.162c-0.237-0.101-0.473-0.15-0.703-0.15c-0.338,0-0.598,0.079-0.776,0.237
			c-0.194,0.166-0.291,0.36-0.291,0.584c0,0.235,0.097,0.425,0.291,0.561c0.216,0.146,0.481,0.274,0.8,0.39
			c0.402,0.138,0.744,0.316,1.025,0.539c0.266,0.218,0.398,0.52,0.398,0.908C195.391,153.057,195.238,153.378,194.936,153.645z"/>
		<path fill="#ED4424" d="M199.512,147.131c-0.055-0.014-0.125-0.036-0.212-0.064c-0.194-0.058-0.393-0.086-0.594-0.086
			c-0.374,0-0.659,0.119-0.854,0.355c-0.194,0.237-0.291,0.607-0.291,1.112v0.638h0.939v0.421h-0.939v4.429h-0.519v-4.429h-0.896
			v-0.421h0.896v-0.8c0-0.532,0.158-0.968,0.476-1.308c0.316-0.338,0.725-0.506,1.221-0.506c0.188,0,0.375,0.027,0.562,0.086
			c0.175,0.051,0.277,0.09,0.313,0.117v0.486C199.6,147.156,199.564,147.146,199.512,147.131z"/>
		<path fill="#ED4424" d="M202.973,153.311c-0.476,0.481-1.064,0.723-1.771,0.723c-0.713,0-1.301-0.24-1.76-0.723
			c-0.478-0.483-0.715-1.082-0.715-1.795c0-0.712,0.233-1.312,0.703-1.803c0.475-0.482,1.065-0.725,1.771-0.725
			c0.712,0,1.299,0.242,1.761,0.725c0.475,0.489,0.713,1.092,0.713,1.803C203.675,152.223,203.439,152.818,202.973,153.311z
			 M202.562,150.09c-0.375-0.396-0.828-0.594-1.36-0.594c-0.533,0-0.987,0.193-1.361,0.583c-0.374,0.396-0.562,0.875-0.562,1.437
			c0,0.562,0.188,1.033,0.562,1.416c0.374,0.396,0.828,0.594,1.361,0.594c0.524,0,0.979-0.194,1.36-0.584
			c0.373-0.396,0.562-0.871,0.562-1.426C203.124,150.947,202.936,150.473,202.562,150.09z"/>
		<path fill="#ED4424" d="M207.854,150.047c-0.094-0.086-0.183-0.162-0.265-0.227c-0.082-0.065-0.164-0.123-0.241-0.174
			c-0.166-0.101-0.318-0.15-0.455-0.15c-0.303,0-0.604,0.169-0.906,0.508c-0.297,0.324-0.516,0.615-0.659,0.874v3.058h-0.519v-4.85
			h0.519v1.091c0.13-0.216,0.265-0.392,0.405-0.528c0.141-0.138,0.281-0.268,0.427-0.39c0.151-0.122,0.3-0.198,0.448-0.227
			c0.146-0.029,0.293-0.044,0.437-0.044c0.238,0,0.472,0.082,0.702,0.248c0.225,0.158,0.359,0.271,0.41,0.334L207.854,150.047z"/>
		<path fill="#ED4424" d="M215.38,153.936v-2.766c0-0.531-0.11-0.941-0.334-1.23c-0.229-0.295-0.551-0.442-0.961-0.442
			c-0.317,0-0.595,0.123-0.832,0.367c-0.237,0.252-0.437,0.508-0.594,0.767v3.307h-0.519v-2.767c0-0.524-0.104-0.937-0.313-1.229
			c-0.216-0.297-0.528-0.443-0.938-0.443c-0.354,0-0.647,0.102-0.887,0.303c-0.115,0.102-0.223,0.213-0.318,0.335
			c-0.098,0.122-0.188,0.253-0.274,0.388v3.414h-0.519v-4.85h0.508v0.887c0.229-0.367,0.468-0.623,0.713-0.768
			c0.252-0.145,0.531-0.217,0.842-0.217h0.13c0.272,0,0.533,0.08,0.776,0.238c0.252,0.158,0.479,0.463,0.682,0.916
			c0.137-0.258,0.346-0.519,0.626-0.775c0.274-0.253,0.62-0.379,1.037-0.379h0.13c0.475,0,0.854,0.188,1.135,0.562
			c0.286,0.374,0.432,0.86,0.432,1.457v2.929h-0.521V153.936z"/>
		<path fill="#ED4424" d="M220.867,153.956v-0.291c-0.217,0.101-0.458,0.188-0.725,0.259c-0.244,0.072-0.521,0.108-0.832,0.108
			c-0.678,0-1.237-0.224-1.685-0.669c-0.438-0.447-0.658-1.021-0.658-1.719c0-0.776,0.226-1.414,0.681-1.912
			c0.461-0.496,1.051-0.744,1.771-0.744c0.244,0,0.485,0.035,0.724,0.107c0.26,0.08,0.504,0.188,0.734,0.324v-0.335h0.508v4.87
			L220.867,153.956L220.867,153.956z M220.878,149.93c-0.095-0.065-0.267-0.156-0.519-0.271c-0.254-0.107-0.529-0.162-0.832-0.162
			c-0.575,0-1.055,0.201-1.438,0.605c-0.382,0.401-0.572,0.914-0.572,1.532c0,0.584,0.174,1.048,0.52,1.394
			c0.346,0.354,0.803,0.529,1.371,0.529c0.332,0,0.615-0.043,0.854-0.13c0.252-0.101,0.457-0.202,0.616-0.303V149.93z"/>
		<path fill="#ED4424" d="M225.5,153.893c-0.08,0.028-0.159,0.055-0.238,0.075c-0.15,0.043-0.32,0.064-0.508,0.064
			c-0.345,0-0.622-0.095-0.831-0.28c-0.202-0.193-0.302-0.461-0.302-0.8v-3.445h-1.309v-0.421h1.309v-1.372l0.355-0.237h0.162v1.609
			h1.36v0.421h-1.36v3.089c0,0.383,0.047,0.631,0.141,0.746c0.101,0.122,0.306,0.184,0.615,0.184c0.129,0,0.267-0.021,0.41-0.064
			c0.145-0.043,0.291-0.102,0.442-0.173v0.507C225.662,153.83,225.578,153.863,225.5,153.893z"/>
		<path fill="#ED4424" d="M226.602,147.455v-0.887h0.519v0.887H226.602z M226.602,153.936v-4.85h0.519v4.85H226.602z"/>
		<path fill="#ED4424" d="M232.573,153.311c-0.476,0.481-1.064,0.723-1.771,0.723c-0.713,0-1.3-0.24-1.76-0.723
			c-0.478-0.483-0.714-1.082-0.714-1.795c0-0.712,0.232-1.312,0.701-1.803c0.477-0.482,1.066-0.725,1.771-0.725
			c0.713,0,1.299,0.242,1.762,0.725c0.475,0.489,0.713,1.092,0.713,1.803C233.275,152.223,233.042,152.818,232.573,153.311z
			 M232.163,150.09c-0.374-0.396-0.828-0.594-1.36-0.594c-0.533,0-0.986,0.193-1.361,0.583c-0.373,0.396-0.561,0.875-0.561,1.437
			c0,0.562,0.188,1.033,0.561,1.416c0.375,0.396,0.828,0.594,1.361,0.594c0.525,0,0.979-0.194,1.36-0.584
			c0.374-0.396,0.562-0.871,0.562-1.426C232.727,150.947,232.537,150.473,232.163,150.09z"/>
		<path fill="#ED4424" d="M237.833,153.936v-2.766c0-0.52-0.112-0.929-0.335-1.23c-0.23-0.295-0.562-0.442-0.994-0.442
			c-0.396,0-0.716,0.101-0.961,0.303c-0.236,0.202-0.445,0.438-0.626,0.714v3.424h-0.519v-4.851h0.508v0.886
			c0.244-0.375,0.488-0.631,0.734-0.767c0.252-0.146,0.539-0.217,0.862-0.217c0.562,0,1.013,0.181,1.351,0.54
			c0.332,0.354,0.498,0.847,0.498,1.479v2.928H237.833L237.833,153.936z"/>
		<path fill="#ED4424" d="M243.318,153.956v-0.291c-0.215,0.101-0.457,0.188-0.723,0.259c-0.246,0.072-0.521,0.108-0.832,0.108
			c-0.678,0-1.238-0.224-1.686-0.669c-0.438-0.447-0.658-1.021-0.658-1.719c0-0.776,0.227-1.414,0.68-1.912
			c0.461-0.496,1.051-0.744,1.771-0.744c0.245,0,0.486,0.035,0.725,0.107c0.258,0.08,0.504,0.188,0.734,0.324v-0.335h0.507v4.87
			L243.318,153.956L243.318,153.956z M243.331,149.93c-0.095-0.065-0.267-0.156-0.519-0.271c-0.254-0.107-0.53-0.162-0.832-0.162
			c-0.576,0-1.056,0.201-1.438,0.605c-0.381,0.401-0.571,0.914-0.571,1.532c0,0.584,0.174,1.048,0.52,1.394
			c0.345,0.354,0.803,0.529,1.371,0.529c0.33,0,0.615-0.043,0.854-0.13c0.252-0.101,0.457-0.202,0.616-0.303V149.93z"/>
		<path fill="#ED4424" d="M245.025,153.936v-7.365h0.52v7.365H245.025z"/>
		<path fill="#ED4424" d="M253.299,153.449c-0.41,0.389-0.898,0.583-1.469,0.583c-0.432,0-0.82-0.079-1.165-0.238
			c-0.181-0.078-0.334-0.151-0.46-0.221s-0.229-0.132-0.309-0.189v-0.669c0.181,0.137,0.354,0.254,0.52,0.352
			c0.165,0.098,0.32,0.179,0.465,0.244c0.287,0.127,0.572,0.192,0.854,0.192c0.445,0,0.82-0.14,1.123-0.421s0.453-0.631,0.453-1.048
			c0-0.439-0.145-0.777-0.433-1.015c-0.302-0.246-0.748-0.469-1.339-0.67c-0.604-0.209-1.044-0.455-1.318-0.734
			c-0.279-0.28-0.42-0.688-0.42-1.221c0-0.52,0.205-0.97,0.615-1.351c0.425-0.382,0.918-0.571,1.479-0.571
			c0.41,0,0.781,0.061,1.112,0.184c0.165,0.063,0.3,0.119,0.399,0.167c0.102,0.048,0.17,0.084,0.205,0.112l0.011,0.627
			c-0.078-0.051-0.179-0.104-0.297-0.162c-0.119-0.058-0.25-0.121-0.394-0.193c-0.281-0.139-0.604-0.206-0.974-0.206
			c-0.438,0-0.804,0.134-1.091,0.399c-0.303,0.273-0.453,0.598-0.453,0.973c0,0.402,0.119,0.706,0.355,0.907
			c0.244,0.209,0.647,0.417,1.209,0.627c0.75,0.272,1.258,0.558,1.523,0.853c0.273,0.311,0.41,0.745,0.41,1.307
			C253.915,152.6,253.71,153.061,253.299,153.449z"/>
		<path fill="#ED4424" d="M258.743,153.275c-0.461,0.505-1.017,0.757-1.664,0.757c-0.272,0-0.536-0.028-0.788-0.087
			c-0.122-0.035-0.242-0.077-0.361-0.123c-0.119-0.049-0.238-0.1-0.361-0.157v2.755h-0.52v-7.334h0.529v0.271
			c0.193-0.115,0.421-0.207,0.681-0.271c0.244-0.064,0.482-0.098,0.714-0.098c0.713,0,1.303,0.234,1.771,0.701
			c0.46,0.47,0.69,1.074,0.69,1.814C259.434,152.184,259.203,152.771,258.743,153.275z M258.289,150.079
			c-0.389-0.39-0.871-0.583-1.447-0.583c-0.31,0-0.572,0.043-0.789,0.129c-0.113,0.044-0.212,0.084-0.289,0.12
			c-0.08,0.036-0.146,0.067-0.195,0.097v3.326c0.15,0.08,0.33,0.155,0.539,0.229c0.225,0.086,0.49,0.129,0.801,0.129
			c0.59,0,1.062-0.188,1.415-0.562c0.358-0.382,0.538-0.863,0.538-1.447C258.861,150.939,258.671,150.462,258.289,150.079z"/>
		<path fill="#ED4424" d="M264.175,153.956v-0.291c-0.216,0.101-0.457,0.188-0.724,0.259c-0.245,0.072-0.521,0.108-0.832,0.108
			c-0.678,0-1.238-0.224-1.686-0.669c-0.438-0.447-0.658-1.021-0.658-1.719c0-0.776,0.228-1.414,0.681-1.912
			c0.461-0.496,1.051-0.744,1.771-0.744c0.246,0,0.486,0.035,0.725,0.107c0.259,0.08,0.505,0.188,0.734,0.324v-0.335h0.508v4.87
			L264.175,153.956L264.175,153.956z M264.188,149.93c-0.096-0.065-0.268-0.156-0.52-0.271c-0.253-0.107-0.529-0.162-0.832-0.162
			c-0.576,0-1.055,0.201-1.438,0.605c-0.381,0.401-0.572,0.914-0.572,1.532c0,0.584,0.174,1.048,0.52,1.394
			c0.346,0.354,0.803,0.529,1.371,0.529c0.331,0,0.615-0.043,0.854-0.13c0.252-0.101,0.456-0.202,0.616-0.303V149.93L264.188,149.93
			z"/>
		<path fill="#ED4424" d="M269.364,153.844c-0.083,0.024-0.187,0.057-0.31,0.092c-0.252,0.064-0.515,0.098-0.787,0.098
			c-0.756,0-1.351-0.227-1.781-0.682c-0.434-0.453-0.648-1.063-0.648-1.836c0-0.697,0.212-1.291,0.639-1.781
			c0.432-0.496,1.01-0.745,1.737-0.745c0.237,0,0.461,0.021,0.67,0.063c0.101,0.029,0.2,0.057,0.298,0.082s0.194,0.057,0.297,0.092
			v0.572c-0.072-0.035-0.153-0.068-0.244-0.098c-0.09-0.028-0.185-0.061-0.285-0.098c-0.194-0.071-0.436-0.107-0.725-0.107
			c-0.554,0-0.996,0.188-1.328,0.562c-0.338,0.381-0.508,0.867-0.508,1.457c0,0.612,0.17,1.099,0.508,1.459
			c0.332,0.367,0.797,0.551,1.394,0.551c0.267,0,0.515-0.032,0.746-0.098c0.223-0.064,0.399-0.126,0.528-0.184v0.54
			C269.514,153.798,269.447,153.818,269.364,153.844z"/>
		<path fill="#ED4424" d="M270.428,151.332c-0.007,0.027-0.011,0.062-0.011,0.098c0,0.036,0,0.075,0,0.118
			c0,0.569,0.19,1.037,0.572,1.404c0.382,0.382,0.856,0.571,1.426,0.571c0.39,0,0.741-0.086,1.058-0.258
			c0.159-0.095,0.297-0.18,0.411-0.255c0.115-0.075,0.21-0.146,0.281-0.211v0.583c-0.094,0.072-0.2,0.145-0.317,0.217
			c-0.121,0.071-0.259,0.145-0.416,0.217c-0.324,0.144-0.678,0.216-1.06,0.216c-0.733,0-1.333-0.24-1.793-0.724
			c-0.47-0.49-0.702-1.113-0.702-1.869c0-0.69,0.209-1.271,0.626-1.738c0.418-0.475,0.954-0.713,1.609-0.713
			c0.634,0,1.147,0.221,1.545,0.658c0.403,0.446,0.604,1.009,0.604,1.686H270.428z M273.148,149.875
			c-0.252-0.252-0.594-0.379-1.025-0.379c-0.518,0-0.934,0.191-1.242,0.572c-0.165,0.209-0.299,0.488-0.398,0.843h3.144
			C273.545,150.457,273.387,150.111,273.148,149.875z"/>
		<path fill="#ED4424" d="M167.154,160.53c-0.059-0.015-0.135-0.038-0.228-0.069c-0.208-0.062-0.42-0.093-0.636-0.093
			c-0.4,0-0.706,0.128-0.914,0.382c-0.208,0.255-0.312,0.652-0.312,1.191v0.684h1.008v0.451h-1.008v4.744h-0.556v-4.744h-0.961
			v-0.451h0.961v-0.855c0-0.571,0.171-1.037,0.509-1.4c0.34-0.362,0.776-0.544,1.31-0.544c0.2,0,0.401,0.03,0.601,0.093
			c0.187,0.055,0.299,0.098,0.338,0.128v0.521C167.248,160.559,167.211,160.546,167.154,160.53z"/>
		<path fill="#ED4424" d="M170.861,167.148c-0.508,0.518-1.141,0.774-1.897,0.774c-0.763,0-1.392-0.258-1.885-0.774
			c-0.511-0.517-0.765-1.156-0.765-1.92c0-0.765,0.25-1.408,0.752-1.934c0.51-0.518,1.143-0.773,1.896-0.773
			c0.766,0,1.395,0.258,1.887,0.773c0.51,0.525,0.764,1.169,0.764,1.934C171.613,165.984,171.363,166.625,170.861,167.148z
			 M170.423,163.701c-0.401-0.426-0.887-0.637-1.459-0.637c-0.569,0-1.056,0.207-1.457,0.625c-0.401,0.424-0.603,0.938-0.603,1.539
			c0,0.601,0.201,1.105,0.603,1.516c0.401,0.425,0.888,0.637,1.457,0.637c0.563,0,1.05-0.209,1.459-0.625
			c0.401-0.425,0.603-0.934,0.603-1.527C171.023,164.619,170.824,164.109,170.423,163.701z"/>
		<path fill="#ED4424" d="M176.093,163.654c-0.1-0.094-0.194-0.174-0.282-0.242c-0.09-0.069-0.177-0.132-0.262-0.186
			c-0.178-0.108-0.34-0.162-0.486-0.162c-0.322,0-0.646,0.182-0.972,0.543c-0.315,0.348-0.551,0.66-0.706,0.938v3.274h-0.556v-5.195
			h0.556v1.168c0.141-0.23,0.283-0.42,0.436-0.566c0.15-0.146,0.303-0.285,0.455-0.416c0.162-0.131,0.322-0.213,0.481-0.242
			c0.158-0.03,0.313-0.047,0.468-0.047c0.256,0,0.506,0.09,0.752,0.267c0.239,0.17,0.387,0.289,0.44,0.358L176.093,163.654z"/>
		<path fill="#ED4424" d="M187.941,167.9h-0.149l-2.649-6.664l-2.65,6.664h-0.162l-3.17-7.973h0.625l2.613,6.538l2.65-6.538h0.186
			l2.639,6.549l2.615-6.549h0.613L187.941,167.9z"/>
		<path fill="#ED4424" d="M194.979,167.148c-0.51,0.518-1.143,0.774-1.898,0.774c-0.764,0-1.393-0.258-1.885-0.774
			c-0.51-0.517-0.766-1.156-0.766-1.92c0-0.765,0.25-1.408,0.752-1.934c0.51-0.518,1.143-0.773,1.897-0.773
			c0.765,0,1.394,0.258,1.887,0.773c0.509,0.525,0.765,1.169,0.765,1.934C195.729,165.984,195.479,166.625,194.979,167.148z
			 M194.538,163.701c-0.401-0.426-0.888-0.637-1.459-0.637c-0.57,0-1.058,0.207-1.457,0.625c-0.401,0.424-0.603,0.938-0.603,1.539
			c0,0.601,0.201,1.105,0.603,1.516c0.399,0.425,0.887,0.637,1.457,0.637c0.563,0,1.05-0.209,1.459-0.625
			c0.399-0.425,0.603-0.934,0.603-1.527C195.141,164.619,194.938,164.109,194.538,163.701z"/>
		<path fill="#ED4424" d="M203.863,167.82v-2.963c0-0.569-0.118-1.01-0.357-1.318c-0.247-0.316-0.591-0.475-1.029-0.475
			c-0.34,0-0.638,0.131-0.892,0.394c-0.255,0.271-0.467,0.544-0.637,0.821v3.541h-0.556v-2.963c0-0.562-0.111-1.002-0.336-1.318
			c-0.23-0.316-0.566-0.475-1.007-0.475c-0.379,0-0.694,0.107-0.948,0.324c-0.123,0.107-0.236,0.228-0.343,0.357
			c-0.104,0.132-0.2,0.271-0.294,0.417v3.655h-0.556v-5.194h0.544v0.949c0.247-0.394,0.502-0.668,0.764-0.821
			c0.27-0.154,0.57-0.23,0.902-0.23h0.139c0.293,0,0.571,0.084,0.833,0.254c0.271,0.17,0.513,0.496,0.729,0.982
			c0.146-0.277,0.371-0.556,0.672-0.833c0.293-0.27,0.664-0.403,1.111-0.403h0.139c0.509,0,0.914,0.199,1.215,0.602
			c0.309,0.4,0.463,0.921,0.463,1.562v3.135H203.863z"/>
		<path fill="#ED4424" d="M206.189,165.031c-0.008,0.031-0.012,0.064-0.012,0.104s0,0.081,0,0.127c0,0.61,0.203,1.111,0.613,1.506
			c0.408,0.408,0.917,0.612,1.525,0.612c0.418,0,0.795-0.093,1.136-0.278c0.169-0.1,0.315-0.189,0.438-0.271
			c0.123-0.082,0.225-0.157,0.301-0.228v0.625c-0.101,0.078-0.213,0.154-0.342,0.231c-0.125,0.077-0.274,0.154-0.445,0.231
			c-0.346,0.154-0.725,0.229-1.133,0.229c-0.787,0-1.428-0.258-1.922-0.774c-0.502-0.523-0.752-1.191-0.752-2.002
			c0-0.739,0.225-1.36,0.672-1.861c0.447-0.51,1.021-0.764,1.725-0.764c0.679,0,1.229,0.233,1.654,0.705
			c0.433,0.479,0.647,1.08,0.647,1.805h-4.106V165.031z M209.105,163.469c-0.271-0.269-0.637-0.404-1.1-0.404
			c-0.556,0-0.999,0.205-1.331,0.613c-0.178,0.225-0.319,0.524-0.428,0.902h3.367C209.529,164.095,209.359,163.725,209.105,163.469z
			"/>
		<path fill="#ED4424" d="M215.077,167.82v-2.963c0-0.556-0.12-0.996-0.359-1.318c-0.247-0.316-0.602-0.475-1.063-0.475
			c-0.424,0-0.768,0.107-1.03,0.324c-0.254,0.215-0.478,0.471-0.67,0.764v3.668h-0.556v-5.195h0.543v0.949
			c0.263-0.401,0.524-0.676,0.787-0.821c0.271-0.155,0.578-0.231,0.926-0.231c0.602,0,1.084,0.192,1.447,0.578
			c0.354,0.379,0.53,0.906,0.53,1.586v3.135H215.077L215.077,167.82z"/>
		<path fill="#ED4424" d="M220.377,160.877v-0.947h0.557v0.947H220.377z M220.377,167.82v-5.195h0.557v5.195H220.377z"/>
		<path fill="#ED4424" d="M225.873,167.82v-2.963c0-0.556-0.121-0.996-0.359-1.318c-0.246-0.316-0.603-0.475-1.063-0.475
			c-0.425,0-0.769,0.107-1.03,0.324c-0.255,0.215-0.479,0.471-0.671,0.764v3.668h-0.556v-5.195h0.543v0.949
			c0.263-0.401,0.525-0.676,0.787-0.821c0.271-0.155,0.58-0.231,0.927-0.231c0.603,0,1.084,0.192,1.446,0.578
			c0.354,0.379,0.531,0.906,0.531,1.586v3.135H225.873L225.873,167.82z"/>
		<path fill="#ED4424" d="M231.275,167.82v-7.893h0.613v7.383h3.899v0.51H231.275z"/>
		<path fill="#ED4424" d="M236.16,165.031c-0.008,0.031-0.012,0.064-0.012,0.104s0,0.081,0,0.127c0,0.61,0.203,1.111,0.613,1.506
			c0.407,0.408,0.918,0.612,1.526,0.612c0.416,0,0.794-0.093,1.134-0.278c0.17-0.1,0.316-0.189,0.439-0.271
			c0.123-0.082,0.224-0.157,0.302-0.228v0.625c-0.103,0.078-0.214,0.154-0.343,0.231c-0.127,0.077-0.275,0.154-0.444,0.231
			c-0.349,0.154-0.726,0.229-1.135,0.229c-0.786,0-1.427-0.258-1.921-0.774c-0.502-0.523-0.752-1.191-0.752-2.002
			c0-0.739,0.224-1.36,0.672-1.861c0.447-0.51,1.021-0.764,1.725-0.764c0.68,0,1.229,0.233,1.653,0.705
			c0.433,0.479,0.647,1.08,0.647,1.805h-4.105V165.031z M239.076,163.469c-0.271-0.269-0.637-0.404-1.1-0.404
			c-0.557,0-1,0.205-1.332,0.613c-0.178,0.225-0.319,0.524-0.428,0.902h3.367C239.5,164.095,239.33,163.725,239.076,163.469z"/>
		<path fill="#ED4424" d="M245.255,167.844v-0.312c-0.229,0.106-0.489,0.2-0.774,0.278c-0.263,0.076-0.56,0.113-0.892,0.113
			c-0.726,0-1.327-0.238-1.805-0.717c-0.472-0.479-0.706-1.091-0.706-1.84c0-0.833,0.242-1.516,0.729-2.049
			c0.493-0.531,1.127-0.797,1.897-0.797c0.262,0,0.521,0.037,0.774,0.114c0.277,0.085,0.539,0.2,0.787,0.349v-0.359h0.543v5.219
			H245.255z M245.268,163.527c-0.101-0.069-0.285-0.166-0.557-0.289c-0.27-0.115-0.566-0.174-0.891-0.174
			c-0.617,0-1.131,0.216-1.539,0.647c-0.409,0.433-0.612,0.979-0.612,1.644c0,0.625,0.185,1.121,0.556,1.492
			c0.369,0.379,0.858,0.567,1.469,0.567c0.355,0,0.66-0.047,0.914-0.14c0.271-0.107,0.49-0.215,0.66-0.323V163.527L245.268,163.527z
			"/>
		<path fill="#ED4424" d="M251.203,167.82v-0.404c-0.264,0.177-0.51,0.309-0.74,0.395c-0.23,0.076-0.498,0.113-0.799,0.113
			c-0.74,0-1.365-0.258-1.875-0.773c-0.51-0.518-0.764-1.157-0.764-1.922c0-0.802,0.25-1.453,0.752-1.955s1.156-0.752,1.968-0.752
			c0.255,0,0.521,0.043,0.798,0.127c0.294,0.102,0.514,0.196,0.66,0.289v-3.009h0.555v7.892H251.203L251.203,167.82z
			 M251.191,163.562c-0.123-0.094-0.32-0.201-0.59-0.323c-0.256-0.115-0.553-0.175-0.893-0.175c-0.624,0-1.126,0.201-1.504,0.603
			c-0.395,0.41-0.59,0.931-0.59,1.562c0,0.609,0.203,1.119,0.613,1.527c0.416,0.416,0.937,0.625,1.562,0.625
			c0.394,0,0.702-0.062,0.927-0.186c0.123-0.062,0.223-0.117,0.301-0.168s0.135-0.09,0.174-0.121V163.562L251.191,163.562z"/>
		<path fill="#ED4424" d="M253.506,165.031c-0.008,0.031-0.012,0.064-0.012,0.104s0,0.081,0,0.127c0,0.61,0.204,1.111,0.613,1.506
			c0.408,0.408,0.918,0.612,1.526,0.612c0.416,0,0.794-0.093,1.134-0.278c0.17-0.1,0.317-0.189,0.44-0.271
			c0.123-0.082,0.224-0.157,0.301-0.228v0.625c-0.101,0.078-0.214,0.154-0.342,0.231c-0.127,0.077-0.276,0.154-0.444,0.231
			c-0.349,0.154-0.727,0.229-1.136,0.229c-0.786,0-1.427-0.258-1.92-0.774c-0.502-0.523-0.752-1.191-0.752-2.002
			c0-0.739,0.224-1.36,0.671-1.861c0.447-0.51,1.021-0.764,1.725-0.764c0.68,0,1.229,0.233,1.653,0.705
			c0.433,0.479,0.647,1.08,0.647,1.805h-4.105V165.031z M256.422,163.469c-0.271-0.269-0.637-0.404-1.1-0.404
			c-0.557,0-0.999,0.205-1.33,0.613c-0.178,0.225-0.32,0.524-0.428,0.902h3.365C256.846,164.095,256.676,163.725,256.422,163.469z"
			/>
		<path fill="#ED4424" d="M261.988,163.654c-0.102-0.094-0.195-0.174-0.284-0.242c-0.089-0.069-0.177-0.132-0.261-0.186
			c-0.178-0.108-0.34-0.162-0.485-0.162c-0.324,0-0.647,0.182-0.972,0.543c-0.316,0.348-0.553,0.66-0.706,0.938v3.274h-0.556v-5.195
			h0.556v1.168c0.139-0.23,0.282-0.42,0.435-0.566c0.149-0.146,0.303-0.285,0.456-0.416c0.162-0.131,0.322-0.213,0.479-0.242
			c0.158-0.03,0.314-0.047,0.47-0.047c0.255,0,0.505,0.09,0.752,0.267c0.239,0.17,0.386,0.289,0.438,0.358L261.988,163.654z"/>
		<path fill="#ED4424" d="M265.574,167.509c-0.315,0.285-0.713,0.429-1.191,0.429c-0.378,0-0.706-0.06-0.982-0.174
			c-0.264-0.125-0.463-0.229-0.604-0.312v-0.557c0.201,0.133,0.447,0.244,0.741,0.336c0.293,0.102,0.575,0.15,0.845,0.15
			c0.324,0,0.598-0.081,0.822-0.242c0.216-0.17,0.322-0.395,0.322-0.672c0-0.201-0.08-0.382-0.242-0.544
			c-0.178-0.162-0.549-0.347-1.111-0.556c-0.424-0.146-0.755-0.336-0.994-0.566c-0.23-0.217-0.348-0.51-0.348-0.88
			c0-0.399,0.166-0.733,0.498-0.995c0.34-0.27,0.717-0.404,1.134-0.404c0.17,0,0.326,0.014,0.47,0.041
			c0.143,0.026,0.278,0.062,0.409,0.108c0.255,0.101,0.439,0.201,0.556,0.302v0.59c-0.092-0.069-0.189-0.135-0.295-0.196
			c-0.104-0.062-0.218-0.119-0.342-0.173c-0.254-0.108-0.505-0.162-0.752-0.162c-0.361,0-0.641,0.084-0.833,0.255
			c-0.208,0.177-0.312,0.385-0.312,0.624c0,0.255,0.104,0.455,0.312,0.602c0.231,0.155,0.517,0.295,0.856,0.417
			c0.432,0.146,0.799,0.341,1.1,0.579c0.285,0.23,0.428,0.557,0.428,0.971C266.061,166.88,265.898,167.223,265.574,167.509z"/>
		<path fill="#ED4424" d="M270.816,167.82v-2.963c0-0.556-0.121-0.996-0.359-1.318c-0.247-0.316-0.602-0.475-1.062-0.475
			c-0.427,0-0.77,0.107-1.031,0.324c-0.256,0.215-0.479,0.471-0.67,0.764v3.668h-0.557v-7.893h0.557v3.646
			c0.262-0.401,0.522-0.676,0.785-0.821c0.271-0.155,0.576-0.231,0.916-0.231c0.601,0,1.082,0.192,1.445,0.578
			c0.354,0.379,0.531,0.906,0.531,1.586v3.135H270.816L270.816,167.82z"/>
		<path fill="#ED4424" d="M272.367,160.877v-0.947h0.556v0.947H272.367z M272.367,167.82v-5.195h0.556v5.195H272.367z"/>
		<path fill="#ED4424" d="M278.141,167.115c-0.492,0.539-1.088,0.809-1.781,0.809c-0.293,0-0.574-0.029-0.846-0.092
			c-0.13-0.038-0.26-0.083-0.387-0.133c-0.128-0.051-0.257-0.106-0.389-0.168v2.949h-0.555v-7.855h0.566v0.289
			c0.207-0.124,0.451-0.221,0.729-0.289c0.264-0.068,0.518-0.104,0.766-0.104c0.763,0,1.395,0.25,1.896,0.75
			c0.493,0.502,0.74,1.149,0.74,1.944C278.882,165.941,278.635,166.575,278.141,167.115z M277.654,163.689
			c-0.416-0.418-0.934-0.625-1.551-0.625c-0.332,0-0.612,0.047-0.845,0.139c-0.124,0.047-0.228,0.089-0.312,0.128
			c-0.086,0.038-0.154,0.073-0.209,0.104v3.563c0.162,0.085,0.354,0.166,0.578,0.243c0.24,0.092,0.524,0.139,0.856,0.139
			c0.634,0,1.138-0.199,1.517-0.604c0.386-0.407,0.578-0.924,0.578-1.549C278.268,164.611,278.064,164.1,277.654,163.689z"/>
	</g>
</g>
<g>
	<g>
		<circle id="SVGID_3_" fill="#ED4424" cx="83.671" cy="122" r="67.603"/>
	</g>
	<g>
		<defs>
			<circle id="SVGID_6_" cx="83.671" cy="122" r="67.603"/>
		</defs>
		<clipPath id="SVGID_7_">
			<use xlink:href="#SVGID_6_"  overflow="visible"/>
		</clipPath>
		<g clip-path="url(#SVGID_7_)">
			<polygon fill="#FFFFFF" points="41.739,164.279 51.49,164.279 51.247,119.179 41.739,119.179 			"/>
			<polygon fill="#FFFFFF" points="54.903,164.279 64.167,164.279 64.41,99.188 54.903,99.188 			"/>
			<polygon fill="#FFFFFF" points="68.799,164.729 78.551,164.729 78.795,79.719 68.799,79.719 			"/>
			<polygon fill="#FFFFFF" points="83.671,164.279 92.69,164.279 93.178,109.879 83.671,109.879 			"/>
			<rect x="96.835" y="125.002" fill="#FFFFFF" width="9.263" height="39.277"/>
			<polygon fill="#FFFFFF" points="110.731,164.279 119.995,164.279 120.239,95.532 110.731,95.532 			"/>
			<polygon fill="#FFFFFF" points="41.739,164.279 2,201.5 2,214.011 14.84,213.851 51.49,164.279 			"/>
			<polygon fill="#FFFFFF" points="54.903,164.279 24.591,213.688 50.596,213.688 64.167,164.279 			"/>
			<polygon fill="#FFFFFF" points="68.799,164.279 61.322,214.011 86.839,214.011 78.551,164.279 			"/>
			<polygon fill="#FFFFFF" points="83.671,164.279 98.212,214.013 123.079,214.011 92.69,164.279 			"/>
			<polygon fill="#FFFFFF" points="96.835,164.279 132.993,214.011 158.346,214.013 106.098,164.279 			"/>
			<polygon fill="#FFFFFF" points="110.731,164.279 169.072,214.013 195.402,214.013 119.995,164.279 			"/>
			<polygon fill="#FFFFFF" points="52.1,99.553 67.215,99.553 59.738,86.957 			"/>
			<polygon fill="#FFFFFF" points="107.926,96.351 123.041,96.351 115.565,83.756 			"/>
			<g>
				<g>
					<path fill="#FFFFFF" d="M88.662,166.283c3.224,0,3.224-5,0-5S85.438,166.283,88.662,166.283L88.662,166.283z"/>
				</g>
			</g>
			<g>
				<g>
					<path fill="#FFFFFF" d="M86.921,166.916c3.224,0,3.224-5,0-5C83.697,161.916,83.697,166.916,86.921,166.916L86.921,166.916z"/>
				</g>
			</g>
			<g>
				<g>
					<path fill="#FFFFFF" d="M88.979,165.277c0.806,0,0.806-1.25,0-1.25S88.173,165.277,88.979,165.277L88.979,165.277z"/>
				</g>
			</g>
			<g>
				<g>
					<path fill="#FFFFFF" d="M88.433,164.019c0,0.396,0,0.792,0,1.188c0.409-0.057,0.818-0.11,1.228-0.166
						c-0.32-0.813-0.635-1.646-1.217-2.314c-0.668-0.769-1.904-0.497-1.903,0.594c0.001,0.887,0.435,2.086,1.036,2.741
						c0.897,0.978,2.418-0.337,3.144-0.868c0.643-0.473,0.02-1.559-0.631-1.08c-0.292,0.213-0.574,0.438-0.872,0.646
						c-0.14,0.097-0.289,0.179-0.439,0.26c-0.104,0.056-0.429,0.065-0.318,0.16c-0.36-0.308-0.528-1.136-0.631-1.59
						c-0.021-0.093-0.032-0.175-0.039-0.269c-0.016-0.235-0.083,0.234-0.333,0.187c0.127,0.024,0.296,0.369,0.355,0.467
						c0.27,0.438,0.455,0.923,0.643,1.4c0.247,0.627,1.228,0.583,1.228-0.166c0-0.396,0-0.792,0-1.188
						C89.683,163.214,88.433,163.214,88.433,164.019L88.433,164.019z"/>
				</g>
			</g>
			<g>
				<g>
					<path fill="#FFFFFF" d="M91.037,164.961c0.806,0,0.806-1.25,0-1.25S90.231,164.961,91.037,164.961L91.037,164.961z"/>
				</g>
			</g>
			<g>
				<g>
					<path fill="#FFFFFF" d="M91.908,164.961c0.806,0,0.806-1.25,0-1.25C91.102,163.711,91.102,164.961,91.908,164.961
						L91.908,164.961z"/>
				</g>
			</g>
			<g>
				<g>
					<path fill="#FFFFFF" d="M97.528,164.883c1.391,0.003,2.729,0.453,4.128,0.486c0.515,0.012,1.069,0.082,1.578-0.034
						c0.642-0.146,1.226-0.5,1.893-0.532c0.803-0.038,0.806-1.288,0-1.25c-1.214,0.059-2.207,0.614-3.471,0.566
						c-1.398-0.055-2.73-0.483-4.128-0.486C96.722,163.631,96.722,164.881,97.528,164.883L97.528,164.883z"/>
				</g>
			</g>
			<g>
				<g>
					<path fill="#FFFFFF" d="M111.778,164.724c0.806,0,0.806-1.25,0-1.25C110.972,163.474,110.972,164.724,111.778,164.724
						L111.778,164.724z"/>
				</g>
			</g>
			<g>
				<g>
					<path fill="#FFFFFF" d="M112.807,163.553c-0.23,0.102-0.426,0.057-0.587-0.134c-0.147,0.356-0.295,0.712-0.442,1.067
						c2.647-0.156,5.193,1.444,7.755,0.152c0.72-0.363,0.087-1.441-0.631-1.08c-2.201,1.11-4.802-0.46-7.124-0.322
						c-0.564,0.032-0.801,0.646-0.442,1.066c0.414,0.482,0.851,0.575,1.472,0.499C113.596,164.705,113.606,163.455,112.807,163.553
						L112.807,163.553z"/>
				</g>
			</g>
			<g>
				<g>
					<path fill="#FFFFFF" d="M55.493,164.883c2.619,0.059,5.676,1.164,8.153-0.085c0.72-0.363,0.087-1.44-0.631-1.08
						c-2.163,1.091-5.222-0.033-7.522-0.085C54.686,163.613,54.688,164.863,55.493,164.883L55.493,164.883z"/>
				</g>
			</g>
			<g>
				<g>
					<path fill="#FFFFFF" d="M42.352,164.961c1.685,0.001,3.346,0.074,5.023,0.234c1.169,0.11,2.301,0.146,3.367-0.397
						c0.718-0.367,0.085-1.446-0.631-1.08c-1.069,0.547-2.417,0.25-3.562,0.153c-1.401-0.118-2.79-0.159-4.196-0.16
						C41.546,163.71,41.546,164.96,42.352,164.961L42.352,164.961z"/>
				</g>
			</g>
		</g>
	</g>
</g>
</svg>
