<?xml version="1.0" encoding="utf-8"?>
<!-- Generator: Adobe Illustrator 16.0.0, SVG Export Plug-In . SVG Version: 6.00 Build 0)  -->
<!DOCTYPE svg PUBLIC "-//W3C//DTD SVG 1.1//EN" "http://www.w3.org/Graphics/SVG/1.1/DTD/svg11.dtd">
<svg version="1.1" id="Layer_1" xmlns="http://www.w3.org/2000/svg" xmlns:xlink="http://www.w3.org/1999/xlink" x="0px" y="0px"
	 width="292.5px" height="244px" viewBox="0 0 292.5 244" enable-background="new 0 0 292.5 244" xml:space="preserve">
<g>
	<text transform="matrix(1 0 0 1 61.228 130.4639)" fill="#424143" font-family="'Raleway-Medium'" font-size="18.1028">P</text>
	<text transform="matrix(1 0 0 1 72.4692 130.4639)" fill="#424143" font-family="'Raleway-Medium'" font-size="18.1028">R</text>
	<text transform="matrix(1 0 0 1 84.4175 130.4639)" fill="#424143" font-family="'Raleway-Medium'" font-size="18.1028">OCLAIMING</text>
	<text transform="matrix(1 0 0 1 185.5029 130.4639)" fill="#424143" font-family="'Raleway-Medium'" font-size="18.1028"> </text>
	<text transform="matrix(1 0 0 1 189.5771 130.4639)" fill="#424143" font-family="'Raleway-Medium'" font-size="18.1028">THE</text>
	<text transform="matrix(1 0 0 1 225.1846 130.4639)" fill="#424143" font-family="'Raleway-Medium'" font-size="18.1028"> </text>
	<text transform="matrix(1 0 0 1 229.1133 130.4639)" fill="#424143" font-family="'Raleway-Medium'" font-size="18.1028">W</text>
	<text transform="matrix(1 0 0 1 247.6318 130.4639)" fill="#424143" font-family="'Raleway-Medium'" font-size="18.1028">ORD</text>
	
		<linearGradient id="SVGID_1_" gradientUnits="userSpaceOnUse" x1="32.1396" y1="122.8359" x2="52.8667" y2="122.8359" gradientTransform="matrix(1 0 0 -1 0 245)">
		<stop  offset="0" style="stop-color:#208EB3"/>
		<stop  offset="1" style="stop-color:#1A6898"/>
	</linearGradient>
	<path fill="url(#SVGID_1_)" d="M52.705,105.385c0-0.869-0.576-1.576-1.287-1.576L32.14,110.08v9.277h5.539v4.993H32.14v16.17
		c4.719-0.402,20.727-2.771,20.727-2.771L52.705,105.385z"/>
	<text transform="matrix(1 0 0 1 108.6694 140.5205)" fill="#010101" font-family="'Raleway-Medium'" font-size="7.04">M</text>
	<text transform="matrix(1 0 0 1 124.397 140.5205)" fill="#010101" font-family="'Raleway-Medium'" font-size="7.04">I</text>
	<text transform="matrix(1 0 0 1 135.7944 140.5205)" fill="#010101" font-family="'Raleway-Medium'" font-size="7.04">N</text>
	<text transform="matrix(1 0 0 1 150.791 140.5205)" fill="#010101" font-family="'Raleway-Medium'" font-size="7.04">I</text>
	<text transform="matrix(1 0 0 1 162.2031 140.5205)" fill="#010101" font-family="'Raleway-Medium'" font-size="7.04">S</text>
	
		<text transform="matrix(1 0 0 1 176.042 140.5205)" fill="#010101" font-family="'Raleway-Medium'" font-size="7.04" letter-spacing="9">T</text>
	<text transform="matrix(1 0 0 1 189.9541 140.5205)" fill="#010101" font-family="'Raleway-Medium'" font-size="7.04">R</text>
	<text transform="matrix(1 0 0 1 204.2031 140.5205)" fill="#010101" font-family="'Raleway-Medium'" font-size="7.04">I</text>
	<text transform="matrix(1 0 0 1 215.6074 140.5205)" fill="#010101" font-family="'Raleway-Medium'" font-size="7.04">E</text>
	<text transform="matrix(1 0 0 1 229.3994 140.5205)" fill="#010101" font-family="'Raleway-Medium'" font-size="7.04">S</text>
	<path fill="#D2D3D4" d="M32.338,108.342l18.962-5.786c0,0-3.392-0.386-3.736-0.66c0,0-2.552,1.478-10.834,2.243
		c-3.781,0.349-4.37,3.414-4.37,3.414"/>
	<path fill="#D2D3D4" d="M27.229,108.769L8.267,102.98c0,0,3.392-0.384,3.735-0.66c0,0,2.553,1.479,10.834,2.244
		c3.782,0.35,4.371,3.414,4.371,3.414"/>
	
		<linearGradient id="SVGID_2_" gradientUnits="userSpaceOnUse" x1="6.2559" y1="122.6553" x2="27.2334" y2="122.6553" gradientTransform="matrix(1 0 0 -1 0 245)">
		<stop  offset="0" style="stop-color:#3E4483"/>
		<stop  offset="1" style="stop-color:#46699A"/>
	</linearGradient>
	<path fill="url(#SVGID_2_)" d="M21.389,124.35v-4.993h5.845v-8.802l-19.529-6.352c-0.71,0-1.287,0.705-1.287,1.575l-0.162,32.364
		c0,0,16.292,1.943,20.977,2.344V124.35H21.389z"/>
</g>
</svg>
