<?xml version="1.0" encoding="utf-8"?>
<!-- Generator: Adobe Illustrator 16.0.0, SVG Export Plug-In . SVG Version: 6.00 Build 0)  -->
<!DOCTYPE svg PUBLIC "-//W3C//DTD SVG 1.1//EN" "http://www.w3.org/Graphics/SVG/1.1/DTD/svg11.dtd">
<svg version="1.1" id="Layer_1" xmlns="http://www.w3.org/2000/svg" xmlns:xlink="http://www.w3.org/1999/xlink" x="0px" y="0px"
	 width="292.5px" height="244px" viewBox="0 0 292.5 244" enable-background="new 0 0 292.5 244" xml:space="preserve">
<rect x="-7" y="-6" fill="#FFFFFF" width="305" height="255"/>
<g>
	<g>
		<path fill="#434345" stroke="#FFFFFF" stroke-miterlimit="10" d="M58.595,119.067h3.594c1.968,0,3.37,0.175,4.205,0.526
			c0.835,0.351,1.506,0.935,2.015,1.751c0.508,0.815,0.762,1.781,0.762,2.896c0,1.172-0.281,2.149-0.842,2.938
			c-0.561,0.787-1.407,1.384-2.538,1.786l4.221,7.923h-3.708l-4.007-7.547h-0.311v7.547h-3.392L58.595,119.067L58.595,119.067z
			 M61.987,126.032h1.063c1.079,0,1.821-0.142,2.228-0.425c0.406-0.284,0.61-0.754,0.61-1.41c0-0.389-0.101-0.729-0.302-1.016
			c-0.201-0.289-0.471-0.494-0.809-0.621c-0.338-0.125-0.958-0.188-1.859-0.188h-0.93L61.987,126.032L61.987,126.032z"/>
		<path fill="#434345" stroke="#FFFFFF" stroke-miterlimit="10" d="M78.221,119.067h3.368v17.82h-3.368V119.067z"/>
		<path fill="#434345" stroke="#FFFFFF" stroke-miterlimit="10" d="M100.462,121.489l-2.512,2.218
			c-0.882-1.228-1.78-1.842-2.694-1.842c-0.445,0-0.809,0.119-1.092,0.357c-0.283,0.238-0.425,0.506-0.425,0.805
			c0,0.3,0.101,0.582,0.303,0.849c0.275,0.354,1.104,1.119,2.488,2.29c1.294,1.082,2.079,1.766,2.354,2.047
			c0.688,0.694,1.175,1.359,1.462,1.993c0.287,0.634,0.431,1.326,0.431,2.077c0,1.462-0.505,2.669-1.516,3.621
			c-1.01,0.953-2.328,1.431-3.953,1.431c-1.27,0-2.375-0.312-3.317-0.933c-0.942-0.623-1.749-1.601-2.419-2.933l2.851-1.721
			c0.857,1.575,1.844,2.362,2.96,2.362c0.583,0,1.072-0.17,1.468-0.51c0.396-0.339,0.594-0.729,0.594-1.175
			c0-0.403-0.149-0.808-0.449-1.211c-0.299-0.403-0.959-1.022-1.978-1.854c-1.942-1.582-3.196-2.805-3.762-3.664
			c-0.566-0.86-0.849-1.719-0.849-2.574c0-1.236,0.471-2.296,1.413-3.18c0.942-0.885,2.104-1.326,3.487-1.326
			c0.89,0,1.736,0.205,2.541,0.617C98.653,119.646,99.524,120.399,100.462,121.489z"/>
		<path fill="#434345" stroke="#FFFFFF" stroke-miterlimit="10" d="M109.73,119.067h9.728v3.318h-6.36v3.223h6.36v3.26h-6.36v4.688
			h6.36v3.331h-9.728V119.067z"/>
		<path fill="#434345" stroke="#FFFFFF" stroke-miterlimit="10" d="M128.338,119.067h3.254l7.625,11.726v-11.726h3.392v17.82h-3.263
			l-7.615-11.689v11.689h-3.392L128.338,119.067L128.338,119.067z"/>
		<path fill="#434345" stroke="#FFFFFF" stroke-miterlimit="10" d="M169.113,122.374l-1.404,1.079
			c-0.775-1.01-1.706-1.775-2.792-2.296c-1.087-0.521-2.278-0.781-3.58-0.781c-1.421,0-2.737,0.342-3.948,1.023
			c-1.212,0.683-2.15,1.6-2.816,2.75c-0.666,1.151-0.999,2.445-0.999,3.884c0,2.173,0.745,3.985,2.233,5.438
			c1.49,1.453,3.37,2.182,5.641,2.182c2.494,0,4.582-0.979,6.263-2.933l1.405,1.065c-0.889,1.131-1.997,2.005-3.325,2.623
			c-1.329,0.617-2.812,0.927-4.452,0.927c-3.117,0-5.576-1.038-7.377-3.112c-1.511-1.753-2.266-3.869-2.266-6.349
			c0-2.608,0.914-4.804,2.744-6.584c1.828-1.781,4.119-2.671,6.873-2.671c1.664,0,3.166,0.329,4.508,0.987
			C167.161,120.264,168.258,121.186,169.113,122.374z"/>
		<path fill="#434345" stroke="#FFFFFF" stroke-miterlimit="10" d="M178.37,119.067h1.78v7.474h9.072v-7.474h1.781v17.82h-1.781
			v-8.601h-9.072v8.601h-1.78V119.067z"/>
		<path fill="#434345" stroke="#FFFFFF" stroke-miterlimit="10" d="M201.107,119.067h1.781v10.757c0,1.275,0.024,2.07,0.072,2.387
			c0.089,0.702,0.295,1.29,0.618,1.764c0.323,0.471,0.819,0.867,1.489,1.187c0.671,0.319,1.346,0.479,2.022,0.479
			c0.591,0,1.155-0.125,1.696-0.375s0.992-0.599,1.355-1.043c0.364-0.443,0.631-0.98,0.801-1.611
			c0.121-0.451,0.182-1.381,0.182-2.785v-10.757h1.781v10.757c0,1.591-0.156,2.877-0.467,3.857
			c-0.312,0.981-0.934,1.836-1.865,2.562c-0.934,0.727-2.062,1.09-3.387,1.09c-1.438,0-2.67-0.344-3.694-1.029
			c-1.024-0.687-1.712-1.596-2.06-2.727c-0.219-0.694-0.328-1.945-0.328-3.755v-10.758H201.107z"/>
		<path fill="#434345" stroke="#FFFFFF" stroke-miterlimit="10" d="M223.098,119.067h3.549c1.979,0,3.318,0.08,4.021,0.242
			c1.059,0.242,1.918,0.762,2.58,1.559c0.662,0.797,0.993,1.776,0.993,2.942c0,0.971-0.229,1.822-0.685,2.56
			c-0.457,0.735-1.108,1.292-1.957,1.668c-0.848,0.376-2.02,0.567-3.514,0.576l6.409,8.272h-2.203l-6.409-8.272h-1.007v8.272h-1.78
			v-17.82H223.098z M224.877,120.811v6.057l3.07,0.024c1.188,0,2.068-0.112,2.639-0.34c0.571-0.227,1.016-0.588,1.335-1.084
			s0.479-1.052,0.479-1.666c0-0.598-0.162-1.141-0.485-1.63c-0.324-0.488-0.749-0.838-1.274-1.048
			c-0.524-0.21-1.398-0.314-2.621-0.314H224.877L224.877,120.811z"/>
		<path fill="#434345" stroke="#FFFFFF" stroke-miterlimit="10" d="M260.359,122.374l-1.405,1.079
			c-0.774-1.01-1.706-1.775-2.792-2.296c-1.087-0.521-2.279-0.781-3.58-0.781c-1.421,0-2.736,0.342-3.949,1.023
			c-1.211,0.683-2.15,1.6-2.816,2.75c-0.666,1.151-0.998,2.445-0.998,3.884c0,2.173,0.744,3.985,2.233,5.438
			c1.49,1.453,3.37,2.182,5.64,2.182c2.496,0,4.584-0.979,6.264-2.933l1.404,1.065c-0.889,1.131-1.996,2.005-3.324,2.623
			c-1.329,0.617-2.812,0.927-4.452,0.927c-3.117,0-5.576-1.038-7.377-3.112c-1.511-1.753-2.267-3.869-2.267-6.349
			c0-2.608,0.914-4.804,2.744-6.584c1.83-1.781,4.121-2.671,6.875-2.671c1.664,0,3.166,0.329,4.506,0.987
			C258.406,120.264,259.503,121.186,260.359,122.374z"/>
		<path fill="#434345" stroke="#FFFFFF" stroke-miterlimit="10" d="M269.615,119.067h1.779v7.474h9.073v-7.474h1.781v17.82h-1.781
			v-8.601h-9.073v8.601h-1.779V119.067z"/>
	</g>
	<path fill="#E05A26" d="M11.188,115.136l-0.124,0.16c-0.084-0.517,0.307-1.059,0.755-1.594c-3.752,1.164-7.069,2.539,0.912,3.438
		c-4.245,0.098-6.218,1.227-5.173,1.25c0.777,0.235,1.414,0.472,1.938,0.712c-0.306-0.165-0.648-0.33-1.048-0.493
		c0.399,0.163,0.742,0.328,1.048,0.493c3.291,1.518,1.853,3.167,0.211,4.875c-0.817,0.945-1.744,3.518-2.973,4.486
		c-0.155,0.141-0.298,0.28-0.419,0.423c0.382-0.235,0.382-0.235,0.762-0.471c1.134,0.591,2.236,1.127,2.965,1.646
		c0.609-0.092,1.198-0.106,2.037-0.324l-0.404,0.266c1.762,0.241,1.684,0.798,2.428,1.061c-0.925-0.058-1.107,0.148-1.246,0.33
		l0.61-0.07c-0.384,0.688,0.367,1.49,0.253,2.107c0.002,0.086-0.344,0.149-0.662,0.188l0.714,0.591
		c-1.237-0.045-1.088,0.491-1.862,0.209c1.462,0.441,0.566,0.893,2.08,1.312c0.184,1.509,1.124,3.112,3.191,4.672l0.459-0.038
		c0.819,0.546,3.258,1.026,2.448,1.69c1.648,0.473,2.519,1.146,5.095,1.336c0.354,0.547,1.649,0.765,2.316,1.301
		c1.275-0.14,1.543,0.521,2.531,0.257c1.784-0.355,0.266-0.375,1.706-0.677l-0.429,0.009c1.918-1.408,3.014-2.819,3.607-4.247
		c-1.081-0.952-0.196-1.985-0.523-2.977c-0.46-1.065-1.292-2.221-2.352-3.136c-0.366-0.218,0.701-0.375,1.298-0.562
		c-0.574-0.842-0.14-1.912-0.839-2.86c-0.005,0.019-0.027,0.035-0.043,0.046c-0.213-0.504,1.098-0.882,0.88-1.374
		c-0.363,0.003-0.387-0.073-0.576-0.11c1.691-0.086-3.524-2.897-2.552-3.071c-0.08-0.052-0.152-0.104-0.197-0.158
		c0.759-1.039,4.058-2.114,3.761-3.006c-0.797-0.194-1.496-0.412-2.396-0.575c0.727-0.158-0.682-0.188-0.486-0.378
		c3.396-0.482,1.975-0.765,0.774-0.516c-0.459-0.397-0.158-0.795-0.275-1.148c-0.248-0.164-0.509-0.326-0.802-0.491
		c-0.284-0.14,0.22-0.218,1.024-0.289c-0.481-0.358,0.356-0.253,0.7-0.629c1.188-0.091-1.888-0.943-1.527-1.049l0.176,0.062
		c0.208-0.435,2.504-0.724,2.606-1.148c0.87-1.181-0.01-2.471,0.398-3.564c-1.243-0.011,0.275,0.241-1.371,0.254
		c0.216-0.645,1.76-1.295,1.968-1.947c0.336-0.117,0.96-0.261,1.355-0.314c0.464-0.208-0.594-0.123-0.434-0.275l1.123-0.021
		c-0.92-0.223,1.245-0.326,0.78-0.535c-0.452-0.011-0.512-0.088-0.477-0.162c1.19-0.004-0.083-0.229,1.005-0.219l-0.09-0.002
		c0.02-0.045-0.058-0.077,0.147-0.132c-0.419-0.085-3.683-0.884-4.188-0.971l0.196-0.04c-0.036-0.12-0.92-0.171-1.134-0.101
		l0.067-0.146l0.081,0.017l0.067-0.146c0.105-0.027,0.659-0.058,1.183-0.016c-0.415-0.083-0.641-0.176-0.428-0.259
		c-0.735,0.231-1.774,0.518-2.978,0.76c-0.409-0.1,0.225-0.279,0.095-0.387c0.787-0.128,1.456-0.393,1.998-0.598
		c-0.068-0.045-1.396-0.076-0.811-0.179c0.918-0.05-0.034-0.116,0.63-0.201c0.488,0.098,0.268,0.194,0.221,0.293
		c1.082-0.017,0.734-0.241,1.04-0.32c-0.341-0.037,0.013-0.229-0.288-0.349c1.039,0.052,0.664-0.097,1.223-0.168
		c0.125-0.082-0.293-0.133-0.659-0.1c-1.133-0.026-0.677,0.323-1.864,0.21c0.548-0.03,0.358-0.189,0.309-0.274
		c-0.617-0.001-0.469,0.059-1.059,0.003c0.136-0.095-0.606-0.196,0.033-0.251c0.168,0.018,0.062,0.057,0.047,0.085
		c0.062-0.124,4.028,0.672,3.669,0.511c-0.548,0.042-3.661-0.706-3.699-0.623c-0.305,0.076-1.114-0.054-1.33,0.024l0.747,0.087
		c-0.23,0.107-1.311,0.151-1.734,0.113c0.098-0.179,4.213,0.508,3.589,0.355l-0.293,0.062c-0.401-0.065-0.75-0.238-0.101-0.305
		c-0.608,0-0.824-0.088-1.045-0.16l0.103-0.026c-0.309-0.075-0.163-0.18-0.97-0.131c0.098,0.439-6.201-0.289-6.554,0.137
		c1.348-0.179,1.381,0.06,1.538,0.247c-0.458,0.018-1.13,0.102-1.48,0.236c0.105,0.116,0.493,0.068,0.835,0.091
		c-0.304,0.064-0.557,0.188-1.267,0.172c0.845,0.091-0.539,0.146-0.248,0.254c0.391,0.096,0.366-0.007,0.774,0.062
		c-0.09,0.144-0.21,0.346-0.373,0.461c-0.664,0.044-1.843,0.18-2.873,0.081c0.141-0.218,1.68,0.083,1.457-0.144
		c-1.52,0.098-0.416-0.201-1.566-0.243c-0.685,0.073-0.692,0.219-0.502,0.342l0.201-0.025c0.2,0.108,0.517,0.325-0.296,0.442
		c-0.533-0.028-0.935,0.023-1.065-0.056l-0.101,0.149c0.169,0.019,0.342,0.039,0.464-0.004c0.413,0.07,0.183,0.141-0.133,0.195
		c-0.563,0.016,2.373,0.792,2.019,0.769c0.018,0.107-0.83,0.133-0.257,0.238c0.459,0.011-1.932-1.027-1.749-0.885
		c-0.619,0.092,2.822,1.217,1.752,1.284c0.042,0.08,0.161,0.176,0.734,0.157c-0.278,0.134-1.093-0.041-1.629,0.055
		c0.09,0.002,0.286-0.008,0.266,0.022l-0.723,0.092c0.888,0.209-0.268,0.515,0.906,0.733c-0.62-0.063-1.707-0.135-2.269-0.276
		l0.301-0.025c-0.176-0.02-0.374-0.136-0.945-0.132c-0.381,0.134-0.276,0.248,0.286,0.389c-0.154,0.025-0.312,0.051-0.467,0.077
		c0.075-0.001,0.138-0.001,0.224-0.002c-0.355,0.046-0.413,0.041-0.637,0.024c-0.041-0.003-0.087-0.006-0.13-0.01
		c-1.675,0.084,1.062,0.525,0.194,0.769c0.236,0.072,0.284,0.006,0.604,0.096c-0.664,0.25-1.176,0.421-1.563,0.682
		c0.722,0.083,1.01,0.09,1.764-0.011l-0.235,0.197c-1.923-0.179-1.834,0.368-3.754,0.17c-0.439,0.058-0.529,0.176-0.219,0.286
		c0.484,0.011,1.261,0.028,1.259,0.167c-0.642,0.193-0.408,0.147-1.025,0.307c-0.629,0.038-0.878-0.021-1.381-0.014
		c0.807,0.247-1.368,0.215-1.248,0.448c0.186,0.146,0.261,0.434,1.363,0.441C12.892,115.156,12.084,115.156,11.188,115.136z"/>
	<g>
		<path fill="#F7941E" d="M30.904,144.896c-0.012,0.009-0.065,0.045-0.077,0.054C31.018,144.836,30.891,144.898,30.904,144.896z"/>
		<path fill="#F7941E" d="M31.854,143.777l0.099,0.02c0.012,0-0.153-0.165-0.165-0.165
			C31.795,143.632,31.861,143.777,31.854,143.777z"/>
		<path fill="#F7941E" d="M32.714,142.73c-0.491,0.05-0.498,0.145-0.472,0.25c0.032,0.105,0.084,0.223-0.109,0.314l-0.177,0.031
			l0.467,0.084C32.579,143.186,32.356,142.891,32.714,142.73z"/>
		<path fill="#F7941E" d="M35.564,142.173c-0.489,0.035-0.185-0.12-0.339,0.132c0.063-0.012,0.097-0.018,0.143-0.024
			C35.398,142.257,35.448,142.227,35.564,142.173z"/>
		<path fill="#F7941E" d="M35.368,142.279C35.218,142.391,35.836,142.208,35.368,142.279L35.368,142.279z"/>
		<path fill="#F7941E" d="M35.899,141.771c0.005,0,0.207,0.146,0.201,0.146c0.326-0.03,0.622-0.159,0.746-0.11
			C36.878,141.655,36.505,141.688,35.899,141.771z"/>
		<path fill="#F7941E" d="M35.14,141.634l0.102,0.075C35.383,141.695,35.457,141.676,35.14,141.634z"/>
		<path fill="#F7941E" d="M35.417,141.868c0.005,0-0.17-0.159-0.175-0.159c-0.238,0.021-0.646,0.021,0.047,0.073
			C34.93,141.77,35.255,141.801,35.417,141.868z"/>
		<path fill="#F7941E" d="M35.107,141.958c-0.375,0.082-0.641,0.187-0.882,0.041C34.086,142.277,34.873,142.236,35.107,141.958z"/>
		<path fill="#F7941E" d="M31.801,142.678l-0.301,0.108l0.256,0.095C31.626,142.834,32.088,142.671,31.801,142.678z"/>
		<path fill="#F7941E" d="M37.963,140.867c-0.324-0.01-0.964,0.049-1.399,0.06l0.237,0.107
			C37.095,140.979,37.452,140.874,37.963,140.867z"/>
		<path fill="#F7941E" d="M36.564,140.927l-0.387-0.159C35.948,140.909,36.189,140.936,36.564,140.927z"/>
		<path fill="#F7941E" d="M33.697,141.607c0.027,0,0.756,0.264,0.733,0.264c0.03,0-0.677-0.314-0.709-0.314L33.697,141.607z"/>
		<polygon fill="#F7941E" points="38.955,140.255 39.678,140.346 38.609,140.184 		"/>
		<path fill="#F7941E" d="M39.419,139.85c0.67,0.066,1.487-0.094,1.85-0.021c0.066-0.11-0.459-0.204-0.965-0.289
			C40.519,139.628,40.252,139.725,39.419,139.85z"/>
		<path fill="#F7941E" d="M39.576,139.396c0.139,0.045,0.431,0.092,0.728,0.143C40.188,139.49,39.984,139.441,39.576,139.396z"/>
		<path fill="#F7941E" d="M36.666,140.493c0.233-0.013,0.835-0.036,1.208-0.126l-1.12,0.062
			C36.727,140.449,36.696,140.471,36.666,140.493z"/>
		<path fill="#F7941E" d="M36.719,140.434l0.036-0.004c0.109-0.066,0.186-0.115,0.219-0.136
			C36.941,140.311,36.865,140.354,36.719,140.434z"/>
		<path fill="#F7941E" d="M36.642,140.509l0.023-0.016C36.558,140.499,36.52,140.503,36.642,140.509z"/>
		<path fill="#F7941E" d="M34.803,141.188c-0.389-0.095-0.833-0.291-1.716-0.101C33.654,141.154,34.179,141.045,34.803,141.188z"/>
		<path fill="#F7941E" d="M35.299,140.587l-0.376,0.171c0.256-0.004,0.663-0.033,0.882,0.014L35.299,140.587z"/>
		<polygon fill="#F7941E" points="35.051,140.504 35.299,140.587 35.442,140.523 		"/>
		<path fill="#F7941E" d="M38.048,139.688c-0.426-0.073-0.382-0.153-0.364-0.244c-0.353,0.098-0.586,0.197-0.686,0.293
			C37.354,139.749,37.959,139.791,38.048,139.688z"/>
		<path fill="#F7941E" d="M37.29,140.049c-0.017-0.006-0.028-0.01-0.044-0.016C37.14,140.043,37.1,140.051,37.29,140.049z"/>
		<path fill="#F7941E" d="M38.008,138.547c-0.069,0.005-0.155,0.01-0.229,0.016l0.224,0.002L38.008,138.547z"/>
		<path fill="#F7941E" d="M36.763,139.752c-0.301,0.073-0.059,0.117,0.246,0.159c-0.054-0.056-0.068-0.113-0.011-0.175
			C36.838,139.729,36.729,139.729,36.763,139.752z"/>
		<path fill="#F7941E" d="M39.308,139.146c-0.307,0.037-0.579,0.08-0.847,0.127C38.914,139.234,39.633,139.159,39.308,139.146z"/>
		<path fill="#F7941E" d="M37.584,140.008c0.013,0.004,0.029,0.008,0.036,0.012C37.891,139.995,37.77,139.998,37.584,140.008z"/>
		<path fill="#F7941E" d="M37.584,140.008c-0.115-0.037-0.359-0.066-0.576-0.097c0.041,0.045,0.115,0.086,0.237,0.122
			C37.334,140.025,37.465,140.018,37.584,140.008z"/>
		<path fill="#F7941E" d="M29.724,138.275c1.184,0.014,2.295,0.205,1.011,0.371c0.902,0.164,4.911,0.058,7.045-0.086
			c-0.522-0.004-1.018-0.004-1.752-0.174c-0.642,0.061-1.446,0.374-2.567,0.231c-0.647-0.224,0.397-0.183,1.018-0.291
			c-1.481,0.093-2.155-0.283-4.332-0.234l0.766,0.195C30.574,138.292,30.033,138.223,29.724,138.275z"/>
		<path fill="#F7941E" d="M37.763,138.882l0.146,0.069c0.223-0.079,0.706-0.135,1.6-0.239c-0.65-0.114-1.103-0.14-1.506-0.147
			c0.008,0-0.022,0.343-0.059,0.343L37.763,138.882z"/>
		<path fill="#F7941E" d="M37.696,139.264c-1.206-0.056-1.693-0.222-3.155-0.119c-0.011,0.203,0.994,0.143,1.444,0.265
			c-0.027-0.328,0.61,0.094,1.562-0.144c0.148,0.063,0.147,0.123,0.138,0.178c0.218-0.061,0.475-0.116,0.777-0.17
			c-0.033,0.002-0.057,0.004-0.089,0.008l0.002,0.001c-0.008,0-0.011,0-0.02,0c-0.176,0.014-0.278,0.019-0.167,0.003
			c-0.015-0.001-0.016-0.005-0.018-0.008c-0.171-0.006-0.321-0.01-0.466-0.014c0.372-0.097,0.352-0.017,0.466,0.014
			c0.061,0.002,0.12,0.004,0.185,0.005c0.008-0.001,0.013-0.001,0.018-0.001c0,0-0.071-0.082-0.186-0.165
			c-0.106-0.082-0.276-0.164-0.277-0.164C37.714,139.021,37.713,139.107,37.696,139.264z"/>
		<path fill="#F7941E" d="M31.148,140.911c0.084-0.011,0.151-0.011,0.22-0.011C31.255,140.88,31.175,140.871,31.148,140.911z"/>
		<path fill="#F7941E" d="M31.744,140.775c0.132,0.023,0.511,0.045,0.389,0.121c-0.301,0.067-0.451,0-0.765,0.004
			c0.252,0.047,0.628,0.164,1.131,0.018l-0.12-0.023c0.353-0.131,1.698-0.302,1.829-0.278
			C33.281,140.654,32.622,140.688,31.744,140.775z"/>
		<path fill="#F7941E" d="M34.095,140.01c0,0-0.101-0.068-0.202-0.137c-0.108-0.068-0.216-0.137-0.216-0.137l-1.07,0.14l0.604-0.008
			C32.914,140.023,33.654,139.99,34.095,140.01z"/>
		<polygon fill="#F7941E" points="38.645,138.516 40.035,138.552 38.043,138.395 		"/>
		<polygon fill="#F7941E" points="38.433,138.16 39.621,138.174 38.904,138.079 		"/>
		<path fill="#F7941E" d="M23.702,118.095l-0.337-0.08C23.469,118.053,23.582,118.077,23.702,118.095z"/>
		<path fill="#F7941E" d="M23.622,118.677l0.584,0.014C23.884,118.664,23.646,118.653,23.622,118.677z"/>
		<path fill="#F7941E" d="M38.299,129.428c1.109-0.117,2.829-0.248,1.493-0.234l-1.301,0.037
			C38.724,129.312,38.579,129.374,38.299,129.428z"/>
		<path fill="#F7941E" d="M30.528,123.445c-0.126,0.013-0.262,0.023-0.396,0.035c0.445,0.027,0.859,0.055,1.245,0.08
			C31.113,123.523,30.828,123.486,30.528,123.445z"/>
		<path fill="#F7941E" d="M25.142,123.364l0.839-0.154C25.688,123.244,25.409,123.294,25.142,123.364z"/>
		<path fill="#F7941E" d="M22.322,114.916l-1.326-0.094C21.004,114.969,21.672,114.904,22.322,114.916z"/>
		<path fill="#F7941E" d="M37.954,134.52c0.508-0.103,0.722-0.183,0.785-0.252C37.992,134.389,36.871,134.486,37.954,134.52z"/>
		<path fill="#F7941E" d="M37.514,118.324c-0.236-0.049-0.501-0.071-0.791-0.069C36.946,118.306,37.195,118.334,37.514,118.324z"/>
		<path fill="#F7941E" d="M38.734,133.975c-0.125,0.021-0.198,0.034-0.306,0.053c0.218,0.074,0.394,0.148,0.311,0.24
			C39.295,134.177,39.638,134.073,38.734,133.975z"/>
		<path fill="#F7941E" d="M24.959,103.387c0.056-0.01,0.089-0.015,0.153-0.026C24.978,103.358,24.957,103.37,24.959,103.387z"/>
		<path fill="#F7941E" d="M31.96,100.028c0.054,0.033,0.118,0.087,0.182,0.138C32.134,100.141,32.08,100.099,31.96,100.028z"/>
		<path fill="#F7941E" d="M39.001,136.729C39.086,136.805,39.145,136.741,39.001,136.729L39.001,136.729z"/>
		<path fill="#F7941E" d="M33.854,137.098c-0.146-0.018-0.333-0.029-0.633-0.031C33.534,137.072,33.733,137.083,33.854,137.098z"/>
		<path fill="#F7941E" d="M30.634,133.225l0.004-0.008C30.383,133.239,30.432,133.234,30.634,133.225z"/>
		<path fill="#F7941E" d="M38.409,136.843c0.16-0.028,0.293-0.061,0.387-0.097C38.695,136.762,38.569,136.791,38.409,136.843z"/>
		<path fill="#F7941E" d="M39.024,136.828c-0.059,0.025-0.091,0.046-0.126,0.064C39.115,136.902,39.251,136.895,39.024,136.828z"/>
		<path fill="#F7941E" d="M38.931,136.624c0.021,0.044-0.041,0.084-0.135,0.122c0.088-0.016,0.161-0.021,0.205-0.018
			C38.98,136.707,38.954,136.676,38.931,136.624z"/>
		<path fill="#F7941E" d="M26.884,109.564c0.041-0.006,0.069-0.009,0.123-0.017C26.466,109.472,26.553,109.505,26.884,109.564z"/>
		<path fill="#F7941E" d="M24.783,127.465c0.016,0.002,0.045,0.006,0.063,0.01l0.045-0.013L24.783,127.465z"/>
		<path fill="#F7941E" d="M23.813,127.193c1.62,0.115,1.421,0.182,1.078,0.269l3.753-0.089L23.813,127.193z"/>
		<path fill="#F7941E" d="M23.327,116.701l-1.169,0.19c-1.925-0.229-1.261-0.396-2.906-0.217c4.075,0.027,0.417,0.739,4.488,0.766
			l-0.857,0.125c0.04-0.036-0.201-0.042-0.16-0.077c-1.951,0.244,2.946,0.181,2.366,0.496c-0.312,0.109-0.904,0.186-1.387,0.111
			l1.008,0.244c-0.079,0.071-0.787,0.054-0.709-0.017l0.325,0.372l-0.12-0.002c0.64,0.053,1.627,0.173,2.048,0.232
			c-0.584,0.095-0.432-0.047-0.94-0.023l0.987,0.206c-1.056,0.084-2.08-0.086-1.929-0.229c-4.068,0.192,1.025,0.171-1.351,0.586
			l-0.517-0.194c-2.312,0.125-1.474,0.277-2.915,0.497c0.753-0.052,3.631-0.44,4.646-0.217c-0.308,0.063-0.454,0.146,0.366,0.267
			c-1.449,0-1.093,0.119-1.011,0.266l-1.919-0.01c0.554,0.159,1.531,0.146,2.395,0.241c-0.189,0.177-1.676,0.214-2.928,0.256
			c-0.305,0.284,2.383-0.197,2.745,0.14c-0.734,0.236,0.05,0.402,1.198,0.686c-0.661,0.166-1.173-0.029-1.723,0.031l1.531,0.146
			c-0.037,0.036-0.507,0.024-0.744,0.019c0.593,0.124,1.917,0.01,2.439,0.205c2.114,0.052-3.089,0.399-0.688,0.64
			c-0.545,0.06-1.176-0.029-1.919-0.011c1.575,0.331,1.144,0.283,3.264,0.555l-1.26,0.231c1.441-0.17,3.146,0.047,4.547,0.236
			c0.693-0.063,1.298-0.118,1.595-0.146l1.03,0.304c-0.315,0.037-0.974,0.006-1.775-0.043c0.16,0.019,0.317,0.037,0.46,0.055
			c-0.709,0.107-1.816,0.053-2.889-0.025c0.38-0.035,0.783-0.072,1.184-0.109c-1.166-0.073-2.457-0.145-3.58-0.129
			c0.221,0.021,0.412,0.059,0.519,0.101c-0.316-0.021-0.599-0.032-0.791-0.022c-0.202,0.01,0.223,0.041,0.712,0.092l-2.139,0.068
			l0.85,0.018l-1.339,0.396c2.153,0.283,5.323,0.53,6.207,0.979c-1.569-0.111-2.562-0.023-4.421-0.029
			c1.967-0.123-0.836-0.35-0.437-0.582c-0.207,0.122-1.093,0.095-1.402,0.062l1.79,0.418c-1.521-0.011-1.14,0.088-1.768,0.196
			c3.004-0.083,2.001,0.31,2.922,0.479c-1.009,0.01-2.039-0.03-1.796-0.237c-2.262,0.229,3.529,0.295,1.607,0.519
			c-0.025-0.051,0.13-0.078-0.382-0.098c0.896,0.118,0.186,0.405-0.693,0.338l-0.021-0.05c-0.356,0.334-0.022,1.021,2.53,1.069
			c-0.329-0.006-3.073-0.055-3.592-0.064l8.585,0.598c-2.191-0.053-7.411,0.149-8.648-0.127c-0.312,0.078-0.677,0.178,0.097,0.347
			c0.312-0.056,3.168-0.138,3.369-0.062c-2.44,0.204-1.305,0.142-3.385,0.394c0.47-0.081,3.907,0.01,3.797,0.139
			c-0.514-0.021-3.393,0.012-3.75-0.037l3.374,0.321c-0.608-0.08-2.859-0.015-3.813,0.058c0.661-0.033-0.062,0.277,0.272,0.362
			l0.782-0.136c-0.51,0.361,4.745,0.356,4.567,0.717c-0.697-0.043-4.289-0.107-4.714,0.074c1.729,0.084,8.312,0.371,9.642,0.688
			l-0.987,0.062l1.125,0.244c-2.6-0.151-8.071-0.578-10.2-0.812c-0.782,0.136-1.165,0.038-1.075,0.241
			c-0.926,0.07-1.405-0.111-1.459-0.172l-0.598,0.474c2.019-0.021,2.023,0.361,3.703,0.345l-2.09-0.515
			c2.013-0.021,5.725,0.297,5.369,0.632c-0.803,0.085-3.59-0.062-4.263-0.057c0.694,0.043,1.326,0.316,0.833,0.348l-1.078-0.142
			c-0.759,0.187,2.673,0.305,0.749,0.528c-0.129,0.076-2.597,0.229-1.403,0.243c2.301-0.126,9.42-0.149,11.149-0.065
			c-0.155,0.027-2.2,0.406-3.337,0.494c-1.805,0.127-4.301-0.191-5.851-0.084c0.551,0.006,1.23,0.076,1.449,0.104
			c-0.47,0.081-1.707-0.034-1.458,0.144c2.045,0.028-0.173,0.358,1.729,0.082c0.584,0.174-0.42,0.185-0.331,0.388
			c1.321-0.064,4.497,0.182,5.08,0.354c-0.52-0.01-1.197,0.028-1.506,0.048c-0.185,0.354-1.113,0.543-1.131,0.873
			c-0.495,0.03-1.094,0.189-1.975,0.122c0.362,0.048,1.055,0.091,1.104,0.192c-1.768,0.197-0.275-0.227-2.399-0.077
			c1.188,0.015,1.639,0.265,2.382,0.408c1.835-0.044,0.352-0.335-0.39-0.479c2.531,0,5.183,0.252,6.353,0.598
			c0.628,0.272-1.636,0.117-1.276,0.166c-0.442,0.515,4.421,0.438,2.594,0.865c-1.613,0.17-3.209,0.008-4.373,0.045
			c-0.611-0.224,1.024-0.343,0.959-0.494l-0.763,0.188c-0.536-0.07-0.943-0.22-0.476-0.301c-1.449,0.143-0.278,0.869-1.616,1.266
			c0.541,0.071,1.1,0.192,1.749,0.135l-0.226-0.125c1.301-0.115,1.799,0.236,2.405,0.078c0.916,0.168,2.353,0.356,1.617,0.594
			l-1.84,0.046c0.538-0.007,1.096-0.155,0.536-0.224c0.814,0.101-2.49,0.364-0.082,0.474l1.274-0.166
			c0.924,0.169,2.877,0.378,2.297,0.588c1.816-0.097-0.208-0.048,1.917-0.197c-2.644,0.129,0.111-0.538-2.667-0.33
			c2.467-0.153,1.046-0.266,3.149-0.466c-0.606,0.006-1.16,0.071-0.861-0.105c-0.175-0.013-0.401-0.028-0.535-0.039
			c0.018-0.004,0.027-0.006,0.045-0.012l-0.072,0.01c-0.091-0.008-0.11-0.008-0.025,0.004c-0.265,0.043-0.584,0.076-0.923,0.091
			c-1.393-0.089-1.349-0.368-2.07-0.464c0.289-0.104,0.696,0.045,1.343-0.014l-1.078-0.142c1.348-0.015,2.238-0.278,3.028-0.031
			l0.06-0.223c0.756-0.132,1.056-0.312,0.489-0.423c0.292-0.104-1.491-0.264-0.437-0.172l-0.835-0.35l0.337-0.003
			c0.17-0.344-2.231-0.707,0.201-1.101c-0.34-0.115-0.756-0.234-0.374-0.43l1.166-0.037c-0.407-0.147,1.166-0.445-0.048-0.51
			c3.136-0.16,0.684-0.722,1.241-0.982l-1.522-0.01c0.086-0.18-0.346-0.353-0.957-0.574l-1.345,0.014
			c-1.104-0.191,0.957-0.495,0.819-0.799c0.514,0.021,0.379,0.098,0.069,0.152c3.038-0.364-2.21-0.769,0.003-1.099
			c-0.489-0.082-0.322-0.142,0.016-0.198c0.003,0.008,0.028,0.014,0.07,0.021c0.016-0.009,0.019-0.021,0.016-0.033
			c0.231-0.037,0.494-0.079,0.716-0.114c-0.327,0.034-0.596,0.067-0.721,0.096c-0.028-0.062-0.195-0.158-0.532-0.254l1.444-0.039
			c-0.019-0.008-0.016-0.015-0.041-0.021c0.533-0.093-0.684-0.074-1.771-0.025c-0.237-0.047-0.523-0.091-0.872-0.123
			c2.332-0.076-0.785-0.248,1.702-0.352c-1.213-0.062-0.913-0.475-3.464-0.523c0.333-0.002,0.491-0.03,0.511,0.021
			c0.292-0.104,0.582-0.21-0.138-0.304l1.837-0.045l-2.47-0.229c1.119-0.14,1.77-0.196,3.183-0.06
			c-2.174-0.334-0.819-0.271-2.974-0.555l1.188,0.015c-0.045-0.103-1.636-0.265-0.655-0.325c2.257-0.229,0.312-1.124,2.41-1.707
			c-3.497,0.111,1.567-0.271-1.143-0.295c0.826-0.033,1.293-0.115,2.013-0.021c-0.813-0.298,1.311-0.447-0.974-0.651
			c0.831-0.034,1.213,0.062,1.704,0.032c-0.179-0.022-0.719-0.095-0.226-0.125c0.492-0.03,0.694,0.043,1.055,0.09
			c-0.139-0.303-2.688-0.334-5.08-0.355c1.132-0.154,0.973-0.23-0.596-0.343c0.782-0.054,1.601-0.144,1.882,0.046
			c0.114-0.105,1.147-0.648-0.771-0.66c0.486-0.033,0.142-0.148-0.079-0.176c0.114-0.238,0.287-0.259,0.105-0.494l-0.313,0.065
			c-2.313-0.092-0.516-0.195-0.794-0.383l0.237,0.005c1.668-0.433-0.8-0.187,1.104-0.614l-1.438,0.023
			c-3.095-0.04,1.825-0.378,0.642-0.626l-0.822,0.089c-1.059-0.135,4.208-0.378,4.595-0.514c0.27-0.03,0.432,0.047,0.631,0.088
			c1.825-0.356-1.885-0.046-2.323-0.311c1.017-0.049,2.585,0.063,2.774-0.116c0.823-0.089-3.3-0.518-1.351-0.761
			c-0.784,0.054-1.566,0.107-2.155-0.016c-0.28-0.189,2.962-0.51,0.492-0.681c0.214-0.024,0.419-0.033,0.614-0.034
			c-0.637-0.145-1.059-0.469-2.398-0.556c4.97-0.133-2.417-0.897,2.167-0.894l-0.245-0.444l0.467,0.012
			c0.303-0.284-0.795-0.384-1.896-0.484c0.312-0.066,0.74-0.018,0.98-0.013c0.924-0.414,0.729-0.456-1.554-0.803l1.487-0.036
			c-0.864-0.094,2.332-0.6,0.598-1.006c0.168,0.004,0.457,0.012,0.667,0.044c-1.745-0.458,4.125-1.095-1.291-1.263l-1.334-0.302
			c-0.42,0.391-2.35-0.058-3.249,0.103c-0.318-0.154,1.633-0.397,1.912-0.208l-0.271,0.03c2.823,0.069,1-0.486,2.922-0.475
			c-0.139-0.769,1.424-1.518,1.544-2.238l-2.194,0.083l0.126-0.251c0.511-0.066,1.717-0.088,1.626,0.091
			c1.244-0.094-1.042-0.301-1.519-0.306c0.889-0.351,2.559,0.137,2.612,0.029l-0.164-0.146l-0.256,0.033
			c-0.896-0.119-1.847-0.129-1.739-0.345c0.439-0.136,1.354-0.07,1.438-0.123c0.155,0,0.229-0.018,0.063-0.083l0.188-0.316
			l-1.733,0.126c-0.854-0.14,0.091-0.297-1.872-0.151c3.026-0.214,1.087-1.181,2.026-1.312c-1.263-0.196-1.241-0.39-1.088-0.63
			c-0.36,0.06-2.309,0.095-2.07-0.112c4.02,0.076,1.745-0.379,4.636-0.547c-0.957,0.075-1.086-0.072-1.27-0.209
			c-0.182-0.136-0.474-0.262-1.883-0.145c0.368-0.173,1.526-0.01,2.532-0.142c-1.342-0.412,0.518-0.907-0.484-1.416
			c-0.456-0.008-1.098,0.078-1.852-0.032l1.978-0.27c-0.334-0.101-2.52-0.092-1.234-0.276c-0.318,0.026-0.816,0.064-0.992-0.003
			c0.616-0.498-0.252-1.007-0.802-1.518c-0.284-0.255-0.501-0.512-0.614-0.767c-0.122-0.255-0.116-0.51-0.197-0.763
			c-0.065,0.137-0.222,0.046-0.347-0.059c0.021,0.068-0.302-0.001-0.448,0.012c0,0,0.034-0.106,0.021-0.212
			c-0.008-0.106-0.064-0.212-0.064-0.212c-0.188-0.039-0.292-0.152-0.401-0.261c-0.106-0.109-0.214-0.215-0.268-0.237l0.125,0.134
			c-0.145-0.089-0.144-0.027-0.249,0.055c-0.091,0.082-0.299,0.182-0.462,0.169c0.078,0.1-0.088,0.231-0.381,0.379
			c-0.263,0.147-0.687,0.311-0.309,0.475c-0.235,0.072-0.21-0.062-0.433-0.023c0.251,0.083,0.302,0.183-0.042,0.369l-0.088-0.021
			c-0.329,0.522-0.994,0.746-2.172,1.333l0.874-0.043c-0.226,0.126-0.526,0.153-0.805,0.211c1.189,0.145,0.418-0.354,1.683-0.222
			c-0.894,0.083-1.12,0.306-1.325,0.521c-0.219,0.215-0.453,0.424-1.737,0.48c-0.218,0.194,1.277-0.057,1.087,0.137l-0.729,0.051
			l0.842,0.049c-0.244,0.127-1.203,0.191-1.821,0.196c0.106-0.031-0.069-0.087-0.08-0.121c-1.051,0.165-0.263,0.465-0.603,0.521
			l0.682-0.186c0.068,0.264-0.296,0.558-0.566,0.85c-0.139,0.146-0.218,0.291-0.081,0.432c0.133,0.141,0.478,0.277,0.974,0.405
			l0.669-0.039c1.352,0.391-0.677,0.313-0.09,0.742l-0.16-0.016c0.668,0.086,1.005,0.2,0.929,0.318
			c-0.785-0.108-1.526,0.204-2.395,0.062c1.332,0.423,1.046,0.209,3.538,0.489l-1.112,0.064c1.006,0.095,1.537,0.103,1.825,0.317
			c-0.955-0.176-1.695,0.137-2.958-0.06c-2.433,0.449,2.457,0.667-1.102,0.874c3.079,0.206,1.709-0.389,2.369-0.273
			c1.006-0.097,2.301,0.17,1.992,0.312c-0.069,0.143-3.939,0.244-3.88,0.604c0.015-0.036-0.218-0.039-0.205-0.074
			c-0.785,0.135,1.063,0.265-0.212,0.431c1.862,0.093-0.107,0.215,2.268,0.242l-0.549-0.331c0.621,0.188,3.4,0.364,2.052,0.673
			c-0.479-0.023-1.109-0.116-1.46-0.179c-0.7,0.09,0.464,0.174-0.255,0.268c-2.377-0.027-0.517-0.402-2.329-0.604
			c-1.003,0.097,1.721,0.38-0.853,0.279c3.272,0.146-0.413,0.356,2.086,0.6l-1.424-0.016c0.224,0.039,0.896,0.119,0.86,0.19
			l-1.846-0.129c1.575,0.198-1.377,0.382-0.52,0.572c-0.044-0.397,1.715-0.089,2.754-0.257c1.906,0.49-3.724,0.282-3.041,0.831
			c-0.201-0.074,0.855-0.279,1.515-0.163c-0.293,0.104-0.839,0.242-1.586,0.307c0.296,0.364,1.465-0.056,2.339,0.099
			c-1.734,0.124,0.706,0.179,1.261,0.338l-1.447,0.001c-0.929,0.415,3.016,0.11,1.894,0.483l-2.007-0.158l0.519,0.195l-1.646-0.04
			c1.222,0.212,0.905,0.278,0.444,0.485c1.02-0.048,2.626,0.027,2.672,0.211c-0.86,0.125-1.375-0.07-1.169,0.19
			c-0.905-0.059-2.042-0.123-0.709-0.236c-0.467-0.024-0.912-0.046-1.374-0.07c-0.989,0.135-0.226,0.339-0.212,0.433
			c0.054-0.036,0.132-0.08,0.338-0.102l2.005,0.377c-0.543,0.059-0.98,0.012-1.408-0.035c0.157,0.077,0.822,0.129,0.946,0.242
			c-1.176-0.029-2.391-0.022-2.944-0.181l1.305,0.359c-0.511,0.024-1.405,0.185-1.838,0.138c-0.691,0.199,2.282,0.489,1.37,0.753
			c0.229,0.014,0.447,0.041,0.615,0.097c-0.267,0.249-1.709,0.468-0.097,0.763l-2.109,0.167c0.479,0.23,2.657-0.226,3.453,0.158
			c0.672,0.271-1.799,0.101-2.386,0.197c1.063,0.135,3.227,0.37,1.51,0.62C23.172,116.843,23.484,116.778,23.327,116.701z
			 M24.262,119.544c-0.303-0.055-1.241-0.165-0.387-0.205C25.533,119.401,24.739,119.45,24.262,119.544z M27.747,123.865
			c-0.479-0.041-0.242-0.104,0.306-0.176C28.171,123.741,28.117,123.8,27.747,123.865z M37.823,135.902
			c-0.024-0.002-0.042-0.004-0.07-0.006C38.317,135.773,38.094,135.816,37.823,135.902z M37.195,136.158
			c0.202,0.025,0.403,0.023,0.605,0.013c-0.366-0.019-0.391-0.075-0.289-0.141C37.132,136.049,36.871,136.082,37.195,136.158z
			 M36.625,108.759l-0.378,0.049C35.83,108.696,36.206,108.728,36.625,108.759z"/>
		<path fill="#F7941E" d="M25.766,123.375c0.245-0.016,0.514-0.02,0.787-0.023C26.31,123.33,26.028,123.33,25.766,123.375z"/>
		<path fill="#F7941E" d="M22.567,114.933c0.012-0.003,0.007-0.005,0.016-0.008l-0.261-0.009L22.567,114.933z"/>
		<path fill="#F7941E" d="M24.924,132.206c0.208-0.054,0.473-0.082,0.747-0.103C25.316,132.102,25.018,132.126,24.924,132.206z"/>
		<path fill="#F7941E" d="M39.654,137.51l-0.376-0.162c0.072,0.078-0.245,0.106-0.475,0.146
			C39.142,137.49,39.631,137.459,39.654,137.51z"/>
		<path fill="#F7941E" d="M30.695,138.93c0.181,0.022,0.02,0.051,0.204,0.073l0.687-0.007
			C31.544,138.895,30.987,138.823,30.695,138.93z"/>
		<path fill="#F7941E" d="M34.845,137.661c-1.217,0.014-0.804,0.116-0.579,0.229c-0.004-0.007-0.015-0.014,0-0.021
			C35.97,137.905,35.406,137.783,34.845,137.661z"/>
		<path fill="#F7941E" d="M34.308,137.918c0.057,0.035,0.089,0.071,0.031,0.105C35.021,138.037,34.48,137.98,34.308,137.918z"/>
		<path fill="#F7941E" d="M38.002,136.48c-0.313,0.056,1.556,0.035,1.061,0.065C40.612,136.607,37.188,136.186,38.002,136.48z"/>
		<polygon fill="#F7941E" points="30.834,137.754 32.337,137.713 31.126,137.648 		"/>
		<path fill="#F7941E" d="M31.938,136.852l-0.416,0.183c0.252-0.003,0.4,0.021,0.513,0.049
			C32.084,136.97,32.383,136.846,31.938,136.852z"/>
		<path fill="#F7941E" d="M32.034,137.082c-0.029,0.059,0.003,0.113,0.249,0.146C32.267,137.197,32.217,137.129,32.034,137.082z"/>
		<polygon fill="#F7941E" points="30.383,137.504 30.697,137.45 30.807,137.32 		"/>
		<path fill="#F7941E" d="M32.228,134.884l-0.431-0.198c-0.516-0.021-0.831,0.032-0.625,0.107
			C31.53,134.84,31.729,134.914,32.228,134.884z"/>
		<path fill="#F7941E" d="M28.111,135.486c0.312-0.053,0.647-0.057,1.143-0.088l-1.863-0.006L28.111,135.486z"/>
		<path fill="#F7941E" d="M27.676,134.905c-0.517-0.021-1.484-0.29-1.367-0.037C26.822,134.889,27.251,135.089,27.676,134.905z"/>
		<polygon fill="#F7941E" points="30.033,131.896 30.057,131.948 33.112,131.939 		"/>
		<path fill="#F7941E" d="M22.724,129.246c-0.732,0.236,1.885,0.056,0.971,0.27c0.722,0.057,0.746-0.175,1.37-0.117
			C24.303,129.255,24.733,129.182,22.724,129.246z"/>
		<path fill="#F7941E" d="M25.064,129.396c0.12,0.023,0.267,0.049,0.464,0.073C25.338,129.43,25.192,129.41,25.064,129.396z"/>
		<path fill="#F7941E" d="M31.454,99.471c0.006,0-0.187-0.152-0.193-0.152c0.006,0,0.089,0.098,0.083,0.098L31.454,99.471z"/>
		<path fill="#F7941E" d="M30.958,99.178c0.004,0,0.003-0.036-0.001-0.036c-0.009,0-0.14-0.091-0.13-0.091
			C30.863,99.086,30.942,99.152,30.958,99.178z"/>
		<path fill="#F7941E" d="M20.339,119.967l0.469,0.011c0.507-0.023,0.545-0.059,0.624-0.13L20.339,119.967z"/>
		<polygon fill="#F7941E" points="21.796,117.903 21.757,117.938 23.518,117.872 		"/>
		<path fill="#F7941E" d="M19.551,116.172c-0.073,0.07,0.319,0.153,0.245,0.225C19.478,116.242,21.747,116.152,19.551,116.172z"/>
	</g>
	<path fill="#F38121" d="M29.598,120.405c0.404,0.004,0.809-0.104,0.995,0.062c0.383,0.523-0.973,0.944-0.588,1.468l0.652,0.038
		c-0.277,0.405-0.642,0.827-0.948,1.258c0.095,0.793,0.248,1.582,0.469,2.369c0.238-0.021,0.458-0.029,0.545,0.049
		c0.175,0.326-0.055,0.779-0.123,1.248l0.113,0.207c0.142,0.054,0.37,0.066,0.511,0.076c-0.022,0.211-0.084,0.4-0.154,0.575
		c1.285,2.304,2.796,4.644,4.289,7.179c0.602,0.535,1.203,1.071,1.479,1.588c0.25,0.767-0.177,1.742-0.252,2.488
		c2.307-0.113,3.436,1.705,5.767,1.342c-0.05,0.498-0.126,1.244,0.526,1.283c1.956,0.115,4.212,0.498,5.391,1.819
		c0.275,0.517-0.548,1.312-0.152,1.493c0.628,0.287,1.38-0.67,2.007-0.383c0.707-3.844-0.141-7.543-0.122-11.412
		c-1.022-1.317-1.471-10.2-1.019-12.481l-0.029-0.207c0.127-1.245-0.049-2.756-0.926-3.81c-0.543-0.483-1.203-0.974-1.84-1.463
		c-0.38,0.228-0.76,0.438-1.135,0.621c0.05-0.498,0.1-0.996-0.317-1.187c-0.986-1.06-2.14-0.459-3.71-0.052
		c-0.688,0.293-1.741-0.103-2.441,0.356c0.033-0.331,0.05-0.497,0.084-0.829c-0.653-0.038,0.333,1.021-0.736,0.791
		c0.25-0.319-0.149-0.676-0.116-1.008c-0.886,0.115-0.334,1.148-1.204,1.098c-0.202-0.179,1.187-0.932,0.101-0.996
		c-0.219-0.013-0.251,0.319-0.269,0.485c-0.333-1.021-1.37-1.583-2.557-0.652c0.033-0.323,0.494-0.781,0.345-1.123l-0.018,0.002
		c-0.036,0.171-0.262,0.465-0.276,0.623l0.059-0.583l-0.454,0.102c-0.134,0.145-0.241,0.291-0.258,0.442l0.039-0.387
		c-0.354,0.097-0.696,0.208-1.017,0.33c-0.702,0.459-1.73,0.9-1.756,1.148C30.035,116.382,29.67,118.399,29.598,120.405z"/>
	<g>
		<path fill="#FFFFFF" d="M24.401,109.317c-0.009-0.589,0.309-0.923,0.6-0.002c-0.292-0.92-0.294-0.92-0.24-1.656
			c0.191,0.615,0.375,0.376,0.51,0.281c-0.263-0.403-0.459-0.424-0.854-0.466c0.132,1.426-1.215-0.4-0.99,1.166
			C23.742,108.874,24.264,109.74,24.401,109.317z"/>
		<path fill="#FFFFFF" d="M27.027,112.945l-0.071-0.379l-0.311,0.724C26.648,112.962,26.877,112.517,27.027,112.945z"/>
		<path fill="#F7941E" d="M28.338,111.479c0.142,0.693,0.498,1.011,0.659,1.636c-0.375-1.369,0.315-0.397,0.482-0.632l-0.18-1.079
			c-0.407-0.705-0.866-0.209-1.349-0.17L28.338,111.479z"/>
		<path fill="#FFFFFF" d="M28.954,112.135l-0.034-0.716C28.846,111.633,28.599,111.817,28.954,112.135z"/>
		<path fill="#FFFFFF" d="M27.653,108.531c-0.401,0.021,0.348,0.385,0.031,0.718C27.761,109.034,27.895,108.939,27.653,108.531z"/>
		<path fill="#F7941E" d="M29.76,110.254c0,0-0.168,0.166-0.335,0.331c-0.167,0.164-0.329,0.335-0.329,0.335l0.436,0.392
			L29.76,110.254z"/>
		<path fill="#F7941E" d="M30.33,112.508c-0.099,0.012-0.348-0.347-0.292-0.74c0.466,0.785,0.366-0.43,0.779,0.233l-0.161,0.405
			c0.226,0.878,0.304-1.002,0.627,0.575c0.092-1.173-0.534-1.294-0.269-2.166c-0.35,0.364-0.722,0.084-1.135-0.124
			c0.175,0.301,0.202,0.233,0.402,0.468c-0.235,0.092-0.449,0.634-0.703,0.791C29.979,112.935,29.959,111.972,30.33,112.508z"/>
		<path fill="#F7941E" d="M31.571,112.497c0.271,0.035,0.661-0.01,0.514-1.224c-0.432-0.792-0.294,0.229-0.318,0.75
			c-0.115-0.181-0.391-0.214-0.41-0.859C31.445,111.413,31.365,112.067,31.571,112.497z"/>
		<path fill="#F7941E" d="M32.602,112.509l0.002-1.102l-0.09,0.204l-0.146-0.759c0.01,0.194,0.162,1.6-0.104,1.566
			C32.501,112.973,32.42,112.27,32.602,112.509z"/>
		<path fill="#F7941E" d="M31.75,107.23c0.284,0.486,0.34,0.153,0.516-0.192c-0.293,0.165-0.74,0.219-0.752,0.674l-0.01-0.192
			c0,0-0.192,0.606-0.247,1.391C31.426,108.112,32.173,109.124,31.75,107.23z"/>
		<path fill="#F7941E" d="M31.337,107.215l0.117-0.663L31.337,107.215z"/>
		<polygon fill="#F7941E" points="33.341,112.1 32.896,111.828 33.044,112.135 		"/>
		<path fill="#F7941E" d="M32.343,108.975c0.364,0.086-0.325-0.804,0-0.845c0.068-0.137-0.471,0.123-0.406,0.634
			C32.052,108.943,32.159,108.09,32.343,108.975z"/>
		<path fill="#F7941E" d="M33.607,112.135l0.207-0.867L33.607,112.135z"/>
		<path fill="#F7941E" d="M34.481,112.525l-0.011-0.58c0.374,0.435,0.705-0.416,1.076,0.792c-0.136-0.702-0.035-1.479-0.34-1.658
			c0,0.385-0.1,0.39-0.03,0.837c-0.135-0.124-0.172-0.637-0.276-0.826c-0.129,0.648-0.506,0.216-0.597,0.798
			c0.064-0.132,0.101-0.005,0.168,0.056c-0.211,1.038-0.604-1.386-0.53,0.282C33.994,111.711,34.354,112.787,34.481,112.525z"/>
		<path fill="#F7941E" d="M33.938,108.629l-0.322-0.178c-0.012-0.772,0.354-0.082,0.311-0.787c-0.076-0.447-0.403-0.623-0.335-0.948
			c0.202,1.79-0.395,0.147,0.031,2.12c-0.348,0.278-0.269-1.078-0.666-0.906l0.027,0.971
			C33.365,108.332,33.559,109.157,33.938,108.629z"/>
		<path fill="#F7941E" d="M35.103,108.768l0.208,0.57l-0.171-0.83c0.649-0.231,1.37,3.204,1.689,2.68
			c0.385-1.183,0.957,0.472,1.408,0.284c0.198-0.741-0.245-0.419-0.296-0.866c-0.007-1.427,0.27,0.74,0.323-0.434
			c-0.013-1.035-0.57-1.09-0.836-1.7c-0.18,0.163-0.154,0.483-0.168,1.071c-0.089-0.57-0.294-0.728-0.389-1.299
			c-0.328,0.842-0.674-0.663-0.985,0.241c-0.201-0.769,0.28-0.179,0.138-0.283l-0.213,0.038l0.036,0.125
			c-0.211,0.814-0.807,0.151-1.059-0.354c0.177,0.249,0.35,0.884,0.209,1.148l-0.246-0.89l-0.206,1.362
			C34.716,108.72,35.24,110.436,35.103,108.768z"/>
		<path fill="#F7941E" d="M34.5,107.186c-0.505-0.426,0.217,1.343-0.318,0.981l0.498-0.152L34.5,107.186z"/>
		<path fill="#FFFFFF" d="M36.852,109.227l0.264,0.603C36.899,108.565,36.697,110.298,36.852,109.227z"/>
		<polygon fill="#FFFFFF" points="37.651,109.153 37.612,110.327 37.772,109.656 		"/>
		<path fill="#F7941E" d="M38.447,110.534c0.136-0.602-0.075-1.091-0.258-0.936C38.362,109.639,38.469,110.143,38.447,110.534z"/>
		<path fill="#FFFFFF" d="M39.601,112.766c-0.314,0.001,0.276,0.294,0.043,1.346C39.684,113.615,39.855,112.951,39.601,112.766z"/>
		<path fill="#F7941E" d="M40.405,115.566c-0.096,0.218-0.114,0.007-0.109-0.278C40.355,115.316,40.399,115.386,40.405,115.566z"/>
		<path fill="#F7941E" d="M36.458,112.085c-0.039,0.008-0.082,0.013-0.124-0.021L36.458,112.085z"/>
		<path fill="#F7941E" d="M36.538,112.099l-0.081-0.014C36.487,112.079,36.514,112.085,36.538,112.099z"/>
		<path fill="#F7941E" d="M39.131,114.447L39.131,114.447c-0.01-0.038-0.016-0.062-0.028-0.109L39.131,114.447z"/>
		<path fill="#F7941E" d="M28.161,113.163c-0.048,0.078-0.093,0.112-0.136,0.114l0.132-0.122L28.161,113.163z"/>
		<path fill="#F7941E" d="M27.527,111.655c0.081-0.807,0.787,1.604,1.088,0.95c-0.139,0.21-0.294,0.388-0.458,0.55
			C27.575,112.109,28.189,112.496,27.527,111.655z"/>
		<path fill="#F7941E" d="M31.166,109.345c0.003-0.016,0.008-0.018,0.01-0.038C31.198,109.261,31.19,109.302,31.166,109.345z"/>
		<polygon fill="#FFFFFF" points="16.103,117.741 16.255,118.026 15.828,117.788 		"/>
		<path fill="#FFFFFF" d="M16.413,118.236l0.679,0.34c0,0-0.553,0.33-1.086,0.688c-0.53,0.362-1.06,0.724-1.06,0.724l-0.154-0.425
			C14.466,119.072,16.721,118.635,16.413,118.236z"/>
		<path fill="#FFFFFF" d="M16.282,117.733c-0.406-1.292,0.603,0.232,0.436-0.745c0.108,0.654,0.31,1.336-0.027,1.129L16.282,117.733
			z"/>
		<path fill="none" d="M15.858,115.051c0.252,0.17,0.144-0.413,0.309-0.273C16.595,115.712,16.033,115.115,15.858,115.051z"/>
		<path fill="#F7941E" d="M14.408,111.405c0.012-0.029,0.034-0.039,0.059-0.041c0.004,0.068,0.011,0.138,0.024,0.204L14.408,111.405
			z"/>
		<path fill="#F7941E" d="M14.491,111.568l0.208,0.411C14.573,111.843,14.518,111.708,14.491,111.568z"/>
		<path fill="#F7941E" d="M14.467,111.364c-0.012-0.161-0.015-0.331-0.066-0.518l-0.09-0.03c0.024-0.151-0.004-0.559,0.153-0.347
			c-0.194,0.015-0.05,0.302,0.24,0.878l0.293-0.058C15.644,112.681,14.741,111.331,14.467,111.364z"/>
		<path fill="none" d="M15.106,110.609l0.134,0.924C14.787,110.818,15.004,110.654,15.106,110.609z"/>
		<path fill="#F7941E" d="M15.941,111.308c0.048,0.253-0.243,0.307,0.088,0.586c0.036,0.176-0.028,0.169-0.082,0.193
			C16.025,111.813,15.4,110.962,15.941,111.308z"/>
		<path fill="#F7941E" d="M15.948,112.087c-0.009,0.033-0.023,0.062-0.053,0.077C15.901,112.116,15.923,112.098,15.948,112.087z"/>
		<path fill="none" d="M15.106,116.842c0.088,0.089,0.14,0.187,0.179,0.286L15.106,116.842z"/>
		<path fill="#F7941E" d="M16.887,111.912l0.102-0.039c-0.028,0.013-0.045,0.043-0.061,0.076L16.887,111.912z"/>
		<path fill="#F7941E" d="M13.596,123.109c0.383,0.063,0.762,0.158,0.867-0.586c-0.6-0.921-0.003-0.362-0.596-1.355
			c-0.174,0.199,0.135-0.201,0.423-0.678c0.3-0.465,0.579-1.01,0.276-1.115l0.15,0.498l-0.473-1.054
			c0.368,0.121,1.122,0.744,0.938,0.086c0.221,0.289-1.817,1.125-1.562,1.376c-0.893-1.043,1.874-2.599,1.664-3.153l0.37,0.596
			c-0.011-0.832-0.265-1.841-0.193-2.432L15.926,116c-0.35-0.129-0.139,0.41-0.185,0.848c0.309-0.341,0.624,0.082,0.836-0.219
			c-0.521-0.964-0.504-0.341-0.417-1.079c0.32,0.353,0.634,1.545,0.855,1.171c0.53,0.054-0.29-1.344,0.019-1.616l-0.423-0.239
			c0.106-0.115,0.245-0.456,0.635,0.007c-0.183,0.008-0.28,0.75,0.232,1.721c0.035-0.296,0.545-0.094,0.647-0.208l0.265,0.725
			c0.459,0.574,0.053-0.443,0.525,0.069c-0.024-0.469-0.591-0.944-0.635-1.27c0.151,0.217,0.661,0.439,0.556-0.068
			c-0.788-1.418-0.181,0.613-1.085-0.694l0.444,0.11c-0.5-1.525-0.501,0.253-0.964-0.94c-0.487-1.601,1.201,1.195,0.505-0.806
			c-0.324-0.29-0.827-0.102-1.02-0.647c0.436,0.457,0.059-0.62,0.211-0.917l0.613,0.541c-0.096-0.513-0.197-0.475-0.436-0.729
			c0.826,0.649,1.084-0.681,2.155,0.087c0.262-0.372-0.241-0.666-0.308-1.258c0.586,0.811,0.582-0.08,0.789-0.156
			c0.088,0.041-0.175-0.885-0.387-1.222l-0.274,0.78c-0.18-0.482-0.591-1.222-0.731-1.034c0.888,1.662-1.195-0.719-0.362,1.236
			l-0.392-0.884l-0.38,0.9l0.074,0.109c-0.135-0.291-0.265,0.855-0.801,0.645c-0.034-0.33,0.729-0.273-0.081-1.067
			c0.032-0.63,0.885-0.059,1.204-0.66l-0.366-0.55c0.152-1.077,1.322-0.312,1.835-0.733l0.169,0.889
			c0.341,0.229,0.884,0.802,0.789,0.024c-0.234,0.14-0.299-0.378-0.398-0.75c0.16-0.588,0.874-0.27,1.216-0.779
			c0,0,0.046,0.187,0.114,0.302l0.301-0.699c0.287,0.046,0.55,0.504,0.896,1.004c0.043-0.148,0.26-0.214,0-0.674
			c-0.062-0.029-0.125-0.057-0.138,0.002c-0.085-1.012,0.271,0.201,0.381-0.479c0.037,0.864,0.469,1.07,0.721,1.869
			c0.235-0.476-0.462-1.408-0.548-1.787c0.603,0.282,0.893,0.938,1.401,0.958c-0.137-0.494-0.434-0.23-0.663-0.768
			c0.176,0.09,0.312-0.006,0.275-0.195l-0.416-0.299c0.684,0.434,1.187,0.452,1.597-0.104l-0.12-0.236l0.34-0.077l0.164,0.952
			c0.105-0.288,0.542,0.471,0.415-0.291l-0.085-0.047l0.135-0.359l0.045,0.978c0.391,0.309,0.226-1.698,0.742-1.682
			c0.449,1.219-0.677,0.678-0.259,2.299c0.225,0.213,0.552,0.405,0.52-0.05c-0.143-0.43-0.252-0.405-0.362-0.381
			c0.16-0.958,1.124,0.212,0.996-1.275l-0.443-0.429c0.315-0.269,0.984,1.365,0.86,0.403l0.145,1.683
			c0.136-0.901,0.641-0.847,0.845-1.512c-0.215-0.939-0.495,0.129-0.514-0.062v-0.71c0.676,0.427,0.298,0.542,1.076,0.958L29.14,106
			c0.429,0.916,0.616-1.049,0.756,0.681l-0.26-0.354l0.179,0.753l0.638-0.664c0.041,0.58,0.366,0.344,0.417,1.116l0.142-0.73
			c0.325,1.061-0.248,1.391-0.109,2.215c0.109,0.495,0.218,0.409,0.264,0.328c-0.149,0.861-0.683-0.989-1.011-0.948l-0.009,0.712
			l-0.197-0.944c-0.094,0.204-0.068,0.848-0.029,1.23c-0.603-1.217-0.579,0.394-1.104,0.202c0.25-0.624-0.471-0.834-0.467-1.085
			c-0.22,0.048-0.287,1.842-0.771,0.76c-0.245-0.408,0.075-0.741-0.275-0.861c-0.161,0.168-0.153,0.693,0.093,1.1
			c-0.336,0.403-0.893,0.329-1.34,0.492l-0.079-0.641c-0.449-0.427-0.467,0.498-0.399,1.206c-0.119-0.236-0.083-0.048-0.156-0.424
			c-0.696-0.898-0.054,1.389-0.709,1.336c0.331,0.845,0.613,0.85,0.657,0.38l0.281,0.988c0.503-0.109,0.984-0.475,1.21-1.182
			l0.038,0.781c0.743,1.22-0.137-1.35,0.636,0.06c0.135-0.424-0.323-0.457-0.266-0.929c0.253,0.232,0.461,1.72,0.756,1.699
			c-0.882,0.834-2.093,1.016-3.077,1.626c0.046,0.188,0.125,0.23,0.203,0.275c0.057,0.721-0.948,0.483-1.895,0.398
			c-0.948-0.099-1.811-0.012-1.308,1.258c-0.208-0.336-0.217-0.812-0.416-0.67c0.057,0.185,0.104,0.442,0.312,0.776
			c-1.146-1.087-1.24,0.659-2.309,0.092c0.21,0.401,0.171,0.689,0.309,0.98c-0.685-0.839-0.581,0.337-1.048-0.082l0.3,0.432
			l-0.644,0.343c0.069,0.181,0.159,0.141,0.242,0.176c-0.028,0.292-0.326-0.211-0.546-0.604l0.234,1.155
			c-0.853-0.614-1.212-0.129-1.528,0.431c-0.315,0.568-0.569,1.234-1.338,0.99c0.311,0.848,0.386,1.239,0.209,1.464l0.252,0.165
			c0.153,0.779-0.247-0.38-0.257,0.05c0.159,0.563,0.658,1.179,0.581,0.646c0.27,0.195,0.359,0.502,0.391,0.734
			c-0.387,0.164-0.781,0.229-1.297,0.111c-0.255-0.056-0.534-0.153-0.842-0.301C14.271,123.566,13.955,123.364,13.596,123.109z"/>
		<path fill="#F7941E" d="M42.833,112.122c-0.03,0.021-0.016,0.011,0.02-0.014l0.069-0.042l0.026-0.023
			c0.04-0.028,0.08-0.047,0.011-0.008c-0.131,0.071-0.398,0.295-0.725,0.8c-0.087,0.131-0.08,0.207-0.21,0.399
			c-0.103,0.172-0.197,0.351-0.279,0.536c-0.083,0.184-0.153,0.374-0.212,0.567c-0.034,0.102-0.044,0.183-0.09,0.303l-0.146,0.381
			l-0.131,0.386l-0.047,0.15v-0.003l-0.001-0.022c0.021-0.022-0.042-0.052-0.088-0.102c-0.105-0.098-0.142-0.301-0.277-0.648
			c-0.101-0.688-0.152-0.709-0.29-1.087c-0.013,0.146-0.025,0.336-0.028,0.501c-0.165-0.083-0.495,0.176-0.695-0.259
			c-0.062,0.185-0.108,0.885,0,0.719c-0.295,0.614-0.524-1.315-0.713-0.749c0.17,0.453-0.141,0.673,0.056,1.032
			c-0.33,0.111-0.383-2.361-0.689-2.641c-0.009,0.195-0.018,0.391,0.043,0.448c-0.372-1.053-0.925,0.659-1.087-1.063l-0.076,0.734
			c-0.187-0.553-0.183-0.945-0.445-1.158c-0.134,0.286,0.062,0.642,0.027,0.91c-0.127-0.693-0.517-0.343-0.811-1.305
			c-0.118-1.09,0.49,1.43,0.585,0.433c-0.013-0.217-0.047-0.279-0.089-0.3c1.074,0.161,1.955,3.2,2.659,2.352
			c0.169,0.773,0.277,0.054,0.356-0.702c-0.13-0.351-0.553-1.089-0.528,0.449l-0.273-0.982c-0.092,0.079-0.144-1.466-0.197-1.718
			c0.187,0.168,0.366-1.344,0.086-1.888c0.504-0.198-0.062,3.263,0.359,2.852l0.038-1.11c-0.065,0.591,0.306,1.105,0.438,0.736
			l-0.058-0.221c1.144,0.525,2.572,0.03,3.888,0.295c-0.289,0.634-0.429,0.884-0.432,0.962c-0.022,0.078,0.056-0.021,0.226-0.082
			c0.112-0.07,0.333-0.091,0.317-0.038c-0.002,0.023-0.04,0.053-0.156,0.071c-0.053,0.009-0.154,0.014-0.217,0.012l-0.016-0.001
			c-0.008-0.001-0.008-0.002-0.007-0.001c0.058,0.008,0.216,0.023,0.324,0.023c0.236,0.01,0.481-0.035,0.633,0.133
			c0.127,0.2-0.563-0.018-0.753-0.09c0.064,0.025,0.124,0.079,0.198,0.098c-0.592-0.309-1.158-0.626-1.691-0.955
			c-0.124-0.098-0.285-0.131-0.445-0.155c-0.081-0.012-0.163-0.019-0.246-0.02l-0.126,0.003H40.91h-0.004l2.324,1.045l-0.002-0.001
			l-0.004-0.002l-0.009-0.005c-0.048-0.025-0.113-0.053-0.191-0.074c-0.008-0.006-0.009,0.004,0.051,0
			c-0.018,0.003,0.005,0-0.025,0.009c-0.033,0.01-0.063,0.024-0.089,0.041C42.943,112.049,42.921,112.066,42.833,112.122z"/>
	</g>
	<path fill="#F7941E" d="M37.089,103.955c-0.152-0.326-0.32-0.579-0.516-0.719c-0.093-0.29-0.184-0.54-0.29-0.741
		c-0.114-0.19-0.242-0.338-0.359-0.474c-0.123-0.132-0.257-0.239-0.399-0.341c-0.034-0.039-0.236-0.133-0.379-0.21
		c-0.158-0.087-0.31-0.171-0.451-0.249c-0.242-0.02-0.48-0.056-0.724-0.112c-0.122-0.028-0.245-0.062-0.371-0.102
		c-0.117-0.042-0.188-0.106-0.288-0.168c-0.563-0.291-1.156-0.531-1.524-0.736c-0.305-0.188-0.705-0.419-0.869-0.658
		c-0.037-0.049-0.116-0.104-0.124-0.151c0.03,0.059-0.046-0.013-0.013-0.125c0.011-0.029,0.005-0.054,0.034-0.096l0.008-0.015
		l0.002-0.003v-0.001l0,0c-0.245-0.914,0.549,2.044-0.549-2.048l0.002,0.014l0.006,0.056l0.026,0.227
		c0.017,0.15,0.034,0.303,0.052,0.461c0.035,0.304,0.071,0.625,0.109,0.964c0.019,0.166,0.039,0.335,0.059,0.508l-0.086,0.027
		c-0.208,0.081-0.524,0.09-0.831,0.118c-0.189,0.001-0.365,0.013-0.505,0.059c-0.118,0.056-0.335,0.094-0.391,0.231
		c-0.127,0.035-0.227,0.087-0.291,0.157c-0.084,0.801,0.275,1.396,0.683,1.26c-0.401,0.859-0.984,0.033-1.119,1.024
		c0,0-0.104-0.169-0.208-0.338c-0.102-0.178-0.204-0.356-0.204-0.356c-0.27,0.148-0.762,0.372-0.769,0.624l0.408,0.653
		c-0.983,0.257-0.186,1.377-1.027,1.834c0.673-0.194,0.133,0.427,0.547,0.67c-0.266-0.036-0.668,0.316-0.697,0.063
		c-0.555,0.488-0.259,1.634-1.128,1.449l0.01,0.368c-0.055,0.571-0.604,0.583-0.959,0.833l0.17,0.235
		c-0.069,0.321-0.449,0.683-0.795,0.695c-0.599,0.455-0.822,1.54-1.194,2.278c-0.731,0.358-0.01,0.617-0.436,1.192
		c-0.429,0.195-0.816,0.919-1.225,0.875c0.456-0.422,0.115-0.914,0.674-1.266c-0.317,0.024,0.627-0.93,0.001-0.749
		c-0.531,1.247-1.952,1.982-2.54,3.046c-0.252-0.422-1.24,0.731-1.602,1.085l-0.092-0.062c-0.366,0.233-0.613,0.431-1.075,0.953
		c-0.619,0.537-1.253,1.047-1.889,1.336c-0.455,0.219-0.891,0.597-1.281,0.798l-0.053,0.021c0-0.015-0.018,0.026-0.013,0.04
		c-0.001,0.007-0.006,0.015-0.015,0.02c0.002-0.003,0.024-0.016,0.036-0.015c0.016,0.011,0.012-0.061,0.038-0.102
		c0.041-0.096,0.095-0.186,0.145-0.268c0.091-0.135,0.183-0.269,0.26-0.383c-0.229,0.228-0.475,0.378-0.618,0.744
		c-0.029,0.094,0.117,0.19,0.162,0.167c0.066,0.003,0.095-0.013,0.143-0.021c0.078-0.025,0.15-0.054,0.218-0.086
		c0.137-0.063,0.265-0.134,0.389-0.206c0.497-0.284,0.927-0.582,1.45-0.654c-0.79,0.4-0.776,0.516-1.348,0.905l0.365-0.102
		l-0.25,0.163c0.181-0.002-0.166,0.207-0.094,0.244c0,0,0.262-0.105,0.523-0.21c0.25-0.113,0.5-0.226,0.5-0.226
		c-0.57,0.189-0.263-0.043-0.167-0.198l0.504-0.235c-0.139,0.025-0.454,0.161-0.137-0.08c0.202-0.094,0.419-0.29,0.668-0.358
		l-0.254,0.388c0.48-0.47,1.198-0.35,1.671-0.835l0.354,0.121l0.545-0.33l0.003,0.118l0.702-0.341c0.331-0.245,0.28-0.4,0.265-0.531
		c0.263-0.177,0.485-0.384,0.645-0.394l-0.172,0.364l0.338-0.125c-0.248,0.066,0.155-0.254,0.167-0.368
		c0.683-0.372,0.469-0.279,1.015-0.381c0.309-0.396,1.031-0.501,0.817-0.778c0.896-0.356,1.709-0.906,2.416-1.423l0.123-0.417
		c1.042-0.41,1.12-0.995,1.882-1.745l0.038,0.151l0.166-0.647c0.823-0.346,0.5-1.053,1.509-1.422
		c0.905-0.57,0.808-1.261,0.448-1.961c0.048-0.581,0.871-0.717,1.218-1.019l0.024,0.381l0.507-0.089
		c0.332-0.56,0.579-0.431,0.857-1.277c0.252-0.161,0.411-0.383,0.378-0.489c-0.039-0.1-0.141-0.229-0.265-0.374
		c-0.247-0.292-0.591-0.637-0.696-0.958c0.298-0.019,0.567,0.005,0.649-0.149l0.258,0.242l-0.123-0.154
		c-0.429-1.257-0.073-0.681,0.299-1.6l-0.266-0.66c0.216,0.208,0.229,0.02,0.234-0.312c0-0.081,0-0.169,0-0.259
		c-0.025-0.013-0.047-0.022-0.054-0.02c-0.028,0.006-0.035,0.056,0.02,0.195c0.022,0.084,0.119,0.418,0.272,0.743
		c0.209,0.533,0.465,0.972,0.563,0.76c0.304,0.616,0.525,0.531,0.789,0.547c0.259-0.018,0.605,0.042,1.006,0.345
		c0.028,0.044,0.057,0.084,0.086,0.119c0.342,0.409,0.869,0.28,0.658,0.73l-0.085-0.057l-0.129,0.53l0.235-0.275
		c0.202,0.311,0.698,0.463,0.794,0.843c0.023-0.028,0.959,0.009,0.937,0.039c-0.181-0.08-0.351-0.214-0.514-0.359l-0.021,0.07
		c-0.175-0.108-0.645-0.316-0.77-0.551l0.297,0.075c-0.225-0.25,0.086-0.215,0.182-0.193c0.434,0.523,0.452,0.185,0.844,0.492
		c0.067,0.102,0.213,0.269,0.124,0.261c0.232,0.182,0.788,0.763,0.848,0.718l0.038,0.05
		C37.237,105.124,37.125,104.669,37.089,103.955z"/>
</g>
</svg>
