<?xml version="1.0" encoding="utf-8"?>
<!-- Generator: Adobe Illustrator 16.0.0, SVG Export Plug-In . SVG Version: 6.00 Build 0)  -->
<!DOCTYPE svg PUBLIC "-//W3C//DTD SVG 1.1//EN" "http://www.w3.org/Graphics/SVG/1.1/DTD/svg11.dtd">
<svg version="1.1" id="Layer_1" xmlns="http://www.w3.org/2000/svg" xmlns:xlink="http://www.w3.org/1999/xlink" x="0px" y="0px"
	 width="292.5px" height="244px" viewBox="0 0 292.5 244" enable-background="new 0 0 292.5 244" xml:space="preserve">
<g>
	<g>
		<path fill="#010101" d="M86.383,115.165c-1.077-1.196-2.577-1.807-4.571-1.807c-3.259,0-4.665,1.339-4.665,3.423
			c0,2.133,1.476,2.695,4.876,3.401c3.611,0.775,5.862,1.644,5.862,4.594c0,2.934-2.414,4.41-5.955,4.41
			c-2.604,0-4.783-0.82-6.59-2.484l0.634-0.96c1.385,1.452,3.471,2.387,6.004,2.387c2.883,0,4.643-1.081,4.643-3.21
			c0-2.205-1.714-2.954-5.206-3.708c-3.563-0.747-5.487-1.547-5.487-4.265c0-3.001,2.393-4.667,5.886-4.667
			c2.159,0,3.822,0.656,5.183,1.945L86.383,115.165z"/>
		<path fill="#010101" d="M88.871,129.046l7.081-16.651h0.984l7.081,16.651h-1.289l-2.322-5.488h-7.948l-2.322,5.488H88.871z
			 M96.444,113.851l-3.705,8.722h7.341L96.444,113.851z"/>
		<path fill="#010101" d="M106.623,129.046v-16.651h1.192v15.571h9.944v1.08H106.623z"/>
		<path fill="#010101" d="M118.25,120.722c0-4.431,3.378-8.441,7.81-8.441c4.62,0,7.762,4.292,7.762,8.441
			c0,4.48-3.354,8.441-7.785,8.441C121.417,129.14,118.25,124.989,118.25,120.722z M126.036,128.063
			c3.986,0,6.589-3.729,6.589-7.342c0-3.822-2.79-7.337-6.589-7.337c-3.986,0-6.588,3.704-6.588,7.337
			C119.448,124.541,122.167,128.063,126.036,128.063z"/>
		<path fill="#010101" d="M138.346,114.651v14.395h-1.194v-16.651h0.914l11.679,14.653v-14.626h1.194v16.625h-1.104L138.346,114.651
			z"/>
		<path fill="#010101" d="M172.91,129.046l-2.135-2.229c-1.268,1.502-3.047,2.461-5.112,2.461c-2.79,0-5.229-1.688-5.229-4.402
			c0-2.276,1.687-3.685,3.68-5.044c-1.758-1.898-2.412-2.931-2.412-4.079c0-1.949,1.78-3.563,4.081-3.563
			c2.133,0,3.749,1.36,3.749,3.188c0,1.898-1.779,3.211-3.82,4.547l5.017,5.251c0.705-1.242,1.101-2.718,1.101-4.291h1.012
			c0,1.853-0.517,3.612-1.407,5.016l3.024,3.145H172.91L172.91,129.046z M170.097,126.115l-5.301-5.579
			c-1.78,1.243-3.212,2.529-3.212,4.383c0,2.252,2.181,3.4,4.199,3.4C167.538,128.319,169.04,127.451,170.097,126.115z
			 M165.032,119.222c2.038-1.36,3.398-2.369,3.398-3.797c0-1.313-1.125-2.276-2.647-2.276c-1.689,0-2.979,1.172-2.979,2.58
			C162.804,116.524,163.179,117.3,165.032,119.222z"/>
		<path fill="#010101" d="M192.793,115.165c-1.078-1.196-2.578-1.807-4.573-1.807c-3.257,0-4.664,1.339-4.664,3.423
			c0,2.133,1.476,2.695,4.877,3.401c3.611,0.775,5.861,1.644,5.861,4.594c0,2.934-2.415,4.41-5.954,4.41
			c-2.604,0-4.784-0.82-6.591-2.484l0.634-0.96c1.385,1.452,3.47,2.387,6.002,2.387c2.886,0,4.643-1.081,4.643-3.21
			c0-2.205-1.712-2.954-5.204-3.708c-3.565-0.747-5.487-1.547-5.487-4.265c0-3.001,2.392-4.667,5.886-4.667
			c2.159,0,3.822,0.656,5.184,1.945L192.793,115.165z"/>
		<path fill="#010101" d="M197.39,129.046v-16.651h6.846c2.814,0,4.854,2.631,4.854,5.16c0,2.675-1.899,5.208-4.691,5.208h-5.814
			v6.284H197.39z M198.585,121.661h5.745c2.18,0,3.54-1.997,3.54-4.106c0-2.177-1.665-4.08-3.681-4.08h-5.605L198.585,121.661
			L198.585,121.661z"/>
		<path fill="#010101" d="M209.137,129.046l7.081-16.651h0.984l7.082,16.651h-1.289l-2.322-5.488h-7.947l-2.321,5.488H209.137z
			 M216.711,113.851l-3.706,8.722h7.341L216.711,113.851z"/>
		<path fill="#010101" d="M231.953,129.046v-16.651h6.989c3.001,0,5.157,2.746,5.157,5.42c0,2.79-2.017,5.439-5.017,5.439h-4.501
			v5.792H231.953z M234.581,120.931h4.338c1.477,0,2.508-1.334,2.508-3.118c0-1.854-1.244-3.096-2.65-3.096h-4.195V120.931z"/>
		<path fill="#010101" d="M243.632,129.046l6.704-16.651h2.158l6.683,16.651h-2.79l-1.781-4.525h-6.425l-1.736,4.525H243.632z
			 M251.417,115.329l-2.768,7.243h5.438L251.417,115.329z"/>
		<path fill="#010101" d="M270.854,116.311c-0.633-0.678-2.414-1.688-4.594-1.688c-2.039,0-3.145,0.868-3.145,2.323
			c0,1.594,1.361,1.948,4.128,2.65c3.282,0.844,5.487,1.712,5.487,4.784c0,3.47-2.791,4.829-6.099,4.829
			c-2.532,0-4.992-0.799-6.893-2.251l1.22-2.252c0.799,0.822,3.141,2.135,5.769,2.135c1.993,0,3.166-0.751,3.166-2.159
			c0-1.665-1.666-2.132-4.549-2.884c-3.282-0.868-4.95-1.851-4.95-4.455c0-3.281,2.63-5.064,6.005-5.064
			c2.298,0,4.221,0.821,5.651,1.878L270.854,116.311z"/>
		<path fill="#010101" d="M285.252,116.311c-0.632-0.678-2.417-1.688-4.595-1.688c-2.039,0-3.143,0.868-3.143,2.323
			c0,1.594,1.36,1.948,4.127,2.65c3.283,0.844,5.488,1.712,5.488,4.784c0,3.47-2.792,4.829-6.1,4.829
			c-2.531,0-4.993-0.799-6.893-2.251l1.221-2.252c0.797,0.822,3.141,2.135,5.769,2.135c1.992,0,3.163-0.751,3.163-2.159
			c0-1.665-1.663-2.132-4.547-2.884c-3.284-0.868-4.948-1.851-4.948-4.455c0-3.281,2.625-5.064,6.002-5.064
			c2.299,0,4.219,0.821,5.65,1.878L285.252,116.311z"/>
	</g>
	<circle stroke="#FFFFFF" stroke-miterlimit="10" cx="35.207" cy="122" r="29.837"/>
	<g>
		<path fill="#FFFFFF" d="M32.469,118.224l-0.512,4.181c-0.265,2.158-0.5,3.617-0.707,4.371c-0.205,0.756-0.618,1.48-1.234,2.169
			c-0.799,0.892-1.695,1.311-2.692,1.253c-0.994-0.056-1.863-0.416-2.604-1.08c-2.307-2.062-3.115-6.997-1.018-9.427
			c-0.346,0.289-0.674,0.633-0.954,0.999c-0.505,0.658-1.16,1.509-1.335,2.338c-0.424,2.004,0.38,5.029,1.699,6.615
			c0.354,0.427,0.713,0.812,1.076,1.136c1.937,1.733,3.932,2.511,5.986,2.333c2.054-0.178,3.735-1,5.047-2.464
			c0.859-0.96,1.474-2.139,1.845-3.536c0.253-0.924,0.592-2.896,1.017-5.911l0.684-4.982c0.077-0.629,0.24-1.259,0.484-1.888
			c0.244-0.63,0.699-1.315,1.362-2.056c1.069-1.194,2.277-1.842,3.625-1.94c6.691-0.493,5.985,8.601,3.457,12.327
			c2.044-3.014,3.979-5.283,2.718-9.189c-1.209-3.745-4.864-5.833-8.7-6.035c-2.664-0.141-4.811,0.699-6.438,2.518
			c-0.874,0.976-1.495,2.058-1.861,3.248C33.05,114.392,32.733,116.066,32.469,118.224z"/>
	</g>
</g>
</svg>
