<?xml version="1.0" encoding="utf-8"?>
<!-- Generator: Adobe Illustrator 16.0.0, SVG Export Plug-In . SVG Version: 6.00 Build 0)  -->
<!DOCTYPE svg PUBLIC "-//W3C//DTD SVG 1.1//EN" "http://www.w3.org/Graphics/SVG/1.1/DTD/svg11.dtd">
<svg version="1.1" id="Layer_1" xmlns="http://www.w3.org/2000/svg" xmlns:xlink="http://www.w3.org/1999/xlink" x="0px" y="0px"
	 width="292.5px" height="244px" viewBox="0 0 292.5 244" enable-background="new 0 0 292.5 244" xml:space="preserve">
<rect x="-6.377" y="-7" fill="#FFFFFF" width="305" height="255"/>
<g>
	<g>
		<path fill="#333333" d="M149.872,108.804v-1.109h6.209v1.109h-2.526v10.222h-1.155v-10.222H149.872z"/>
		<path fill="#333333" d="M160.932,107.694h2.257c1.259,0,2.11,0.052,2.558,0.155c0.672,0.153,1.219,0.484,1.641,0.99
			c0.421,0.507,0.632,1.13,0.632,1.87c0,0.618-0.146,1.16-0.436,1.628s-0.705,0.821-1.244,1.061s-1.284,0.361-2.234,0.366
			l4.076,5.261h-1.401l-4.075-5.261h-0.641v5.261h-1.132V107.694z M162.063,108.804v3.852l1.952,0.016
			c0.756,0,1.315-0.071,1.678-0.216c0.363-0.144,0.646-0.373,0.85-0.689c0.203-0.315,0.305-0.669,0.305-1.06
			c0-0.379-0.104-0.726-0.309-1.036s-0.476-0.532-0.811-0.666c-0.334-0.134-0.89-0.2-1.666-0.2H162.063z"/>
		<path fill="#333333" d="M178.23,107.694l5.283,11.331h-1.222l-1.783-3.728h-4.882l-1.765,3.728h-1.264l5.354-11.331H178.23z
			 M178.087,110.103l-1.941,4.102h3.874L178.087,110.103z"/>
		<path fill="#333333" d="M188.435,119.025v-11.331h0.246l7.541,8.687v-8.687h1.117v11.331h-0.254l-7.48-8.58v8.58H188.435z"/>
		<path fill="#333333" d="M202.081,116.915l0.963-0.577c0.678,1.248,1.461,1.872,2.35,1.872c0.38,0,0.736-0.089,1.071-0.267
			c0.333-0.177,0.587-0.414,0.762-0.712s0.263-0.614,0.263-0.947c0-0.38-0.129-0.753-0.386-1.117
			c-0.354-0.503-1.001-1.109-1.941-1.818c-0.944-0.713-1.533-1.229-1.764-1.548c-0.4-0.534-0.601-1.112-0.601-1.733
			c0-0.493,0.118-0.942,0.354-1.348c0.236-0.406,0.567-0.726,0.996-0.96c0.43-0.233,0.896-0.351,1.398-0.351
			c0.535,0,1.034,0.133,1.499,0.396c0.464,0.265,0.956,0.752,1.476,1.46l-0.925,0.701c-0.427-0.565-0.789-0.937-1.09-1.116
			c-0.301-0.181-0.628-0.271-0.982-0.271c-0.457,0-0.831,0.14-1.12,0.416c-0.291,0.277-0.437,0.619-0.437,1.024
			c0,0.247,0.052,0.485,0.154,0.717s0.291,0.483,0.562,0.755c0.149,0.144,0.637,0.521,1.464,1.132
			c0.98,0.725,1.653,1.369,2.019,1.935c0.364,0.564,0.547,1.132,0.547,1.702c0,0.822-0.312,1.536-0.937,2.142
			c-0.623,0.606-1.383,0.909-2.276,0.909c-0.688,0-1.312-0.184-1.872-0.551C203.069,118.394,202.554,117.778,202.081,116.915z"/>
		<path fill="#333333" d="M214.257,107.694h2.258c1.293,0,2.167,0.057,2.619,0.17c0.646,0.158,1.175,0.486,1.586,0.982
			c0.411,0.495,0.617,1.118,0.617,1.867c0,0.756-0.201,1.379-0.602,1.868c-0.4,0.491-0.952,0.821-1.656,0.99
			c-0.514,0.123-1.474,0.185-2.881,0.185h-0.809v5.269h-1.133V107.694z M215.39,108.804v3.844l1.918,0.023
			c0.775,0,1.343-0.07,1.702-0.212c0.359-0.141,0.642-0.368,0.848-0.684c0.205-0.315,0.309-0.668,0.309-1.058
			c0-0.379-0.104-0.726-0.309-1.041c-0.206-0.315-0.477-0.539-0.813-0.673c-0.336-0.134-0.887-0.2-1.651-0.2H215.39z"/>
		<path fill="#333333" d="M232.152,107.409c1.716,0,3.153,0.573,4.309,1.718c1.157,1.146,1.735,2.556,1.735,4.229
			c0,1.659-0.578,3.065-1.731,4.222c-1.153,1.155-2.561,1.733-4.22,1.733c-1.681,0-3.099-0.575-4.255-1.726
			s-1.734-2.543-1.734-4.176c0-1.089,0.264-2.098,0.79-3.027s1.244-1.657,2.154-2.184
			C230.109,107.673,231.094,107.409,232.152,107.409z M232.202,108.511c-0.838,0-1.633,0.219-2.384,0.655
			c-0.751,0.438-1.337,1.026-1.759,1.766c-0.422,0.74-0.633,1.565-0.633,2.475c0,1.347,0.467,2.483,1.4,3.412
			c0.934,0.927,2.059,1.392,3.375,1.392c0.88,0,1.693-0.214,2.442-0.641c0.748-0.427,1.332-1.01,1.752-1.75
			c0.418-0.74,0.628-1.562,0.628-2.467c0-0.899-0.21-1.713-0.628-2.439c-0.42-0.728-1.01-1.31-1.771-1.747
			C233.864,108.729,233.057,108.511,232.202,108.511z"/>
		<path fill="#333333" d="M243.685,107.694h2.258c1.258,0,2.111,0.052,2.558,0.155c0.673,0.153,1.22,0.484,1.641,0.99
			c0.421,0.507,0.632,1.13,0.632,1.87c0,0.618-0.146,1.16-0.435,1.628c-0.291,0.468-0.705,0.821-1.244,1.061
			c-0.54,0.239-1.284,0.361-2.234,0.366l4.074,5.261h-1.4l-4.075-5.261h-0.641v5.261h-1.133V107.694z M244.817,108.804v3.852
			l1.952,0.016c0.757,0,1.315-0.071,1.679-0.216c0.362-0.144,0.646-0.373,0.849-0.689c0.202-0.315,0.305-0.669,0.305-1.06
			c0-0.379-0.103-0.726-0.309-1.036s-0.476-0.532-0.81-0.666c-0.335-0.134-0.891-0.2-1.667-0.2H244.817z"/>
		<path fill="#333333" d="M255.322,108.804v-1.109h6.208v1.109h-2.526v10.222h-1.155v-10.222H255.322z"/>
	</g>
	<g>
		<path fill="#333333" d="M152.034,137.109l0.964-0.577c0.678,1.247,1.461,1.871,2.349,1.871c0.381,0,0.737-0.088,1.072-0.266
			c0.333-0.177,0.587-0.415,0.762-0.713c0.175-0.297,0.262-0.613,0.262-0.947c0-0.38-0.129-0.752-0.386-1.117
			c-0.354-0.503-1.001-1.108-1.94-1.818c-0.945-0.713-1.533-1.229-1.764-1.548c-0.4-0.534-0.602-1.111-0.602-1.733
			c0-0.492,0.118-0.941,0.354-1.348c0.236-0.405,0.569-0.726,0.998-0.96c0.428-0.233,0.895-0.35,1.397-0.35
			c0.534,0,1.034,0.132,1.499,0.396s0.956,0.751,1.475,1.46l-0.925,0.701c-0.426-0.565-0.789-0.938-1.089-1.117
			c-0.301-0.18-0.629-0.27-0.982-0.27c-0.458,0-0.831,0.139-1.121,0.416c-0.291,0.277-0.436,0.619-0.436,1.024
			c0,0.247,0.052,0.485,0.154,0.716c0.103,0.232,0.29,0.483,0.562,0.756c0.149,0.144,0.638,0.521,1.464,1.132
			c0.98,0.724,1.653,1.369,2.018,1.934c0.365,0.564,0.548,1.133,0.548,1.702c0,0.822-0.312,1.536-0.937,2.143
			c-0.623,0.605-1.383,0.908-2.276,0.908c-0.688,0-1.312-0.184-1.872-0.551S152.507,137.972,152.034,137.109z"/>
		<path fill="#333333" d="M167.066,127.889h6.493v1.108h-5.361v3.552h5.315v1.109h-5.315v4.453h5.315v1.108h-6.447V127.889z"/>
		<path fill="#333333" d="M181.573,127.889h2.257c1.259,0,2.11,0.052,2.558,0.154c0.673,0.154,1.22,0.484,1.641,0.991
			c0.422,0.506,0.632,1.129,0.632,1.87c0,0.617-0.146,1.16-0.435,1.627c-0.291,0.468-0.705,0.822-1.245,1.062
			c-0.539,0.238-1.284,0.361-2.233,0.366l4.075,5.261h-1.4l-4.076-5.261h-0.64v5.261h-1.133V127.889z M182.706,128.997v3.852
			l1.951,0.017c0.756,0,1.315-0.072,1.679-0.217c0.362-0.143,0.645-0.373,0.849-0.688c0.203-0.316,0.305-0.669,0.305-1.06
			c0-0.38-0.103-0.726-0.308-1.036c-0.206-0.311-0.477-0.533-0.812-0.667c-0.334-0.133-0.89-0.2-1.666-0.2H182.706z"/>
		<path fill="#333333" d="M195.604,127.889h1.231l3.757,8.754l3.816-8.754h1.232l-4.931,11.331h-0.246L195.604,127.889z"/>
		<path fill="#333333" d="M213.376,127.889h1.133v11.331h-1.133V127.889z"/>
		<path fill="#333333" d="M233.653,129.991l-0.894,0.686c-0.493-0.642-1.085-1.129-1.775-1.46c-0.691-0.331-1.45-0.496-2.277-0.496
			c-0.902,0-1.74,0.217-2.511,0.65s-1.367,1.017-1.791,1.749c-0.423,0.731-0.635,1.555-0.635,2.469c0,1.382,0.474,2.534,1.421,3.459
			c0.947,0.924,2.143,1.387,3.586,1.387c1.587,0,2.914-0.622,3.982-1.864l0.894,0.678c-0.565,0.719-1.27,1.274-2.114,1.668
			c-0.846,0.393-1.789,0.589-2.832,0.589c-1.981,0-3.545-0.66-4.69-1.979c-0.961-1.115-1.44-2.46-1.44-4.037
			c0-1.658,0.581-3.054,1.745-4.186c1.163-1.134,2.62-1.699,4.371-1.699c1.058,0,2.013,0.209,2.866,0.628
			C232.41,128.649,233.108,129.236,233.653,129.991z"/>
		<path fill="#333333" d="M241.929,127.889h6.494v1.108h-5.361v3.552h5.315v1.109h-5.315v4.453h5.315v1.108h-6.448V127.889z"/>
		<path fill="#333333" d="M255.204,137.109l0.962-0.577c0.678,1.247,1.461,1.871,2.35,1.871c0.38,0,0.737-0.088,1.071-0.266
			c0.333-0.177,0.588-0.415,0.762-0.713c0.175-0.297,0.263-0.613,0.263-0.947c0-0.38-0.129-0.752-0.385-1.117
			c-0.354-0.503-1.002-1.108-1.942-1.818c-0.945-0.713-1.532-1.229-1.764-1.548c-0.4-0.534-0.601-1.111-0.601-1.733
			c0-0.492,0.118-0.941,0.354-1.348c0.236-0.405,0.568-0.726,0.997-0.96c0.429-0.233,0.895-0.35,1.398-0.35
			c0.534,0,1.033,0.132,1.498,0.396s0.957,0.751,1.476,1.46l-0.925,0.701c-0.426-0.565-0.789-0.938-1.09-1.117
			s-0.628-0.27-0.981-0.27c-0.457,0-0.832,0.139-1.121,0.416c-0.29,0.277-0.436,0.619-0.436,1.024c0,0.247,0.051,0.485,0.153,0.716
			c0.103,0.232,0.291,0.483,0.563,0.756c0.148,0.144,0.636,0.521,1.463,1.132c0.98,0.724,1.653,1.369,2.019,1.934
			c0.364,0.564,0.547,1.133,0.547,1.702c0,0.822-0.312,1.536-0.936,2.143c-0.624,0.605-1.383,0.908-2.277,0.908
			c-0.688,0-1.312-0.184-1.871-0.551S255.676,137.972,255.204,137.109z"/>
	</g>
	<g>
		<defs>
			<path id="SVGID_1_" d="M85.479,87.527c0.264-0.423,0.535-0.7,0.813-0.833c0.277-0.132,0.502-0.139,0.674-0.02
				c0.171,0.119,0.278,0.356,0.317,0.714c0.04,0.356-0.033,0.812-0.218,1.367c-0.105,0.265-0.422,1.203-0.951,2.815
				c-0.529,1.611-1.196,3.641-2.002,6.085c-0.806,2.445-1.711,5.188-2.716,8.228s-2.029,6.139-3.072,9.297
				c-1.044,3.159-2.062,6.238-3.054,9.238c-0.991,2.999-1.89,5.689-2.696,8.067c-0.806,2.38-1.466,4.322-1.982,5.829
				c-0.516,1.507-0.813,2.325-0.892,2.458c-0.158,0.264-0.449,0.495-0.872,0.693c-0.423,0.198-0.892,0.33-1.408,0.396
				c-0.515,0.065-1.031,0.046-1.546-0.06c-0.515-0.105-0.919-0.331-1.209-0.674c-0.132-0.158-0.384-0.879-0.754-2.161
				s-0.806-2.934-1.308-4.956c-0.502-2.021-1.064-4.321-1.686-6.898c-0.622-2.577-1.249-5.239-1.883-7.988
				c-0.661,1.823-1.368,3.772-2.122,5.848c-0.753,2.075-1.46,4.023-2.121,5.848c-0.767,2.114-1.533,4.229-2.3,6.344
				c0.185,0.476,0.331,0.938,0.437,1.389c0.079,0.369,0.125,0.765,0.138,1.188c0.013,0.423-0.046,0.766-0.178,1.031
				c-0.159,0.264-0.45,0.495-0.872,0.693c-0.423,0.198-0.899,0.33-1.427,0.396c-0.529,0.065-1.045,0.046-1.546-0.06
				c-0.502-0.105-0.912-0.331-1.229-0.674c-0.158-0.158-0.343-0.859-0.555-2.102c-0.212-1.243-0.476-2.848-0.793-4.816
				c-0.317-1.97-0.694-4.217-1.13-6.74c-0.436-2.524-0.952-5.174-1.546-7.949s-1.282-5.577-2.061-8.405
				c-0.78-2.828-1.659-5.524-2.637-8.089c-0.978-2.562-2.068-4.909-3.271-7.037c-1.203-2.127-2.544-3.878-4.025-5.253
				c-0.528-0.449-0.872-0.892-1.031-1.328c-0.158-0.437-0.131-0.8,0.08-1.09c0.211-0.291,0.614-0.489,1.209-0.596
				c0.595-0.104,1.395-0.039,2.398,0.199c0.662,0.158,1.407,0.549,2.24,1.169c0.833,0.621,1.719,1.626,2.657,3.014
				c0.938,1.388,1.917,3.211,2.934,5.471s2.055,5.095,3.112,8.505c1.057,3.409,2.121,7.473,3.191,12.191
				c1.07,4.718,2.122,10.209,3.152,16.474c0.185-0.45,0.423-1.104,0.714-1.963c0.291-0.859,0.614-1.844,0.971-2.954
				c0.357-1.109,0.733-2.306,1.13-3.587c0.397-1.282,0.799-2.571,1.209-3.866c0.41-1.295,0.813-2.558,1.21-3.786
				c0.396-1.229,0.779-2.333,1.15-3.312c-0.635-2.669-1.249-5.279-1.844-7.83s-1.137-4.856-1.625-6.918
				c-0.49-2.062-0.912-3.787-1.27-5.174c-0.357-1.388-0.614-2.28-0.773-2.677c-0.344-0.845-0.344-1.586,0-2.22
				c0.343-0.635,0.819-1.063,1.427-1.288s1.249-0.199,1.923,0.078c0.675,0.278,1.196,0.906,1.567,1.884
				c0.421,1.11,0.792,2.293,1.109,3.549c0.318,1.256,0.667,2.729,1.051,4.42c0.382,1.692,0.825,3.668,1.328,5.928
				c0.502,2.26,1.13,4.923,1.884,7.989c0.753,3.066,1.665,6.614,2.735,10.645c1.07,4.03,2.372,8.663,3.906,13.896
				c0.185-0.423,0.521-1.421,1.01-2.993c0.489-1.573,1.091-3.516,1.805-5.828c0.713-2.313,1.499-4.883,2.358-7.712
				c0.858-2.827,1.738-5.709,2.637-8.643c0.898-2.934,1.784-5.809,2.656-8.623c0.873-2.815,1.679-5.366,2.419-7.652
				c0.74-2.285,1.374-4.196,1.903-5.729C84.857,88.849,85.241,87.897,85.479,87.527z"/>
		</defs>
		<clipPath id="SVGID_2_">
			<use xlink:href="#SVGID_1_"  overflow="visible"/>
		</clipPath>
		<linearGradient id="SVGID_3_" gradientUnits="userSpaceOnUse" x1="26.5615" y1="120.9829" x2="149.6182" y2="120.9829">
			<stop  offset="0.0255" style="stop-color:#ED2D24"/>
			<stop  offset="0.551" style="stop-color:#ED2F41"/>
			<stop  offset="0.9136" style="stop-color:#EF512D"/>
			<stop  offset="1" style="stop-color:#F05A28"/>
		</linearGradient>
		
			<rect x="26.562" y="81.857" clip-path="url(#SVGID_2_)" fill-rule="evenodd" clip-rule="evenodd" fill="url(#SVGID_3_)" width="123.057" height="78.251"/>
	</g>
	<g>
		<defs>
			<path id="SVGID_4_" d="M118.349,121.747c1.92-0.353,3.439-0.2,4.561,0.456c1.12,0.655,1.863,1.568,2.232,2.735
				c0.367,1.17,0.376,2.49,0.024,3.961c-0.354,1.473-1.025,2.849-2.017,4.129c-0.768,0.992-1.697,1.816-2.785,2.472
				c-1.088,0.657-2.24,1.152-3.456,1.489c-1.216,0.335-2.441,0.528-3.673,0.575c-1.232,0.048-2.375-0.039-3.432-0.264
				c0.256,0.641,0.704,1.505,1.344,2.592c0.64,1.089,1.512,2.226,2.616,3.409c1.104,1.185,2.464,2.32,4.081,3.408
				c1.616,1.088,3.545,1.937,5.786,2.545c2.239,0.607,4.824,0.88,7.753,0.815c2.928-0.064,6.232-0.641,9.913-1.728
				c0.448-0.321,0.792-0.504,1.031-0.553c0.24-0.048,0.4-0.017,0.48,0.096s0.088,0.28,0.023,0.505
				c-0.063,0.224-0.19,0.447-0.383,0.672c-0.192,0.256-0.656,0.751-1.393,1.488c-0.736,0.735-1.688,1.544-2.856,2.425
				c-1.168,0.879-2.505,1.711-4.008,2.496c-1.505,0.783-3.105,1.344-4.802,1.68s-3.465,0.344-5.305,0.023
				c-1.841-0.319-3.673-1.151-5.497-2.496c-1.824-1.344-3.608-3.312-5.353-5.904c-1.744-2.593-3.368-6.001-4.872-10.226
				c0.031,1.248,0.056,2.329,0.072,3.24c0.016,0.913-0.009,1.577-0.072,1.992c-0.128,1.44-0.36,2.744-0.696,3.913
				c-0.336,1.168-0.752,2.119-1.249,2.856c-0.496,0.735-1.072,1.255-1.728,1.56s-1.369,0.312-2.136,0.024
				c-0.384-0.128-0.752-0.992-1.104-2.592c-0.353-1.602-0.625-3.656-0.816-6.169c-0.191-2.513-0.288-5.353-0.288-8.521
				s0.161-6.393,0.48-9.674c0.32-3.28,0.824-6.48,1.513-9.601c0.688-3.121,1.624-5.905,2.809-8.354
				c1.183-2.448,2.624-4.417,4.32-5.905c1.696-1.487,3.729-2.231,6.097-2.231c1.344,0,2.224,0.521,2.641,1.56
				c0.415,1.041,0.495,2.4,0.239,4.081c-0.256,1.68-0.761,3.6-1.512,5.761c-0.752,2.16-1.633,4.36-2.641,6.601
				s-2.049,4.425-3.121,6.553c-1.072,2.129-2.056,4.009-2.952,5.642v1.104c0.511-0.863,1.104-1.76,1.776-2.688
				c0.672-0.928,1.432-1.8,2.28-2.616c0.848-0.816,1.784-1.527,2.809-2.137C116.108,122.339,117.196,121.938,118.349,121.747z
				 M115.564,101.007c-0.993,0-1.849,0.346-2.568,1.032c-0.721,0.689-1.353,1.626-1.897,2.809c-0.544,1.185-0.992,2.576-1.344,4.177
				c-0.353,1.602-0.632,3.32-0.84,5.161s-0.368,3.761-0.479,5.761c-0.113,2.001-0.185,3.977-0.216,5.929
				c0.927-1.76,1.848-3.6,2.76-5.521c0.913-1.92,1.752-3.8,2.521-5.641c0.768-1.841,1.44-3.584,2.016-5.233
				c0.576-1.647,0.976-3.104,1.2-4.369c0.224-1.264,0.256-2.263,0.096-3C116.651,101.376,116.237,101.007,115.564,101.007z
				 M116.812,131.396c0.32-0.769,0.521-1.567,0.6-2.399c0.08-0.832-0.008-1.536-0.264-2.112c-0.257-0.577-0.672-0.952-1.248-1.129
				c-0.576-0.175-1.345-0.008-2.305,0.504c-0.736,0.385-1.393,0.937-1.968,1.657c-0.576,0.719-1.08,1.48-1.512,2.279
				c-0.432,0.801-0.8,1.593-1.104,2.377c-0.304,0.784-0.552,1.448-0.744,1.992c0,0.225,0.008,0.44,0.024,0.648
				c0.016,0.208,0.023,0.424,0.023,0.647l0.384,0.048c0.576,0.128,1.256,0.112,2.04-0.048c0.784-0.159,1.576-0.439,2.376-0.84
				c0.8-0.399,1.536-0.912,2.208-1.537C115.997,132.86,116.492,132.164,116.812,131.396z"/>
		</defs>
		<clipPath id="SVGID_5_">
			<use xlink:href="#SVGID_4_"  overflow="visible"/>
		</clipPath>
		<linearGradient id="SVGID_6_" gradientUnits="userSpaceOnUse" x1="26.5615" y1="120.9829" x2="149.6182" y2="120.9829">
			<stop  offset="0.0255" style="stop-color:#ED2D24"/>
			<stop  offset="0.551" style="stop-color:#ED2F41"/>
			<stop  offset="0.9136" style="stop-color:#EF512D"/>
			<stop  offset="1" style="stop-color:#F05A28"/>
		</linearGradient>
		
			<rect x="26.562" y="81.857" clip-path="url(#SVGID_5_)" fill-rule="evenodd" clip-rule="evenodd" fill="url(#SVGID_6_)" width="123.057" height="78.251"/>
	</g>
	<g>
		<defs>
			<path id="SVGID_7_" d="M132.23,113.636c1.119,0,2.064-0.384,2.832-1.152c0.769-0.768,1.152-1.711,1.152-2.832
				c0-1.088-0.384-2.017-1.152-2.784c-0.768-0.769-1.713-1.153-2.832-1.153c-1.121,0-2.064,0.385-2.833,1.153
				c-0.768,0.768-1.152,1.696-1.152,2.784c0,1.121,0.385,2.064,1.152,2.832C130.166,113.252,131.109,113.636,132.23,113.636z"/>
		</defs>
		<clipPath id="SVGID_8_">
			<use xlink:href="#SVGID_7_"  overflow="visible"/>
		</clipPath>
		<linearGradient id="SVGID_9_" gradientUnits="userSpaceOnUse" x1="26.5615" y1="120.9829" x2="149.6182" y2="120.9829">
			<stop  offset="0.0255" style="stop-color:#ED2D24"/>
			<stop  offset="0.551" style="stop-color:#ED2F41"/>
			<stop  offset="0.9136" style="stop-color:#EF512D"/>
			<stop  offset="1" style="stop-color:#F05A28"/>
		</linearGradient>
		
			<rect x="26.562" y="81.857" clip-path="url(#SVGID_8_)" fill-rule="evenodd" clip-rule="evenodd" fill="url(#SVGID_9_)" width="123.057" height="78.251"/>
	</g>
	<g>
		<defs>
			<path id="SVGID_10_" d="M145.53,132.721c-0.353,0-0.592,0.145-0.72,0.432l-1.439,1.873c-0.609,0.512-1.233,0.96-1.873,1.344
				c-0.545,0.353-1.152,0.664-1.824,0.937s-1.329,0.408-1.968,0.408c-0.642,0-1.146-0.288-1.513-0.864
				c-0.368-0.576-0.641-1.345-0.816-2.305c-0.177-0.96-0.288-2.04-0.336-3.24s-0.072-2.44-0.072-3.721
				c0-1.279-0.009-2.52-0.024-3.721c-0.016-1.2-0.079-2.28-0.191-3.24s-0.305-1.729-0.576-2.305
				c-0.272-0.576-0.664-0.864-1.176-0.864c-1.217,0-2.272,0.537-3.169,1.608c-0.631,0.755-1.245,1.65-1.844,2.682
				c-0.118,1.305-0.132,2.627-0.131,3.914c0.054,0.2,0.072,0.528,0.055,0.99c-0.032,0.815-0.064,1.824-0.096,3.024
				c-0.032,1.199-0.009,2.513,0.071,3.937s0.328,2.736,0.744,3.936c0.416,1.201,1.064,2.209,1.944,3.025
				c0.88,0.815,2.104,1.224,3.673,1.224c1.088,0,2.137-0.207,3.145-0.624c1.008-0.415,1.96-0.928,2.856-1.536
				c0.896-0.607,1.704-1.272,2.424-1.992c0.721-0.72,1.345-1.393,1.873-2.016c0.527-0.625,0.936-1.145,1.224-1.561
				c0.288-0.417,0.433-0.641,0.433-0.673C146.203,132.944,145.979,132.721,145.53,132.721z"/>
		</defs>
		<clipPath id="SVGID_11_">
			<use xlink:href="#SVGID_10_"  overflow="visible"/>
		</clipPath>
		<linearGradient id="SVGID_12_" gradientUnits="userSpaceOnUse" x1="26.5615" y1="120.9829" x2="149.6182" y2="120.9829">
			<stop  offset="0.0255" style="stop-color:#ED2D24"/>
			<stop  offset="0.551" style="stop-color:#ED2F41"/>
			<stop  offset="0.9136" style="stop-color:#EF512D"/>
			<stop  offset="1" style="stop-color:#F05A28"/>
		</linearGradient>
		
			<rect x="26.562" y="81.857" clip-path="url(#SVGID_11_)" fill-rule="evenodd" clip-rule="evenodd" fill="url(#SVGID_12_)" width="123.057" height="78.251"/>
	</g>
	<g>
		<defs>
			<path id="SVGID_13_" d="M101.79,132.721c-0.352,0-0.592,0.145-0.72,0.432l-1.44,1.873c-0.609,0.512-1.232,0.96-1.873,1.344
				c-0.545,0.353-1.152,0.664-1.824,0.937c-0.672,0.272-1.329,0.408-1.968,0.408c-0.641,0-1.145-0.288-1.512-0.864
				c-0.369-0.576-0.641-1.345-0.817-2.305c-0.176-0.96-0.287-2.04-0.335-3.24c-0.048-1.2-0.072-2.44-0.072-3.721
				c0-1.279-0.008-2.52-0.023-3.721c-0.016-1.2-0.081-2.28-0.192-3.24c-0.113-0.96-0.304-1.729-0.576-2.305
				s-0.664-0.864-1.176-0.864c-1.217,0-2.272,0.537-3.168,1.608c-0.631,0.755-1.245,1.65-1.844,2.682
				c-0.118,1.305-0.132,2.627-0.13,3.914c0.053,0.2,0.072,0.528,0.054,0.99c-0.032,0.815-0.064,1.824-0.095,3.024
				c-0.032,1.199-0.009,2.513,0.072,3.937c0.079,1.424,0.328,2.736,0.744,3.936c0.416,1.201,1.063,2.209,1.944,3.025
				c0.88,0.815,2.104,1.224,3.673,1.224c1.088,0,2.136-0.207,3.144-0.624c1.008-0.415,1.96-0.928,2.856-1.536
				c0.896-0.607,1.705-1.272,2.425-1.992c0.72-0.72,1.344-1.393,1.873-2.016c0.527-0.625,0.936-1.145,1.224-1.561
				c0.288-0.417,0.432-0.641,0.432-0.673C102.462,132.944,102.238,132.721,101.79,132.721z"/>
		</defs>
		<clipPath id="SVGID_14_">
			<use xlink:href="#SVGID_13_"  overflow="visible"/>
		</clipPath>
		<linearGradient id="SVGID_15_" gradientUnits="userSpaceOnUse" x1="26.5615" y1="120.9829" x2="149.6182" y2="120.9829">
			<stop  offset="0.0255" style="stop-color:#ED2D24"/>
			<stop  offset="0.551" style="stop-color:#ED2F41"/>
			<stop  offset="0.9136" style="stop-color:#EF512D"/>
			<stop  offset="1" style="stop-color:#F05A28"/>
		</linearGradient>
		
			<rect x="26.562" y="81.857" clip-path="url(#SVGID_14_)" fill-rule="evenodd" clip-rule="evenodd" fill="url(#SVGID_15_)" width="123.057" height="78.251"/>
	</g>
	<g>
		<linearGradient id="SVGID_16_" gradientUnits="userSpaceOnUse" x1="34.4521" y1="103.1104" x2="142.6705" y2="101.5328">
			<stop  offset="0.0255" style="stop-color:#ED2D24"/>
			<stop  offset="0.551" style="stop-color:#ED2F41"/>
			<stop  offset="0.9136" style="stop-color:#EF512D"/>
			<stop  offset="1" style="stop-color:#F05A28"/>
		</linearGradient>
		<path fill="url(#SVGID_16_)" d="M87.779,106.376c0.342-0.049,0.679-0.137,1.014-0.229c0.573-0.157,1.148-0.274,1.748-0.237
			c0.109,0.007,0.221-0.008,0.331-0.022c0.036-0.004,0.087-0.031,0.097-0.06c0.008-0.026-0.023-0.074-0.047-0.103
			c-0.127-0.146-0.301-0.175-0.479-0.175c-0.332-0.001-0.665,0.018-0.996,0.014c-0.288-0.004-0.558-0.074-0.767-0.296
			c-0.221-0.235-0.167-0.508,0.128-0.63c0.149-0.062,0.304-0.113,0.452-0.178c0.188-0.083,0.306-0.218,0.34-0.435
			c0.077-0.49,0.502-0.667,0.906-0.385c0.029,0.021,0.06,0.044,0.086,0.069c0.219,0.217,0.44,0.433,0.655,0.654
			c0.129,0.134,0.189,0.151,0.354,0.07c0.139-0.068,0.209-0.188,0.218-0.332c0.01-0.15,0-0.304-0.021-0.454
			c-0.023-0.169-0.071-0.334-0.104-0.502c-0.061-0.312-0.124-0.623-0.176-0.936c-0.04-0.235,0.041-0.441,0.207-0.605
			c0.265-0.263,0.623-0.218,0.822,0.098c0.148,0.231,0.197,0.488,0.169,0.756c-0.039,0.362-0.098,0.723-0.139,1.084
			c-0.023,0.211-0.003,0.417,0.097,0.629c0.386-0.494,0.636-1.027,0.788-1.61c0.22-0.847,0.138-1.685-0.077-2.518
			c-0.063-0.246-0.202-0.453-0.387-0.63c-0.31-0.297-0.687-0.48-1.08-0.631c-0.105-0.04-0.174-0.091-0.222-0.2
			c-0.094-0.218-0.264-0.358-0.512-0.363c-0.253-0.006-0.435,0.128-0.528,0.355c-0.053,0.128-0.066,0.275-0.084,0.416
			c-0.027,0.194-0.102,0.291-0.293,0.335c-0.076,0.018-0.155,0.021-0.233,0.03c-0.152,0.016-0.305,0.02-0.454,0.048
			c-0.237,0.044-0.374,0.184-0.388,0.423c-0.008,0.157,0.011,0.323,0.053,0.476c0.131,0.478,0.434,0.853,0.771,1.198
			c0.345,0.353,0.71,0.687,1.042,1.049c0.142,0.156,0.25,0.356,0.323,0.555c0.083,0.226-0.034,0.477-0.216,0.568
			c-0.291-0.249-0.502-0.563-0.701-0.885c-0.268-0.431-0.517-0.876-0.879-1.238c-0.397-0.395-0.87-0.567-1.414-0.402
			c-0.334,0.103-0.593,0.307-0.599,0.717c-0.003,0.273-0.161,0.459-0.426,0.535c-0.15,0.042-0.306,0.071-0.462,0.089
			c-0.416,0.048-0.806,0.153-1.118,0.453c-0.041,0.062-0.081,0.124-0.121,0.186c-0.03,0.101-0.07,0.199-0.088,0.302
			c-0.058,0.322-0.053,0.63,0.163,0.909c0.088,0.114,0.145,0.257,0.198,0.394c0.122,0.319,0.232,0.643,0.35,0.963
			c0.152,0.415,0.435,0.671,0.887,0.692C87.238,106.401,87.513,106.414,87.779,106.376z"/>
		<linearGradient id="SVGID_17_" gradientUnits="userSpaceOnUse" x1="34.5552" y1="110.5674" x2="142.7839" y2="108.9897">
			<stop  offset="0.0255" style="stop-color:#ED2D24"/>
			<stop  offset="0.551" style="stop-color:#ED2F41"/>
			<stop  offset="0.9136" style="stop-color:#EF512D"/>
			<stop  offset="1" style="stop-color:#F05A28"/>
		</linearGradient>
		<path fill="url(#SVGID_17_)" d="M93.089,108.474c-0.163-0.345-0.351-0.678-0.533-1.03c-0.156,0.166-0.188,0.341-0.156,0.523
			c0.041,0.231,0.1,0.46,0.151,0.69c0.039,0.173,0.052,0.347-0.02,0.516c-0.086,0.204-0.205,0.261-0.417,0.194
			c-0.101-0.031-0.199-0.073-0.3-0.105c-0.165-0.053-0.258-0.01-0.314,0.151c-0.031,0.091-0.033,0.192-0.069,0.28
			c-0.057,0.143-0.107,0.299-0.203,0.412c-0.163,0.193-0.504,0.235-0.731,0.127c-0.245-0.118-0.346-0.319-0.325-0.615
			c0.014-0.196,0.091-0.364,0.194-0.526c0.091-0.145,0.184-0.288,0.262-0.439c0.063-0.124,0.021-0.19-0.119-0.206
			c-0.078-0.009-0.156-0.001-0.235-0.001c-0.337-0.002-0.55-0.188-0.542-0.477c0.012-0.438,0.444-0.879,0.884-0.9
			c0.235-0.011,0.457-0.068,0.649-0.21c0.176-0.127,0.175-0.277-0.023-0.371c-0.146-0.068-0.313-0.108-0.475-0.128
			c-0.668-0.08-1.309,0.058-1.928,0.29c-0.5,0.189-0.955,0.461-1.324,0.858c-0.424,0.456-0.594,0.973-0.377,1.578
			c0.188,0.526,0.561,0.887,1.044,1.152c0.099,0.054,0.189,0.146,0.248,0.243c0.064,0.107,0.104,0.237,0.125,0.363
			c0.039,0.232,0.057,0.468,0.08,0.701c0.031,0.315,0.111,0.607,0.339,0.844c0.115,0.118,0.219,0.246,0.329,0.369
			c0.109,0.071,0.217,0.142,0.325,0.213c0.039,0.013,0.079,0.023,0.115,0.039c0.558,0.228,1.096,0.243,1.594-0.152
			c0.042-0.033,0.095-0.06,0.146-0.073c0.365-0.104,0.732-0.196,1.095-0.305c0.372-0.11,0.688-0.298,0.829-0.688
			c0.053-0.147,0.098-0.298,0.136-0.45c0.095-0.379,0.134-0.762,0.076-1.151C93.53,109.59,93.347,109.02,93.089,108.474z"/>
		<linearGradient id="SVGID_18_" gradientUnits="userSpaceOnUse" x1="34.5596" y1="110.6162" x2="142.782" y2="109.0386">
			<stop  offset="0.0255" style="stop-color:#ED2D24"/>
			<stop  offset="0.551" style="stop-color:#ED2F41"/>
			<stop  offset="0.9136" style="stop-color:#EF512D"/>
			<stop  offset="1" style="stop-color:#F05A28"/>
		</linearGradient>
		<path fill="url(#SVGID_18_)" d="M97.818,109.999c0.319-0.132,0.426-0.39,0.443-0.701c0.014-0.252-0.076-0.482-0.186-0.703
			c-0.373-0.746-0.979-1.235-1.735-1.552c-0.797-0.333-1.637-0.435-2.493-0.419c-0.06,0.002-0.119,0.048-0.209,0.086
			c0.062,0.035,0.077,0.048,0.093,0.053c0.045,0.012,0.089,0.026,0.135,0.028c0.354,0.024,0.693,0.097,0.992,0.3
			c0.263,0.178,0.535,0.344,0.787,0.536c0.145,0.111,0.221,0.281,0.225,0.474c0.002,0.09-0.021,0.144-0.128,0.151
			c-0.09,0.007-0.182,0.035-0.265,0.071c-0.301,0.133-0.323,0.341-0.062,0.539c0.257,0.196,0.313,0.565,0.127,0.831
			c-0.237,0.337-0.623,0.303-0.8-0.066c-0.171-0.357-0.335-0.721-0.53-1.065c-0.16-0.283-0.349-0.553-0.545-0.812
			c-0.147-0.194-0.347-0.334-0.605-0.425c0.01,0.099,0.005,0.179,0.029,0.25c0.057,0.171,0.105,0.35,0.197,0.5
			c0.365,0.605,0.501,1.275,0.588,1.96c0.073,0.572,0.125,1.147,0.21,1.718c0.027,0.182,0.104,0.367,0.202,0.524
			c0.36,0.578,1.089,0.758,1.592,0.389c0.143-0.104,0.25-0.104,0.409-0.065c0.554,0.142,1.111,0.237,1.594-0.201
			c0.045-0.07,0.091-0.14,0.136-0.209c0.004-0.027,0.006-0.055,0.015-0.079c0.155-0.472,0.17-0.923-0.181-1.328
			c-0.075-0.086-0.134-0.188-0.192-0.287C97.522,110.258,97.566,110.103,97.818,109.999z"/>
		<linearGradient id="SVGID_19_" gradientUnits="userSpaceOnUse" x1="34.4399" y1="102.2256" x2="142.6568" y2="100.6481">
			<stop  offset="0.0255" style="stop-color:#ED2D24"/>
			<stop  offset="0.551" style="stop-color:#ED2F41"/>
			<stop  offset="0.9136" style="stop-color:#EF512D"/>
			<stop  offset="1" style="stop-color:#F05A28"/>
		</linearGradient>
		<path fill="url(#SVGID_19_)" d="M93.869,98.175c0.113-0.021,0.221-0.063,0.333-0.092c0.21-0.055,0.325-0.01,0.426,0.178
			c0.077,0.143,0.161,0.285,0.204,0.438c0.039,0.137,0.035,0.287,0.027,0.431c-0.003,0.049-0.071,0.125-0.116,0.13
			c-0.054,0.006-0.127-0.041-0.168-0.086c-0.06-0.068-0.088-0.165-0.149-0.231c-0.047-0.049-0.153-0.113-0.187-0.093
			c-0.083,0.05-0.161,0.134-0.202,0.223c-0.045,0.095,0.023,0.187,0.114,0.222c0.123,0.048,0.252,0.086,0.382,0.102
			c0.194,0.023,0.295,0.142,0.355,0.306c0.068,0.183,0.088,0.37-0.042,0.538c-0.026,0.034-0.072,0.052-0.113,0.08
			c-0.1-0.177-0.217-0.315-0.409-0.368c-0.147-0.04-0.272,0.031-0.313,0.174c-0.032,0.11,0.042,0.234,0.175,0.272
			c0.11,0.031,0.226,0.046,0.338,0.069c0.241,0.052,0.312,0.164,0.267,0.407c-0.11,0.589-0.305,1.149-0.565,1.688
			c-0.284,0.587-0.614,1.146-1.006,1.67c-0.24,0.319-0.521,0.611-0.687,0.984c-0.125,0.28-0.069,0.582,0.173,0.77
			c0.172,0.134,0.399,0.173,0.562-0.008c0.24-0.268,0.513-0.513,0.708-0.809c0.647-0.982,0.979-2.079,1.089-3.247
			c0.011-0.114,0.007-0.231,0.031-0.344c0.081-0.383,0.305-0.541,0.66-0.47c0.105,0.021,0.208,0.037,0.269-0.073
			c0.062-0.109,0.054-0.222-0.017-0.326c-0.081-0.121-0.209-0.129-0.314-0.027c-0.07,0.067-0.137,0.139-0.218,0.19
			c-0.166,0.108-0.292,0.052-0.339-0.141c-0.053-0.221,0.042-0.421,0.275-0.529c0.154-0.072,0.321-0.115,0.483-0.169
			c0.156-0.053,0.217-0.207,0.127-0.326c-0.123-0.164-0.378-0.146-0.475,0.034c-0.028,0.053-0.048,0.111-0.083,0.158
			c-0.124,0.16-0.267,0.142-0.348-0.042c-0.139-0.312-0.012-0.621,0.323-0.771c0.075-0.034,0.159-0.048,0.237-0.074
			c0.12-0.04,0.192-0.149,0.178-0.266c-0.014-0.119-0.125-0.234-0.235-0.239c-0.135-0.007-0.194,0.087-0.236,0.194
			c-0.021,0.051-0.028,0.11-0.057,0.155c-0.09,0.14-0.265,0.149-0.321,0.01c-0.131-0.329-0.188-0.669-0.037-1.008
			c0.099-0.221,0.278-0.271,0.508-0.189c0.078,0.027,0.201,0.012,0.267-0.035c0.046-0.033,0.047-0.154,0.04-0.233
			s-0.049-0.155-0.077-0.231c-0.039-0.026-0.078-0.052-0.116-0.076c-0.054-0.007-0.108-0.018-0.162-0.019
			c-0.22-0.003-0.373-0.088-0.457-0.307c-0.062-0.158-0.191-0.191-0.343-0.107c-0.125,0.068-0.235,0.163-0.359,0.232
			c-0.053,0.031-0.129,0.045-0.189,0.034c-0.161-0.03-0.238,0.002-0.29,0.153c-0.027,0.078-0.038,0.161-0.061,0.241
			c-0.043,0.149-0.079,0.303-0.14,0.444c-0.049,0.115-0.073,0.223-0.008,0.329C93.648,98.206,93.765,98.194,93.869,98.175z"/>
		<linearGradient id="SVGID_20_" gradientUnits="userSpaceOnUse" x1="34.4771" y1="105.6611" x2="142.7171" y2="104.0833">
			<stop  offset="0.0255" style="stop-color:#ED2D24"/>
			<stop  offset="0.551" style="stop-color:#ED2F41"/>
			<stop  offset="0.9136" style="stop-color:#EF512D"/>
			<stop  offset="1" style="stop-color:#F05A28"/>
		</linearGradient>
		<path fill="url(#SVGID_20_)" d="M99.992,103.584c-0.117-0.089-0.268-0.187-0.402-0.187c-0.28,0-0.466-0.116-0.611-0.334
			c-0.087-0.13-0.169-0.264-0.257-0.394c-0.17-0.253-0.401-0.372-0.714-0.363c-0.71,0.02-1.333,0.264-1.895,0.686
			c-0.683,0.515-1.166,1.189-1.558,1.938c-0.026,0.051-0.032,0.115-0.034,0.174c-0.002,0.104,0.059,0.141,0.154,0.117
			c0.049-0.013,0.098-0.031,0.141-0.058c0.194-0.116,0.382-0.241,0.577-0.354c0.14-0.08,0.28-0.174,0.432-0.214
			c0.309-0.079,0.624-0.132,0.938-0.185c0.206-0.033,0.419-0.049,0.611,0.053c0.291,0.152,0.346,0.302,0.255,0.568
			c-0.096,0.283-0.321,0.432-0.583,0.506c-0.56,0.159-1.133,0.259-1.714,0.308c-0.201,0.018-0.401,0.054-0.599,0.1
			c-0.124,0.029-0.207,0.117-0.21,0.268c0.045,0.002,0.085,0.006,0.126,0.006c0.91-0.011,1.774,0.151,2.582,0.606
			c0.548,0.308,1.131,0.467,1.762,0.189c0.257-0.114,0.411-0.269,0.437-0.546c0.015-0.161,0.025-0.321,0.041-0.482
			c0.024-0.24,0.128-0.43,0.353-0.542c0.069-0.035,0.137-0.079,0.197-0.128C100.531,104.896,100.521,103.985,99.992,103.584z"/>
	</g>
</g>
</svg>
