<?xml version="1.0" encoding="utf-8"?>
<!-- Generator: Adobe Illustrator 16.0.0, SVG Export Plug-In . SVG Version: 6.00 Build 0)  -->
<!DOCTYPE svg PUBLIC "-//W3C//DTD SVG 1.1//EN" "http://www.w3.org/Graphics/SVG/1.1/DTD/svg11.dtd">
<svg version="1.1" xmlns="http://www.w3.org/2000/svg" xmlns:xlink="http://www.w3.org/1999/xlink" x="0px" y="0px"
	 width="760.045px" height="304.71px" viewBox="0 0 760.045 304.71" enable-background="new 0 0 760.045 304.71"
	 xml:space="preserve">
<g id="city_reflection">
	<polygon fill="#E8E7E5" points="757.624,233.453 753.911,233.555 752.774,232.943 752.774,237.946 750.401,237.946 
		750.401,248.765 749.577,248.765 749.577,238.047 746.583,238.047 746.583,233.861 745.139,233.76 743.694,234.067 
		741.116,234.067 737.399,234.168 737.399,240.702 735.026,240.702 735.026,242.029 731.93,242.029 731.93,241.416 729.145,241.416 
		729.145,233.861 728.319,234.78 726.772,234.985 726.153,234.473 723.778,234.577 722.54,235.291 721.715,235.291 721.096,236.822 
		720.374,235.598 717.795,233.352 717.795,261.323 716.969,261.323 716.969,233.045 714.286,233.045 714.286,259.383 
		713.356,259.383 713.356,253.564 705.618,253.564 705.618,259.383 704.999,259.383 704.999,253.667 704.071,253.667 
		704.071,252.135 703.139,252.135 703.139,237.536 702.625,237.536 702.625,240.905 701.749,241.774 697.157,241.774 
		697.157,243.661 695.401,243.661 695.401,244.682 694.782,244.682 694.782,243.969 693.545,243.969 693.545,245.807 
		691.17,245.807 691.17,244.375 688.592,244.375 688.592,271.428 687.043,271.428 687.043,274.594 685.805,274.594 685.805,276.125 
		680.749,276.125 680.749,289.294 680.028,289.294 680.028,286.947 673.422,284.087 670.122,284.394 670.122,281.943 
		669.399,281.943 669.399,280.209 660.42,280.209 661.866,279.494 661.866,278.882 658.047,278.882 658.047,244.375 
		650.825,244.375 650.825,242.948 648.245,242.948 648.245,242.334 645.149,242.334 645.149,241.109 643.911,241.109 
		643.911,242.334 640.403,242.334 640.403,255.708 631.116,263.059 605.627,263.059 605.627,267.958 604.184,267.958 
		604.184,269.489 601.293,269.489 601.293,270.409 595.619,270.409 595.619,276.226 595,276.226 595,277.961 579.006,277.961 
		579.006,282.761 578.18,282.761 578.18,284.292 572.917,284.292 572.917,286.232 566.004,286.232 566.004,285.416 563.735,285.416 
		563.735,284.497 560.741,284.497 560.741,283.373 559.813,283.373 559.813,267.655 557.542,267.655 557.542,266.427 
		555.375,266.427 555.375,268.264 549.907,268.264 549.907,267.753 547.223,267.753 547.223,269.489 542.788,269.489 
		542.788,267.958 541.755,267.958 541.755,269.184 540,269.184 540,267.55 538.35,267.55 538.35,265.203 526.071,265.203 
		526.071,268.774 522.458,269.489 516.679,269.489 516.679,270.818 515.648,270.818 515.648,269.286 500.581,269.286 
		500.581,283.58 499.241,283.58 499.241,286.947 500.581,286.947 498.725,289.804 494.288,290.826 472,290.826 472,288.783 
		471.071,288.783 471.071,289.804 470.038,290.214 470.038,293.685 468.075,293.582 468.075,299.093 467.354,299.093 
		467.354,293.788 464.258,293.788 464.258,291.541 462.919,291.541 462.919,290.112 460.75,290.112 460.75,289.601 455.181,288.477 
		455.181,268.264 449.02,268.264 449.02,297.052 450.051,297.052 450.051,297.87 440.147,300.524 437.772,300.524 437.772,301.849 
		439.012,301.849 439.012,302.464 431.993,304.71 428.899,304.71 421.26,301.647 422.395,301.647 422.395,300.83 415.069,298.583 
		415.069,297.666 417.133,297.666 417.133,296.44 416,296.44 416,247.133 415.278,247.133 415.278,243.763 413.959,243.763 
		413.959,246.546 412.336,248.155 412.336,266.682 411.561,267.449 411.561,276.942 410.633,276.942 410.633,279.595 
		407.331,279.595 407.331,282.66 398.766,282.66 398.766,278.371 397.737,278.371 397.737,280.209 394.846,280.209 394.846,283.373 
		385.764,283.373 385.764,279.494 383.083,279.494 383.083,276.738 377.82,276.738 377.82,274.288 370.595,274.288 369.152,272.348 
		367.708,272.348 367.708,270.612 360.588,270.612 360.588,272.042 358.626,272.042 358.626,270.612 357.081,270.612 
		357.081,258.26 355.428,258.874 350.578,258.874 350.578,260.608 347.172,260.608 347.172,257.544 344.077,257.544 
		342.529,258.364 336.236,258.364 336.236,257.342 335.098,257.342 335.098,260.299 330.662,260.299 330.662,262.447 
		323.645,262.447 323.645,259.689 319.415,259.689 319.415,255.708 313.326,255.708 313.326,263.672 314.049,263.672 
		314.049,265.405 312.914,265.405 312.914,268.264 304.864,268.264 304.864,288.477 299.294,289.601 299.294,290.112 
		297.125,290.112 297.125,291.541 295.786,291.541 295.786,293.788 292.69,293.788 292.69,299.093 291.97,299.093 291.97,293.582 
		290.007,293.685 290.007,290.214 288.974,289.804 288.974,288.783 288.044,288.783 288.044,290.826 265.757,290.826 
		261.32,289.804 259.464,286.947 260.804,286.947 260.804,283.58 259.464,283.58 259.464,269.286 244.397,269.286 244.397,270.818 
		243.366,270.818 243.366,269.489 237.586,269.489 233.975,268.774 233.975,265.203 221.695,265.203 221.695,267.55 220.045,267.55 
		220.045,269.184 218.29,269.184 218.29,267.958 217.258,267.958 217.258,269.489 212.821,269.489 212.821,267.753 210.138,267.753 
		210.138,268.264 204.67,268.264 204.67,266.427 202.503,266.427 202.503,267.655 200.232,267.655 200.232,283.373 199.304,283.373 
		199.304,284.497 196.311,284.497 196.311,285.416 194.041,285.416 194.041,286.232 187.128,286.232 187.128,284.292 
		181.865,284.292 181.865,282.761 181.039,282.761 181.039,277.961 165.045,277.961 165.045,276.226 164.426,276.226 
		164.426,270.409 158.752,270.409 158.752,269.489 155.861,269.489 155.861,267.958 154.417,267.958 154.417,263.059 
		128.929,263.059 119.642,255.708 119.642,242.334 116.134,242.334 116.134,241.109 114.896,241.109 114.896,242.334 111.8,242.334 
		111.8,242.948 109.221,242.948 109.221,244.375 101.997,244.375 101.997,278.882 98.18,278.882 98.18,279.494 99.624,280.209 
		90.646,280.209 90.646,281.943 89.923,281.943 89.923,284.394 86.622,284.087 80.018,286.947 80.018,289.294 79.296,289.294 
		79.296,276.125 74.24,276.125 74.24,274.594 73.001,274.594 73.001,271.428 71.453,271.428 71.453,244.375 68.874,244.375 
		68.874,245.807 66.5,245.807 66.5,243.969 65.263,243.969 65.263,244.682 64.644,244.682 64.644,243.661 62.889,243.661 
		62.889,241.774 58.297,241.774 57.419,240.905 57.419,237.536 56.905,237.536 56.905,252.135 55.975,252.135 55.975,253.667 
		55.047,253.667 55.047,259.383 54.428,259.383 54.428,253.564 46.689,253.564 46.689,259.383 45.76,259.383 45.76,233.045 
		43.077,233.045 43.077,261.323 42.25,261.323 42.25,233.352 39.672,235.598 38.95,236.822 38.331,235.291 37.505,235.291 
		36.267,234.577 33.893,234.473 33.274,234.985 31.726,234.78 30.901,233.861 30.901,241.416 28.115,241.416 28.115,242.029 
		25.019,242.029 25.019,240.702 22.646,240.702 22.646,234.168 18.93,234.067 16.351,234.067 14.906,233.76 13.462,233.861 
		13.462,238.047 10.469,238.047 10.469,248.765 9.645,248.765 9.645,237.946 7.271,237.946 7.271,232.943 6.135,233.555 
		2.421,233.453 0,232.84 0,217.454 436.956,217.454 517.377,217.454 760.045,217.454 760.045,232.84 	"/>
</g>
<g id="city">
	<polygon fill="#898A89" points="757.624,199.284 753.911,199.181 752.774,199.793 752.774,194.791 750.401,194.791 
		750.401,183.971 749.577,183.971 749.577,194.689 746.583,194.689 746.583,198.875 745.139,198.976 743.694,198.669 
		741.116,198.669 737.399,198.568 737.399,192.035 735.026,192.035 735.026,190.708 731.93,190.708 731.93,191.321 729.145,191.321 
		729.145,198.875 728.319,197.957 726.772,197.751 726.153,198.263 723.778,198.16 722.54,197.446 721.715,197.446 721.096,195.915 
		720.374,197.138 717.795,199.384 717.795,171.414 716.969,171.414 716.969,199.691 714.286,199.691 714.286,173.353 
		713.356,173.353 713.356,179.172 705.618,179.172 705.618,173.353 704.999,173.353 704.999,179.07 704.071,179.07 704.071,180.601 
		703.139,180.601 703.139,195.201 702.625,195.201 702.625,191.832 701.749,190.962 697.157,190.962 697.157,189.076 
		695.401,189.076 695.401,188.054 694.782,188.054 694.782,188.767 693.545,188.767 693.545,186.929 691.17,186.929 691.17,188.361 
		688.592,188.361 688.592,161.308 687.043,161.308 687.043,158.142 685.805,158.142 685.805,156.611 680.749,156.611 
		680.749,143.442 680.028,143.442 680.028,145.79 673.422,148.649 670.122,148.342 670.122,150.793 669.399,150.793 
		669.399,152.527 660.42,152.527 661.866,153.243 661.866,153.854 658.047,153.854 658.047,188.361 650.825,188.361 
		650.825,189.789 648.245,189.789 648.245,190.402 645.149,190.402 645.149,191.627 643.911,191.627 643.911,190.402 
		640.403,190.402 640.403,177.029 631.116,169.677 605.627,169.677 605.627,164.779 604.184,164.779 604.184,163.248 
		601.293,163.248 601.293,162.328 595.619,162.328 595.619,156.51 595,156.51 595,154.775 579.006,154.775 579.006,149.975 
		578.18,149.975 578.18,148.445 572.917,148.445 572.917,146.504 566.004,146.504 566.004,147.321 563.735,147.321 563.735,148.24 
		560.741,148.24 560.741,149.364 559.813,149.364 559.813,165.082 557.542,165.082 557.542,166.309 555.375,166.309 
		555.375,164.472 549.907,164.472 549.907,164.983 547.223,164.983 547.223,163.248 542.788,163.248 542.788,164.779 
		541.755,164.779 541.755,163.552 540,163.552 540,165.186 538.35,165.186 538.35,167.534 526.071,167.534 526.071,163.962 
		522.458,163.248 516.679,163.248 516.679,161.918 515.648,161.918 515.648,163.451 500.581,163.451 500.581,149.157 
		499.241,149.157 499.241,145.79 500.581,145.79 498.725,142.932 494.288,141.911 472,141.911 472,143.954 471.071,143.954 
		471.071,142.932 470.038,142.522 470.038,139.051 468.075,139.155 468.075,133.643 467.354,133.643 467.354,138.949 
		464.258,138.949 464.258,141.196 462.919,141.196 462.919,142.625 460.75,142.625 460.75,143.135 455.181,144.259 455.181,164.472 
		449.02,164.472 449.02,135.684 450.051,135.684 450.051,134.867 440.147,132.212 437.772,132.212 437.772,130.887 439.012,130.887 
		439.012,130.271 431.993,128.025 428.899,128.025 421.26,131.089 422.395,131.089 422.395,131.906 415.069,134.152 
		415.069,135.071 417.133,135.071 417.133,136.296 416,136.296 416,185.603 415.278,185.603 415.278,188.973 413.959,188.973 
		413.959,186.19 412.336,184.582 412.336,166.054 411.561,165.288 411.561,155.794 410.633,155.794 410.633,153.141 
		407.331,153.141 407.331,150.077 398.766,150.077 398.766,154.365 397.737,154.365 397.737,152.527 394.846,152.527 
		394.846,149.363 385.764,149.363 385.764,153.242 383.083,153.242 383.083,155.999 377.82,155.999 377.82,158.449 370.595,158.449 
		369.152,160.388 367.708,160.388 367.708,162.125 360.588,162.125 360.588,160.694 358.626,160.694 358.626,162.125 
		357.081,162.125 357.081,174.476 355.428,173.863 350.578,173.863 350.578,172.128 347.172,172.128 347.172,175.192 
		344.077,175.192 342.529,174.373 336.236,174.373 336.236,175.394 335.098,175.394 335.098,172.437 330.662,172.437 
		330.662,170.29 323.645,170.29 323.645,173.047 319.415,173.047 319.415,177.029 313.326,177.029 313.326,169.064 314.049,169.064 
		314.049,167.332 312.914,167.332 312.914,164.472 304.864,164.472 304.864,144.259 299.294,143.136 299.294,142.625 
		297.125,142.625 297.125,141.195 295.786,141.195 295.786,138.949 292.69,138.949 292.69,133.643 291.97,133.643 291.97,139.154 
		290.007,139.051 290.007,142.522 288.974,142.932 288.974,143.953 288.044,143.953 288.044,141.91 265.757,141.91 261.32,142.932 
		259.464,145.789 260.804,145.789 260.804,149.157 259.464,149.157 259.464,163.451 244.397,163.451 244.397,161.918 
		243.366,161.918 243.366,163.248 237.586,163.248 233.975,163.962 233.975,167.534 221.695,167.534 221.695,165.186 
		220.045,165.186 220.045,163.552 218.29,163.552 218.29,164.779 217.258,164.779 217.258,163.248 212.821,163.248 212.821,164.983 
		210.138,164.983 210.138,164.472 204.67,164.472 204.67,166.309 202.503,166.309 202.503,165.082 200.232,165.082 200.232,149.363 
		199.304,149.363 199.304,148.24 196.311,148.24 196.311,147.321 194.041,147.321 194.041,146.504 187.128,146.504 187.128,148.445 
		181.865,148.445 181.865,149.976 181.039,149.976 181.039,154.775 165.045,154.775 165.045,156.51 164.426,156.51 164.426,162.328 
		158.752,162.328 158.752,163.248 155.861,163.248 155.861,164.779 154.417,164.779 154.417,169.677 128.929,169.677 
		119.642,177.029 119.642,190.402 116.134,190.402 116.134,191.627 114.896,191.627 114.896,190.402 111.8,190.402 111.8,189.789 
		109.221,189.789 109.221,188.361 101.997,188.361 101.997,153.854 98.18,153.854 98.18,153.242 99.624,152.527 90.646,152.527 
		90.646,150.793 89.923,150.793 89.923,148.342 86.622,148.649 80.018,145.789 80.018,143.442 79.296,143.442 79.296,156.611 
		74.24,156.611 74.24,158.142 73.001,158.142 73.001,161.308 71.453,161.308 71.453,188.361 68.874,188.361 68.874,186.929 
		66.5,186.929 66.5,188.767 65.263,188.767 65.263,188.054 64.644,188.054 64.644,189.076 62.889,189.076 62.889,190.962 
		58.297,190.962 57.419,191.832 57.419,195.201 56.905,195.201 56.905,180.601 55.975,180.601 55.975,179.07 55.047,179.07 
		55.047,173.353 54.428,173.353 54.428,179.172 46.689,179.172 46.689,173.353 45.76,173.353 45.76,199.691 43.077,199.691 
		43.077,171.414 42.25,171.414 42.25,199.384 39.672,197.138 38.95,195.915 38.331,197.446 37.505,197.446 36.267,198.16 
		33.893,198.263 33.274,197.751 31.726,197.957 30.901,198.875 30.901,191.321 28.115,191.321 28.115,190.708 25.019,190.708 
		25.019,192.035 22.646,192.035 22.646,198.568 18.93,198.669 16.351,198.669 14.906,198.976 13.462,198.875 13.462,194.689 
		10.469,194.689 10.469,183.971 9.645,183.971 9.645,194.791 7.271,194.791 7.271,199.793 6.135,199.181 2.421,199.284 0,199.896 
		0,215.283 436.956,215.283 517.377,215.283 760.045,215.283 760.045,199.896 	"/>
</g>
<g id="Layer_5">
	<g>
		<path fill="#1B2755" d="M316.139,0h97.292l26.534,99.427c4.881,21.35,5.795,26.229,8.846,45.749
			c3.965-26.534,5.184-32.024,10.064-52.764L483.274,0h97.599v215.325h-64.964V90.888c0.305-15.86,0.61-19.825,1.83-38.124
			c-3.66,16.165-4.27,19.214-8.54,34.769l-35.685,127.792h-50.628L389.642,94.243c-4.575-17.385-4.88-17.689-10.065-40.259
			c0.915,13.42,1.22,16.775,1.22,28.975v132.367h-64.659V0z"/>
	</g>
</g>
<g id="Layer_10">
	<linearGradient id="SVGID_1_" gradientUnits="userSpaceOnUse" x1="465.4341" y1="210.4546" x2="465.4341" y2="4.2051">
		<stop  offset="0" style="stop-color:#1B2755"/>
		<stop  offset="0.5051" style="stop-color:#1B2755"/>
		<stop  offset="1" style="stop-color:#0080C4"/>
	</linearGradient>
	<polygon fill="url(#SVGID_1_)" points="525.684,4.205 521.184,4.205 487.184,4.205 448.78,155.429 448.949,155.541 448.84,155.662 
		409.184,4.205 354.684,4.205 374.684,51.205 383.184,51.455 415.184,172.455 415.26,172.433 425.684,210.455 470.184,210.455 
		479.898,175.931 479.934,175.955 514.934,49.205 521.184,49.572 521.184,210.455 576.184,210.455 576.184,4.205 	"/>
</g>
<g id="H">
	<g>
		<path fill="#F26523" d="M179.11,0h68.013v78.383h64.963V0h68.623v215.325h-68.623v-82.958h-64.963v82.958H179.11V0z"/>
	</g>
</g>
<g id="Layer_9">
	<linearGradient id="SVGID_2_" gradientUnits="userSpaceOnUse" x1="280.1841" y1="210.7046" x2="280.1841" y2="3.9551">
		<stop  offset="0" style="stop-color:#F26523"/>
		<stop  offset="0.4541" style="stop-color:#F26523"/>
		<stop  offset="1" style="stop-color:#F3B052"/>
	</linearGradient>
	<polygon fill="url(#SVGID_2_)" points="316.434,3.955 316.434,81.705 243.184,81.705 243.184,3.955 183.934,3.955 183.934,210.705 
		243.184,210.705 243.184,127.705 316.434,127.705 316.434,210.705 376.434,210.705 376.434,3.955 	"/>
</g>
<g id="M_city_overlap">
	<polygon fill="#07162F" points="411.561,155.794 410.633,155.794 410.633,153.141 407.331,153.141 407.331,150.077 
		404.972,150.077 412.336,176.9 412.336,166.054 411.561,165.288 	"/>
	<polygon fill="#07162F" points="580.873,215.283 580.873,154.775 579.006,154.775 579.006,149.975 578.18,149.975 578.18,148.445 
		572.917,148.445 572.917,146.504 566.004,146.504 566.004,147.321 563.735,147.321 563.735,148.24 560.741,148.24 560.741,149.364 
		559.813,149.364 559.813,165.082 557.542,165.082 557.542,166.309 555.375,166.309 555.375,164.472 549.907,164.472 
		549.907,164.983 547.223,164.983 547.223,163.248 542.788,163.248 542.788,164.779 541.755,164.779 541.755,163.552 540,163.552 
		540,165.186 538.35,165.186 538.35,167.534 526.071,167.534 526.071,163.962 522.458,163.248 516.679,163.248 516.679,161.918 
		515.909,161.918 515.909,215.283 517.377,215.283 	"/>
	<path fill="#07162F" d="M473.526,215.283l20.488-73.372H472v2.043h-0.93v-1.021l-1.033-0.41v-3.471l-1.963,0.104v-5.512h-0.721
		v5.306h-3.096v2.247h-1.339v1.429h-2.169v0.511l-5.569,1.124v20.213h-6.161v-20.69c-0.069,0.463-0.138,0.917-0.209,1.394
		c-0.673-4.308-1.242-7.901-1.773-11.117l-6.891-1.847h-2.375v-1.326h1.24v-0.615l-7.02-2.246h-3.094l-7.639,3.064h1.135v0.817
		l-7.326,2.246v0.918h2.064v1.226H416v49.307h-0.723v2.011l7.597,27.669h14.081H473.526z"/>
</g>
<g id="H_city_overlap">
	<g>
		<polygon fill="#82371B" points="179.11,215.283 247.123,215.283 247.123,163.451 244.397,163.451 244.397,161.918 
			243.366,161.918 243.366,163.248 237.586,163.248 233.975,163.962 233.975,167.534 221.695,167.534 221.695,165.186 
			220.045,165.186 220.045,163.552 218.29,163.552 218.29,164.779 217.258,164.779 217.258,163.248 212.821,163.248 
			212.821,164.983 210.138,164.983 210.138,164.472 204.67,164.472 204.67,166.309 202.503,166.309 202.503,165.082 
			200.232,165.082 200.232,149.363 199.304,149.363 199.304,148.24 196.311,148.24 196.311,147.321 194.041,147.321 
			194.041,146.504 187.128,146.504 187.128,148.445 181.865,148.445 181.865,149.976 181.039,149.976 181.039,154.775 
			179.11,154.775 		"/>
		<polygon fill="#82371B" points="380.709,155.999 377.82,155.999 377.82,158.449 370.595,158.449 369.152,160.388 367.708,160.388 
			367.708,162.125 360.588,162.125 360.588,160.694 358.626,160.694 358.626,162.125 357.081,162.125 357.081,174.476 
			355.428,173.863 350.578,173.863 350.578,172.128 347.172,172.128 347.172,175.192 344.077,175.192 342.529,174.373 
			336.236,174.373 336.236,175.394 335.098,175.394 335.098,172.437 330.662,172.437 330.662,170.29 323.645,170.29 
			323.645,173.047 319.415,173.047 319.415,177.029 313.326,177.029 313.326,169.064 314.049,169.064 314.049,167.332 
			312.914,167.332 312.914,164.472 312.086,164.472 312.086,215.283 380.709,215.283 		"/>
	</g>
</g>
<g id="HEARTLAND">
	<g>
		<path fill="#F26523" d="M21.773,281.635h-4.808v-26.717H5.083v26.717H0.276v-51.784h4.808v20.672h11.882v-20.672h4.808V281.635z"
			/>
		<path fill="#F26523" d="M46.29,234.247H34.82v18.269h11.126v4.396H34.82v20.329h11.47v4.396H30.013v-51.784H46.29V234.247z"/>
		<path fill="#F26523" d="M74.173,281.635h-5.151l-1.923-10.646H56.11l-1.854,10.646h-5.151l10.165-51.784h4.533L74.173,281.635z
			 M66.344,266.8l-3.434-19.849c-0.618-3.502-0.893-7.073-1.305-10.576H61.33c-0.481,3.503-0.824,7.074-1.374,10.576L56.935,266.8
			H66.344z"/>
		<path fill="#F26523" d="M78.292,281.635v-51.784h5.151c7.211,0,14.148,0.549,14.148,13.187c0,6.593-1.442,13.049-9.752,13.323
			l11.469,25.274h-5.082l-10.989-25.343H83.1v25.343H78.292z M83.1,252.377h1.717c6.73,0,7.83-2.335,7.83-9.134
			c0-8.173-2.473-8.997-8.585-8.997H83.1V252.377z"/>
		<path fill="#F26523" d="M119.992,234.247h-7.761v47.389h-4.808v-47.389h-7.761v-4.396h20.33V234.247z"/>
		<path fill="#F26523" d="M129.399,277.24h11.264v4.396h-16.071v-51.784h4.808V277.24z"/>
		<path fill="#F26523" d="M165.729,281.635h-5.151l-1.923-10.646h-10.989l-1.854,10.646h-5.151l10.165-51.784h4.533L165.729,281.635
			z M157.9,266.8l-3.434-19.849c-0.618-3.502-0.893-7.073-1.305-10.576h-0.274c-0.481,3.503-0.824,7.074-1.374,10.576l-3.022,19.849
			H157.9z"/>
		<path fill="#F26523" d="M191.414,281.635h-4.189l-11.675-34.82c-0.755-2.13-1.167-4.465-1.786-6.662h-0.275
			c0.206,3.365,0.549,6.662,0.549,10.027v31.455h-4.189v-51.784h4.189l11.882,35.988c0.618,1.785,1.099,3.571,1.58,5.356h0.206
			c-0.137-2.267-0.481-4.602-0.481-6.868v-34.477h4.189V281.635z"/>
		<path fill="#F26523" d="M199.722,229.851h5.22c9.89,0,16.346,1.236,16.346,25.892c0,20.261-3.296,25.893-16.002,25.893h-5.563
			V229.851z M204.53,277.24h1.374c9.272,0,10.439-6.524,10.439-21.497c0-17.788-1.854-21.496-10.989-21.496h-0.824V277.24z"/>
		<path fill="#1B2755" d="M275.198,281.635h-4.739l-3.64-38.186c-0.138-1.648-0.206-3.229-0.275-4.877h-0.275
			c-0.412,3.435-0.549,6.8-1.167,10.233l-5.632,32.829h-3.915l-5.7-38.186c-0.275-1.648-0.412-3.229-0.618-4.877h-0.206
			c-0.138,3.365-0.069,6.868-0.481,10.165l-4.121,32.897h-4.67l7.28-51.784h4.121l5.838,38.598c0.274,1.717,0.412,3.434,0.618,5.151
			h0.206c0.343-2.954,0.549-5.976,1.03-8.929l5.906-34.82h4.121L275.198,281.635z"/>
		<path fill="#1B2755" d="M297.174,234.247h-11.47v18.269h11.126v4.396h-11.126v20.329h11.47v4.396h-16.277v-51.784h16.277V234.247z
			"/>
		<path fill="#1B2755" d="M304.109,281.635v-51.784h5.151c7.211,0,14.148,0.549,14.148,13.187c0,6.593-1.442,13.049-9.752,13.323
			l11.469,25.274h-5.082l-10.989-25.343h-0.138v25.343H304.109z M308.917,252.377h1.717c6.73,0,7.83-2.335,7.83-9.134
			c0-8.173-2.473-8.997-8.585-8.997h-0.961V252.377z"/>
		<path fill="#1B2755" d="M349.299,280.193c-1.786,1.236-4.327,2.129-6.593,2.129c-12.156,0-13.942-15.865-13.942-24.725
			c0-8.379,0.275-28.434,14.423-28.434c1.923,0,4.533,0.481,6.112,1.648v5.288c-1.923-1.305-3.64-2.266-6.044-2.266
			c-8.379,0-9.546,12.156-9.546,21.771c0,6.044,0,22.046,9.203,22.046c2.335,0,4.533-1.03,6.387-2.335V280.193z"/>
		<path fill="#1B2755" d="M376.976,281.635h-4.808v-26.717h-11.882v26.717h-4.808v-51.784h4.808v20.672h11.882v-20.672h4.808
			V281.635z"/>
		<path fill="#1B2755" d="M406.164,281.635h-5.151l-1.923-10.646H388.1l-1.854,10.646h-5.151l10.165-51.784h4.532L406.164,281.635z
			 M398.333,266.8l-3.434-19.849c-0.618-3.502-0.893-7.073-1.305-10.576h-0.275c-0.48,3.503-0.824,7.074-1.373,10.576l-3.022,19.849
			H398.333z"/>
		<path fill="#1B2755" d="M431.847,281.635h-4.189l-11.676-34.82c-0.756-2.13-1.168-4.465-1.786-6.662h-0.274
			c0.206,3.365,0.55,6.662,0.55,10.027v31.455h-4.189v-51.784h4.189l11.881,35.988c0.618,1.785,1.1,3.571,1.58,5.356h0.206
			c-0.138-2.267-0.48-4.602-0.48-6.868v-34.477h4.189V281.635z"/>
		<path fill="#1B2755" d="M456.915,234.247h-7.761v47.389h-4.808v-47.389h-7.761v-4.396h20.329V234.247z"/>
		<path fill="#1B2755" d="M479.508,238.024c-2.061-2.336-4.327-4.189-7.624-4.189c-4.808,0-7.486,3.983-7.486,8.379
			c0,6.044,4.396,8.859,8.86,11.881c4.396,3.091,8.791,6.388,8.791,13.53c0,7.555-4.876,14.697-12.98,14.697
			c-2.885,0-5.838-0.824-8.173-2.609v-6.25c2.197,2.335,5.082,4.189,8.379,4.189c5.082,0,7.898-4.464,7.829-9.135
			c0.069-6.044-4.396-8.722-8.791-11.812c-4.396-3.022-8.859-6.388-8.859-13.805c0-6.937,4.258-13.736,11.882-13.736
			c3.09,0,5.7,1.03,8.173,2.747V238.024z"/>
		<path fill="#1B2755" d="M523.46,281.635h-5.151l-1.923-10.646h-10.989l-1.854,10.646h-5.151l10.165-51.784h4.532L523.46,281.635z
			 M515.63,266.8l-3.434-19.849c-0.618-3.502-0.893-7.073-1.305-10.576h-0.275c-0.48,3.503-0.824,7.074-1.373,10.576l-3.022,19.849
			H515.63z"/>
		<path fill="#1B2755" d="M545.574,238.024c-2.061-2.336-4.327-4.189-7.624-4.189c-4.808,0-7.486,3.983-7.486,8.379
			c0,6.044,4.396,8.859,8.86,11.881c4.396,3.091,8.791,6.388,8.791,13.53c0,7.555-4.877,14.697-12.98,14.697
			c-2.885,0-5.838-0.824-8.173-2.609v-6.25c2.197,2.335,5.082,4.189,8.379,4.189c5.082,0,7.897-4.464,7.829-9.135
			c0.068-6.044-4.396-8.722-8.791-11.812c-4.396-3.022-8.859-6.388-8.859-13.805c0-6.937,4.258-13.736,11.882-13.736
			c3.09,0,5.7,1.03,8.173,2.747V238.024z"/>
		<path fill="#1B2755" d="M572.289,238.024c-2.061-2.336-4.327-4.189-7.624-4.189c-4.808,0-7.486,3.983-7.486,8.379
			c0,6.044,4.396,8.859,8.86,11.881c4.396,3.091,8.791,6.388,8.791,13.53c0,7.555-4.877,14.697-12.98,14.697
			c-2.885,0-5.838-0.824-8.173-2.609v-6.25c2.197,2.335,5.082,4.189,8.379,4.189c5.082,0,7.897-4.464,7.829-9.135
			c0.068-6.044-4.396-8.722-8.791-11.812c-4.396-3.022-8.859-6.388-8.859-13.805c0-6.937,4.258-13.736,11.882-13.736
			c3.09,0,5.7,1.03,8.173,2.747V238.024z"/>
		<path fill="#1B2755" d="M604.91,255.743c0,9.685-0.687,26.579-12.706,26.579c-11.332,0-12.706-14.491-12.706-26.579
			c0-13.117,1.718-26.579,12.706-26.579C603.879,229.164,604.91,244.342,604.91,255.743z M584.443,255.743
			c0,9.135,0.344,21.909,7.761,21.909c7.418,0,7.761-12.774,7.761-21.909c0-9.134-0.343-21.908-7.761-21.908
			C584.787,233.491,584.443,246.609,584.443,255.743z"/>
		<path fill="#1B2755" d="M630.664,280.193c-1.786,1.236-4.327,2.129-6.594,2.129c-12.156,0-13.942-15.865-13.942-24.725
			c0-8.379,0.275-28.434,14.423-28.434c1.924,0,4.533,0.481,6.113,1.648v5.288c-1.924-1.305-3.641-2.266-6.044-2.266
			c-8.379,0-9.547,12.156-9.547,21.771c0,6.044,0,22.046,9.203,22.046c2.335,0,4.533-1.03,6.388-2.335V280.193z"/>
		<path fill="#1B2755" d="M641.65,281.635h-4.808v-51.784h4.808V281.635z"/>
		<path fill="#1B2755" d="M670.837,281.635h-5.151l-1.923-10.646h-10.989l-1.854,10.646h-5.151l10.165-51.784h4.532L670.837,281.635
			z M663.007,266.8l-3.434-19.849c-0.618-3.502-0.893-7.073-1.305-10.576h-0.275c-0.48,3.503-0.824,7.074-1.373,10.576
			l-3.022,19.849H663.007z"/>
		<path fill="#1B2755" d="M689.182,234.247h-7.761v47.389h-4.808v-47.389h-7.761v-4.396h20.329V234.247z"/>
		<path fill="#1B2755" d="M698.59,281.635h-4.808v-51.784h4.808V281.635z"/>
		<path fill="#1B2755" d="M730.731,255.743c0,9.685-0.687,26.579-12.706,26.579c-11.332,0-12.706-14.491-12.706-26.579
			c0-13.117,1.718-26.579,12.706-26.579C729.701,229.164,730.731,244.342,730.731,255.743z M710.264,255.743
			c0,9.135,0.344,21.909,7.761,21.909c7.418,0,7.761-12.774,7.761-21.909c0-9.134-0.343-21.908-7.761-21.908
			C710.608,233.491,710.264,246.609,710.264,255.743z"/>
		<path fill="#1B2755" d="M759.026,281.635h-4.189l-11.676-34.82c-0.756-2.13-1.168-4.465-1.786-6.662H741.1
			c0.206,3.365,0.55,6.662,0.55,10.027v31.455h-4.189v-51.784h4.189l11.881,35.988c0.618,1.785,1.1,3.571,1.58,5.356h0.206
			c-0.138-2.267-0.48-4.602-0.48-6.868v-34.477h4.189V281.635z"/>
	</g>
</g>
<g id="DISTRICT_6">
	<g>
		<path fill="#FFFFFF" d="M197.034,140.28v-3.104c0-5.882,0.735-9.722,15.4-9.722c12.05,0,15.399,1.96,15.399,9.517v3.309H197.034z
			 M225.219,137.42v-0.817c0-5.515-3.88-6.209-12.785-6.209c-10.58,0-12.786,1.103-12.786,6.536v0.49H225.219z"/>
		<path fill="#FFFFFF" d="M227.833,120.591v2.859h-30.799v-2.859H227.833z"/>
		<path fill="#FFFFFF" d="M201.895,104.987c-1.389,1.225-2.492,2.573-2.492,4.534c0,2.859,2.369,4.452,4.983,4.452
			c3.595,0,5.27-2.614,7.067-5.27c1.838-2.614,3.799-5.229,8.047-5.229c4.493,0,8.742,2.9,8.742,7.72
			c0,1.716-0.49,3.472-1.552,4.861h-3.717c1.389-1.307,2.492-3.023,2.492-4.984c0-3.022-2.655-4.697-5.433-4.656
			c-3.595-0.041-5.188,2.614-7.026,5.229c-1.797,2.614-3.799,5.269-8.21,5.269c-4.125,0-8.169-2.532-8.169-7.066
			c0-1.838,0.612-3.391,1.634-4.861H201.895z"/>
		<path fill="#FFFFFF" d="M199.648,89.833v4.616h28.185v2.859h-28.185v4.616h-2.614V89.833H199.648z"/>
		<path fill="#FFFFFF" d="M227.833,87.096h-30.799v-3.064c0-4.289,0.327-8.415,7.843-8.415c3.921,0,7.761,0.858,7.925,5.8
			l15.032-6.821v3.022l-15.073,6.536v0.082h15.073V87.096z M210.432,84.237v-1.021c0-4.003-1.389-4.657-5.433-4.657
			c-4.861,0-5.351,1.471-5.351,5.106v0.572H210.432z"/>
		<path fill="#FFFFFF" d="M227.833,68.673v2.859h-30.799v-2.859H227.833z"/>
		<path fill="#FFFFFF" d="M226.976,52.457c0.735,1.062,1.267,2.573,1.267,3.921c0,7.23-9.436,8.292-14.706,8.292
			c-4.983,0-16.911-0.164-16.911-8.578c0-1.144,0.286-2.696,0.98-3.635h3.146c-0.776,1.144-1.348,2.165-1.348,3.595
			c0,4.983,7.23,5.678,12.949,5.678c3.595,0,13.112,0,13.112-5.474c0-1.389-0.613-2.696-1.389-3.799H226.976z"/>
		<path fill="#FFFFFF" d="M199.648,38.813v4.616h28.185v2.859h-28.185v4.616h-2.614V38.813H199.648z"/>
		<path fill="#FFFFFF" d="M211.372,23.863l0.082-0.082c-0.694-0.899-1.103-1.838-1.103-3.064c0-4.493,5.678-5.514,9.109-5.514
			c4.126,0,8.783,1.062,8.783,6.086c0,5.229-4.575,6.617-8.946,6.617c-4.125,0-7.802-1.103-11.56-2.655L197.034,20.8v-2.982
			L211.372,23.863z M225.628,21.331c0-3.268-4.412-3.35-6.577-3.35c-2.369,0-6.209,0.45-6.209,3.595
			c0,3.063,4.003,3.554,6.332,3.554C221.502,25.129,225.628,24.639,225.628,21.331z"/>
	</g>
</g>
</svg>
