<?xml version="1.0" encoding="utf-8"?>
<!-- Generator: Adobe Illustrator 16.0.0, SVG Export Plug-In . SVG Version: 6.00 Build 0)  -->
<!DOCTYPE svg PUBLIC "-//W3C//DTD SVG 1.1//EN" "http://www.w3.org/Graphics/SVG/1.1/DTD/svg11.dtd">
<svg version="1.1" id="Capa_1" class="animated animate fadeIn" xmlns="http://www.w3.org/2000/svg" xmlns:xlink="http://www.w3.org/1999/xlink" x="0px" y="0px"
	 height="165.828px" viewBox="65.831 10.5 498.669 399" enable-background="new 65.831 10.5 498.669 399"
	 xml:space="preserve">
<g>
	<path fill="none" stroke="#000" stroke-width="3" stroke-miterlimit="10" d="M226.181,330.897c0,0-0.744,2.002-2.159,5.443
		c-0.881,1.649-1.858,3.764-3.291,5.978c-0.734,1.094-1.515,2.259-2.341,3.49c-0.856,1.206-1.889,2.378-2.935,3.627
		c-1.008,1.289-2.286,2.411-3.523,3.66c-1.216,1.281-2.633,2.428-4.093,3.605c-1.406,1.255-3.02,2.308-4.686,3.36
		c-1.618,1.137-3.42,2.041-5.231,3.001c-3.664,1.841-7.674,3.249-11.821,4.354c-2.091,0.479-4.221,0.873-6.353,1.24
		c-2.162,0.174-4.314,0.541-6.488,0.549c-4.34,0.12-8.699-0.062-12.889-0.864l-3.132-0.552l-3.033-0.832
		c-1.022-0.296-1.975-0.51-3.027-0.867c-0.946-0.358-1.886-0.71-2.815-1.063c-1.874-0.635-3.676-1.512-5.435-2.387
		c-1.8-0.795-3.424-1.782-4.991-2.765c-1.607-0.912-3.078-1.941-4.449-3.014c-1.403-1.028-2.756-2.012-3.915-3.137
		c-2.468-2.07-4.453-4.251-6.197-6.187c-1.711-1.96-2.983-3.856-4.137-5.316c-1.943-3.188-3.057-5.006-3.057-5.006l0.307-0.173
		c0,0,1.176,1.758,3.233,4.832c1.206,1.402,2.533,3.219,4.302,5.084c1.799,1.837,3.833,3.893,6.338,5.823
		c1.176,1.052,2.546,1.961,3.955,2.91c1.378,0.992,2.855,1.933,4.46,2.756c1.57,0.891,3.181,1.801,4.916,2.503
		c1.701,0.781,3.435,1.576,5.361,2.159c0.938,0.321,1.888,0.65,2.845,0.977c0.867,0.264,1.914,0.478,2.869,0.72l2.945,0.714
		l3.034,0.435c4.044,0.651,8.227,0.686,12.36,0.445c2.071-0.081,4.114-0.521,6.156-0.761c2.013-0.436,4.018-0.884,5.978-1.419
		c3.877-1.223,7.634-2.612,11.043-4.429c1.721-0.877,3.442-1.692,4.978-2.749c1.58-0.98,3.129-1.938,4.534-3.023
		c1.441-1.033,2.852-2.042,4.07-3.195c1.24-1.121,2.532-2.118,3.555-3.296c1.044-1.148,2.151-2.166,3.087-3.236
		c0.909-1.1,1.766-2.147,2.575-3.127c1.566-2.001,2.708-3.89,3.829-5.366c1.879-3.216,2.955-5.054,2.955-5.054L226.181,330.897z"/>
	<path fill="none" stroke="#000" stroke-width="3" stroke-miterlimit="10" d="M108.581,314.171c0,0-0.066-0.779-0.189-2.231
		c-0.108-1.457-0.401-3.578-0.26-6.332c-0.045-2.751,0.309-6.069,0.933-9.837c0.73-3.75,1.774-7.965,3.613-12.312
		c1.658-4.428,4.274-8.864,7.308-13.348c3.177-4.401,7.108-8.604,11.643-12.435c4.625-3.719,9.924-6.925,15.693-9.344
		c5.754-2.485,12.106-3.777,18.394-4.257c6.44-0.495,12.833,0.067,18.943,1.632c6.102,1.52,11.916,3.852,17.095,6.895
		c5.094,3.168,9.735,6.719,13.488,10.746c3.677,4.076,6.882,8.203,9.107,12.447c2.409,4.133,3.845,8.31,4.956,12
		c1.042,3.834,1.372,7.021,1.889,9.738c0.1,5.518,0.157,8.676,0.157,8.676H231c0,0-0.371-3.061-1.016-8.415
		c-0.352-1.316-0.739-2.777-1.165-4.365c-0.46-1.531-0.712-3.451-1.429-5.021c-1.282-3.502-3.017-7.345-5.451-11.208
		c-2.269-3.962-5.483-7.771-9.106-11.493c-3.737-3.638-8.07-7.048-12.943-9.958c-4.854-2.953-10.32-5.217-16.059-6.84
		c-5.72-1.643-11.894-2.332-17.875-2.037c-6.108,0.338-12.164,1.434-17.742,3.702c-5.584,2.207-10.759,5.183-15.315,8.692
		c-4.477,3.609-8.356,7.634-11.586,11.826c-3.071,4.283-5.762,8.553-7.507,12.846c-1.922,4.213-3.064,8.326-3.892,11.998
		c-0.717,3.694-1.159,6.972-1.19,9.672c-0.219,2.701,0.011,4.847,0.079,6.3c0.082,1.461,0.127,2.236,0.127,2.236L108.581,314.171z"
		/>
	<path fill="none" stroke="#000" stroke-width="3" stroke-miterlimit="10" d="M244.073,304.411
		c-2.139,1.678-4.987,3.908-7.835,6.139c-2.784,2.146-5.422,4.224-7.356,5.808c-0.374,0.288-0.696,0.534-1.022,0.782
		c-0.072,0.048-0.123,0.074-0.195,0.123c-2.923,1.886-5.141,3.122-6.653,3.715c-1.951,0.778-3.761,0.939-5.43,0.487
		c-2.461-0.641-2.93-8.433-1.409-23.381c0.291-3.061-0.285-4.828-1.727-5.295c-1.133-0.366-2.414,0.023-3.833,1.158
		c-1.018,0.837-3.439,4.504-7.264,11.003c-3.74,6.34-5.946,10.471-6.632,12.381c-0.617,1.761-1.094,2.461-1.42,2.11
		c-0.302-0.304-0.418-1.515-0.356-3.633c0.176-5.313,0.401-9.252,0.682-11.815c0.354-3.27,0.48-5.224,0.38-5.868
		c-0.218-1.216-1.192-2.237-2.912-3.064c-1.464-0.736-4.09,1.409-7.877,6.448c-1.227,1.655-2.749,3.832-4.553,6.533
		c-2.3,3.417-3.55,5.288-3.752,5.604c-0.905,1.306-1.54,2.08-1.9,2.332c-0.593,0.423-0.812-0.129-0.65-1.646
		c0.528-6.88,1.107-11.447,1.74-13.704c0.971-3.444,0.659-5.166-0.922-5.172c-0.908-0.007-1.6,0.801-2.08,2.42
		c-0.058,0.185-0.52,2.364-1.381,6.554c-0.467,2.151-1.066,5.12-1.79,8.867c-0.171,0.078-0.35,0.174-0.562,0.326
		c-0.501,0.362-0.995,0.805-1.484,1.316c-2.938,2.969-7.1,6.102-12.478,9.396c-2.735,1.699-5.264,2.62-7.591,2.771
		c-2.249,0.171-4.025-0.383-5.327-1.666c-0.897-0.884-0.906-2.933-0.021-6.142c0.788-2.853,1.521-4.614,2.197-5.299
		c10.262-10.432,17.588-19.29,21.985-26.562c5.31-8.778,8.429-15.477,9.358-20.097c1.017-5.104-0.474-8.281-4.464-9.537
		c-3.475-1.09-7.071,0.729-10.779,5.461c-1.906,2.382-4.155,6.153-6.75,11.301c-2.402,4.759-6.308,14.322-11.719,28.683
		c-0.949,2.531-1.789,4.828-2.543,6.945c-0.781,0.662-1.573,1.336-2.376,2.029c-1.696,1.453-3.451,2.948-5.229,4.473
		c-1.763,1.49-3.634,3.02-5.464,4.254c-1.91,1.33-3.908,2.441-5.978,3.469c-2.052,0.992-4.092,1.902-6.119,2.495
		c-2.022,0.573-4.016,0.916-5.83,0.745c-1.816-0.158-3.424-0.818-4.707-1.824c-2.546-2.06-3.876-4.877-4.644-6.764
		c-0.782-1.926-1.152-3.088-1.152-3.088s0.052,1.204,0.49,3.294c0.223,1.039,0.562,2.297,1.135,3.706
		c0.562,1.401,1.402,2.978,2.818,4.376c1.374,1.416,3.411,2.551,5.693,2.922c2.273,0.424,4.675,0.198,6.989-0.356
		c2.316-0.562,4.603-1.393,6.801-2.44c2.165-1.043,4.404-2.201,6.43-3.612c3.423-2.428,6.344-5.108,9.104-7.73
		c-0.699,2.143-1.244,3.966-1.628,5.453c-0.49,1.823-0.624,3.667-0.407,5.536c0.284,2.416,1.178,3.896,2.676,4.432
		c5.378,1.95,11.438,0.671,18.18-3.843c1.34-0.905,5.519-4.253,12.542-10.042c0.008-0.005,0.011-0.011,0.014-0.014
		c-0.497,2.587-0.888,4.578-1.151,5.868c-0.4,1.987-0.408,3.349-0.027,4.075c0.593,1.158,2.166,1.364,4.724,0.616
		c2.632-0.754,5.647-4.683,9.053-11.777c2.857-6.022,5.188-9.696,6.998-11.013c1.046-0.765,1.611-0.299,1.686,1.374
		c0.042,1.185-0.171,3.332-0.634,6.459c-0.65,4.296-1.034,6.869-1.144,7.705c-0.274,2.662-0.188,4.312,0.264,4.959
		c0.907,1.357,2.169,2.21,3.776,2.534c1.635,0.327,2.963-0.016,3.993-1.019c0.796-0.792,2.571-3.88,5.323-9.269
		c3.175-6.149,5.337-10.101,6.482-11.843c1.332-2.018,2.129-3.072,2.4-3.168c0.22-0.088,0.206,0.555-0.042,1.928
		c-1.086,5.841-1.614,10.442-1.583,13.805c0.079,6.281,1.83,9.49,5.262,9.633c5.81,0.178,11.279-2.657,16.415-8.479
		c0.299-0.281,0.583-0.557,0.919-0.877c2.144-1.992,4.945-4.679,7.598-7.309c2.562-2.564,5.124-5.128,7.044-7.055
		c1.885-1.954,3.139-3.263,3.139-3.263S246.178,302.693,244.073,304.411z M157.157,275.342c2.149-3.809,3.874-6.226,5.176-7.259
		c1.425-1.112,2.194-0.404,2.314,2.123c0.148,3.909-3.085,10.757-9.701,20.537c-3.321,4.877-6.664,9.371-10.016,13.471
		C148.505,293.158,152.585,283.534,157.157,275.342z"/>
</g>
<g>
	<path fill="none" stroke="#000" stroke-width="2" stroke-miterlimit="10" d="M512.166,151.943c0,0-0.396,1.064-1.148,2.893
		c-0.467,0.877-0.987,2-1.748,3.177c-0.391,0.581-0.804,1.201-1.245,1.854c-0.453,0.641-1.003,1.264-1.558,1.927
		c-0.535,0.685-1.216,1.282-1.871,1.945c-0.65,0.681-1.4,1.29-2.178,1.916c-0.746,0.667-1.604,1.226-2.488,1.786
		c-0.859,0.604-1.818,1.085-2.78,1.595c-1.948,0.979-4.079,1.727-6.283,2.313c-1.111,0.255-2.243,0.465-3.376,0.66
		c-1.148,0.091-2.292,0.287-3.448,0.291c-2.306,0.063-4.622-0.033-6.848-0.459l-1.667-0.293l-1.61-0.442
		c-0.542-0.158-1.051-0.271-1.607-0.462c-0.505-0.189-1.004-0.376-1.498-0.564c-0.996-0.337-1.953-0.803-2.889-1.268
		c-0.956-0.423-1.818-0.948-2.653-1.47c-0.854-0.485-1.636-1.031-2.363-1.602c-0.744-0.547-1.466-1.069-2.08-1.667
		c-1.311-1.1-2.366-2.258-3.294-3.288c-0.907-1.042-1.584-2.049-2.196-2.825c-1.033-1.694-1.627-2.66-1.627-2.66l0.163-0.092
		c0,0,0.627,0.934,1.721,2.568c0.64,0.745,1.344,1.71,2.284,2.701c0.957,0.977,2.036,2.07,3.368,3.095
		c0.626,0.559,1.354,1.042,2.102,1.547c0.733,0.527,1.517,1.027,2.371,1.464c0.835,0.474,1.689,0.957,2.612,1.331
		c0.903,0.415,1.825,0.837,2.849,1.147c0.499,0.171,1.003,0.346,1.512,0.519c0.46,0.14,1.017,0.253,1.525,0.383l1.564,0.378
		l1.612,0.232c2.149,0.346,4.372,0.364,6.568,0.236c1.101-0.043,2.187-0.276,3.271-0.404c1.069-0.231,2.135-0.47,3.177-0.754
		c2.062-0.65,4.059-1.389,5.87-2.354c0.915-0.466,1.828-0.899,2.646-1.461c0.839-0.521,1.661-1.03,2.408-1.607
		c0.768-0.549,1.516-1.085,2.163-1.697c0.659-0.595,1.348-1.126,1.891-1.752c0.554-0.61,1.144-1.151,1.641-1.72
		c0.483-0.584,0.938-1.141,1.368-1.662c0.832-1.063,1.439-2.066,2.033-2.852c0.998-1.708,1.571-2.685,1.571-2.685L512.166,151.943z"
		/>
	<path fill="none" stroke="#000" stroke-width="2" stroke-miterlimit="10" d="M449.67,143.054c0,0-0.035-0.413-0.103-1.185
		c-0.058-0.774-0.213-1.902-0.139-3.365c-0.023-1.462,0.166-3.225,0.497-5.228c0.388-1.993,0.943-4.234,1.92-6.543
		c0.881-2.353,2.271-4.71,3.885-7.094c1.688-2.338,3.776-4.572,6.186-6.608c2.457-1.977,5.274-3.68,8.341-4.966
		c3.057-1.321,6.433-2.007,9.774-2.262c3.423-0.263,6.82,0.036,10.067,0.867c3.242,0.809,6.332,2.047,9.084,3.665
		c2.709,1.683,5.175,3.57,7.169,5.71c1.955,2.167,3.658,4.359,4.839,6.615c1.282,2.196,2.045,4.416,2.635,6.377
		c0.555,2.038,0.728,3.732,1.005,5.175c0.053,2.932,0.083,4.61,0.083,4.61h-0.185c0,0-0.199-1.626-0.54-4.472
		c-0.188-0.7-0.395-1.476-0.62-2.319c-0.242-0.814-0.379-1.834-0.759-2.668c-0.681-1.861-1.603-3.904-2.896-5.957
		c-1.207-2.106-2.914-4.13-4.84-6.108c-1.987-1.933-4.289-3.745-6.879-5.292c-2.579-1.57-5.483-2.772-8.534-3.636
		c-3.041-0.873-6.321-1.238-9.499-1.082c-3.247,0.179-6.466,0.761-9.428,1.967c-2.97,1.173-5.72,2.755-8.139,4.62
		c-2.381,1.918-4.442,4.057-6.159,6.285c-1.632,2.276-3.062,4.544-3.988,6.827c-1.021,2.239-1.629,4.425-2.069,6.376
		c-0.381,1.963-0.617,3.705-0.633,5.14c-0.117,1.436,0.005,2.576,0.042,3.348c0.044,0.776,0.066,1.188,0.066,1.188L449.67,143.054z"
		/>
	<path fill="none" stroke="#000" stroke-width="2" stroke-miterlimit="10" d="M521.674,137.868
		c-1.136,0.891-2.649,2.077-4.163,3.262c-1.479,1.14-2.882,2.245-3.908,3.086c-0.199,0.153-0.371,0.284-0.545,0.416
		c-0.037,0.025-0.064,0.04-0.102,0.065c-1.556,1.002-2.733,1.659-3.536,1.974c-1.037,0.414-1.999,0.5-2.887,0.259
		c-1.308-0.341-1.557-4.481-0.748-12.425c0.154-1.627-0.153-2.566-0.917-2.814c-0.604-0.194-1.282,0.013-2.038,0.616
		c-0.541,0.444-1.826,2.394-3.859,5.847c-1.988,3.369-3.162,5.565-3.524,6.58c-0.328,0.937-0.583,1.308-0.756,1.122
		c-0.159-0.162-0.222-0.806-0.189-1.931c0.095-2.824,0.215-4.916,0.362-6.279c0.188-1.738,0.255-2.776,0.204-3.119
		c-0.117-0.646-0.636-1.189-1.548-1.628c-0.779-0.392-2.176,0.749-4.188,3.427c-0.652,0.879-1.461,2.036-2.42,3.472
		c-1.223,1.815-1.886,2.81-1.994,2.977c-0.48,0.695-0.817,1.106-1.009,1.24c-0.314,0.225-0.433-0.068-0.346-0.875
		c0.281-3.656,0.587-6.083,0.925-7.282c0.516-1.831,0.351-2.746-0.49-2.749c-0.481-0.003-0.849,0.425-1.105,1.286
		c-0.03,0.098-0.277,1.257-0.732,3.483c-0.25,1.144-0.568,2.721-0.952,4.713c-0.091,0.041-0.186,0.092-0.298,0.172
		c-0.267,0.193-0.529,0.428-0.788,0.7c-1.562,1.577-3.773,3.243-6.633,4.993c-1.453,0.903-2.798,1.394-4.034,1.473
		c-1.194,0.091-2.138-0.204-2.831-0.885c-0.476-0.47-0.48-1.559-0.012-3.264c0.418-1.515,0.809-2.452,1.169-2.816
		c5.454-5.544,9.346-10.251,11.685-14.116c2.819-4.665,4.478-8.224,4.972-10.68c0.541-2.713-0.252-4.401-2.372-5.068
		c-1.847-0.58-3.758,0.386-5.729,2.901c-1.013,1.267-2.207,3.271-3.587,6.007c-1.275,2.528-3.351,7.61-6.228,15.243
		c-0.507,1.344-0.95,2.565-1.352,3.691c-0.416,0.352-0.837,0.709-1.262,1.078c-0.904,0.772-1.835,1.566-2.78,2.376
		c-0.936,0.793-1.932,1.605-2.902,2.261c-1.018,0.706-2.077,1.298-3.178,1.844c-1.09,0.527-2.175,1.01-3.254,1.325
		c-1.074,0.305-2.133,0.487-3.096,0.396c-0.967-0.085-1.821-0.436-2.504-0.97c-1.352-1.095-2.058-2.592-2.468-3.595
		c-0.413-1.022-0.612-1.641-0.612-1.641s0.028,0.64,0.261,1.751c0.118,0.551,0.302,1.221,0.604,1.969
		c0.299,0.745,0.744,1.582,1.498,2.326c0.729,0.752,1.813,1.355,3.024,1.553c1.209,0.225,2.484,0.105,3.717-0.19
		c1.229-0.298,2.444-0.74,3.613-1.297c1.151-0.554,2.341-1.169,3.416-1.919c1.821-1.291,3.374-2.715,4.839-4.108
		c-0.372,1.139-0.661,2.107-0.867,2.897c-0.258,0.969-0.329,1.95-0.215,2.942c0.15,1.285,0.626,2.071,1.421,2.355
		c2.859,1.037,6.08,0.357,9.662-2.042c0.712-0.481,2.936-2.26,6.668-5.336c0.002-0.002,0.004-0.006,0.006-0.008
		c-0.263,1.375-0.472,2.434-0.611,3.119c-0.213,1.057-0.218,1.78-0.015,2.166c0.314,0.616,1.15,0.725,2.51,0.328
		c1.398-0.4,3.003-2.489,4.81-6.258c1.521-3.202,2.76-5.154,3.721-5.853c0.555-0.406,0.854-0.159,0.896,0.729
		c0.021,0.63-0.092,1.771-0.338,3.433c-0.346,2.284-0.549,3.651-0.607,4.095c-0.145,1.415-0.102,2.292,0.14,2.636
		c0.481,0.721,1.152,1.174,2.007,1.346c0.87,0.174,1.574-0.008,2.122-0.542c0.423-0.42,1.368-2.061,2.828-4.925
		c1.69-3.268,2.839-5.368,3.446-6.294c0.707-1.071,1.133-1.632,1.275-1.683c0.118-0.048,0.108,0.294-0.022,1.024
		c-0.576,3.104-0.858,5.55-0.842,7.337c0.041,3.338,0.973,5.043,2.796,5.119c3.087,0.095,5.997-1.412,8.726-4.507
		c0.157-0.149,0.31-0.295,0.487-0.466c1.141-1.058,2.628-2.486,4.038-3.884c1.36-1.363,2.724-2.725,3.743-3.749
		c1.003-1.038,1.669-1.734,1.669-1.734S522.793,136.955,521.674,137.868z M475.484,122.418c1.144-2.023,2.059-3.308,2.75-3.857
		c0.758-0.591,1.166-0.215,1.231,1.128c0.078,2.077-1.642,5.716-5.155,10.914c-1.766,2.592-3.543,4.979-5.323,7.158
		C470.888,131.888,473.056,126.773,475.484,122.418z"/>
</g>
<g>
	<path fill="none" stroke="#000" stroke-width="5" stroke-miterlimit="10" d="M532.198,73.58H226.927
		c-16.337,0-29.571,13.233-29.571,29.571v104.821h73.159v117.183c96.061,0.487,261.684-2.302,261.684-2.302
		c16.339,0,29.572-13.233,29.572-29.57V103.11C561.73,86.813,548.496,73.58,532.198,73.58z M499.563,265.423H451.04
		c-4.411,0-7.923-3.513-7.923-7.925c0-4.409,3.512-7.924,7.923-7.924h48.523c3.963,0,7.925,3.515,7.925,7.924
		C507.488,261.91,503.977,265.423,499.563,265.423z M504.24,207.972h-84.71c-4.411,0-7.924-3.512-7.924-7.923
		c0-4.413,3.513-7.924,7.924-7.924h84.262c4.411-0.449,8.374,3.063,8.374,7.924C512.166,204.46,508.652,207.972,504.24,207.972z"/>
	<path fill="none" stroke="#000" stroke-width="5" stroke-miterlimit="10" d="M498.096,221.232H355.955
		c-7.44,0-13.367,3.511-13.367,7.924c0,4.411,5.927,7.923,13.367,7.923h142.897c7.444,0,13.369-3.513,13.369-7.923
		C512.222,224.295,505.537,220.782,498.096,221.232z"/>
	
		<rect x="73.319" y="207.972" fill="none" stroke="#000" stroke-width="5" stroke-miterlimit="10" width="197.195" height="197.195"/>
</g>
</svg>
