<?xml version="1.0" encoding="utf-8"?>
<!-- Generator: Adobe Illustrator 16.0.0, SVG Export Plug-In . SVG Version: 6.00 Build 0)  -->
<!DOCTYPE svg PUBLIC "-//W3C//DTD SVG 1.1//EN" "http://www.w3.org/Graphics/SVG/1.1/DTD/svg11.dtd">
<svg version="1.1" id="Capa_1" class="animated animate fadeIn" xmlns="http://www.w3.org/2000/svg" xmlns:xlink="http://www.w3.org/1999/xlink" x="0px" y="0px"
	 height="165.828px" viewBox="75.5 7.5 490 463" enable-background="new 75.5 7.5 490 463" xml:space="preserve">
<g>
	<path fill="none" stroke="#000" stroke-width="5" stroke-miterlimit="10" d="M210.518,351.119
		c14.063,13.555,30.886,24.607,50.474,32.141c19.586,7.533,41.433,11.551,65.034,11.551c26.367,0,50.725-4.018,72.57-12.301
		c19.838-7.283,2.762-44.199-11.803-38.17c-16.068,6.781-35.656,10.295-58.006,10.295c-17.577,0-33.646-2.76-47.709-8.031
		c-14.063-5.277-26.366-12.811-36.411-22.602c-10.044-9.791-18.08-21.844-23.604-35.654c-5.775-14.066-8.538-30.133-8.538-47.71
		c0-16.574,2.763-32.393,8.288-46.454c5.522-14.064,13.056-26.619,23.101-36.664c9.793-10.294,21.846-18.58,35.657-24.357
		c13.811-5.774,29.379-8.788,46.454-8.788c15.822,0,30.385,2.261,43.443,6.277c12.809,4.02,23.855,10.297,33.145,18.583
		c9.291,8.286,16.574,18.331,21.846,30.382c5.275,12.056,7.785,26.116,7.785,42.188c0,9.289-1.002,18.077-3.014,26.367
		c-2.008,7.783-4.52,14.811-8.031,20.338c-3.268,5.275-7.033,9.541-11.553,12.555c-5.275,3.516-13.059,5.525-19.086,3.516
		c-7.533-2.51-6.025-13.057-5.525-19.334c0.756-8.539,3.014-16.574,4.771-24.86c2.762-13.559,5.775-26.87,8.537-40.177
		c1.508-7.281,3.264-14.814,4.768-22.097c2.01-9.291-5.021-18.33-14.812-18.33H377.25c-6.779,0-12.807,4.52-14.566,11.047
		c-0.752,3.014-1.508,5.524-1.508,5.524c-5.521-17.074-25.863-21.846-41.934-21.594c-21.092,0.25-40.427,11.047-54.488,26.366
		c-1.256,1.506-2.763,3.014-4.02,4.52c-7.281,8.789-12.805,19.083-16.572,29.882c-4.019,11.551-6.027,23.353-6.027,35.405
		c0,10.297,1.508,20.09,4.269,28.879c3.014,9.039,7.283,16.824,12.805,23.35c5.524,6.535,12.555,11.803,20.843,15.57
		c8.286,3.766,17.578,5.775,27.622,5.775c7.533,0,14.563-1.256,20.841-3.512c6.025-2.262,11.549-5.021,16.322-8.289
		c3.766-2.51,7.279-5.521,10.043-8.287c1.756,3.266,3.768,6.025,6.529,8.787c7.033,7.533,17.83,11.301,32.143,11.301
		c11.299,0,22.346-2.258,32.645-6.777c10.295-4.523,19.584-11.553,27.367-20.59c7.533-9.043,13.812-20.088,18.33-33.146
		c4.523-13.059,6.781-28.124,6.781-44.696c0-22.599-4.27-42.688-12.555-59.512c-8.287-16.825-19.586-31.138-33.646-42.438
		c-13.812-11.299-29.881-19.585-47.711-25.36c-17.574-6.035-35.904-8.796-54.738-8.796c-21.846,0-42.687,4.017-62.022,11.803
		c-19.333,8.033-36.411,19.083-50.722,32.894c-14.565,13.811-26.115,30.635-34.401,49.468
		c-8.286,18.833-12.555,39.925-12.555,62.024c0,22.345,3.767,43.44,11.55,62.274C185.408,320.734,196.457,337.309,210.518,351.119z
		 M346.365,245.654c-1.756,6.779-4.268,13.309-7.785,19.334c-3.516,5.777-7.785,10.543-13.309,14.311
		c-5.022,3.518-11.05,5.277-18.583,5.277c-4.77,0-8.536-1.006-11.299-2.766c-3.012-2.008-5.523-4.52-7.281-7.783
		c-2.009-3.518-3.265-7.283-4.02-11.051c-0.752-4.016-1.255-7.783-1.255-11.043c0-7.033,1.005-14.064,3.014-21.345
		c2.008-7.033,4.771-13.561,8.539-19.086c3.767-5.524,8.036-10.044,13.308-13.558c4.771-3.266,10.044-4.771,16.322-4.771
		c5.021,0,9.041,0.752,12.051,2.511c3.016,1.758,5.527,4.017,7.285,6.78c2.008,3.014,3.264,6.527,4.266,10.294
		c1.004,4.269,1.508,8.788,1.508,13.058C348.875,232.095,348.123,238.622,346.365,245.654z"/>
</g>
</svg>
