<?xml version="1.0" encoding="utf-8"?>
<!-- Generator: Adobe Illustrator 16.0.0, SVG Export Plug-In . SVG Version: 6.00 Build 0)  -->
<!DOCTYPE svg PUBLIC "-//W3C//DTD SVG 1.1//EN" "http://www.w3.org/Graphics/SVG/1.1/DTD/svg11.dtd">
<svg version="1.1" id="Layer_1" xmlns="http://www.w3.org/2000/svg" xmlns:xlink="http://www.w3.org/1999/xlink" x="0px" y="0px"
	 width="639.286px" height="106.002px" viewBox="0 0 639.286 106.002" enable-background="new 0 0 639.286 106.002"
	 xml:space="preserve">
<g>
	<polygon fill="#282828" points="24.106,28.344 55.564,46.51 87.022,28.344 87.022,46.98 103.966,46.98 103.966,1 103.85,1 
		55,27.015 6.149,1 5.953,1 5.953,46.98 24.106,46.98 	"/>
	<polygon fill="#282828" points="10.353,31.854 11.233,31.854 10.794,31.604 	"/>
	<polygon fill="#282828" points="87.022,56.057 87.022,73.965 55.638,55.818 24.106,73.965 24.106,56.057 5.953,56.057 
		5.953,101.435 6.149,101.435 55,75.417 103.85,101.435 103.966,101.435 103.966,56.057 	"/>
	<polygon fill="#282828" points="172.37,76.242 172.37,44.105 157.714,69.176 156.037,69.176 141.385,44.105 141.385,76.242 
		138.712,76.242 138.712,39.079 141.385,39.079 156.872,65.67 172.37,39.079 175.04,39.079 175.04,76.242 	"/>
	<rect x="184.906" y="39.126" fill="#282828" width="2.67" height="37.112"/>
	<path fill="#282828" d="M212.554,38.867c6.593,0,11.41,3.403,13.659,8.117l-2.196,1.252c-2.564-5.129-7.326-6.909-11.673-6.909
		c-9.421,0-14.708,8.375-14.708,16.231c0,8.74,6.491,16.54,14.866,16.54c4.449,0,9.684-2.203,12.249-7.276l2.253,1.095
		c-2.46,5.606-9.007,8.638-14.712,8.638c-10.157,0-17.329-9.732-17.329-19.157C194.962,48.449,201.407,38.867,212.554,38.867"/>
	<polygon fill="#282828" points="262.562,39.077 262.562,76.242 259.893,76.242 259.893,58.446 236.441,58.446 236.441,76.242 
		233.774,76.242 233.774,39.077 236.441,39.077 236.441,56.04 259.893,56.04 259.893,39.077 	"/>
	<polygon fill="#282828" points="297.182,73.835 297.182,76.242 272.422,76.242 272.422,39.079 296.712,39.079 296.712,41.486 
		275.092,41.486 275.092,56.092 293.989,56.092 293.989,58.394 275.092,58.394 275.092,73.835 	"/>
	<polygon fill="#282828" points="304.631,76.242 304.631,39.079 307.305,39.079 307.305,73.835 329.496,73.835 329.496,76.242 	"/>
	<polygon fill="#282828" points="335.584,76.242 335.584,39.079 338.258,39.079 338.258,73.835 360.449,73.835 360.449,76.242 	"/>
	<polygon fill="#282828" points="391.297,73.835 391.297,76.242 366.537,76.242 366.537,39.079 390.827,39.079 390.827,41.486 
		369.214,41.486 369.214,56.092 388.104,56.092 388.104,58.394 369.214,58.394 369.214,73.835 	"/>
	<path fill="#282828" d="M437.965,67.292c0-8.69,0.102-12.98,0.102-13.034h-0.102c-0.06,0.054-1.832,3.351-3.614,6.494l-3.558,6.435
		h-4.919l-3.562-6.333c-1.832-3.246-3.558-6.542-3.614-6.596h-0.158c0,0.054,0.108,4.344,0.108,13.034v8.951h-8.796V39.598h9.319
		l9.21,16.389h0.158l9.267-16.389h8.95v36.644h-8.792V67.292z"/>
	<path fill="#282828" d="M461.855,70.168l-2.2,6.07h-9.259l14.133-36.637h9.992l14.192,36.637h-9.424l-2.2-6.07H461.855z
		 M471.596,54.885c-1.154-3.037-1.989-5.338-2.042-5.389h-0.158c-0.053,0.051-0.891,2.3-2.042,5.334l-2.617,7.332h9.477
		L471.596,54.885z"/>
	<polygon fill="#282828" points="492.346,39.6 501.138,39.6 501.138,68.078 517.572,68.078 517.572,76.246 492.346,76.246 	"/>
	<polygon fill="#282828" points="534.863,47.766 534.863,76.242 526.07,76.242 526.07,47.766 514.871,47.766 514.871,39.6 
		546.062,39.6 546.062,47.766 	"/>
	<path fill="#282828" d="M572.883,56.717c3.558,1.045,6.648,3.979,6.648,8.849c0,5.649-4.031,10.677-13.14,10.677h-15.754V39.6
		h15.81c6.593,0,11.147,4.447,11.147,9.527c0,4.081-2.723,6.649-4.712,7.379V56.717z M564.771,54.099
		c2.403,0,3.979-1.465,3.979-3.614c0-2.037-1.519-3.61-4.034-3.61h-5.284v7.224H564.771z M565.605,68.969
		c3.039,0,4.659-1.73,4.659-4.189c0-2.618-1.778-4.189-4.659-4.189h-6.175v8.378H565.605z"/>
	<rect x="583.738" y="39.602" fill="#282828" width="8.789" height="36.644"/>
	<path fill="#282828" d="M607.614,70.168l-2.196,6.07h-9.263l14.133-36.637h9.995l14.189,36.637h-9.424l-2.2-6.07H607.614z
		 M617.354,54.885c-1.154-3.037-1.988-5.338-2.041-5.389h-0.158c-0.053,0.051-0.888,2.3-2.039,5.334l-2.617,7.332h9.474
		L617.354,54.885z"/>
</g>
</svg>
