<?xml version="1.0" encoding="utf-8"?>
<!-- Generator: Adobe Illustrator 16.0.0, SVG Export Plug-In . SVG Version: 6.00 Build 0)  -->
<!DOCTYPE svg PUBLIC "-//W3C//DTD SVG 1.1//EN" "http://www.w3.org/Graphics/SVG/1.1/DTD/svg11.dtd">
<svg version="1.1" id="Capa_1" xmlns="http://www.w3.org/2000/svg" xmlns:xlink="http://www.w3.org/1999/xlink" x="0px" y="0px"
	 width="483.009px" height="388.321px" viewBox="0 0 483.009 388.321" enable-background="new 0 0 483.009 388.321"
	 xml:space="preserve">
<g>
	<g>
		<path fill="#FFFFFF" d="M46.584,0C34.141,0,22.443,4.847,13.643,13.648C4.845,22.448,0,34.145,0,46.585
			C0,59.029,4.845,70.73,13.643,79.524l58.745,58.745l-31.13,31.13c-7.197,7.2-11.161,16.77-11.161,26.949
			c-0.001,10.179,3.966,19.746,11.161,26.943l60.381,60.382c2.299,2.298,5.418,3.593,8.668,3.592c3.167,0,6.209-1.228,8.491-3.415
			l100.878,100.882c4.781,4.78,12.532,4.788,17.321,0.015l57.642-57.438l21.085,0.028c16.065,0,27.711-2.82,36.647-8.872
			c9.377-6.345,15.28-16.221,16.675-27.611c8.541,1.001,17.904,3.344,27.033,5.626c23.675,5.915,48.157,12.032,68.172-3.595
			c12.446-9.718,18.758-25.111,18.757-45.755c0.001-19.454-8.449-30.344-15.531-36.052c-17.096-13.777-38.621-9.094-55.947-5.322
			c-0.903,0.193-1.807,0.391-2.72,0.585c0.584-2.677,0.879-5.437,0.877-8.263c0.001-8.285-2.578-16.292-7.665-23.803
			c-7.252-10.72-18.116-16.892-31.425-17.839c-7.666-0.547-14.966,0.737-22.03,1.978c-7.502,1.328-14.625,2.583-22.67,2.094
			l-41.878-41.896c2.084-2.256,3.246-5.222,3.246-8.309l0,0c0-3.255-1.293-6.371-3.589-8.67l-60.382-60.381
			c-7.198-7.195-16.769-11.159-26.949-11.159c-10.178,0-19.75,3.964-26.945,11.156l-31.131,31.134L79.525,13.64
			C70.725,4.846,59.026,0.001,46.584,0z M306.963,190.229c1.779,1.782,4.067,2.971,6.544,3.406
			c16.743,2.944,30.778,0.468,41.03-1.338c13.332-2.346,16.702-2.124,18.991,1.258c0.803,1.182,1.756,2.925,1.756,4.519
			c-0.001,4.252-7.185,7.729-9.388,8.694c-6.017,2.637-8.889,9.543-6.511,15.665c10.691,27.547,38.889,21.411,59.478,16.934
			c10.66-2.318,22.741-4.946,27.027-1.497c2.239,1.808,2.711,6.036,2.711,9.261c-0.001,9.51-1.858,15.784-5.525,18.65
			c-6.789,5.298-22.271,1.428-38.661-2.673c-15.988-3.996-34.11-8.528-51.363-6.757c-12.705,1.301-19.146,7.141-19.148,17.354v0.003
			c0,2.264,0.293,4.479,0.577,6.629c0.249,1.884,0.484,3.659,0.484,5.223c0,3.156-1.088,3.891-1.881,4.427
			c-1.992,1.347-6.619,2.957-17.323,2.956l-30.245-0.04c-3.25-0.004-6.367,1.28-8.67,3.574l-48.477,48.308l-78.702-78.708
			l32.281-32.283l45.027,39.039c0.972,0.843,2.431,0.794,3.34-0.118c0.476-0.476,0.718-1.104,0.719-1.73
			c0-0.572-0.2-1.146-0.601-1.608l-39.04-45.027l41.039-41.037l30.427,26.377c0.973,0.844,2.43,0.793,3.34-0.117
			c0.475-0.476,0.716-1.106,0.717-1.732c0-0.571-0.199-1.146-0.602-1.608l-26.378-30.425l26.304-26.305L306.963,190.229z"/>
	</g>
</g>
</svg>
