<?xml version="1.0" encoding="utf-8"?>
<?xml-stylesheet type="text/css" href="svg.css" ?>
<!-- Generator: Adobe Illustrator 16.0.0, SVG Export Plug-In . SVG Version: 6.00 Build 0)  -->
<!DOCTYPE svg PUBLIC "-//W3C//DTD SVG 1.1//EN" "http://www.w3.org/Graphics/SVG/1.1/DTD/svg11.dtd">
<svg version="1.1" id="Capa_1" class="animated animate fadeIn svg-icon" xmlns="http://www.w3.org/2000/svg" xmlns:xlink="http://www.w3.org/1999/xlink" x="0px" y="0px"
	 height="165.828px" viewBox="75.5 7.5 490 463" enable-background="new 75.5 7.5 490 463" xml:space="preserve">
<g>
	<path fill="none" stroke="#000" stroke-width="5" stroke-miterlimit="10" d="M291.783,319.176H147.261
		c-3.359,0-6.095-2.738-6.095-6.096V77.948c0-3.358,2.736-6.095,6.095-6.095h346.463c3.361,0,6.095,2.736,6.095,6.095v51.496
		c10.147,1.199,19.656,4.523,27.742,9.991V77.948c0-18.659-15.185-33.837-33.837-33.837H147.261
		c-18.653,0-33.837,15.178-33.837,33.837v235.13c0,18.66,15.185,33.838,33.837,33.838h116.129v45.359h-18.313
		c-11.487,0-20.807,9.312-20.807,20.807s9.32,20.807,20.807,20.807h58.41c-7.3-10.266-11.703-22.73-11.703-36.262L291.783,319.176
		L291.783,319.176z"/>
	<path fill="none" stroke="#000" stroke-width="5" stroke-miterlimit="10" d="M408.223,412.904v-29.969h-60.956V191.511
		c0-4.038,3.278-7.323,7.315-7.323h137.925c4.036,0,7.312,3.285,7.312,7.323v59.243h10.392c6.353,0,12.23,1.836,17.351,4.828
		v-64.071c0-19.337-15.727-35.064-35.056-35.064H354.582c-19.33,0-35.057,15.727-35.057,35.064v206.114
		c0,19.338,15.725,35.064,35.057,35.064h59.899C410.661,427.203,408.223,419.561,408.223,412.904z"/>
	<path fill="none" stroke="#000" stroke-width="5" stroke-miterlimit="10" d="M510.211,268.094h-67.282
		c-9.579,0-17.367,7.795-17.367,17.371v127.439c0,9.576,7.788,17.367,17.367,17.367h67.282c9.576,0,17.365-7.791,17.365-17.367
		V285.465C527.576,275.889,519.787,268.094,510.211,268.094z M446.368,288.9h60.4v110.162h-60.4V288.9z M476.576,421.832
		c-1.909,0-3.616-0.773-4.916-1.965c-1.479-1.34-2.427-3.225-2.427-5.371c0-4.051,3.279-7.328,7.343-7.328
		c4.037,0,7.314,3.277,7.314,7.328c0,2.146-0.948,4.029-2.41,5.371C480.179,421.061,478.472,421.832,476.576,421.832z"/>
</g>
</svg>
