<?xml version="1.0" encoding="utf-8"?>
<!-- Generator: Adobe Illustrator 16.0.0, SVG Export Plug-In . SVG Version: 6.00 Build 0)  -->
<!DOCTYPE svg PUBLIC "-//W3C//DTD SVG 1.1//EN" "http://www.w3.org/Graphics/SVG/1.1/DTD/svg11.dtd">
<svg version="1.1" id="Capa_1" xmlns="http://www.w3.org/2000/svg" xmlns:xlink="http://www.w3.org/1999/xlink" x="0px" y="0px"
	 width="5246.4px" height="5184px" viewBox="3048 0 5246.4 5184" enable-background="new 3048 0 5246.4 5184" xml:space="preserve">
<rect x="4551.601" y="2911.2" fill="#68C8D2" width="2419.199" height="1036.8"/>
<rect x="4551.601" y="4101.2" fill="#68C8D2" width="2419.199" height="1036.8"/>
<rect x="4551.601" y="1717.2" fill="#68C8D2" width="2419.199" height="1036.8"/>
<path d="M6754.311,345.6h-564.71V0H5152.8v345.6h-564.71c-165.024,0-299.29,134.266-299.29,299.29v4239.821
	c0,165.023,134.266,299.289,299.29,299.289h2166.222c165.023,0,299.289-134.266,299.289-299.289V644.89
	C7053.601,479.865,6919.335,345.6,6754.311,345.6z M4461.601,1641.6H6880.8V2678.4H4461.601V1641.6z M4461.601,2851.2H6880.8V3888
	H4461.601V2851.2z M5325.601,172.8H6016.8v172.8h-691.199V172.8z M4588.09,518.4h564.71h1036.801h564.71
	c69.812,0,126.489,56.678,126.489,126.489v823.91H4461.601V644.89C4461.601,575.078,4518.278,518.4,4588.09,518.4z M6754.311,5011.2
	H4588.09c-69.812,0-126.489-56.679-126.489-126.489V4060.8H6880.8v823.911C6880.8,4954.521,6824.122,5011.2,6754.311,5011.2z"/>
</svg>
