<?xml version="1.0" encoding="utf-8"?>
<!-- Generator: Adobe Illustrator 16.0.0, SVG Export Plug-In . SVG Version: 6.00 Build 0)  -->
<!DOCTYPE svg PUBLIC "-//W3C//DTD SVG 1.1//EN" "http://www.w3.org/Graphics/SVG/1.1/DTD/svg11.dtd">
<svg version="1.1" id="Capa_1" xmlns="http://www.w3.org/2000/svg" xmlns:xlink="http://www.w3.org/1999/xlink" x="0px" y="0px"
	 width="5182.543px" height="5184px" viewBox="4320.73 0 5182.543 5184" enable-background="new 4320.73 0 5182.543 5184"
	 xml:space="preserve">
<path fill="#D307A8" d="M8042.186,2862.68L6971.729,3928.793L5903.445,2860.509c-110.736-110.737-171.533-257.3-171.533-413.635
	c0-156.334,60.797-302.897,170.448-412.548c109.651-109.651,256.214-170.448,412.549-170.448
	c156.334,0,302.897,60.797,413.634,171.533l141.135,141.136c57.54,57.539,149.82,57.539,207.36,0l140.05-140.05
	c110.736-110.736,257.3-171.533,413.635-171.533c155.248,0,301.812,60.797,412.548,171.533
	c110.737,110.736,171.534,257.3,170.448,412.549C8213.719,2605.38,8152.922,2751.943,8042.186,2862.68z"/>
<g>
	<g>
		<path d="M8744.4,759.958C8254.77,270.328,7604.463,0,6911.815,0S5568.86,269.242,5079.23,758.873
			c-944.52,944.519-1012.916,2453.578-171.533,3476.266c-116.165,237.758-254.043,396.264-408.206,472.26
			c-94.452,46.682-147.649,148.734-132.45,252.957c16.285,105.309,96.623,186.732,201.932,203.018
			c57.54,8.685,119.422,14.113,183.476,14.113l0,0c318.097,0,652.479-109.651,931.492-301.812
			C6059.576,5077.605,6481.896,5184,6911.815,5184c692.647,0,1342.954-269.242,1832.585-758.873
			c489.631-489.63,758.873-1141.022,758.873-1832.584C9503.273,1900.98,9234.031,1249.588,8744.4,759.958z M8537.041,4217.768
			c-434.263,434.262-1011.83,673.105-1625.226,673.105c-410.377,0-813.155-109.65-1163.821-315.926
			c-22.799-13.027-48.854-20.627-73.824-20.627c-31.484,0-64.054,10.856-90.109,30.398
			c-332.211,257.301-666.592,295.298-813.155,298.555c174.79-130.278,321.354-332.21,444.032-613.395
			c22.799-52.111,13.028-112.908-24.97-156.334c-803.385-907.607-761.044-2290.731,96.623-3148.398
			c434.262-434.262,1011.83-673.105,1625.225-673.105c614.48,0,1190.963,238.844,1625.225,673.105
			C9433.791,1862.983,9433.791,3322.103,8537.041,4217.768z"/>
		<path d="M7569.723,1404.837c-234.502,0-454.89,91.194-620.995,257.3l-36.912,36.912l-36.912-36.912
			c-166.104-166.105-386.493-257.3-620.994-257.3c-233.416,0-453.804,91.194-618.823,256.214
			c-166.105,166.105-257.3,386.493-256.214,619.909c0,234.501,92.28,453.804,257.3,619.909L6807.593,4072.29
			c28.228,28.228,66.226,43.427,103.138,43.427s74.91-14.114,103.137-42.341L8188.545,2903.04
			c166.105-166.104,257.301-386.493,257.301-619.908c0-234.502-91.195-454.89-256.215-620.995
			C8023.525,1496.032,7803.138,1404.837,7569.723,1404.837z M7981.186,2695.68L6910.729,3761.793L5842.445,2693.509
			c-110.736-110.737-171.533-257.3-171.533-413.635c0-156.334,60.797-302.897,170.448-412.548
			c109.651-109.651,256.214-170.448,412.549-170.448c156.334,0,302.897,60.797,413.634,171.533l141.135,141.136
			c57.54,57.539,149.82,57.539,207.36,0l140.05-140.05c110.736-110.736,257.3-171.533,413.635-171.533
			c155.248,0,301.812,60.797,412.548,171.533c110.737,110.736,171.534,257.3,170.448,412.549
			C8152.719,2438.38,8091.922,2584.943,7981.186,2695.68z"/>
	</g>
</g>
</svg>
