<?xml version="1.0" encoding="utf-8"?>
<!-- Generator: Adobe Illustrator 16.0.0, SVG Export Plug-In . SVG Version: 6.00 Build 0)  -->
<!DOCTYPE svg PUBLIC "-//W3C//DTD SVG 1.1//EN" "http://www.w3.org/Graphics/SVG/1.1/DTD/svg11.dtd">
<svg version="1.1" id="Layer_1" xmlns="http://www.w3.org/2000/svg" xmlns:xlink="http://www.w3.org/1999/xlink" x="0px" y="0px"
	 width="4562.558px" height="5183.999px" viewBox="4630.722 0.001 4562.558 5183.999"
	 enable-background="new 4630.722 0.001 4562.558 5183.999" xml:space="preserve">
<path fill="#B6D700" d="M7380.646,3061.902c-33.994,19.121-55.238,54.176-55.238,93.482v209.271H6674.22v-209.271
	c0-39.307-21.246-74.361-55.239-93.482c-299.567-163.594-446.164-488.656-355.869-791.411c0-1.062,0-1.062,1.062-2.124
	c83.922-307.003,394.112-529.022,736.171-529.022c342.059,0,652.248,222.02,736.17,529.022c0,1.062,0,1.062,1.062,2.124
	C7826.811,2574.309,7680.215,2899.371,7380.646,3061.902z"/>
<g transform="translate(0 -540.36)">
	<g>
		<g>
			<path d="M9193.279,2639.456c0-388.799-242.205-738.295-611.883-898.701c16.998-70.111,25.494-142.348,25.494-211.396
				c0-544.957-456.786-988.997-1018.74-988.997c-280.445,0-503.527,88.17-678.807,269.823
				c-183.776-171.029-468.472-269.823-787.16-269.823c-561.954,0-1018.741,444.04-1018.741,988.997
				c0,84.983,12.748,171.029,40.367,261.324c-314.439,169.967-513.088,493.967-513.088,847.711
				c0,191.213,57.363,376.053,161.469,527.961c-105.168,157.22-161.469,340.996-161.469,524.774
				c0,342.059,192.275,663.934,496.092,840.274c-16.997,75.423-24.434,142.348-24.434,203.961
				c0,544.957,456.787,988.996,1018.741,988.996c318.688,0,603.384-98.793,787.16-269.822
				c175.279,181.651,398.361,269.822,678.807,269.822l0,0c561.954,0,1018.74-444.039,1019.803-987.934
				c0-54.177-4.248-105.168-12.746-152.971c362.242-159.345,599.133-505.652,599.133-891.267
				c0-183.776-57.363-367.554-161.469-524.773C9136.977,3015.508,9193.279,2830.668,9193.279,2639.456z M8816.164,3230.091
				c106.23,132.787,164.656,296.381,164.656,459.974c0,326.125-218.834,617.193-546.021,725.548
				c-26.558,8.498-48.865,27.619-61.612,53.114c-12.748,25.496-13.811,55.24-5.312,81.797c18.06,55.24,26.558,113.666,26.558,184.84
				c0,428.104-362.242,776.537-806.282,776.537c-262.387,0-445.102-87.107-591.697-281.508
				c-20.184-26.558-52.053-42.492-84.984-42.492c-32.931,0-64.8,15.935-83.921,41.431
				c-156.157,207.147-467.41,281.508-705.364,281.508c-445.102,0-806.281-348.433-806.281-776.537
				c0-63.738,12.747-141.285,37.18-230.519c13.811-49.928-10.623-101.98-57.363-124.289
				c-275.135-129.6-452.538-400.485-452.538-689.43c0-163.594,58.426-326.124,164.655-459.974
				c30.807-39.305,30.807-95.606-2.124-133.849c-105.167-124.289-162.531-287.882-162.531-457.849
				c0-301.692,185.901-574.702,472.722-695.804c52.052-22.308,78.609-82.858,57.363-135.973
				c-39.305-100.919-58.426-191.214-58.426-277.26c0-428.104,362.242-776.537,806.281-776.537
				c237.955,0,549.207,74.361,705.364,281.508c20.184,26.558,50.99,42.492,84.983,42.492c33.994,0,64.801-15.935,84.984-42.492
				c147.658-194.399,329.312-281.508,591.698-281.508c445.102,0,806.282,348.433,806.282,776.537
				c0,79.672-14.873,164.656-42.492,239.017c-9.561,26.558-8.498,57.364,4.249,82.858c12.748,25.496,35.056,45.68,62.675,54.178
				c335.686,109.416,561.955,403.672,561.955,732.983c0,169.967-57.363,332.498-162.531,457.849
				C8785.357,3134.485,8784.295,3190.787,8816.164,3230.091z"/>
			<path d="M7457.488,1837.423c27.62,0,55.24-10.623,75.424-31.869l211.396-218.833c41.429-41.43,39.305-108.354-2.125-149.783
				s-109.416-40.367-149.783,2.125l-211.397,218.832c-41.429,41.43-40.367,109.417,2.125,149.784
				C7404.374,1827.862,7430.932,1837.423,7457.488,1837.423z"/>
			<path d="M6288.964,1805.554c21.246,21.246,48.866,31.869,76.485,31.869l0,0c26.558,0,53.115-9.562,73.299-29.744
				c41.429-40.367,42.491-107.292,2.124-149.784l-211.396-218.832c-40.367-41.43-107.292-42.492-149.784-2.125
				c-41.43,40.367-42.491,107.292-2.124,149.783L6288.964,1805.554z"/>
			<path d="M6911.469,1829.987c58.426,0,106.229-47.803,106.229-106.229v-315.501c0-58.427-47.804-106.23-106.229-106.23
				s-106.229,47.804-106.229,106.23v315.501C6805.239,1782.184,6853.043,1829.987,6911.469,1829.987z"/>
			<path d="M7852.662,2739.311c-54.178-194.4-177.403-370.741-349.495-493.967c-169.967-122.164-380.302-190.151-591.698-190.151
				s-421.731,67.987-591.698,190.151c-172.092,124.289-295.318,299.566-349.495,493.967
				c-112.604,380.302,53.115,783.974,403.672,1004.931v578.951c0,295.318,241.141,535.397,537.521,535.397
				s537.521-240.079,537.521-535.397v-578.951C7799.547,3523.285,7965.266,3118.55,7852.662,2739.311L7852.662,2739.311z
				 M6911.469,4645.069c-139.16,0-261.324-92.42-307.003-216.708h612.944C7172.793,4553.711,7050.629,4645.069,6911.469,4645.069z
				 M7236.531,4215.901h-651.188v-111.54h651.188V4215.901z M7292.833,3589.147c-33.994,19.121-55.239,54.177-55.239,93.482v209.272
				h-651.188v-209.272c0-39.306-21.246-74.361-55.239-93.482c-299.567-163.594-446.164-488.655-355.869-791.41
				c0-1.062,0-1.062,1.062-2.124c83.922-307.003,394.112-529.022,736.171-529.022s652.249,222.02,736.17,529.022
				c0,1.062,0,1.062,1.062,2.124C7738.996,3101.554,7592.4,3426.617,7292.833,3589.147z"/>
		</g>
	</g>
</g>
</svg>
