<?xml version="1.0" encoding="utf-8"?>
<!-- Generator: Adobe Illustrator 16.0.0, SVG Export Plug-In . SVG Version: 6.00 Build 0)  -->
<!DOCTYPE svg PUBLIC "-//W3C//DTD SVG 1.1//EN" "http://www.w3.org/Graphics/SVG/1.1/DTD/svg11.dtd">
<svg version="1.1" id="Layer_1" xmlns="http://www.w3.org/2000/svg" xmlns:xlink="http://www.w3.org/1999/xlink" x="0px" y="0px"
	 width="4169.169px" height="3903.332px" viewBox="4827.417 511.709 4169.169 3903.332"
	 enable-background="new 4827.417 511.709 4169.169 3903.332" xml:space="preserve">
<g>
	<g>
		<path fill="#68C8D2" d="M8585.719,3080.623c0,599.022-485.604,1084.628-1084.627,1084.628s-1084.628-485.605-1084.628-1084.628
			s485.604-1084.63,1084.628-1084.63S8585.719,2481.601,8585.719,3080.623"/>
		<path fill="#C9DC5B" d="M6269.729,776.703c-599.024,0-1084.629,485.606-1084.629,1084.63
			c0,599.021,485.605,1084.628,1084.629,1084.628c53.124,0,105.378-3.822,156.458-11.203
			c64.364-478.803,441.111-858.609,918.446-927.562c6.413-47.711,9.723-96.396,9.723-145.862
			C7354.356,1262.31,6868.753,776.703,6269.729,776.703"/>
		<path fill="#52AD4B" d="M7344.634,2007.195c-477.335,68.954-854.083,448.759-918.446,927.562
			C6903.522,2865.805,7280.27,2485.998,7344.634,2007.195"/>
	</g>
	<g>
		<g>
			<path d="M6776.907,4015.183c-84.295-67.291-158.993-145.764-222.011-233.239c-24.671-34.244-72.428-42.017-106.681-17.332
				c-34.238,24.67-42.002,72.435-17.333,106.681c71.151,98.763,155.485,187.361,250.655,263.341
				c14.085,11.243,30.914,16.699,47.628,16.699c22.453,0,44.692-9.835,59.779-28.743
				C6815.279,4089.604,6809.883,4041.518,6776.907,4015.183z"/>
			<path d="M8098.706,2075.168c93.214,53.894,178.718,120.391,254.118,197.64c14.979,15.338,34.832,23.041,54.697,23.041
				c19.249,0,38.509-7.222,53.373-21.735c30.203-29.484,30.783-77.868,1.307-108.079c-85.152-87.23-181.697-162.317-286.986-223.196
				c-36.562-21.122-83.289-8.627-104.42,27.903C8049.672,2007.288,8062.174,2054.044,8098.706,2075.168z"/>
			<path d="M8658.166,2832.584c8.072,35.453,39.572,59.48,74.455,59.48c5.609,0,11.309-0.619,17.025-1.919
				c41.156-9.37,66.926-50.317,57.562-91.479c-27.016-118.749-70.355-233.232-128.805-340.256
				c-20.221-37.05-66.68-50.7-103.693-30.447c-37.05,20.22-50.683,66.657-30.445,103.692
				C8595.951,2626.322,8634.277,2727.569,8658.166,2832.584z"/>
			<path d="M7364.226,4262.766c-107.063-13.266-211.618-41.215-310.787-83.043c-38.914-16.399-83.714,1.821-100.122,40.712
				c-16.409,38.893,1.817,83.715,40.711,100.123c112.137,47.298,230.357,78.894,351.391,93.895c3.193,0.397,6.365,0.589,9.499,0.589
				c38.013,0,70.952-28.338,75.745-67.031C7435.865,4306.121,7406.113,4267.956,7364.226,4262.766z"/>
			<path d="M7893.569,1898.636c10.369-40.917-14.392-82.492-55.294-92.862c-82.722-20.971-167.674-33.811-253.414-38.549
				c-38.662-698.836-619.348-1255.516-1327.667-1255.516c-733.243,0-1329.777,596.535-1329.777,1329.776
				c0,709.613,558.697,1291.152,1259.322,1327.906c-2.056,7.901-2.935,16.246-2.3,24.845
				c9.002,121.773,34.658,241.416,76.249,355.602c11.303,31.034,40.603,50.294,71.815,50.294c8.682,0,17.516-1.49,26.145-4.631
				c39.657-14.453,60.1-58.304,45.663-97.96c-36.782-100.988-59.465-206.826-67.436-314.569c-0.359-4.829-1.207-9.5-2.399-14.008
				c670.429-38.61,1209.233-576.106,1249.938-1245.979l0.067,0.069c0.062-0.948,0.152-1.895,0.207-2.843
				c73.108,4.555,145.512,15.835,216.036,33.719C7841.652,1964.314,7883.198,1939.538,7893.569,1898.636z M6336.247,3015.787
				c39.076-586.081,509.174-1056.173,1095.253-1095.255C7392.418,2506.611,6922.319,2976.711,6336.247,3015.787z M6183.162,3016.154
				l-0.084-0.047c-614.594-38.342-1102.813-550.536-1102.813-1174.622c0-648.961,527.967-1176.929,1176.929-1176.929
				c624.085,0,1136.28,488.22,1174.623,1102.814l0.043,0.084C6761.156,1806.79,6222.496,2345.448,6183.162,3016.154z"/>
			<path d="M8766.102,3080.725c-42.277-2.164-77.998,30.447-80.062,72.609c-5.266,107.979-25.281,214.37-59.449,316.205
				c-13.428,40.016,8.123,83.339,48.139,96.768c8.07,2.705,16.264,3.989,24.326,3.989c31.945,0,61.721-20.184,72.441-52.129
				c38.639-115.142,61.262-235.386,67.215-357.39C8840.775,3118.631,8808.264,3082.787,8766.102,3080.725z"/>
			<path d="M8589.508,3737.543c-34.871-23.799-82.406-14.826-106.207,20.022c-60.748,88.997-133.441,169.31-216.049,238.732
				c-32.32,27.155-36.493,75.361-9.34,107.675c15.115,17.99,36.752,27.252,58.541,27.252c17.354,0,34.811-5.884,49.133-17.921
				c93.268-78.38,175.341-169.073,243.945-269.556C8633.328,3808.891,8624.357,3761.341,8589.508,3737.543z"/>
			<path d="M7994.867,4167.833c-98.15,44.386-201.988,74.97-308.646,90.921c-41.74,6.236-70.521,45.144-64.27,86.887
				c5.662,37.914,38.272,65.119,75.482,65.119c3.762,0,7.574-0.274,11.404-0.848c120.588-18.029,238.013-52.625,349.003-102.805
				c38.458-17.386,55.546-62.668,38.151-101.125C8078.6,4167.526,8033.326,4150.476,7994.867,4167.833z"/>
			<path d="M5644.09,1069.406c-236.9,188.338-372.766,469.748-372.766,772.08c0,42.202,34.222,76.425,76.424,76.425
				c42.201,0,76.423-34.216,76.423-76.425c0-255.461,114.828-493.263,315.042-652.438c33.038-26.267,38.533-74.345,12.259-107.384
				C5725.214,1048.626,5677.135,1043.132,5644.09,1069.406z"/>
			<path d="M6257.201,855.625c-92.894,0-184.862,12.915-273.354,38.402c-40.558,11.678-63.966,54.024-52.289,94.591
				c9.637,33.488,40.199,55.292,73.398,55.292c7,0,14.123-0.971,21.2-3.003c74.735-21.521,152.473-32.435,231.045-32.435
				c42.201,0,76.424-34.224,76.424-76.424C6333.625,889.847,6299.402,855.625,6257.201,855.625z"/>
		</g>
	</g>
</g>
</svg>
